<svg width="469" height="342" viewBox="0 0 469 342" fill="none" xmlns="http://www.w3.org/2000/svg">
<mask id="mask0_2003_2581" style="mask-type:luminance" maskUnits="userSpaceOnUse" x="0" y="0" width="469" height="342">
<path d="M468.2 0.263184H0.800049V341.587H468.2V0.263184Z" fill="white"/>
</mask>
<g mask="url(#mask0_2003_2581)">
<path d="M377.137 38.4907H92.3091C81.8836 38.4907 73.4314 46.9425 73.4314 57.3684V237.702C73.4314 248.128 81.8836 256.579 92.3091 256.579H377.137C387.564 256.579 396.015 248.128 396.015 237.702V57.3684C396.015 46.9425 387.564 38.4907 377.137 38.4907Z" fill="url(#paint0_linear_2003_2581)"/>
<path d="M95.0187 38.4907H374.887C380.551 38.4907 385.985 40.7409 389.988 44.7459C393.996 48.7509 396.246 54.1832 396.246 59.8471H73.6624C73.6624 54.1832 75.9121 48.7509 79.9176 44.7459C83.9226 40.7409 89.3544 38.4907 95.0187 38.4907Z" fill="#5CA4E6"/>
<path d="M243.476 73.4023H375.231C377.49 73.4023 379.662 74.3002 381.258 75.8985C382.858 77.4972 383.757 79.665 383.757 81.9256V147.054C383.757 149.314 382.858 151.482 381.258 153.081C379.662 154.679 377.49 155.577 375.231 155.577H243.476C241.216 155.577 239.048 154.679 237.45 153.081C235.852 151.482 234.954 149.314 234.954 147.054V81.9256C234.954 80.8062 235.174 79.6981 235.602 78.6637C236.031 77.6298 236.658 76.69 237.45 75.8989C238.241 75.1074 239.181 74.4795 240.215 74.0512C241.249 73.623 242.357 73.4023 243.476 73.4023Z" stroke="#5661AE" stroke-miterlimit="10" stroke-dasharray="11.93 11.93"/>
<path d="M339.866 167.623H208.111C203.404 167.623 199.588 171.439 199.588 176.146V241.275C199.588 245.982 203.404 249.798 208.111 249.798H339.866C344.573 249.798 348.389 245.982 348.389 241.275V176.146C348.389 171.439 344.573 167.623 339.866 167.623Z" fill="white"/>
<path d="M183.623 167.623H91.5572C87.5753 167.623 84.3474 170.851 84.3474 174.833V242.588C84.3474 246.57 87.5753 249.798 91.5572 249.798H183.623C187.605 249.798 190.833 246.57 190.833 242.588V174.833C190.833 170.851 187.605 167.623 183.623 167.623Z" fill="white"/>
<path d="M211.713 227.383C211.713 227.383 221.588 226.343 227.525 230.788C235.489 236.749 241.902 241.35 250.368 226.699C259.642 210.647 261.1 205.041 267.866 204.975C276.55 204.89 279.94 228.038 295.953 229.673C311.965 231.309 322.853 228.692 322.853 228.692" stroke="#5661AE" stroke-width="10" stroke-miterlimit="10" stroke-linecap="round"/>
<path d="M211.713 181.185H234.722" stroke="#5661AE" stroke-width="16" stroke-miterlimit="10" stroke-linecap="round"/>
<path d="M211.713 191.924H259.264" stroke="#D4DCF4" stroke-width="16" stroke-miterlimit="10" stroke-linecap="round"/>
<path d="M93.178 53.999C95.1935 53.999 96.8276 52.3649 96.8276 50.3498C96.8276 48.3342 95.1935 46.7002 93.178 46.7002C91.1628 46.7002 89.5288 48.3342 89.5288 50.3498C89.5288 52.3649 91.1628 53.999 93.178 53.999Z" fill="white"/>
<path d="M105.545 53.999C107.561 53.999 109.195 52.3649 109.195 50.3498C109.195 48.3342 107.561 46.7002 105.545 46.7002C103.53 46.7002 101.896 48.3342 101.896 50.3498C101.896 52.3649 103.53 53.999 105.545 53.999Z" fill="white"/>
<path d="M117.56 53.999C119.576 53.999 121.209 52.3649 121.209 50.3498C121.209 48.3342 119.576 46.7002 117.56 46.7002C115.544 46.7002 113.91 48.3342 113.91 50.3498C113.91 52.3649 115.544 53.999 117.56 53.999Z" fill="white"/>
<path d="M309.565 129.257C317.72 129.257 324.331 122.646 324.331 114.49C324.331 106.335 317.72 99.7236 309.565 99.7236C301.409 99.7236 294.798 106.335 294.798 114.49C294.798 122.646 301.409 129.257 309.565 129.257Z" fill="#5375D9"/>
<path d="M310.73 107.513C310.73 106.87 310.208 106.348 309.565 106.348C308.921 106.348 308.399 106.87 308.399 107.513V122.403C308.399 123.047 308.921 123.569 309.565 123.569C310.208 123.569 310.73 123.047 310.73 122.403V107.513Z" fill="white"/>
<path d="M317.01 116.124C317.654 116.124 318.175 115.602 318.175 114.958C318.175 114.314 317.654 113.792 317.01 113.792H302.12C301.476 113.792 300.954 114.314 300.954 114.958C300.954 115.602 301.476 116.124 302.12 116.124H317.01Z" fill="white"/>
<path d="M232.842 341.587C360.997 341.587 464.886 338.933 464.886 335.659C464.886 332.384 360.997 329.73 232.842 329.73C104.689 329.73 0.800049 332.384 0.800049 335.659C0.800049 338.933 104.689 341.587 232.842 341.587Z" fill="#F5F8FF"/>
<path d="M436.348 219.231H273.988V333.927H436.348V219.231Z" fill="#5CA4E6"/>
<path d="M338.849 219.231H273.988V333.927H338.849V219.231Z" fill="url(#paint1_linear_2003_2581)"/>
<path d="M40.5584 290.818L33.8955 333.607L31.3588 333.211C30.5027 333.078 29.7348 332.61 29.2237 331.911C28.7126 331.211 28.5002 330.337 28.6337 329.481L34.2914 293.148C34.4249 292.292 34.8928 291.524 35.5923 291.013C36.2918 290.502 37.1657 290.29 38.0217 290.423L40.5584 290.818Z" fill="#5661AE"/>
<path d="M61.3827 298.019L50.9647 294.902L47.6526 309.417L59.0505 312.995L61.3827 298.019Z" fill="#BC775C"/>
<path d="M54.2138 311.477L52.2876 310.872L57.0196 296.714L58.7787 297.24L54.2138 311.477Z" fill="#93523E"/>
<path d="M52.2855 295.108C52.2855 295.108 48.2038 302.2 50.4531 310.296L36.4304 333.221C35.2115 334.111 33.3595 333.583 32.3303 333.035C32.1053 332.914 31.9234 332.726 31.8105 332.496C31.6971 332.268 31.6579 332.009 31.6984 331.756L37.7469 292.916C37.8472 292.268 38.1983 291.685 38.7237 291.293C39.2497 290.9 39.9081 290.73 40.5583 290.818C43.1592 291.171 47.1175 291.741 48.6743 292.141C51.0806 292.758 52.3496 293.633 52.2855 295.108Z" fill="#5375D9"/>
<path d="M47.6569 315.165L45.5982 311.882C45.5227 311.762 45.4194 311.662 45.2964 311.592C45.1738 311.522 45.0356 311.482 44.8943 311.477C44.7526 311.473 44.6122 311.503 44.4853 311.566C44.3584 311.628 44.2485 311.721 44.1656 311.836C44.0644 311.977 44.0078 312.145 44.003 312.318C43.9986 312.492 44.0466 312.662 44.1403 312.808L46.7106 316.798L47.6569 315.165Z" fill="white"/>
<path d="M45.323 318.683L43.2843 315.407C43.2088 315.287 43.1055 315.187 42.983 315.117C42.86 315.046 42.7217 315.007 42.5805 315.002C42.4387 314.998 42.2983 315.028 42.1714 315.091C42.0445 315.153 41.9346 315.246 41.8522 315.36C41.7506 315.501 41.6939 315.669 41.6895 315.843C41.6847 316.016 41.7327 316.187 41.8265 316.333L44.3427 320.286L45.323 318.683Z" fill="white"/>
<path d="M42.9041 322.637L40.903 319.385C40.8279 319.265 40.7242 319.165 40.6016 319.095C40.4786 319.024 40.3404 318.985 40.1991 318.98C40.0578 318.976 39.9174 319.006 39.7901 319.069C39.6632 319.131 39.5537 319.224 39.4709 319.338C39.3692 319.479 39.3125 319.648 39.3082 319.821C39.3034 319.994 39.3514 320.165 39.4456 320.311L41.9496 324.198L42.9041 322.637Z" fill="white"/>
<path d="M155.091 328.093H198.395V330.661C198.395 331.09 198.31 331.514 198.146 331.91C197.982 332.307 197.742 332.667 197.438 332.97C197.135 333.274 196.775 333.514 196.379 333.678C195.983 333.843 195.558 333.927 195.129 333.927H158.358C157.492 333.927 156.661 333.583 156.048 332.97C155.435 332.358 155.091 331.527 155.091 330.661V328.093Z" fill="#5661AE"/>
<path d="M159.002 306.409L157.525 317.182L172.377 318.222L174.159 306.409H159.002Z" fill="#BC775C"/>
<path d="M174.005 307.43L173.625 309.951L158.374 310.996L158.862 307.43H174.005Z" fill="#93523E"/>
<path d="M157.525 315.845C157.525 315.845 165.161 318.788 172.815 315.319L197.624 325.648C198.692 326.715 198.455 328.626 198.072 329.727C197.987 329.968 197.828 330.177 197.619 330.324C197.41 330.471 197.161 330.55 196.905 330.548H157.596C156.94 330.549 156.311 330.292 155.842 329.833C155.374 329.373 155.104 328.749 155.091 328.093C155.04 325.469 154.994 321.47 155.149 319.87C155.389 317.397 156.059 316.009 157.525 315.845Z" fill="#5375D9"/>
<path d="M178.056 317.333L175.128 319.873C175.021 319.965 174.939 320.083 174.888 320.215C174.837 320.347 174.82 320.49 174.837 320.63C174.854 320.771 174.906 320.905 174.987 321.021C175.068 321.137 175.177 321.231 175.303 321.295C175.458 321.373 175.633 321.403 175.805 321.381C175.977 321.359 176.138 321.286 176.268 321.17L179.815 318.017L178.056 317.333Z" fill="white"/>
<path d="M181.891 319.098L178.968 321.617C178.861 321.709 178.778 321.827 178.728 321.959C178.676 322.091 178.659 322.234 178.676 322.374C178.693 322.515 178.745 322.649 178.826 322.765C178.908 322.881 179.016 322.975 179.143 323.039C179.297 323.118 179.472 323.148 179.644 323.125C179.816 323.103 179.978 323.03 180.107 322.914L183.626 319.82L181.891 319.098Z" fill="white"/>
<path d="M186.171 320.879L183.264 323.358C183.158 323.45 183.075 323.568 183.025 323.7C182.974 323.832 182.956 323.975 182.974 324.115C182.991 324.256 183.042 324.39 183.124 324.506C183.205 324.621 183.313 324.716 183.439 324.78C183.594 324.858 183.769 324.888 183.941 324.866C184.113 324.844 184.274 324.771 184.404 324.655L187.86 321.583L186.171 320.879Z" fill="white"/>
<path d="M133.496 165.215L142.471 147.545C142.471 147.545 137.007 148.259 136.055 144.868C135.103 141.476 161.876 138.442 161.876 138.442C161.876 138.442 159.734 145.939 156.521 146.831L147.686 172.711L133.496 165.215Z" fill="#BC775C"/>
<path d="M134.833 162.583L148.851 169.299L147.686 172.712L134.063 164.1L134.833 162.583Z" fill="#93523E"/>
<path d="M220.306 70.6508L91.2609 91.7756C89.0469 92.1379 87.5455 94.2268 87.9083 96.4412L96.3348 147.916C96.6972 150.13 98.786 151.631 101 151.269L230.045 130.144C232.259 129.781 233.76 127.692 233.398 125.478L224.971 74.0034C224.609 71.7894 222.52 70.2879 220.306 70.6508Z" fill="#FEBB94"/>
<path d="M154.363 102.925L206.808 94.3394" stroke="white" stroke-width="16.5208" stroke-miterlimit="10" stroke-linecap="round"/>
<path opacity="0.7" d="M158.089 118.849L192.3 113.249" stroke="white" stroke-width="16.5208" stroke-miterlimit="10" stroke-linecap="round"/>
<path d="M123.014 138.048C133.258 138.048 141.562 129.743 141.562 119.5C141.562 109.256 133.258 100.951 123.014 100.951C112.77 100.951 104.466 109.256 104.466 119.5C104.466 129.743 112.77 138.048 123.014 138.048Z" stroke="#EF6A77" stroke-width="16.5208" stroke-miterlimit="10"/>
<path d="M141.319 116.503C141.911 120.124 141.417 123.838 139.899 127.178C138.38 130.517 135.905 133.331 132.787 135.264C129.669 137.197 126.048 138.162 122.382 138.037C118.715 137.912 115.169 136.703 112.19 134.562C109.21 132.421 106.933 129.445 105.646 126.01C104.358 122.575 104.118 118.835 104.956 115.263C105.794 111.692 107.672 108.449 110.353 105.945C113.034 103.441 116.397 101.788 120.018 101.195" stroke="white" stroke-width="16.5208" stroke-miterlimit="10" stroke-linecap="round"/>
<path d="M129.058 258.393L134.411 318.98C134.411 331.968 121.16 333.445 116.917 331.915C110.934 329.756 52.98 315.002 52.98 315.002L59.1218 296.191L103.602 302.373C103.602 302.373 102.385 289.751 90.4575 251.208L129.058 258.393Z" fill="#5661AE"/>
<path d="M94.4313 264.557L130.497 274.684L128.469 250.355L90.4573 251.207L94.4313 264.557Z" fill="#465393"/>
<path d="M128.534 125.651C128.534 125.651 135.676 133.759 137.8 137.04C139.923 140.322 139.999 146.758 135.559 148.398C131.12 150.039 127.488 150.315 121.006 149.105C115.963 148.163 109.424 139.839 111.355 135.592C113.285 131.346 122.261 123.625 128.534 125.651Z" fill="#BC775C"/>
<path d="M129.886 148.332L128.824 162.037L113.285 158.66L120.234 145.727L129.886 148.332Z" fill="#BC775C"/>
<path d="M129.885 149.759H125.661L129.275 156.212" fill="#93523E"/>
<path d="M111.548 157.791L113.865 155.546C114.166 155.255 114.535 155.044 114.939 154.933C115.343 154.822 115.768 154.814 116.176 154.911L128.882 157.92C129.188 157.992 129.47 158.143 129.7 158.357C129.931 158.571 130.102 158.841 130.197 159.14L131.115 162.038L111.548 157.791Z" fill="url(#paint2_linear_2003_2581)"/>
<path d="M91.4228 227.084L89.1482 238.103C86.5875 254.913 98.6396 266.033 117.059 263.002C133.509 260.296 182.237 241.404 182.237 241.404L180.295 211.503L139.331 218.262C139.331 218.262 102.51 211.44 91.4228 227.084Z" fill="#5661AE"/>
<path d="M183.347 237.651C190.665 237.651 196.598 231.719 196.598 224.4C196.598 217.081 190.665 211.148 183.347 211.148C176.028 211.148 170.095 217.081 170.095 224.4C170.095 231.719 176.028 237.651 183.347 237.651Z" fill="#5661AE"/>
<path d="M183.347 237.651C190.665 237.651 196.598 231.719 196.598 224.4C196.598 217.081 190.665 211.148 183.347 211.148C176.028 211.148 170.095 217.081 170.095 224.4C170.095 231.719 176.028 237.651 183.347 237.651Z" fill="#5661AE"/>
<path d="M121.159 332.612C128.478 332.612 134.411 326.679 134.411 319.361C134.411 312.042 128.478 306.109 121.159 306.109C113.841 306.109 107.908 312.042 107.908 319.361C107.908 326.679 113.841 332.612 121.159 332.612Z" fill="#5661AE"/>
<path d="M195.951 228.23L177.323 307.43H155.043L170.095 224.4L195.951 228.23Z" fill="#5661AE"/>
<path d="M139.331 218.263L90.2659 233.532L91.4228 227.084L139.331 218.263Z" fill="#465393"/>
<path d="M150.341 173.523L155.216 177.069L171.494 150.35C171.494 150.35 169.327 141.598 169.178 140.108L174.475 139.352C174.475 139.352 178.764 131.267 179.988 129.667C181.21 128.068 182.622 128.35 183.374 129.667C183.374 129.667 185.726 130.044 186.102 133.242C186.102 133.242 188.172 133.713 189.018 137.852C189.018 137.852 190.806 139.734 190.43 141.803C190.053 143.873 185.35 151.984 184.597 152.82C184.017 153.502 183.483 154.222 182.998 154.973L167.319 192.543C167.319 192.543 163.488 200.761 154.51 197.644L143.38 192.486C138.27 189.176 150.341 173.523 150.341 173.523Z" fill="#BC775C"/>
<path d="M158.546 198.615C163.721 198.615 167.916 194.42 167.916 189.245C167.916 184.069 163.721 179.874 158.546 179.874C153.37 179.874 149.175 184.069 149.175 189.245C149.175 194.42 153.37 198.615 158.546 198.615Z" fill="#BC775C"/>
<path d="M119.269 132.407C119.269 132.407 128.438 129.319 130.271 122.852C132.105 116.386 128.245 113.008 123.226 116.289C123.226 116.289 119.655 110.595 113.574 114.552C107.494 118.509 108.652 127.871 108.845 129.705C108.845 129.705 101.993 134.531 105.274 142.156C108.556 149.78 117.56 151.614 117.56 151.614C118.554 150.186 119.265 148.58 119.655 146.885C119.655 146.885 114.693 143.121 117.56 139.453C120.427 135.785 123.708 141.673 123.708 141.673C123.708 141.673 126.218 133.372 119.269 132.407Z" fill="#465393"/>
<path d="M111.548 157.791C111.548 157.791 105.182 160.956 103.74 164.365C102.408 167.514 93.14 208.88 90.302 225.532C90.2339 225.927 90.2645 226.333 90.3901 226.713C90.5156 227.094 90.7333 227.437 91.0228 227.714C91.3124 227.991 91.6656 228.193 92.0515 228.301C92.437 228.409 92.8435 228.421 93.2351 228.336L139.331 218.262C139.331 218.262 137.076 194.036 137.866 186.926C138.656 179.816 131.115 162.038 131.115 162.038L111.548 157.791Z" fill="url(#paint3_linear_2003_2581)"/>
<path d="M137.703 190.278L126.082 183.372L138.174 203.264L137.703 190.278Z" fill="#96BAFD"/>
<path d="M155.216 177.069L158.6 179.427L161.875 166.138L155.216 177.069Z" fill="#93523E"/>
<path d="M131.115 162.038C131.115 162.038 149.612 172.149 151.858 173.807C152.149 174.022 152.353 174.334 152.435 174.686C152.516 175.039 152.469 175.409 152.302 175.73L143.807 192.041C143.712 192.224 143.58 192.386 143.419 192.516C143.259 192.646 143.074 192.743 142.876 192.799C142.677 192.856 142.469 192.871 142.264 192.845C142.06 192.818 141.862 192.75 141.685 192.644L120.125 179.832C120.125 179.832 118.979 162.778 131.115 162.038Z" fill="url(#paint4_linear_2003_2581)"/>
<path d="M128.756 137.813C129.199 137.482 129.149 136.665 128.644 135.989C128.138 135.312 127.369 135.032 126.926 135.363C126.483 135.694 126.533 136.511 127.038 137.187C127.543 137.864 128.312 138.144 128.756 137.813Z" fill="#080B09"/>
<path d="M134.834 133.214C135.277 132.883 135.227 132.066 134.722 131.389C134.216 130.713 133.447 130.433 133.004 130.764C132.561 131.095 132.611 131.911 133.116 132.588C133.621 133.264 134.39 133.544 134.834 133.214Z" fill="#080B09"/>
<path d="M132.373 134.474C132.373 134.474 132.268 136.474 133.494 135.948C134.647 135.404 135.633 135.778 134.91 137.297" stroke="#93523E" stroke-width="1.20877" stroke-linecap="round" stroke-linejoin="round"/>
<path d="M135.315 138.724C134.619 139.103 133.227 139.86 132.308 140.38C132.253 140.411 132.206 140.456 132.175 140.511C132.144 140.566 132.128 140.628 132.129 140.692C132.131 140.755 132.15 140.817 132.184 140.87C132.218 140.924 132.266 140.967 132.323 140.995C133.612 141.551 136.371 142.361 135.792 138.984C135.792 138.929 135.776 138.875 135.748 138.827C135.719 138.78 135.679 138.741 135.63 138.714C135.581 138.688 135.527 138.675 135.471 138.677C135.416 138.679 135.362 138.695 135.315 138.724Z" fill="white"/>
<path d="M123.528 135.813L123.657 135.919C123.832 136.089 124.067 136.183 124.311 136.18C124.555 136.178 124.788 136.079 124.959 135.905L127.824 132.843C127.969 132.7 128.055 132.509 128.065 132.306C128.075 132.103 128.009 131.903 127.879 131.747C127.804 131.648 127.709 131.565 127.6 131.506C127.49 131.445 127.369 131.41 127.245 131.4C127.121 131.39 126.996 131.407 126.879 131.448C126.762 131.491 126.655 131.557 126.565 131.643L123.571 134.6C123.487 134.676 123.419 134.768 123.371 134.871C123.323 134.973 123.296 135.085 123.292 135.198C123.288 135.311 123.307 135.424 123.348 135.53C123.388 135.635 123.449 135.732 123.528 135.813Z" fill="#080B09"/>
<path d="M133.94 127.123L130 128.601C129.884 128.646 129.779 128.716 129.692 128.804C129.605 128.893 129.537 129 129.494 129.116C129.451 129.233 129.433 129.358 129.442 129.482C129.451 129.607 129.485 129.727 129.544 129.837C129.632 130.02 129.785 130.164 129.973 130.24C130.161 130.316 130.372 130.318 130.562 130.247L134.543 128.93C134.773 128.847 134.96 128.677 135.065 128.457C135.169 128.236 135.182 127.984 135.101 127.754L135.059 127.592C135.018 127.486 134.957 127.39 134.878 127.309C134.799 127.228 134.704 127.164 134.6 127.12C134.495 127.076 134.383 127.054 134.27 127.054C134.157 127.055 134.045 127.078 133.94 127.123Z" fill="#080B09"/>
<path d="M436.348 59.8472L402.29 86.3341H468.2L436.348 59.8472Z" fill="#FEBB94"/>
<path d="M328.514 195.876C328.514 195.876 316.024 184.973 305.87 194.238C295.715 203.503 253.761 267.125 253.761 267.125L266.451 275.9L314.041 222.38L322.324 235.714L328.514 195.876Z" fill="#FCBA9F"/>
<path fill-rule="evenodd" clip-rule="evenodd" d="M320.017 317.612C325.248 313.789 330.64 309.849 336.319 308.576C336.446 308.547 336.579 308.546 336.708 308.573C336.836 308.6 336.957 308.655 337.062 308.734C337.167 308.812 337.254 308.913 337.316 309.028C337.378 309.144 337.415 309.271 337.423 309.402L338.045 319.937C338.058 320.154 337.992 320.368 337.859 320.54C337.726 320.712 337.535 320.83 337.322 320.872L298.425 328.56C295.557 329.127 293.717 327.88 292.835 325.665C292.806 325.588 292.8 325.505 292.817 325.425C292.834 325.346 292.874 325.272 292.932 325.214C292.99 325.157 293.063 325.117 293.143 325.1C293.223 325.082 293.306 325.088 293.382 325.117C298.492 326.994 304.133 326.797 309.099 324.568C312.687 322.968 316.312 320.32 320.017 317.612Z" fill="#5661AE"/>
<path fill-rule="evenodd" clip-rule="evenodd" d="M331.954 283.098C331.954 283.098 332.69 299.725 333.078 301.416C333.345 302.341 333.68 303.244 334.08 304.12C334.746 305.709 335.489 307.48 335.557 308.767C330.158 310.205 325.014 313.963 320.017 317.614C316.312 320.321 312.688 322.969 309.099 324.568C304.373 326.689 299.026 326.975 294.1 325.369C293.424 322.494 295.387 319.313 300.34 317.879C309.217 315.31 314.068 313.682 317.163 306.257C319.363 300.981 315.679 282.613 315.679 282.613L331.954 283.098Z" fill="#FFCCB3"/>
<path fill-rule="evenodd" clip-rule="evenodd" d="M317.552 303.45C319.297 303.343 326.233 302.886 332.872 302.018C334.163 301.85 335.315 304.273 334.763 305.815C334.403 306.94 334.133 308.093 333.958 309.262C331.791 310.054 329.713 311.068 327.755 312.288C328.157 309.541 326.481 308.325 323.992 308.45C322.026 308.549 317.584 309.798 315.294 310.476C315.168 310.513 315.034 310.513 314.909 310.477C314.783 310.44 314.67 310.368 314.583 310.27C314.497 310.171 314.44 310.05 314.42 309.92C314.401 309.79 314.418 309.658 314.471 309.538L316.965 303.861C317.016 303.745 317.097 303.645 317.2 303.573C317.304 303.5 317.425 303.458 317.552 303.45Z" fill="white"/>
<path fill-rule="evenodd" clip-rule="evenodd" d="M299.185 326.349C303.704 326.703 306.437 325.528 306.437 325.528L304.619 316.329L297.548 318.068L299.185 326.349Z" fill="white"/>
<path fill-rule="evenodd" clip-rule="evenodd" d="M242.522 284.4C248.983 284.881 255.643 285.378 260.791 288.091C260.907 288.151 261.009 288.237 261.089 288.341C261.169 288.444 261.226 288.564 261.255 288.692C261.284 288.82 261.285 288.953 261.257 289.081C261.23 289.21 261.175 289.33 261.096 289.435L254.739 297.859C254.608 298.033 254.419 298.152 254.206 298.197C253.994 298.242 253.772 298.208 253.583 298.102L218.985 278.734C216.434 277.306 215.842 275.163 216.607 272.905C216.634 272.829 216.683 272.761 216.748 272.712C216.813 272.662 216.891 272.632 216.973 272.625C217.054 272.619 217.136 272.636 217.208 272.675C217.28 272.713 217.339 272.772 217.379 272.843C220.051 277.585 224.474 281.093 229.7 282.616C233.469 283.725 237.945 284.059 242.522 284.4Z" fill="#5661AE"/>
<path fill-rule="evenodd" clip-rule="evenodd" d="M273.988 265.864L262.967 280.539C262.571 281.416 262.24 282.321 261.976 283.247C261.454 284.889 260.87 286.719 260.088 287.742C255.045 285.337 248.692 284.863 242.521 284.402C237.945 284.06 233.469 283.726 229.7 282.617C224.726 281.167 220.471 277.917 217.762 273.501C219.111 270.875 222.669 269.725 227.368 271.845C235.792 275.646 240.541 277.551 247.711 273.906C248.867 273.225 249.903 272.359 250.776 271.343L261.912 254.942L273.988 265.864Z" fill="#FCBA9F"/>
<path fill-rule="evenodd" clip-rule="evenodd" d="M249.827 272.021C251.226 273.071 256.802 277.22 262.42 280.864C263.511 281.573 262.817 284.164 261.398 284.981C260.393 285.603 259.441 286.306 258.549 287.083C256.387 286.281 254.146 285.705 251.865 285.364C253.952 283.534 253.465 281.521 251.489 280.003C249.928 278.803 245.737 276.874 243.554 275.905C243.434 275.852 243.332 275.765 243.26 275.656C243.187 275.546 243.148 275.419 243.146 275.287C243.144 275.156 243.18 275.027 243.249 274.915C243.318 274.804 243.417 274.714 243.536 274.658L249.115 271.952C249.228 271.897 249.355 271.874 249.481 271.886C249.606 271.898 249.726 271.945 249.827 272.021Z" fill="white"/>
<path fill-rule="evenodd" clip-rule="evenodd" d="M220.998 277.544C224.208 280.743 227.051 281.621 227.051 281.621L231.631 273.438L225.121 270.179L220.998 277.544Z" fill="white"/>
<path d="M345.641 187.965L312.71 193.815L319.192 219.883H340.286C340.286 219.883 350.313 198.331 345.641 187.965Z" fill="#FFCCB3"/>
<path d="M316.93 219.628C324.249 219.628 330.182 213.696 330.182 206.377C330.182 199.058 324.249 193.125 316.93 193.125C309.612 193.125 303.679 199.058 303.679 206.377C303.679 213.696 309.612 219.628 316.93 219.628Z" fill="#FFCCB3"/>
<path d="M303.843 208.465L317.103 291.492L332.397 292.13L330.612 210.058L303.843 208.465Z" fill="#FFCCB3"/>
<path d="M324.616 190.249C324.616 190.249 329.691 191.812 331.786 200.089C333.881 208.367 331.595 219.883 331.595 219.883H334.859C334.859 219.883 346.495 206.218 337.934 188.802L324.616 190.249Z" fill="#FF967C"/>
<path d="M356.636 119.248L352.491 121.236C350.901 121.999 349.5 123.103 348.387 124.47C347.273 125.837 346.475 127.432 346.05 129.143L336.68 166.845L315.555 176.946L320.371 184.595L360.313 183.179L356.636 119.248Z" fill="#5661AE"/>
<path d="M350.666 132.82C350.666 132.82 343.393 143.039 346.913 152.771C350.432 162.504 348.995 164.309 348.115 172.931C347.235 181.554 350.109 179.548 350.109 179.548L360.313 174.736C360.313 174.736 364.569 133.949 350.666 132.82Z" fill="#465393"/>
<path d="M393.46 179.751C393.46 179.751 397.493 199.487 392.208 207.734C385.518 218.173 377.337 219.772 371.289 219.884H331.595C331.595 219.884 331.522 195.12 311.967 190.889C311.967 190.889 376.326 172.965 393.46 179.751Z" fill="#1F2D49"/>
<path d="M394.349 185.498L352.281 186.883L352.729 183.944L360.927 182.997H394.288L394.349 185.498Z" fill="#0D1B33"/>
<path d="M339.942 176.25C339.942 176.25 334.795 177.746 332.484 178.426C330.172 179.106 325.601 180.738 325.601 180.738L328.948 185.498L344.116 184.595L339.942 176.25Z" fill="#FFCCB3"/>
<path d="M364.878 115.728C364.878 115.728 356.242 119.146 354.923 120.201C353.604 121.256 352.351 129.867 350.109 133.956C347.867 138.044 344.587 145.591 349.378 152.522C354.169 159.454 353.659 164.959 353.659 164.959L352.64 182.347L392.605 183.563C392.967 183.574 393.329 183.508 393.664 183.369C394 183.231 394.305 183.022 394.554 182.758C394.803 182.493 394.994 182.178 395.112 181.834C395.23 181.491 395.273 181.126 395.243 180.763C394.785 175.693 394.013 168.119 393.847 160.047C393.625 149.106 393.459 112.55 393.459 112.55L375.471 111.985C371.851 112.61 364.878 115.728 364.878 115.728Z" fill="#5661AE"/>
<path d="M393.46 131.959C398.819 131.959 403.163 127.614 403.163 122.254C403.163 116.895 398.819 112.55 393.46 112.55C388.1 112.55 383.757 116.895 383.757 122.254C383.757 127.614 388.1 131.959 393.46 131.959Z" fill="#5661AE"/>
<path d="M394.768 176.754C394.768 176.754 393.939 179.788 385.065 183.334C385.065 183.334 364.259 182.881 353.923 183.099C343.586 183.316 355.031 180.589 360.801 177.712C366.57 174.836 394.114 166.845 394.114 166.845L394.768 176.754Z" fill="#465393"/>
<path d="M386.382 127.493C386.382 127.493 380.364 132.979 380.01 137.05C379.653 141.12 378.837 152.469 371.106 153.602C361.625 154.989 359.144 156.34 363.54 157.402C367.931 158.464 377.904 156.743 377.904 161.295C377.904 164.535 381.777 166.958 383.726 165.189C385.671 163.419 401.178 136.519 386.382 127.493Z" fill="#465393"/>
<path d="M403.058 123.674C402.242 127.568 394.48 168.595 394.48 168.595C394.48 168.595 393.459 174.732 387.463 176.25L345.641 186.882L338.282 175.844L376.212 162.872L383.756 122.254C383.756 122.254 404.148 118.479 403.058 123.674Z" fill="#5661AE"/>
<path d="M363.906 108.173L364.303 121.636C364.303 121.636 364.198 123.959 367.015 123.645C369.837 123.332 375.51 121.224 377.076 118.51C378.641 115.795 377.651 114.864 377.651 114.864L369.047 98.0913L363.906 108.173Z" fill="#FFCCB3"/>
<path d="M363.906 109.737L367.43 105.56L364.207 118.411L363.906 109.737Z" fill="#FF967C"/>
<path d="M367.046 74.9862C366.893 72.4177 367.451 69.8565 368.664 67.5858C370.67 63.9628 374.83 58.9522 381.153 61.1108C387.472 63.269 392.099 68.1257 389.709 74.9862C387.319 81.8471 380.682 84.0424 377.298 83.3115C373.914 82.5806 367.046 74.9862 367.046 74.9862Z" fill="#080B09"/>
<path d="M365.009 75.9408C365.376 75.3267 365.916 74.8405 366.57 74.5483C367.22 74.2562 367.944 74.1724 368.646 74.3089C371.149 74.7694 373.779 76.7445 376.02 79.1137C378.258 81.4834 378.183 83.2033 377.167 84.2521C376.151 85.3013 365.009 75.9408 365.009 75.9408Z" fill="#FEBB94"/>
<path d="M309.565 144.631L325.601 189.06H357.844C357.844 187.703 357.304 186.402 356.346 185.443C355.387 184.483 354.086 183.944 352.729 183.944H329.403L315.555 144.631H309.565Z" fill="white"/>
<path d="M309.564 144.631H266.304L283.034 189.06H325.601L309.564 144.631Z" fill="#D4DCF4"/>
<path d="M295.953 172.09C298.107 172.09 299.854 170.343 299.854 168.188C299.854 166.034 298.107 164.287 295.953 164.287C293.798 164.287 292.052 166.034 292.052 168.188C292.052 170.343 293.798 172.09 295.953 172.09Z" fill="white"/>
<path d="M346.396 91.6177C346.396 91.6177 347.73 104.504 353.999 110.372C358.089 114.198 361.839 113.218 367.43 105.56C372.554 98.538 373.003 95.1234 373.003 95.1234L367.587 82.934C367.587 82.934 345.758 79.8273 346.396 91.6177Z" fill="#FFCCB3"/>
<path d="M348.614 89.0951C348.614 89.0951 351.699 94.0054 357.347 94.0848C358.533 95.0533 359.942 95.7013 361.446 95.966C362.955 96.2307 364.503 96.1038 365.942 95.5967C365.942 95.5967 363.692 92.1791 365.942 90.9811C369.771 88.9472 371.088 95.7292 369.047 98.0911C367.661 99.6963 369.126 101.565 370.159 103.236C371.197 104.908 374.538 109.046 374.538 109.046C374.538 109.046 374.219 106.658 375.733 104.908C377.246 103.157 382.147 85.2331 373.038 78.6395C363.928 72.0463 354.337 77.3208 352.539 78.6395C352.539 78.6395 342.966 80.3115 342.949 90.2677C342.935 98.7792 348.992 100.804 348.992 100.804L347.184 93.9339C347.184 93.9339 348.302 94.0534 348.614 89.0951Z" fill="#080B09"/>
<path d="M358.795 104.968C358.795 104.968 359.502 107.177 357.103 108.203C355.482 108.736 354.35 107.149 354.35 107.149L358.795 104.968Z" fill="#E56441"/>
<path d="M350.396 101.728C350.895 101.605 351.152 100.909 350.97 100.174C350.789 99.4389 350.238 98.9431 349.739 99.0661C349.24 99.1895 348.983 99.885 349.164 100.62C349.346 101.356 349.897 101.851 350.396 101.728Z" fill="#080B09"/>
<path d="M357.792 100.014C358.289 99.8907 358.546 99.1952 358.368 98.4599C358.185 97.7247 357.635 97.2284 357.134 97.3518C356.636 97.4748 356.378 98.1708 356.56 98.9056C356.741 99.6408 357.295 100.137 357.792 100.014Z" fill="#080B09"/>
<path d="M347.527 97.7648L351.29 96.9009C351.353 96.8809 351.406 96.8386 351.441 96.7823C351.475 96.7261 351.487 96.6593 351.476 96.5944C351.434 96.4836 351.37 96.3824 351.288 96.2974C351.206 96.2119 351.108 96.1439 350.999 96.0977C350.89 96.0514 350.773 96.0279 350.654 96.0283C350.536 96.0283 350.419 96.0527 350.31 96.0994L347.359 97.3497C347.113 97.4103 347.219 97.8407 347.527 97.7648Z" fill="#080B09"/>
<path d="M360.164 94.3956L355.262 95.9315C355.23 95.7784 355.229 95.6205 355.261 95.467C355.293 95.314 355.357 95.1692 355.449 95.0423C355.54 94.9154 355.657 94.809 355.793 94.7296C355.928 94.6507 356.078 94.601 356.234 94.5835L360.151 94.0729C360.273 94.0428 360.348 94.3498 360.164 94.3956Z" fill="#080B09"/>
<path d="M353.036 99.27L352.504 103.239L353.906 103.916" stroke="#E56441" stroke-width="0.94666" stroke-linecap="round"/>
<path d="M436.348 59.8472V0.263184" stroke="#5661AE" stroke-miterlimit="10"/>
</g>
<defs>
<linearGradient id="paint0_linear_2003_2581" x1="226.692" y1="37.9727" x2="260.8" y2="503.3" gradientUnits="userSpaceOnUse">
<stop stop-color="white"/>
<stop offset="1" stop-color="#94B9FF"/>
</linearGradient>
<linearGradient id="paint1_linear_2003_2581" x1="304.804" y1="218.958" x2="350.302" y2="456.272" gradientUnits="userSpaceOnUse">
<stop stop-color="white"/>
<stop offset="1" stop-color="#94B9FF"/>
</linearGradient>
<linearGradient id="paint2_linear_2003_2581" x1="120.844" y1="154.826" x2="121.458" y2="170.235" gradientUnits="userSpaceOnUse">
<stop stop-color="white"/>
<stop offset="1" stop-color="#94B9FF"/>
</linearGradient>
<linearGradient id="paint3_linear_2003_2581" x1="113.577" y1="157.623" x2="136.643" y2="305.473" gradientUnits="userSpaceOnUse">
<stop stop-color="white"/>
<stop offset="1" stop-color="#94B9FF"/>
</linearGradient>
<linearGradient id="paint4_linear_2003_2581" x1="135.479" y1="161.964" x2="142.231" y2="227.38" gradientUnits="userSpaceOnUse">
<stop stop-color="white"/>
<stop offset="1" stop-color="#94B9FF"/>
</linearGradient>
</defs>
</svg>
