<svg width="585" height="334" viewBox="0 0 585 334" fill="none" xmlns="http://www.w3.org/2000/svg">
<path d="M101.504 4.20959H116.674" stroke="white" stroke-width="7.4328" stroke-miterlimit="10" stroke-linecap="round"/>
<path d="M438.172 4H390.852C387.663 4 385.078 6.58486 385.078 9.77404V61.0042C385.078 64.1934 387.663 66.7783 390.852 66.7783H438.172C441.36 66.7783 443.946 64.1934 443.946 61.0042V9.77404C443.946 6.58486 441.36 4 438.172 4Z" fill="#5375D9"/>
<path d="M392.248 51.1879H407.418" stroke="white" stroke-width="7.4328" stroke-miterlimit="10" stroke-linecap="round"/>
<path opacity="0.4" d="M392.248 58.2679H423.597" stroke="white" stroke-width="7.4328" stroke-miterlimit="10" stroke-linecap="round"/>
<path d="M392.583 21.798H400.428C401.005 21.798 401.571 21.9488 402.071 22.2357C402.571 22.5225 402.987 22.9356 403.278 23.4332L410.872 36.422C411.171 36.9321 411.601 37.3531 412.118 37.6408C412.635 37.9282 413.22 38.0716 413.811 38.0553C414.402 38.0395 414.978 37.865 415.479 37.5503C415.979 37.2356 416.387 36.7924 416.658 36.2665L421.352 27.1478C421.627 26.6135 422.043 26.1652 422.552 25.8495C423.062 25.5344 423.652 25.364 424.251 25.3576L438.031 25.21" stroke="white" stroke-width="4" stroke-miterlimit="10" stroke-linecap="round"/>
<path opacity="0.4" d="M392.583 35.7701H396.441C397.313 35.7701 398.149 35.4257 398.767 34.8111L416.602 17.0991C417.221 16.4846 418.057 16.1402 418.928 16.1402H424.149C424.896 16.1402 425.62 16.3927 426.205 16.8568C426.79 17.3205 427.198 17.969 427.365 18.6954L430.108 30.5075C430.275 31.2339 430.684 31.8819 431.269 32.346C431.853 32.8102 432.578 33.0627 433.32 33.0627H438.031" stroke="white" stroke-width="4" stroke-miterlimit="10" stroke-linecap="round"/>
<path d="M505.608 316.552C505.608 316.552 503.877 333.999 473.814 333.999H438.566L485.325 297.645L505.608 316.552Z" fill="#5661AE"/>
<path d="M435.665 114.352L518.437 132.692C519.175 132.85 519.875 133.141 520.507 133.551C522.795 135.062 526.884 139.479 526.1 151.558C525.051 167.658 505.607 316.552 505.607 316.552L426.135 247.75L435.665 114.352Z" fill="#5661AE"/>
<path d="M426.818 113.879L510.194 132.353C510.194 132.353 517.328 134.951 517.254 151.085C517.179 167.219 496.761 316.079 496.761 316.079L417.288 247.277L426.818 113.879Z" fill="#5375D9"/>
<path d="M428.173 122.384C428.173 122.384 429.64 143.636 430.285 147.004C431.418 152.903 457.336 140.51 455.433 135.257C454.449 132.532 449.961 106.564 449.961 106.564L428.173 122.384Z" fill="#BC775C"/>
<path d="M430.439 146.187L428.22 124.43H441.356L430.439 146.187Z" fill="#93523E" stroke="#93523E"/>
<path d="M461.12 102.008C462.122 91.3081 449.985 93.6154 447.91 94.0982C445.835 94.5809 442.586 78.7245 442.586 78.7245C442.586 78.7245 418.64 74.4604 413.509 78.7148C413.509 78.7148 410.291 98.6997 409.772 111.499C409.253 124.298 412.843 130.029 417.535 130.468C423.927 131.613 431.488 130.323 436.32 127.475C444.925 122.402 448.602 113.225 448.602 113.225C448.755 113.155 448.838 113.118 448.838 113.118C448.838 113.118 460.178 112.114 461.12 102.008Z" fill="#BC775C"/>
<path d="M412.827 111.094C414.891 109.786 420.109 109.9 422.227 110.315C426.265 111.106 427.504 111.63 427.959 112.568C428.414 113.505 428.502 114.542 426.817 113.879C425.127 113.215 421.599 112.004 418.457 112.089C416.997 112.239 415.551 112.503 414.133 112.878C412.495 113.37 410.966 112.273 412.827 111.094Z" fill="#493212"/>
<path d="M411.367 98.0344C411.367 98.0344 412.728 86.0611 412.901 82.7462C413.151 77.9775 416.635 79.512 419.131 82.8566C422.723 87.8231 429.574 87.5088 435.334 85.9507C440.388 84.7183 440.463 85.0084 440.922 90.3466C441.386 95.6848 443.108 105.598 444.728 103.225C446.743 100.12 448.116 97.2128 451.658 95.3228C456.471 92.7547 461.41 97.4927 460.249 101.152C459.089 104.811 456.374 109.024 450.312 112.484L453.278 126.227C468.302 105.387 473.96 76.7646 453.584 70.1375C445.972 67.6613 438.068 51.6151 423.335 55.2656C412.901 57.8519 412.901 66.2173 412.159 73.4915C398.138 74.0981 411.367 98.0344 411.367 98.0344Z" fill="#493212"/>
<path d="M429.384 101.976C429.671 100.459 429.096 99.0772 428.103 98.8887C427.109 98.7007 426.07 99.778 425.786 101.295C425.499 102.812 426.07 104.194 427.063 104.382C428.056 104.57 429.096 103.493 429.384 101.976Z" fill="#080B09"/>
<path d="M415.705 99.297C415.992 97.7801 415.419 96.3979 414.425 96.2099C413.431 96.0219 412.393 97.0992 412.106 98.6161C411.819 100.133 412.392 101.516 413.386 101.704C414.38 101.892 415.418 100.814 415.705 99.297Z" fill="#080B09"/>
<path d="M418.505 103.225C418.505 103.225 420.285 106.429 417.847 106.547C415.516 106.58 414.197 107.986 416.603 109.901" stroke="#93523E" stroke-width="1.51544" stroke-linecap="round"/>
<path d="M417.083 112.572C418.531 112.635 421.426 112.762 423.355 112.878C423.471 112.884 423.582 112.921 423.675 112.986C423.772 113.051 423.847 113.141 423.898 113.246C423.944 113.352 423.963 113.469 423.949 113.584C423.94 113.699 423.893 113.808 423.823 113.9C422.151 115.849 418.268 119.395 416.508 113.381C416.465 113.29 416.447 113.188 416.456 113.088C416.464 112.987 416.5 112.891 416.558 112.808C416.617 112.725 416.696 112.66 416.788 112.619C416.881 112.577 416.982 112.561 417.083 112.572Z" fill="white"/>
<path d="M433.979 96.875L433.854 97.1516C433.701 97.5716 433.39 97.9147 432.991 98.1064C432.587 98.2976 432.123 98.3222 431.705 98.1746L424.538 95.4417C424.186 95.3238 423.889 95.0778 423.712 94.7529C423.531 94.4275 423.48 94.0464 423.568 93.6858C423.61 93.4621 423.703 93.2504 423.833 93.0643C423.967 92.8782 424.135 92.7222 424.33 92.6062C424.529 92.4906 424.747 92.4177 424.97 92.3927C425.197 92.3676 425.43 92.3908 425.643 92.4609L432.935 94.9167C433.134 94.9733 433.32 95.0699 433.483 95.1998C433.645 95.3303 433.775 95.4913 433.872 95.6742C433.97 95.8571 434.03 96.0571 434.049 96.2637C434.067 96.4698 434.044 96.6777 433.979 96.875Z" fill="#080B09"/>
<path d="M409.897 90.9526L417.557 90.2192C417.784 90.2002 418.012 90.2299 418.227 90.3056C418.442 90.3817 418.638 90.5024 418.803 90.6597C418.967 90.817 419.097 91.0074 419.182 91.2185C419.268 91.4297 419.308 91.6567 419.299 91.8841C419.303 92.2554 419.167 92.6147 418.918 92.8909C418.669 93.1666 418.326 93.3388 417.956 93.3736L410.357 94.4054C409.914 94.4537 409.469 94.3246 409.121 94.0466C408.772 93.7686 408.547 93.3638 408.496 92.9206L408.435 92.6221C408.417 92.4156 408.442 92.2077 408.506 92.0113C408.571 91.8145 408.675 91.6326 408.811 91.4771C408.947 91.3211 409.114 91.1944 409.301 91.1044C409.487 91.0143 409.69 90.9623 409.897 90.9526Z" fill="#080B09"/>
<path d="M79.3921 316.552C79.3921 316.552 81.1229 333.999 111.189 333.999H146.434L99.6769 297.645L79.3921 316.552Z" fill="#5661AE"/>
<path d="M149.337 114.352L66.5642 132.692C65.8276 132.85 65.1258 133.141 64.4941 133.551C62.2044 135.062 58.1148 139.479 58.9006 151.558C59.9477 167.658 79.3919 316.553 79.3919 316.553L158.866 247.75L149.337 114.352Z" fill="#5661AE"/>
<path d="M158.183 113.879L74.8048 132.353C74.8048 132.353 67.6726 134.951 67.7469 151.085C67.8216 167.219 88.2382 316.079 88.2382 316.079L167.712 247.277L158.183 113.879Z" fill="#FEBB94"/>
<path d="M194.27 190.687L202.36 202.009C203.516 203.625 205.001 204.978 206.717 205.979C208.433 206.979 210.342 207.605 212.318 207.813L265.274 213.401L266.079 226.664L201.46 230.587C197.82 230.808 194.18 230.132 190.862 228.619C187.543 227.105 184.647 224.8 182.427 221.906L165.109 199.328L194.27 190.687Z" fill="#FFCCB3"/>
<path d="M199.331 197.768C199.331 197.768 182.683 202.164 177.816 215.894L169.521 203.633L197.542 195.264L199.331 197.768Z" fill="#FF967C"/>
<path d="M158.705 147.977C158.705 147.977 174.903 152.698 179.413 158.15C182.923 162.393 188.889 180.018 193.564 188.507C194.694 190.559 196.298 190.744 195.107 192.761C190.18 201.101 185.957 213.258 177.816 215.893C150.566 211.777 158.705 147.977 158.705 147.977Z" fill="#5661AE"/>
<path d="M176.21 172.13C176.21 172.13 187.021 191.735 188.662 202.272C188.662 202.272 184.813 212.04 182.096 214.027C177.857 217.127 175.529 215.385 175.529 215.385L176.21 172.13Z" fill="#465393"/>
<path d="M119.709 108.374C134.65 108.374 146.762 96.2613 146.762 81.3203C146.762 66.3788 134.65 54.2664 119.709 54.2664C104.767 54.2664 92.655 66.3788 92.655 81.3203C92.655 96.2613 104.767 108.374 119.709 108.374Z" fill="#080B09"/>
<path d="M142.63 66.8971C142.63 66.8971 107.715 60.7322 103.619 103.071C103.619 103.071 107.117 106.832 112.151 107.243C112.151 107.243 116.24 66.1623 144.675 69.3367L142.63 66.8971Z" fill="#FEBB94"/>
<path d="M135.227 68.5101C135.227 68.5101 131.212 66.4261 134.238 64.0232C136.149 62.4298 137.671 60.4209 138.687 58.1498C139.644 58.6804 140.364 59.5539 140.701 60.5945C141.039 61.6351 140.969 62.7649 140.505 63.7559C138.954 67.5828 137.984 67.7977 137.984 67.7977L135.227 68.5101Z" fill="#FEBB94"/>
<path d="M135.025 66.2074C135.025 66.2074 133.919 70.5941 130.886 68.2014C128.895 66.7077 126.591 65.688 124.147 65.2201C124.443 64.167 125.128 63.266 126.064 62.6984C126.999 62.1312 128.115 61.94 129.186 62.1632C133.266 62.7931 133.699 63.6884 133.699 63.6884L135.025 66.2074Z" fill="#FEBB94"/>
<path d="M142.763 128.874L147.038 144.777C147.038 144.777 179.669 181.8 152.586 195.264C147.825 197.631 125.074 179.443 120.803 175.411C116.531 171.379 118.302 147.56 118.302 147.56L128.111 113.539L142.763 128.874Z" fill="#FFCCB3"/>
<path d="M133.148 179.332C133.148 179.332 149.089 189.352 165.109 180.055C165.109 180.055 162.64 193.858 152.929 198.301C143.218 202.744 133.148 179.332 133.148 179.332Z" fill="#5375D9"/>
<path d="M143.605 131.683L135.035 126.077L147.725 147.419L143.605 131.683Z" fill="#FF967C"/>
<path d="M165.299 89.7388C165.299 89.7388 169.832 113.591 161.731 127.496C156.447 136.564 149.189 136.819 135.035 126.077C122.057 116.227 119.412 110.339 119.412 110.339L122.584 85.5424C122.584 85.5424 160.103 68.2281 165.299 89.7388Z" fill="#FFCCB3"/>
<path d="M147.038 144.777C147.038 144.777 163.083 148.74 165.67 150.564C168.257 152.388 171.578 168.355 176.237 175.748C180.895 183.142 187.259 194.824 179.084 208.335C170.909 221.846 171.646 234.775 171.646 234.775L177.833 268.69H108.921C106.04 268.953 104.508 261.654 104.594 258.763C104.876 249.228 105.78 246.385 105.171 231.265C104.346 210.774 96.6931 152.641 96.6931 152.641L119.411 144.205C118.713 176.188 137.294 169.207 152.929 198.301C165.727 173.718 147.038 144.777 147.038 144.777Z" fill="#5661AE"/>
<path d="M111.649 169.207C111.649 169.207 115.021 176.236 112.358 183.415C109.364 191.487 106.069 211.157 120.663 212.396C138.551 213.915 131.042 217.158 122.943 219.644C114.844 222.129 118.21 221.927 118.727 230.442C119.095 236.502 102.803 248.807 104.303 244.11C112.355 218.91 84.9926 187.772 111.649 169.207Z" fill="#465393"/>
<path d="M150.459 120.649L159.045 122.079C159.013 122.152 158.974 122.238 158.926 122.334C158.771 122.646 158.532 123.06 158.199 123.47C157.533 124.288 156.505 125.075 155.01 125.038C152.668 124.77 151.541 123.599 150.987 122.51C150.708 121.958 150.572 121.422 150.507 121.023C150.482 120.877 150.468 120.751 150.459 120.649Z" fill="#E56441" stroke="#E56441"/>
<path d="M163.551 110.041C164.513 109.994 165.237 108.807 165.167 107.389C165.097 105.972 164.261 104.861 163.3 104.908C162.338 104.955 161.615 106.142 161.684 107.56C161.754 108.977 162.59 110.088 163.551 110.041Z" fill="#080B09"/>
<path d="M149.353 110.941C150.315 110.894 151.038 109.707 150.969 108.289C150.899 106.871 150.063 105.761 149.101 105.808C148.14 105.855 147.416 107.042 147.486 108.46C147.555 109.877 148.391 110.988 149.353 110.941Z" fill="#080B09"/>
<path d="M166.574 101.382L159.352 101.855C159.228 101.852 159.11 101.805 159.019 101.722C158.927 101.64 158.869 101.526 158.854 101.404C158.87 101.183 158.93 100.967 159.031 100.769C159.133 100.572 159.273 100.398 159.443 100.256C159.614 100.115 159.812 100.009 160.024 99.946C160.237 99.8829 160.46 99.8634 160.68 99.8889L166.652 100.547C167.125 100.523 167.166 101.353 166.574 101.382Z" fill="#080B09"/>
<path d="M142.071 102.128L151.698 102.251C151.675 101.958 151.59 101.674 151.45 101.416C151.31 101.158 151.118 100.933 150.885 100.754C150.653 100.575 150.385 100.447 150.1 100.378C149.815 100.309 149.519 100.3 149.23 100.352L141.924 101.541C141.687 101.553 141.716 102.146 142.071 102.128Z" fill="#080B09"/>
<path d="M157.49 107.048L160.579 113.887L158.426 115.855" stroke="#E56441" stroke-width="1.66686" stroke-linecap="round"/>
<path d="M156.437 93.4401C151.394 93.4749 149.032 92.3052 143.741 94.7945C142.072 95.5798 140.492 96.3656 139.535 98.2909C138.509 102.163 139.166 107.541 132.342 107.392C132.342 107.392 134.55 100.044 129.86 99.1055C121.897 97.5111 123.177 110.395 128.111 113.539C131.463 115.675 125.704 131.084 121.419 136.748C106.764 102.5 111.85 99.0503 115.66 90.1107C122.135 74.919 127.808 70.2942 143.135 67.7818C143.135 67.7818 163.441 68.33 168.825 86.1956C173.427 101.468 166.52 107.324 166.52 107.324C166.52 107.324 166.734 95.959 165.61 94.7945C164.131 93.2623 162.932 93.395 156.437 93.4401Z" fill="#080B09"/>
<path d="M402.841 278.303L345.376 288.512L356.687 334H393.496C393.496 334 410.993 296.39 402.841 278.303Z" fill="#FFCCB3"/>
<path d="M366.153 282.287C366.153 282.287 375.009 285.015 378.664 299.458C382.321 313.903 378.332 333.999 378.332 333.999H384.026C384.026 333.999 404.332 310.153 389.392 279.763L366.153 282.287Z" fill="#FF967C"/>
<path d="M486.28 263.969C486.28 263.969 490.708 297.036 484.098 312.799C478.473 326.204 469.784 333.804 459.234 334H378.33C378.33 334 378.203 290.787 344.08 283.404C344.08 283.404 456.384 252.126 486.28 263.969Z" fill="#1F2D49"/>
<path d="M487.835 273.997L414.429 276.414L415.21 271.286L429.515 269.632H487.733L487.835 273.997Z" fill="#0D1B33"/>
<path d="M430.866 144.469C430.235 147.146 430.072 137.675 428.796 138.07C422.952 139.881 406.324 145.07 402.788 146.55C398.479 148.352 398.192 155.561 397.905 160.667C397.703 164.245 403.028 214.469 403.294 248.494C403.351 255.763 395.994 264.272 395.124 268.313C394.882 269.401 394.752 270.511 394.737 271.625C394.733 272.402 395.037 273.149 395.583 273.702C396.128 274.256 396.871 274.569 397.649 274.575L485.306 275.395C485.306 275.395 489.191 275.959 488.254 271.525C487.325 266.674 486.819 261.752 486.731 256.814C485.859 221.473 485.691 162.288 485.311 159.485C484.735 155.28 489.251 151.659 484.359 149.542L457.211 138.696C457.211 138.696 452.235 142.326 451.516 142.693C437.879 149.667 430.866 144.469 430.866 144.469Z" fill="#FEBB94"/>
<path d="M436.514 148.076C436.514 148.076 433.414 159.461 434.848 170.457C436.278 181.454 430.629 196.499 429.459 208.573C428.29 220.647 434.017 236.465 433.121 246.6C432.23 256.735 435.479 275.418 435.479 275.418" stroke="#FF967C" stroke-width="3" stroke-miterlimit="10"/>
<path d="M190.808 269.874L248.273 280.083L236.962 325.571H200.153C200.153 325.571 182.655 287.962 190.808 269.874Z" fill="#FFCCB3"/>
<path d="M227.496 273.859C227.496 273.859 218.64 276.587 214.984 291.031C211.329 305.475 215.317 325.572 215.317 325.572H209.623C209.623 325.572 189.318 301.725 204.257 271.335L227.496 273.859Z" fill="#FF967C"/>
<path d="M105.666 257.68C105.666 257.68 95.4824 276.794 96.6939 301.999C97.845 325.938 110.941 334 131.645 334L215.319 325.572C215.319 325.572 215.446 282.359 249.569 274.976C249.569 274.976 211.577 247.322 173.148 254.27C154.286 257.68 142.436 261.829 105.666 257.68Z" fill="#1F2D49"/>
<path d="M104.233 251.289C104.233 251.289 158.425 256.951 178.398 242.027L177.505 254.486C177.505 254.486 143.733 273.25 105.03 262.691C105.03 262.691 99.2269 258.616 104.233 251.289Z" fill="#5375D9"/>
<path d="M269.611 232.16C269.611 232.16 285.71 228.789 292.377 230.334C299.171 231.737 313.471 235.315 310.909 245.798C309.138 253.283 301.323 250.318 301.323 250.318C301.323 250.318 303.357 253.307 300.334 254.671C298.49 255.437 286.596 248.914 286.596 248.914C278.658 251.467 268.3 246.076 268.3 246.076L269.611 232.16Z" fill="#FFCCB3"/>
<path d="M292.516 246.328L301.19 250.325" stroke="#FF967C" stroke-width="2.89316" stroke-linecap="round" stroke-linejoin="round"/>
<path d="M294.456 239.507C296.629 239.934 306.41 244.548 306.41 244.548" stroke="#FF967C" stroke-width="2.89316" stroke-linecap="round" stroke-linejoin="round"/>
<path d="M295.673 234.335C300.029 235.424 304.197 237.162 308.036 239.49" stroke="#FF967C" stroke-width="2.89316" stroke-linecap="round" stroke-linejoin="round"/>
<path d="M198.04 180.054H372.76L461.18 325.571H125.799L198.04 180.054Z" fill="url(#paint0_linear_2003_1246)"/>
<path d="M340.275 242.101L346.132 277.564L378.665 299.459L433.126 293.575L419.748 277.564L340.275 242.101Z" fill="#96BAFD"/>
<path d="M308.97 206.893L333.356 251.857L369.669 286.307L340.273 242.1L308.97 206.893Z" fill="white"/>
<path d="M308.971 206.893L333.357 251.857L331.005 253.666L306.984 208.107L308.971 206.893Z" fill="#5CA4E6"/>
<path d="M333.356 251.857L369.67 286.308V288.514L331.005 253.666L333.356 251.857Z" fill="#5CA4E6"/>
<path d="M369.669 288.514L419.746 279.36V277.564L369.669 286.307V288.514Z" fill="#5CA4E6"/>
<path d="M419.748 277.564L387.125 235.81L340.275 242.1L369.671 286.307L419.748 277.564Z" fill="#E7EFFF"/>
<path d="M121.205 172.224L113.642 215.708C113.452 216.795 112.852 217.768 111.966 218.426C111.08 219.085 109.976 219.379 108.88 219.249C108.88 219.249 87.5688 217.848 80.4747 217.257C78.8037 217.118 74.2625 212.999 75.6508 206.215C76.9235 196.947 82.8846 175.308 86.6539 163.292C88.4093 157.314 107.181 160.893 107.181 160.893L121.205 172.224Z" fill="#5661AE"/>
<path d="M103.515 187.106C113.398 187.106 121.408 179.095 121.408 169.213C121.408 159.331 113.398 151.32 103.515 151.32C93.6336 151.32 85.6223 159.331 85.6223 169.213C85.6223 179.095 93.6336 187.106 103.515 187.106Z" fill="#5661AE"/>
<path d="M80.9633 219.672L81.2557 216.205L107.787 219.227L107.376 222.177L105.119 240.781L79.3225 237.999L80.9633 219.672Z" fill="#FFCCB3"/>
<path d="M81.3856 216.176L107.787 219.227L107.377 222.177C101.377 221.515 87.9273 220.386 80.9641 219.672L81.3856 216.176Z" fill="#FF967C"/>
<path d="M92.1192 251.672C99.2926 251.672 105.108 245.856 105.108 238.683C105.108 231.509 99.2926 225.694 92.1192 225.694C84.9452 225.694 79.1299 231.509 79.1299 238.683C79.1299 245.856 84.9452 251.672 92.1192 251.672Z" fill="#FFCCB3"/>
<path d="M98.5318 249.865L171.837 215.452C171.837 215.452 176.234 199.82 171.452 202.415C166.551 205.068 88.4561 226.178 88.4561 226.178L98.5318 249.865Z" fill="#FFCCB3"/>
<path d="M213.768 217.178L182.602 222.623C180.594 222.974 179.26 221.579 179.621 219.508L189.204 164.572C189.566 162.502 191.486 160.538 193.494 160.188L224.66 154.743C226.668 154.392 228.002 155.786 227.641 157.857L218.057 212.793C217.696 214.864 215.776 216.827 213.768 217.178Z" fill="#5375D9"/>
<path d="M215.168 216.934L184.002 222.38C181.994 222.73 180.659 221.336 181.02 219.265L190.604 164.329C190.965 162.258 192.886 160.295 194.893 159.944L226.06 154.499C228.067 154.148 229.402 155.542 229.041 157.613L219.457 212.549C219.096 214.62 217.175 216.583 215.168 216.934Z" fill="#B2CDFF"/>
<path d="M167.028 203.945L170.647 215.741C170.647 215.741 185.638 212.146 188.845 210.571C195.098 207.356 201.823 203.02 202.611 201.371C205.023 197.201 205.307 192.041 205.031 188.438C204.996 187.902 204.83 187.384 204.547 186.927C204.264 186.471 203.874 186.092 203.409 185.822C202.946 185.553 202.422 185.401 201.886 185.382C201.35 185.362 200.817 185.474 200.334 185.709L187.212 192.258C187.212 192.258 185.503 189.372 187.222 187.078C188.33 185.564 186.621 182.678 185.862 181.793C185.562 181.384 183.965 181.372 183.603 181.786C182.992 182.566 183.832 185.276 182.543 186.996C180.349 189.749 182.297 190.946 176.647 195.64C172.177 199.322 166.982 203.831 167.028 203.945Z" fill="#FFCCB3"/>
<path d="M192.406 194.254C196.14 192.995 203.755 188.561 203.755 188.561" stroke="#FF967C" stroke-width="2.09903" stroke-linecap="round" stroke-linejoin="round"/>
<path d="M191.916 199.232C194.92 198.138 202.855 193.839 202.855 193.839" stroke="#FF967C" stroke-width="2.09903" stroke-linecap="round" stroke-linejoin="round"/>
<path d="M193.727 203.669C195.708 202.994 201.599 200.192 201.599 200.192" stroke="#FF967C" stroke-width="2.09903" stroke-linecap="round" stroke-linejoin="round"/>
<path d="M80.5208 214.79C79.8784 217.373 79.9397 220.08 80.6981 222.631C80.6981 222.631 93.4613 228.814 106.947 225.708C107.856 224.931 108.522 223.909 108.864 222.763C109.207 221.617 109.212 220.397 108.879 219.248L80.5208 214.79Z" fill="#5661AE"/>
<path d="M460.725 168.552C460.725 168.552 456.793 190.068 459.235 211.108C460.762 224.274 469.158 237.789 469.052 244.073C468.88 254.247 457.248 258.557 457.216 264.448C457.193 267.933 466.61 265.765 470.774 264.41C480.126 261.364 486.272 265.502 486.272 265.502L483.779 176.24L460.725 168.552Z" fill="#FF967C"/>
<path d="M485.713 163.32C477.084 152.521 473.213 157.693 470.182 157.957C470.182 157.957 459.915 159.869 460.723 168.552C461.577 177.739 476.681 238.962 476.681 238.962L508.387 236.579L506.883 228.137L503.787 210.749L500.487 192.157L500.194 189.944L496.486 165.486C496.486 165.486 490.183 169.088 485.713 163.32Z" fill="#FEBB94"/>
<path d="M487.845 181.963C496.274 176.787 498.915 165.759 493.739 157.329C488.564 148.899 477.536 146.261 469.107 151.436C460.673 156.611 458.037 167.64 463.212 176.07C468.387 184.499 479.416 187.137 487.845 181.963Z" fill="#FEBB94"/>
<path d="M411.96 241.503L391.97 242.991L387.245 254.136L388.86 267.894C388.86 267.894 392.299 266.492 392.655 261.625C393.011 256.759 408.925 260.211 413.085 254.866" fill="#BC775C"/>
<path d="M488.211 223.475L410.654 238.095C410.188 238.202 409.778 238.478 409.503 238.869C409.228 239.261 409.108 239.74 409.166 240.215L411.043 254.973C411.141 255.678 411.498 256.322 412.044 256.78C412.59 257.237 413.286 257.475 413.998 257.448L493.888 254.322L488.211 223.475Z" fill="#FEBB94"/>
<path d="M492.796 254.442C501.559 254.442 508.665 247.337 508.665 238.572C508.665 229.807 501.559 222.702 492.796 222.702C484.033 222.702 476.927 229.807 476.927 238.572C476.927 247.337 484.033 254.442 492.796 254.442Z" fill="#FEBB94"/>
<path d="M412.545 166.414C415.135 153.63 409.045 153.96 407.018 151.927C407.018 151.927 399.415 145.658 393.622 151.502C387.49 157.684 352.338 205.706 352.338 205.706L374.332 225.935L378.467 221.001L389.175 208.229L400.63 194.578L402.053 193.024L417.505 175.522C417.505 175.522 411.081 173.145 412.545 166.414Z" fill="#FEBB94"/>
<path d="M421.744 168.592C424.71 159.74 419.937 150.161 411.085 147.196C402.233 144.231 392.653 149.003 389.688 157.855C386.724 166.707 391.496 176.287 400.348 179.252C409.2 182.217 418.78 177.444 421.744 168.592Z" fill="#FEBB94"/>
<path d="M400.632 194.577C399.974 187.472 397.618 176.828 397.618 176.828C397.618 176.828 395.583 176.64 389.303 190.67C384.654 201.185 379.259 211.901 378.367 220.967L389.076 208.194L400.632 194.577Z" fill="#FF967C"/>
<path d="M357.681 143.457C356.536 132.646 359.478 132.122 359.518 126.261C359.539 120.533 368.188 109.929 364.063 110.144C359.938 110.358 357.041 114.3 357.041 114.3C356.429 109.161 357.463 100.61 352.205 97.384C346.946 94.1577 345.709 95.7196 341.427 97.0025C329.996 100.513 336.377 115.639 336.494 120.431C336.597 123.448 341.903 134.733 342.144 136.815L343.833 144.84L357.681 143.457Z" fill="#BC775C"/>
<path d="M351.168 112.484L349.604 96.9656" stroke="#93523E" stroke-width="1.51544" stroke-linecap="round"/>
<path d="M345.819 112.656L343.276 97.7497" stroke="#93523E" stroke-width="1.51544" stroke-linecap="round"/>
<path d="M339.538 112.691L338.253 103.769" stroke="#93523E" stroke-width="1.51544" stroke-linecap="round"/>
<path d="M348.203 124.33C350.071 119.964 354.917 115.762 354.917 115.762L348.203 124.33Z" fill="#93523E"/>
<path d="M348.203 124.33C350.071 119.964 354.917 115.762 354.917 115.762" stroke="#93523E" stroke-width="1.51544" stroke-linecap="round"/>
<path d="M377.708 210.016L360.581 144.836C360.454 144.403 360.17 144.033 359.785 143.797C359.401 143.561 358.942 143.476 358.498 143.558L344.706 146.186C344.047 146.319 343.461 146.693 343.062 147.234C342.663 147.775 342.48 148.445 342.547 149.113L348.982 217.16L377.708 210.016Z" fill="#FEBB94"/>
<path d="M343.68 149.009C343.68 149.009 341.982 142.502 343.68 141.787C345.379 141.072 356.02 139.039 357.448 140.369C358.877 141.698 360.123 147.24 360.123 147.24L343.68 149.009Z" fill="#FEBB94"/>
<path d="M363.756 230.193C372.027 230.193 378.733 223.488 378.733 215.216C378.733 206.944 372.027 200.239 363.756 200.239C355.483 200.239 348.778 206.944 348.778 215.216C348.778 223.488 355.483 230.193 363.756 230.193Z" fill="#FEBB94"/>
<path d="M119.709 142.684C119.709 142.684 130.625 163.826 141.772 167.303C141.772 167.303 148.037 163.976 147.038 144.777" stroke="white" stroke-miterlimit="10"/>
<path d="M141.38 172.752C143.48 172.752 145.182 171.05 145.182 168.951C145.182 166.851 143.48 165.149 141.38 165.149C139.28 165.149 137.578 166.851 137.578 168.951C137.578 171.05 139.28 172.752 141.38 172.752Z" fill="#5661AE"/>
<path d="M136.265 165.562C136.991 165.562 137.579 164.974 137.579 164.248C137.579 163.523 136.991 162.934 136.265 162.934C135.539 162.934 134.951 163.523 134.951 164.248C134.951 164.974 135.539 165.562 136.265 165.562Z" fill="#5661AE"/>
<path d="M145.183 164.75C145.908 164.75 146.497 164.162 146.497 163.436C146.497 162.711 145.908 162.122 145.183 162.122C144.457 162.122 143.869 162.711 143.869 163.436C143.869 164.162 144.457 164.75 145.183 164.75Z" fill="#5661AE"/>
<path d="M250.762 229.929L207.917 230.171V271.335L271.685 267.618L250.762 229.929Z" fill="white"/>
<path d="M246.707 233.94L253.791 248.494" stroke="#5375D9" stroke-width="3.81627" stroke-miterlimit="10" stroke-linecap="round"/>
<path opacity="0.4" d="M239.802 233.941L242.456 239.395" stroke="#5375D9" stroke-width="3.81627" stroke-miterlimit="10" stroke-linecap="round"/>
<path opacity="0.4" d="M210.807 233.941L231.998 233.449L233.555 238.633L211.231 239.395L210.807 233.941Z" fill="#5375D9"/>
<path opacity="0.4" d="M211.401 242.375L223.842 242.04L225.4 247.223L211.825 247.829L211.401 242.375Z" fill="#5375D9"/>
<path opacity="0.4" d="M211.401 251.557L232.592 251.065L234.149 256.248L211.825 257.011L211.401 251.557Z" fill="#5375D9"/>
<path opacity="0.4" d="M211.997 259.992L224.438 259.656L225.995 264.839L212.42 265.445L211.997 259.992Z" fill="#5375D9"/>
<path d="M175.529 299.459L222.775 269.874L256.272 279.401L215.9 314.885L175.529 299.459Z" fill="#5375D9"/>
<path d="M436.407 146.382C436.407 146.382 452.235 141.076 455.21 134.062C455.21 134.062 462.437 135.101 465.273 137.818C468.095 140.535 474.983 141.343 469.014 144.364C463.045 147.385 439.768 149.943 438.352 149.548C436.937 149.153 436.407 146.382 436.407 146.382Z" fill="white"/>
<path d="M429.849 136.724V140.274C429.849 140.274 431.265 145.373 436.408 146.382C436.408 146.382 437.211 149.196 434.38 149.531C431.553 149.865 423.328 145.707 422.118 145.3C420.902 144.899 420.368 143.222 422.725 141.879C422.725 141.879 423.569 137.278 429.849 136.724Z" fill="white"/>
<path d="M444.266 186.484C444.243 186.485 444.219 186.483 444.201 186.478C444.122 186.46 444.052 186.412 444.01 186.345C443.969 186.276 443.95 186.193 443.969 186.113C444.832 182.345 442.418 177.69 440.088 173.186C438.357 169.843 436.566 166.385 436.111 163.267C435.038 156.028 437.967 147.895 438 147.816C438.028 147.741 438.083 147.68 438.158 147.646C438.232 147.612 438.311 147.608 438.39 147.634C438.427 147.647 438.459 147.668 438.492 147.695C438.52 147.722 438.543 147.754 438.561 147.79C438.58 147.827 438.589 147.866 438.589 147.906C438.589 147.946 438.585 147.986 438.571 148.023C438.543 148.102 435.66 156.095 436.705 163.182C437.155 166.196 438.919 169.606 440.631 172.906C443.008 177.507 445.477 182.266 444.563 186.253C444.549 186.32 444.512 186.379 444.456 186.421C444.4 186.463 444.335 186.485 444.266 186.484Z" fill="white"/>
<path d="M433.028 183.032C432.959 183.034 432.894 183.011 432.838 182.969C432.787 182.927 432.75 182.867 432.736 182.801C430.833 174.821 432.871 161.14 433.539 157.134C434.096 154.107 434.291 151.024 434.124 147.95C434.115 147.871 434.142 147.792 434.193 147.73C434.245 147.669 434.314 147.63 434.398 147.622C434.477 147.614 434.556 147.638 434.616 147.688C434.681 147.738 434.718 147.81 434.727 147.889C434.904 151.016 434.704 154.151 434.138 157.231C433.469 161.212 431.446 174.791 433.326 182.661C433.335 182.706 433.339 182.753 433.326 182.798C433.316 182.844 433.298 182.886 433.27 182.923C433.242 182.957 433.205 182.985 433.163 183.003C433.117 183.022 433.075 183.032 433.028 183.032Z" fill="white"/>
<g opacity="0.6">
<path opacity="0.6" d="M443.945 188.665C445.003 188.665 445.862 187.809 445.862 186.752C445.862 185.695 445.003 184.839 443.945 184.839C442.882 184.839 442.023 185.695 442.023 186.752C442.023 187.809 442.882 188.665 443.945 188.665Z" fill="white"/>
</g>
<g opacity="0.6">
<path opacity="0.6" d="M433.371 184.647C434.434 184.647 435.293 183.791 435.293 182.734C435.293 181.677 434.434 180.821 433.371 180.821C432.313 180.821 431.454 181.677 431.454 182.734C431.454 183.791 432.313 184.647 433.371 184.647Z" fill="white"/>
</g>
<path d="M318.119 18.6393H320.904" stroke="#5CA4E6" stroke-miterlimit="10"/>
<path d="M369.094 4.06836H208.662C203.974 4.06836 200.174 7.86883 200.174 12.5563V115.943C200.174 120.631 203.974 124.431 208.662 124.431H369.094C373.781 124.431 377.582 120.631 377.582 115.943V12.5563C377.582 7.86883 373.781 4.06836 369.094 4.06836Z" fill="url(#paint1_linear_2003_1246)"/>
<path d="M363.483 93.9495H274.358C272.883 93.9495 271.688 95.1451 271.688 96.6202V108.673C271.688 110.148 272.883 111.344 274.358 111.344H363.483C364.958 111.344 366.153 110.148 366.153 108.673V96.6202C366.153 95.1451 364.958 93.9495 363.483 93.9495Z" fill="white"/>
<path d="M335.877 101.453V100.761H337.447V106.796H336.679V101.453H335.877ZM338.735 102.28C338.774 101.768 338.971 101.367 339.328 101.078C339.684 100.788 340.146 100.644 340.713 100.644C341.092 100.644 341.418 100.713 341.69 100.852C341.968 100.986 342.177 101.169 342.316 101.403C342.461 101.637 342.533 101.901 342.533 102.196C342.533 102.541 342.433 102.839 342.233 103.09C342.038 103.34 341.782 103.501 341.465 103.574V103.616C341.826 103.705 342.113 103.88 342.324 104.141C342.536 104.403 342.642 104.745 342.642 105.168C342.642 105.485 342.57 105.772 342.425 106.028C342.28 106.278 342.063 106.476 341.774 106.62C341.484 106.765 341.136 106.838 340.73 106.838C340.14 106.838 339.656 106.684 339.278 106.379C338.9 106.067 338.688 105.627 338.643 105.059H339.378C339.417 105.394 339.553 105.666 339.787 105.878C340.02 106.089 340.332 106.195 340.722 106.195C341.111 106.195 341.406 106.095 341.607 105.894C341.813 105.688 341.916 105.424 341.916 105.101C341.916 104.684 341.776 104.383 341.498 104.2C341.22 104.016 340.8 103.924 340.238 103.924H340.046V103.29H340.246C340.758 103.284 341.145 103.201 341.406 103.039C341.668 102.872 341.799 102.617 341.799 102.271C341.799 101.977 341.701 101.74 341.507 101.562C341.317 101.384 341.045 101.295 340.688 101.295C340.343 101.295 340.065 101.384 339.854 101.562C339.642 101.74 339.517 101.979 339.478 102.28H338.735ZM343.576 106.186C344.282 105.619 344.836 105.154 345.237 104.793C345.638 104.425 345.974 104.044 346.247 103.649C346.525 103.248 346.664 102.856 346.664 102.472C346.664 102.11 346.575 101.826 346.397 101.62C346.225 101.409 345.943 101.303 345.554 101.303C345.176 101.303 344.881 101.423 344.669 101.662C344.463 101.896 344.352 102.21 344.335 102.606H343.601C343.623 101.982 343.812 101.501 344.168 101.161C344.525 100.822 344.984 100.652 345.546 100.652C346.119 100.652 346.572 100.811 346.906 101.128C347.246 101.445 347.416 101.882 347.416 102.438C347.416 102.9 347.277 103.351 346.998 103.79C346.726 104.225 346.414 104.609 346.063 104.943C345.713 105.271 345.264 105.655 344.719 106.095H347.591V106.729H343.576V106.186Z" fill="#5375D9"/>
<path d="M259.2 16.8166H212.494C210.742 16.8166 209.323 18.2364 209.323 19.9881V108.173C209.323 109.924 210.742 111.344 212.494 111.344H259.2C260.951 111.344 262.371 109.924 262.371 108.173V19.9881C262.371 18.2364 260.951 16.8166 259.2 16.8166Z" fill="#5375D9"/>
<path opacity="0.4" d="M235.847 79.5937C243.235 79.5937 249.225 73.6043 249.225 66.2164C249.225 58.828 243.235 52.8386 235.847 52.8386C228.459 52.8386 222.469 58.828 222.469 66.2164C222.469 73.6043 228.459 79.5937 235.847 79.5937Z" fill="white"/>
<path d="M231.707 62.5334V71.0237C231.707 71.259 231.769 71.4906 231.885 71.6953C232.002 71.8995 232.169 72.0703 232.371 72.1901C232.574 72.3103 232.804 72.3757 233.039 72.3799C233.275 72.3836 233.507 72.3265 233.714 72.2137L241.475 67.9682C241.689 67.8517 241.867 67.6795 241.991 67.4701C242.115 67.2608 242.18 67.0218 242.18 66.7785C242.18 66.5353 242.115 66.2963 241.991 66.087C241.867 65.8776 241.689 65.7054 241.475 65.5889L233.714 61.3433C233.507 61.2306 233.275 61.1735 233.039 61.1772C232.804 61.1813 232.574 61.2468 232.371 61.3665C232.169 61.4868 232.002 61.6576 231.885 61.8618C231.769 62.0665 231.707 62.2976 231.707 62.5334Z" fill="white"/>
<path d="M274.083 28.1698H307.448" stroke="white" stroke-width="16.3488" stroke-miterlimit="10" stroke-linecap="round"/>
<path opacity="0.4" d="M274.083 43.7419H343.036" stroke="white" stroke-width="16.3488" stroke-miterlimit="10" stroke-linecap="round"/>
<path d="M274.494 64.3807H307.86" stroke="white" stroke-width="16.3488" stroke-miterlimit="10" stroke-linecap="round"/>
<path opacity="0.4" d="M274.494 79.9525H343.447" stroke="white" stroke-width="16.3488" stroke-miterlimit="10" stroke-linecap="round"/>
<path d="M286.589 99.6726C286.067 99.1903 285.381 98.9221 284.671 98.9221C283.96 98.9221 283.275 99.1903 282.753 99.6726L282.03 100.34L281.308 99.6726C280.785 99.1903 280.101 98.9221 279.39 98.9221C278.679 98.9221 277.994 99.1903 277.472 99.6726C277.197 99.9223 276.976 100.227 276.825 100.567C276.674 100.906 276.596 101.274 276.596 101.646C276.596 102.018 276.674 102.386 276.825 102.725C276.976 103.066 277.197 103.37 277.472 103.619L282.03 107.844L286.589 103.675C286.876 103.427 287.107 103.12 287.265 102.775C287.424 102.429 287.506 102.054 287.506 101.674C287.506 101.294 287.424 100.918 287.265 100.573C287.107 100.228 286.876 99.9204 286.589 99.6726Z" fill="#F4608A"/>
<path d="M291.677 102.28C291.716 101.768 291.913 101.367 292.269 101.078C292.626 100.788 293.088 100.644 293.655 100.644C294.034 100.644 294.359 100.713 294.632 100.852C294.91 100.986 295.119 101.169 295.258 101.403C295.403 101.637 295.475 101.901 295.475 102.196C295.475 102.541 295.375 102.839 295.174 103.09C294.98 103.34 294.724 103.501 294.406 103.574V103.616C294.768 103.705 295.055 103.88 295.266 104.141C295.478 104.403 295.583 104.745 295.583 105.168C295.583 105.485 295.511 105.772 295.367 106.028C295.222 106.278 295.005 106.476 294.715 106.62C294.426 106.765 294.078 106.838 293.672 106.838C293.082 106.838 292.598 106.684 292.219 106.379C291.841 106.067 291.63 105.627 291.585 105.059H292.32C292.358 105.394 292.495 105.666 292.729 105.878C292.962 106.089 293.274 106.195 293.664 106.195C294.053 106.195 294.348 106.095 294.548 105.894C294.754 105.688 294.857 105.424 294.857 105.101C294.857 104.684 294.718 104.383 294.44 104.2C294.162 104.016 293.742 103.924 293.18 103.924H292.987V103.29H293.188C293.7 103.284 294.087 103.201 294.348 103.039C294.61 102.872 294.741 102.617 294.741 102.271C294.741 101.977 294.643 101.74 294.448 101.562C294.259 101.384 293.986 101.295 293.63 101.295C293.285 101.295 293.007 101.384 292.795 101.562C292.584 101.74 292.459 101.979 292.42 102.28H291.677ZM297.519 105.744L296.584 107.99H296.075L296.684 105.744H297.519ZM302.112 101.42H299.182V103.323C299.31 103.145 299.499 103.001 299.75 102.889C300 102.772 300.27 102.714 300.56 102.714C301.021 102.714 301.397 102.811 301.687 103.006C301.976 103.195 302.182 103.443 302.304 103.749C302.432 104.049 302.496 104.369 302.496 104.709C302.496 105.11 302.421 105.468 302.271 105.786C302.121 106.103 301.89 106.354 301.578 106.537C301.272 106.721 300.891 106.813 300.434 106.813C299.85 106.813 299.377 106.662 299.015 106.362C298.654 106.061 298.434 105.661 298.356 105.16H299.099C299.171 105.477 299.324 105.725 299.558 105.903C299.792 106.081 300.087 106.17 300.443 106.17C300.883 106.17 301.214 106.039 301.436 105.778C301.659 105.51 301.77 105.16 301.77 104.726C301.77 104.292 301.659 103.958 301.436 103.724C301.214 103.485 300.885 103.365 300.451 103.365C300.156 103.365 299.897 103.437 299.675 103.582C299.458 103.721 299.299 103.913 299.199 104.158H298.481V100.752H302.112V101.42ZM303.414 106.186C304.121 105.619 304.674 105.154 305.075 104.793C305.476 104.425 305.812 104.044 306.085 103.649C306.363 103.248 306.503 102.856 306.503 102.472C306.503 102.11 306.413 101.826 306.235 101.62C306.063 101.409 305.782 101.303 305.392 101.303C305.014 101.303 304.719 101.423 304.508 101.662C304.302 101.896 304.19 102.21 304.173 102.606H303.439C303.461 101.982 303.65 101.501 304.007 101.161C304.363 100.822 304.822 100.652 305.384 100.652C305.957 100.652 306.411 100.811 306.745 101.128C307.084 101.445 307.254 101.882 307.254 102.438C307.254 102.9 307.115 103.351 306.836 103.79C306.564 104.225 306.252 104.609 305.901 104.943C305.551 105.271 305.103 105.655 304.558 106.095H307.429V106.729H303.414V106.186ZM312.022 101.353L309.701 106.796H308.933L311.287 101.428H308.065V100.777H312.022V101.353Z" fill="#5375D9"/>
<path d="M332.472 102.656C332.472 100.096 329.438 98.0199 325.696 98.0199C321.953 98.0199 318.919 100.096 318.919 102.656C318.919 105.217 321.953 107.293 325.696 107.293C325.963 107.293 326.226 107.279 326.485 107.257C326.525 107.253 326.565 107.259 326.602 107.274C326.64 107.288 326.673 107.31 326.7 107.34C327.181 107.843 328.237 108.622 330.236 108.746C330.286 108.749 330.336 108.739 330.381 108.716C330.425 108.692 330.462 108.657 330.488 108.614C330.513 108.571 330.527 108.522 330.526 108.472C330.525 108.422 330.511 108.372 330.485 108.33C330.135 107.808 329.863 107.239 329.675 106.641C329.659 106.581 329.665 106.518 329.69 106.462C329.716 106.406 329.76 106.36 329.815 106.333C331.429 105.486 332.472 104.156 332.472 102.656Z" fill="#5375D9"/>
<path d="M185.603 4H126.755C122.269 4 118.632 7.63663 118.632 12.1231V93.2808C118.632 97.7668 122.269 101.404 126.755 101.404H185.603C190.089 101.404 193.726 97.7668 193.726 93.2808V12.1231C193.726 7.63663 190.089 4 185.603 4Z" fill="#5375D9"/>
<path d="M152.358 63.9657L149.275 71.1958H148.255L151.382 64.0655H147.102V63.2003H152.358V63.9657ZM154.941 67.0263C154.527 66.8639 154.209 66.6272 153.987 66.3167C153.765 66.0061 153.655 65.6292 153.655 65.1855C153.655 64.7864 153.754 64.4276 153.954 64.1101C154.154 63.7847 154.449 63.5294 154.841 63.3447C155.24 63.1525 155.721 63.0565 156.283 63.0565C156.844 63.0565 157.321 63.1525 157.713 63.3447C158.112 63.5294 158.412 63.7847 158.611 64.1101C158.818 64.4276 158.922 64.7864 158.922 65.1855C158.922 65.6144 158.807 65.9913 158.578 66.3167C158.349 66.6346 158.035 66.8713 157.636 67.0263C158.094 67.167 158.456 67.4144 158.722 67.7695C158.996 68.1166 159.133 68.5381 159.133 69.0333C159.133 69.5142 159.014 69.9356 158.778 70.2977C158.541 70.6528 158.205 70.9299 157.768 71.1294C157.34 71.3216 156.844 71.4177 156.283 71.4177C155.721 71.4177 155.225 71.3216 154.796 71.1294C154.376 70.9299 154.046 70.6528 153.81 70.2977C153.573 69.9356 153.455 69.5142 153.455 69.0333C153.455 68.5381 153.588 68.1129 153.854 67.7583C154.12 67.4032 154.482 67.1596 154.941 67.0263ZM157.946 65.3076C157.946 64.8564 157.798 64.5093 157.502 64.2651C157.207 64.021 156.8 63.8994 156.283 63.8994C155.773 63.8994 155.37 64.021 155.074 64.2651C154.778 64.5093 154.63 64.8601 154.63 65.3187C154.63 65.7327 154.782 66.0651 155.085 66.3167C155.396 66.5678 155.795 66.6935 156.283 66.6935C156.778 66.6935 157.177 66.5678 157.48 66.3167C157.791 66.0577 157.946 65.7216 157.946 65.3076ZM156.283 67.4701C155.735 67.4701 155.288 67.5991 154.941 67.8581C154.593 68.1092 154.42 68.4903 154.42 69.0004C154.42 69.4733 154.586 69.8539 154.919 70.1426C155.259 70.4309 155.713 70.5748 156.283 70.5748C156.852 70.5748 157.303 70.4309 157.636 70.1426C157.968 69.8539 158.135 69.4733 158.135 69.0004C158.135 68.5051 157.964 68.1278 157.625 67.8692C157.284 67.6028 156.837 67.4701 156.283 67.4701ZM160.251 64.9859C160.251 64.4833 160.403 64.0841 160.706 63.7884C161.009 63.4853 161.397 63.3336 161.87 63.3336C162.343 63.3336 162.731 63.4853 163.034 63.7884C163.337 64.0841 163.489 64.4833 163.489 64.9859C163.489 65.496 163.337 65.9026 163.034 66.2057C162.731 66.5014 162.343 66.6494 161.87 66.6494C161.397 66.6494 161.009 66.5014 160.706 66.2057C160.403 65.9026 160.251 65.496 160.251 64.9859ZM166.727 63.4556L162.236 71.1958H161.238L165.729 63.4556H166.727ZM161.87 63.9546C161.619 63.9546 161.419 64.0432 161.271 64.2205C161.131 64.3909 161.061 64.6457 161.061 64.9859C161.061 65.3262 161.131 65.5847 161.271 65.762C161.419 65.9398 161.619 66.0284 161.87 66.0284C162.121 66.0284 162.321 65.9398 162.469 65.762C162.617 65.5773 162.691 65.3187 162.691 64.9859C162.691 64.6457 162.617 64.3909 162.469 64.2205C162.321 64.0432 162.121 63.9546 161.87 63.9546ZM164.498 69.6655C164.498 69.1554 164.65 68.7525 164.953 68.4569C165.256 68.1538 165.644 68.002 166.117 68.002C166.591 68.002 166.975 68.1538 167.271 68.4569C167.574 68.7525 167.725 69.1554 167.725 69.6655C167.725 70.1682 167.574 70.5711 167.271 70.8742C166.975 71.1772 166.591 71.329 166.117 71.329C165.644 71.329 165.256 71.181 164.953 70.8853C164.65 70.5822 164.498 70.1756 164.498 69.6655ZM166.106 68.6342C165.855 68.6342 165.655 68.7228 165.507 68.9006C165.36 69.0705 165.285 69.3257 165.285 69.6655C165.285 69.9983 165.36 70.2531 165.507 70.4309C165.655 70.6008 165.855 70.6857 166.106 70.6857C166.358 70.6857 166.557 70.6008 166.705 70.4309C166.853 70.2531 166.927 69.9983 166.927 69.6655C166.927 69.3257 166.853 69.0705 166.705 68.9006C166.557 68.7228 166.358 68.6342 166.106 68.6342Z" fill="white"/>
<path d="M156.18 88.2896C168.785 88.2896 179.003 78.0718 179.003 65.4673C179.003 52.8623 168.785 42.6445 156.18 42.6445C143.576 42.6445 133.357 52.8623 133.357 65.4673C133.357 78.0718 143.576 88.2896 156.18 88.2896Z" stroke="white" stroke-width="15" stroke-miterlimit="10" stroke-linecap="round"/>
<path d="M179.003 65.4673C178.996 71.5156 176.588 77.3129 172.308 81.5868C168.029 85.8607 162.228 88.2613 156.18 88.2613C150.132 88.2613 144.332 85.8607 140.052 81.5868C135.773 77.3129 133.365 71.5156 133.357 65.4673" stroke="#96BAFD" stroke-width="15" stroke-linecap="round" stroke-linejoin="round"/>
<path d="M156.18 42.6445C159.178 42.6445 162.146 43.2345 164.914 44.3814C167.683 45.5288 170.2 47.2095 172.318 49.3288C174.438 51.4481 176.119 53.9642 177.266 56.7334C178.413 59.502 179.003 62.4698 179.003 65.4673" stroke="#FEBB94" stroke-width="15" stroke-linecap="round" stroke-linejoin="round"/>
<path d="M129.505 19.0566H144.675" stroke="white" stroke-width="7.4328" stroke-miterlimit="10" stroke-linecap="round"/>
<path opacity="0.4" d="M129.505 26.1354H160.854" stroke="white" stroke-width="7.4328" stroke-miterlimit="10" stroke-linecap="round"/>
<path d="M461.18 325.572H125.799V334H461.18V325.572Z" fill="#5375D9"/>
<path d="M128.425 112.612C129.194 112.612 129.817 111.988 129.817 111.219C129.817 110.45 129.194 109.827 128.425 109.827C127.656 109.827 127.032 110.45 127.032 111.219C127.032 111.988 127.656 112.612 128.425 112.612Z" fill="#5661AE"/>
<defs>
<linearGradient id="paint0_linear_2003_1246" x1="253.05" y1="-1.33798" x2="287.607" y2="492.505" gradientUnits="userSpaceOnUse">
<stop stop-color="white"/>
<stop offset="1" stop-color="#94B9FF"/>
</linearGradient>
<linearGradient id="paint1_linear_2003_1246" x1="268.34" y1="-34.2281" x2="295.838" y2="261.284" gradientUnits="userSpaceOnUse">
<stop stop-color="white"/>
<stop offset="1" stop-color="#94B9FF"/>
</linearGradient>
</defs>
</svg>
