<svg width="585" height="373" viewBox="0 0 585 373" fill="none" xmlns="http://www.w3.org/2000/svg">
<mask id="mask0_2003_1251" style="mask-type:luminance" maskUnits="userSpaceOnUse" x="58" y="0" width="469" height="373">
<path d="M526.2 0H58.8V372.539H526.2V0Z" fill="white"/>
</mask>
<g mask="url(#mask0_2003_1251)">
<path d="M292.499 372.539C421.57 372.539 526.2 369.866 526.2 366.569C526.2 363.272 421.57 360.598 292.499 360.598C163.431 360.598 58.8 363.272 58.8 366.569C58.8 369.866 163.431 372.539 292.499 372.539Z" fill="#F5F8FF"/>
<path d="M353.319 0H138.92C135.735 0 133.153 2.58205 133.153 5.76669V146.895C133.153 150.08 135.735 152.661 138.92 152.661H353.319C356.504 152.661 359.085 150.08 359.085 146.895V5.76669C359.085 2.58205 356.504 0 353.319 0Z" fill="url(#paint0_linear_2003_1251)"/>
<path d="M348.509 99.4303H308.561C307.079 99.4303 305.878 100.631 305.878 102.113V145.466C305.878 146.948 307.079 148.149 308.561 148.149H348.509C349.991 148.149 351.192 146.948 351.192 145.466V102.113C351.192 100.631 349.991 99.4303 348.509 99.4303Z" fill="#FEBB94"/>
<path d="M200.268 98.974H142.488C141.233 98.974 140.216 99.9912 140.216 101.246V145.877C140.216 147.132 141.233 148.149 142.488 148.149H200.268C201.523 148.149 202.54 147.132 202.54 145.877V101.246C202.54 99.9912 201.523 98.974 200.268 98.974Z" fill="white"/>
<path d="M298.727 98.974H209.975C208.432 98.974 207.18 100.226 207.18 101.769V145.354C207.18 146.898 208.432 148.149 209.975 148.149H298.727C300.27 148.149 301.522 146.898 301.522 145.354V101.769C301.522 100.226 300.27 98.974 298.727 98.974Z" fill="white"/>
<path d="M347.605 19.9387H267.241C265.261 19.9387 263.655 21.5444 263.655 23.5252V91.0007C263.655 92.981 265.261 94.5868 267.241 94.5868H347.605C349.586 94.5868 351.192 92.981 351.192 91.0007V23.5252C351.192 21.5444 349.586 19.9387 347.605 19.9387Z" fill="#5375D9"/>
<path d="M247.823 171.812C252.735 166.385 251.342 164.933 253.646 161.728C255.907 158.604 255.409 149.404 257.568 151.157C259.727 152.91 259.739 156.204 259.739 156.204C262.11 153.652 264.94 148.59 269.081 148.921C273.222 149.252 273.275 150.593 275.096 152.989C279.921 159.434 270.449 165.131 268.484 167.692C267.231 169.292 259.868 173.326 258.911 174.363L254.807 178.058L247.823 171.812Z" fill="#FFCCB3"/>
<path d="M263.655 157.547L270.662 149.725" stroke="#EF6A77" stroke-width="1.07832" stroke-linecap="round"/>
<path d="M266.496 159.762L273.793 152.661" stroke="#EF6A77" stroke-width="1.07832" stroke-linecap="round"/>
<path d="M269.899 162.273L274.138 157.93" stroke="#EF6A77" stroke-width="1.07832" stroke-linecap="round"/>
<path d="M174.249 215.72L133.153 363.245H141.525L189.025 215.72H174.249Z" fill="#D1E8F7"/>
<path d="M174.249 215.72L171.232 226.551L186.978 222.079L189.025 215.72H174.249Z" fill="#5CA4E6"/>
<path d="M466.263 333.184L444 362.78C443.477 363.477 442.695 363.938 441.834 364.06C440.969 364.182 440.091 363.956 439.397 363.431L437.328 361.877L463.544 327.024L465.613 328.578C466.311 329.103 466.768 329.883 466.891 330.746C467.014 331.61 466.79 332.487 466.263 333.184Z" fill="#5661AE"/>
<path d="M445.264 315.854L453.289 322.377L445.137 334.96L436.085 328.052L445.264 315.854Z" fill="#BC775C"/>
<path d="M448.826 319.032L438.83 329.937L436.397 328.018L445.761 316.514L448.826 319.032Z" fill="#93523E" stroke="#93523E"/>
<path d="M452.212 321.568C452.212 321.568 449.959 329.495 442.533 333.555L435.826 359.776C436.041 361.281 437.723 362.248 438.839 362.606C439.085 362.684 439.348 362.683 439.594 362.603C439.84 362.524 440.051 362.371 440.205 362.164L464.005 330.527C464.4 329.999 464.576 329.337 464.492 328.681C464.405 328.026 464.066 327.431 463.544 327.024C461.466 325.393 458.273 322.936 456.894 322.092C454.755 320.788 453.236 320.487 452.212 321.568Z" fill="#5375D9"/>
<path d="M440.982 338.992L444.799 338.174C444.939 338.144 445.084 338.149 445.22 338.188C445.357 338.227 445.48 338.299 445.585 338.398C445.686 338.497 445.765 338.62 445.809 338.755C445.853 338.891 445.862 339.035 445.835 339.176C445.805 339.348 445.725 339.507 445.602 339.632C445.479 339.757 445.326 339.842 445.155 339.877L440.468 340.823L440.982 338.992Z" fill="white"/>
<path d="M440.082 343.147L443.877 342.319C444.017 342.289 444.162 342.294 444.298 342.333C444.434 342.372 444.562 342.445 444.663 342.544C444.768 342.642 444.843 342.765 444.887 342.901C444.931 343.036 444.94 343.181 444.918 343.321C444.887 343.493 444.803 343.652 444.68 343.777C444.562 343.902 444.404 343.988 444.232 344.022L439.612 344.981L440.082 343.147Z" fill="white"/>
<path d="M438.923 347.67L442.678 346.832C442.818 346.802 442.963 346.807 443.099 346.846C443.236 346.885 443.363 346.957 443.464 347.056C443.565 347.155 443.644 347.278 443.688 347.413C443.732 347.549 443.741 347.693 443.714 347.834C443.684 348.006 443.604 348.165 443.481 348.29C443.359 348.415 443.205 348.5 443.034 348.535L438.466 349.456L438.923 347.67Z" fill="white"/>
<path d="M368.968 281.363L432.506 332.554L446.999 315.661L391.446 263.542L368.968 281.363Z" fill="#1F2D49"/>
<path d="M403.048 274.426V308.82L432.506 332.554L436.735 306.031L403.048 274.426Z" fill="#0D1B33"/>
<path d="M374.606 187.252L364.162 270.536H393.363L418.728 187.669L374.606 187.252Z" fill="#1F2D49"/>
<path d="M399.679 249.904L404.584 208.587H416.642L399.679 249.904Z" fill="#0D1B33"/>
<path d="M425.891 364.673H388.857C387.985 364.673 387.148 364.327 386.531 363.71C385.914 363.093 385.568 362.256 385.568 361.383V358.798H429.181V361.383C429.181 362.256 428.834 363.093 428.219 363.71C427.6 364.327 426.765 364.673 425.891 364.673Z" fill="#5661AE"/>
<path d="M427.117 337.472L426.73 347.809L411.771 348.856L411.852 337.472H427.117Z" fill="#BC775C"/>
<path d="M426.721 342.232L411.996 340.798L412.066 337.7L426.888 338.267L426.721 342.232Z" fill="#93523E" stroke="#93523E"/>
<path d="M426.73 346.463C426.73 346.463 419.04 349.425 411.331 345.932L386.344 356.334C385.269 357.41 385.507 359.334 385.893 360.443C385.979 360.686 386.138 360.896 386.348 361.044C386.559 361.192 386.811 361.271 387.068 361.27H426.656C427.319 361.271 427.951 361.012 428.425 360.549C428.895 360.087 429.168 359.458 429.181 358.797C429.234 356.154 429.278 352.127 429.124 350.516C428.882 348.025 428.206 346.627 426.73 346.463Z" fill="#5375D9"/>
<path d="M406.052 347.96L409 350.518C409.108 350.612 409.191 350.73 409.242 350.863C409.293 350.996 409.311 351.14 409.294 351.281C409.276 351.423 409.224 351.558 409.142 351.675C409.061 351.791 408.951 351.886 408.824 351.95C408.668 352.03 408.492 352.06 408.319 352.038C408.146 352.015 407.983 351.941 407.853 351.825L404.28 348.649L406.052 347.96Z" fill="white"/>
<path d="M402.19 349.738L405.134 352.275C405.242 352.368 405.325 352.486 405.376 352.619C405.427 352.752 405.444 352.896 405.427 353.037C405.41 353.179 405.358 353.314 405.276 353.431C405.194 353.548 405.085 353.642 404.958 353.707C404.802 353.786 404.626 353.817 404.453 353.794C404.279 353.772 404.117 353.698 403.986 353.582L400.442 350.465L402.19 349.738Z" fill="white"/>
<path d="M397.88 351.532L400.806 354.028C400.914 354.121 400.997 354.24 401.048 354.373C401.099 354.506 401.117 354.649 401.099 354.791C401.082 354.933 401.03 355.067 400.948 355.184C400.866 355.301 400.757 355.396 400.63 355.46C400.474 355.54 400.298 355.57 400.125 355.548C399.951 355.525 399.789 355.451 399.658 355.335L396.178 352.241L397.88 351.532Z" fill="white"/>
<path d="M436.445 187.669C436.204 191.893 436.204 196.127 436.445 200.35C437.416 214.002 434.311 253.869 434.337 259.115C434.359 264.361 430.907 338.249 430.907 338.249H409.911C409.911 338.249 404.545 274.749 404.421 267.482C404.297 260.215 403.048 187.968 403.048 187.968L436.445 187.669Z" fill="#1F2D49"/>
<path d="M373.974 192.295L436.445 200.35V187.669L374.297 189.713L373.974 192.295Z" fill="#0D1B33"/>
<path d="M378.763 285.136C386.826 285.136 393.363 278.6 393.363 270.536C393.363 262.472 386.826 255.935 378.763 255.935C370.699 255.935 364.162 262.472 364.162 270.536C364.162 278.6 370.699 285.136 378.763 285.136Z" fill="#1F2D49"/>
<path d="M487.568 208.587H104.253V215.72H487.568V208.587Z" fill="url(#paint1_linear_2003_1251)"/>
<path fill-rule="evenodd" clip-rule="evenodd" d="M288.19 355.736C282.526 353.735 276.688 351.672 271.306 352.054C271.185 352.063 271.067 352.097 270.96 352.155C270.854 352.213 270.76 352.294 270.688 352.392C270.616 352.49 270.565 352.602 270.541 352.721C270.516 352.84 270.518 352.963 270.545 353.082L272.799 362.603C272.845 362.799 272.961 362.972 273.125 363.089C273.289 363.206 273.49 363.26 273.69 363.241L310.28 359.707C312.979 359.447 314.28 357.849 314.474 355.648C314.479 355.572 314.462 355.496 314.426 355.43C314.389 355.363 314.334 355.309 314.268 355.273C314.201 355.237 314.125 355.221 314.05 355.227C313.974 355.233 313.902 355.261 313.842 355.307C309.804 358.335 304.742 359.662 299.738 359.006C296.126 358.541 292.201 357.154 288.19 355.736Z" fill="#5661AE"/>
<path fill-rule="evenodd" clip-rule="evenodd" d="M268.396 328.265C268.396 328.265 272.17 343.227 272.276 344.833C272.286 345.725 272.229 346.616 272.107 347.5C271.939 349.089 271.751 350.859 272.033 352.02C277.211 351.86 282.78 353.827 288.19 355.738C292.201 357.155 296.125 358.541 299.738 359.005C304.5 359.63 309.324 358.46 313.271 355.721C313.106 352.989 310.515 350.686 305.735 350.732C297.167 350.815 292.426 350.662 287.7 344.893C284.341 340.793 282.72 323.5 282.72 323.5L268.396 328.265Z" fill="#FFCCB3"/>
<path fill-rule="evenodd" clip-rule="evenodd" d="M286.606 342.504C285.028 342.873 278.747 344.315 272.62 345.313C271.429 345.507 271.051 347.966 271.951 349.188C272.572 350.092 273.118 351.044 273.585 352.035C275.72 352.161 277.836 352.508 279.899 353.07C278.811 350.737 279.975 349.211 282.219 348.659C283.992 348.224 288.268 348.149 290.482 348.141C290.604 348.141 290.723 348.105 290.825 348.04C290.927 347.973 291.009 347.88 291.059 347.769C291.11 347.658 291.128 347.535 291.11 347.415C291.094 347.295 291.042 347.181 290.963 347.089L287.237 342.712C287.161 342.623 287.062 342.556 286.951 342.519C286.84 342.482 286.721 342.477 286.606 342.504Z" fill="white"/>
<path fill-rule="evenodd" clip-rule="evenodd" d="M309.016 357.946C305.098 359.464 302.357 359.149 302.357 359.149L301.522 350.495L308.264 350.157L309.016 357.946Z" fill="white"/>
<path d="M264.831 267.9C271.331 265.951 275.019 259.101 273.069 252.603C271.12 246.103 264.271 242.415 257.772 244.364C251.273 246.314 247.584 253.163 249.534 259.662C251.483 266.161 258.332 269.85 264.831 267.9Z" fill="#FFCCB3"/>
<path d="M264.937 244.395L244.57 237.424L235.091 262.962L261.438 267.549L264.937 244.395Z" fill="#FFCCB3"/>
<path d="M273.48 254.5L283.819 331.764L270.408 336.405L250.133 263.045L273.48 254.5Z" fill="#FFCCB3"/>
<path fill-rule="evenodd" clip-rule="evenodd" d="M231.011 361.093C225.661 358.362 220.146 355.548 214.761 355.217C214.639 355.209 214.518 355.227 214.404 355.271C214.291 355.315 214.188 355.383 214.103 355.47C214.019 355.557 213.954 355.662 213.914 355.777C213.874 355.891 213.859 356.014 213.871 356.135L214.849 365.87C214.869 366.07 214.961 366.257 215.108 366.395C215.255 366.533 215.447 366.613 215.649 366.62L252.385 367.943C255.094 368.041 256.595 366.629 257.077 364.472C257.092 364.397 257.086 364.321 257.058 364.25C257.031 364.179 256.983 364.118 256.922 364.074C256.861 364.029 256.788 364.003 256.712 363.999C256.636 363.995 256.561 364.013 256.495 364.05C252.094 366.52 246.901 367.168 242.027 365.857C238.508 364.92 234.801 363.028 231.011 361.093Z" fill="#5661AE"/>
<path fill-rule="evenodd" clip-rule="evenodd" d="M215.013 331.251C215.013 331.251 216.782 346.58 216.675 348.186C216.566 349.071 216.393 349.948 216.155 350.808C215.779 352.361 215.359 354.091 215.486 355.279C220.64 355.802 225.9 358.487 231.011 361.095C234.801 363.029 238.507 364.92 242.027 365.857C246.665 367.104 251.602 366.58 255.875 364.386C256.072 361.656 253.808 359.032 249.063 358.447C240.56 357.399 235.879 356.622 231.956 350.28C229.166 345.773 229.841 328.417 229.841 328.417L215.013 331.251Z" fill="#FCBA9F"/>
<path fill-rule="evenodd" clip-rule="evenodd" d="M231.187 347.767C229.573 347.925 223.157 348.526 216.952 348.707C215.746 348.742 215.047 351.13 215.778 352.46C216.274 353.437 216.69 354.453 217.022 355.498C219.122 355.904 221.174 356.527 223.145 357.356C222.374 354.9 223.729 353.541 226.026 353.29C227.84 353.092 232.09 353.582 234.285 353.867C234.406 353.882 234.529 353.863 234.639 353.811C234.749 353.759 234.841 353.676 234.906 353.574C234.971 353.47 235.005 353.351 235.004 353.23C235.003 353.108 234.967 352.989 234.901 352.887L231.784 348.056C231.721 347.958 231.632 347.878 231.526 347.828C231.421 347.777 231.303 347.756 231.187 347.767Z" fill="white"/>
<path fill-rule="evenodd" clip-rule="evenodd" d="M251.364 366.031C247.28 367.018 244.605 366.345 244.605 366.345L244.918 357.656L251.646 358.21L251.364 366.031Z" fill="white"/>
<path d="M219.441 270.944C226.141 269.868 230.7 263.566 229.625 256.866C228.55 250.166 222.247 245.607 215.548 246.682C208.848 247.757 204.289 254.06 205.364 260.76C206.439 267.459 212.742 272.019 219.441 270.944Z" stroke="#5CA4E6" stroke-width="1.0969" stroke-miterlimit="10"/>
<path d="M229.782 258.802L229.84 336.754L215.934 339.585L205.511 264.192L229.782 258.802Z" fill="#FCBA9F"/>
<path d="M193.377 230.341C193.377 230.341 189.638 248.638 194.538 256.284C200.74 265.963 208.326 267.445 213.932 267.549L244.22 264.937C244.22 264.937 244.02 247.522 255.238 241.016C255.238 241.016 209.263 224.048 193.377 230.341Z" fill="#5661AE"/>
<path d="M181.718 136.991L179.312 149.278L165.387 148.333L168.055 135.272L181.718 136.991Z" fill="#FFCCB3"/>
<path d="M181.578 137.705L180.409 143.674C180.409 143.674 177.209 140.947 176.591 136.69L181.578 137.705Z" fill="#FCBA9F"/>
<path d="M161.095 151.827C161.095 151.827 164.266 143.552 166.159 144.557C170.657 146.945 177.228 146.502 180.136 145.067C181.88 144.207 181.946 151.827 181.946 151.827H161.095Z" fill="#FEBB94"/>
<path d="M161.095 151.827L147.733 153.617C147.366 153.666 147.033 153.856 146.804 154.147C146.575 154.438 146.469 154.806 146.508 155.174L155.837 243.68L203.71 238.981L197.785 154.76L181.946 151.827H161.095Z" fill="#FEBB94"/>
<path d="M195.162 177.045L191.428 170.254L192.347 177.045H195.162Z" fill="#FF967C"/>
<path d="M196.955 154.606C202.003 155.381 206.234 158.745 207.648 161.684L220.136 190.133L250.802 165.608L259.52 174.79L231.954 208.846C226.411 216.147 216.822 219.151 210.291 209.631L199.856 193.241L196.955 154.606Z" fill="#FEBB94"/>
<path d="M220.136 190.133L223.625 196.991L226.281 185.218L220.136 190.133Z" fill="#FF967C"/>
<path d="M147.835 153.603C147.835 153.603 144.229 153.539 141.198 158.844C138.166 164.149 125.889 196.282 125.889 196.282C125.889 196.282 120.28 208.408 131.649 208.863H155.445L147.835 153.603Z" fill="#FEBB94"/>
<path d="M150.52 177.046L149.524 172.595L147.017 177.046H150.52Z" fill="#FF967C"/>
<path d="M213.473 267.518H161.503C159.866 267.518 158.284 266.927 157.048 265.855C155.811 264.783 155.003 263.3 154.771 261.68L143.788 184.807C143.651 183.842 143.722 182.86 143.997 181.925C144.272 180.99 144.745 180.126 145.383 179.39C146.021 178.654 146.81 178.063 147.697 177.659C148.583 177.254 149.546 177.045 150.52 177.045H202.491C204.127 177.045 205.709 177.636 206.946 178.708C208.182 179.78 208.99 181.263 209.222 182.883L220.205 259.757C220.343 260.721 220.272 261.704 219.996 262.638C219.721 263.573 219.249 264.437 218.61 265.173C217.972 265.909 217.183 266.5 216.297 266.904C215.411 267.309 214.447 267.518 213.473 267.518Z" fill="#5CA4E6"/>
<path d="M209.97 267.518H249.771C250.113 267.518 250.449 267.428 250.744 267.256C251.039 267.084 251.284 266.838 251.454 266.541C251.623 266.244 251.711 265.908 251.709 265.567C251.706 265.224 251.614 264.89 251.44 264.595C251.304 264.365 251.122 264.166 250.906 264.01C250.69 263.853 250.443 263.743 250.182 263.687L217.963 256.682L209.97 267.518Z" fill="#5CA4E6"/>
<path d="M209.97 267.518H158C156.363 267.518 154.781 266.927 153.544 265.855C152.308 264.783 151.5 263.3 151.268 261.68L140.285 184.807C140.148 183.842 140.219 182.86 140.494 181.925C140.769 180.99 141.242 180.126 141.88 179.39C142.518 178.654 143.307 178.063 144.193 177.659C145.08 177.254 146.042 177.045 147.017 177.045H198.987C200.624 177.045 202.206 177.636 203.443 178.708C204.679 179.78 205.487 181.263 205.719 182.883L216.702 259.757C216.84 260.721 216.768 261.704 216.493 262.638C216.218 263.573 215.746 264.437 215.107 265.173C214.469 265.909 213.68 266.5 212.794 266.904C211.907 267.309 210.944 267.518 209.97 267.518Z" fill="url(#paint2_linear_2003_1251)"/>
<path d="M422.22 196.869C422.22 196.869 419.413 202.172 418.728 202.78C418.047 203.389 406.768 204.78 404.584 205.562C402.4 206.344 401.356 207.527 401.356 208.587H427.868C427.868 208.587 428.553 207.948 429.049 205.909C429.541 203.872 430.406 203.007 430.406 203.007L422.22 196.869Z" fill="#BC775C"/>
<path d="M384.112 113.335C385.856 104.727 381.755 104.949 380.391 103.581C380.391 103.581 375.271 99.3591 371.371 103.294C367.242 107.457 343.574 139.79 343.574 139.79L358.383 153.41L361.167 150.089L368.377 141.489L376.09 132.298L377.048 131.252L387.452 119.467C387.452 119.467 383.126 117.866 384.112 113.335Z" fill="#5661AE"/>
<path d="M390.306 114.802C392.302 108.842 389.089 102.392 383.129 100.396C377.169 98.3995 370.719 101.613 368.722 107.573C366.726 113.533 369.94 119.983 375.9 121.979C381.86 123.975 388.31 120.762 390.306 114.802Z" fill="#5661AE"/>
<path d="M376.911 131.206C377.21 129.406 377.807 125.809 378.45 122.529L381.867 106.658C381.867 106.658 372.69 120.22 368.462 129.667C365.332 136.747 361.7 143.962 361.099 150.066L368.309 141.466L376.021 132.275L376.911 131.206Z" fill="#465393"/>
<path d="M328.782 103.388C325.263 96.9694 326.954 95.8802 325.457 92.2283C323.983 88.6651 326.601 79.8315 324.094 81.0357C321.588 82.2405 320.812 85.4413 320.812 85.4413C319.097 82.4082 317.519 76.8282 313.414 76.1896C309.31 75.551 308.947 76.8427 306.62 78.7515C300.431 83.9011 308.323 91.6398 309.64 94.5868C310.488 96.4341 316.715 102.066 317.405 103.297L320.539 107.843L328.782 103.388Z" fill="#BC775C"/>
<path d="M316.691 85.8393L311.69 76.6051" stroke="#93523E" stroke-width="1.07832" stroke-linecap="round"/>
<path d="M313.414 87.3344L307.963 78.7349" stroke="#93523E" stroke-width="1.07832" stroke-linecap="round"/>
<path d="M309.521 88.9874L306.406 83.7794" stroke="#93523E" stroke-width="1.07832" stroke-linecap="round"/>
<path d="M317.927 93.968C317.953 90.7706 319.872 86.9017 319.872 86.9017" stroke="#93523E" stroke-width="1.07832" stroke-linecap="round"/>
<path d="M358.509 139.533L328.395 99.4302C328.203 99.1948 327.931 99.0385 327.631 98.9919C327.33 98.9449 327.023 99.0112 326.769 99.1773L318.884 104.392C318.509 104.646 318.242 105.03 318.135 105.47C318.028 105.909 318.087 106.374 318.303 106.771L342.52 151.431L358.509 139.533Z" fill="#5661AE"/>
<path d="M351.192 156.471C356.761 156.471 361.276 151.956 361.276 146.387C361.276 140.817 356.761 136.302 351.192 136.302C345.622 136.302 341.107 140.817 341.107 146.387C341.107 151.956 345.622 156.471 351.192 156.471Z" fill="#5661AE"/>
<path d="M393.327 94.5156C393.327 94.5156 378.624 99.1926 375.723 100.406C372.822 101.619 372.629 106.473 372.436 109.911C372.3 112.32 375.019 151.877 375.198 174.787C375.236 179.681 374.324 182.787 373.737 185.507C373.151 188.227 373.737 189.708 373.737 189.708L436.735 190.271C436.735 190.271 434.847 110.672 434.46 107.841C434.074 105.009 437.113 102.571 433.819 101.146L409.763 94.5156H393.327Z" fill="white"/>
<path d="M385.422 97.0687C385.422 97.0687 387.822 108.049 389.395 116.836C390.967 125.624 391.446 198.371 391.446 198.371C391.446 198.371 373.037 194.792 370.544 190.563C368.05 186.333 372.853 167.331 373.227 150.066C373.601 132.801 369.967 106.007 373.783 101.358C373.783 101.358 374.761 100.389 385.422 97.0687Z" fill="#5661AE"/>
<path d="M416.361 96.3629C416.361 96.3629 407.627 114.562 408.161 120.108C408.695 125.655 408.725 172.957 408.161 182.833C407.81 188.841 406.895 194.802 405.427 200.638C405.427 200.638 429.256 202.326 438.461 199.444C438.461 199.444 442.836 171.925 439.963 162.095C437.095 152.264 434.904 101.172 434.904 101.172L416.361 96.3629Z" fill="#5661AE"/>
<path d="M422.808 120.819C422.808 120.819 423.7 153.8 423.515 164.794C423.401 171.645 415.566 174.546 415.544 178.512C415.531 180.859 421.728 178.112 423.401 180.538C425.07 182.964 422.215 190.563 422.215 190.563L436.735 190.271L442.555 162.044L430.297 119.121L422.808 120.819Z" fill="#465393"/>
<path d="M393.629 87.1644L392.265 102.535C392.265 102.535 391.902 104.923 396.048 105.678C399.341 106.277 406.183 102.409 407.728 101.134C411.161 98.3011 411.478 96.5869 411.115 95.2742C410.595 93.3931 408.897 80.1381 408.897 80.1381L393.629 87.1644Z" fill="#BC775C"/>
<path d="M392.733 99.7434L393.574 90.2695L400.892 86.6544L392.733 99.7434Z" fill="#93523E" stroke="#93523E"/>
<path d="M385.494 58.0727C385.494 58.0727 382.69 70.6307 382.317 79.1833C381.94 87.8122 385.024 89.4553 388.846 90.0996C391.861 90.6077 396.552 90.6446 399.501 89.172C404.879 86.4863 413.708 79.9681 414.864 78.7037C416.655 76.7457 416.532 68.0131 409.697 65.8536C404.727 64.2826 392.054 50.9463 385.494 58.0727Z" fill="#BC775C"/>
<path d="M385.521 59.4118C389.598 61.01 397.272 59.9599 401.487 61.328C405.696 62.6996 401.866 64.1477 402.049 68.2142C402.168 70.8481 402.368 75.8813 403.984 75.8145C405.6 75.7482 406.553 70.032 409.961 70.2499C413.369 70.4721 414.976 71.9276 414.901 74.1074C414.828 76.2832 412.379 78.1792 410.447 79.1858C408.028 80.4384 407.03 79.9131 407.03 79.9131C407.03 79.9131 409.752 89.9357 410.163 89.5386C410.163 89.5386 413.099 87.8815 413.629 84.9806C413.629 84.9806 417.525 84.1365 416.664 80.2395C416.664 80.2395 419.088 79.4608 417.938 77.2046C417.938 77.2046 424.209 72.9874 420.942 67.8268C420.942 67.8268 423.915 64.8596 420.362 63.6048C420.362 63.6048 425.07 56.7261 418.372 55.2596C418.372 55.2596 418.82 52.0218 415.755 52.1452C415.755 52.1452 414.416 46.5762 407.727 48.7726C407.695 47.6575 407.327 46.5779 406.671 45.6758C406.015 44.7737 405.101 44.0907 404.05 43.717C400.261 42.1912 397.795 44.291 397.795 44.291C397.795 44.291 393.819 41.048 391.726 45.8027C391.726 45.8027 388.718 44.2655 386.464 45.8989C384.206 47.527 385.304 50.9401 385.304 50.9401C385.304 50.9401 382.723 50.3353 381.782 52.4724C380.452 55.4796 382.319 56.5754 382.319 56.5754C382.319 56.5754 378.118 61.5419 384.026 66.2462L385.521 59.4118Z" fill="#493212"/>
<path d="M395.782 71.8095C396.004 70.7937 395.644 69.8525 394.979 69.7071C394.313 69.5617 393.594 70.2675 393.372 71.2829C393.15 72.2984 393.51 73.2396 394.175 73.3849C394.841 73.5303 395.56 72.825 395.782 71.8095Z" fill="#080B09"/>
<path d="M386.626 69.7475C386.848 68.732 386.489 67.7908 385.823 67.6454C385.158 67.5001 384.438 68.2054 384.217 69.2213C383.995 70.2367 384.354 71.1779 385.02 71.3233C385.685 71.4687 386.404 70.7633 386.626 69.7475Z" fill="#080B09"/>
<path d="M388.436 72.4441C388.436 72.4441 389.573 74.6339 387.93 74.6673C386.36 74.6453 385.446 75.5663 387.029 76.9011" stroke="#93523E" stroke-width="1.07832" stroke-linecap="round"/>
<path d="M387.272 78.9258L387.279 78.9266L387.286 78.9271C388.26 78.9969 390.204 79.137 391.497 79.2516H391.499C391.537 79.2547 391.573 79.2679 391.604 79.2898C391.635 79.3122 391.658 79.3421 391.673 79.3772C391.688 79.4119 391.693 79.4502 391.688 79.4875C391.683 79.5235 391.668 79.5578 391.645 79.5863C391.361 79.8995 390.987 80.2719 390.571 80.593C390.151 80.9175 389.702 81.1784 389.27 81.2821C388.848 81.3839 388.45 81.3343 388.093 81.0484C387.726 80.7533 387.374 80.1854 387.112 79.1862L387.108 79.1691L387.101 79.1528C387.089 79.1265 387.085 79.097 387.088 79.0685C387.091 79.0395 387.102 79.0123 387.12 78.989C387.137 78.9657 387.161 78.9477 387.187 78.9367C387.214 78.9253 387.243 78.9218 387.272 78.9258Z" fill="#93523E" stroke="#93523E"/>
<path d="M398.972 68.4628L398.881 68.6468C398.771 68.9266 398.556 69.1515 398.281 69.2731C398.006 69.3943 397.695 69.4022 397.415 69.2946L392.644 67.32C392.409 67.2339 392.215 67.0626 392.1 66.8404C391.986 66.6182 391.958 66.3608 392.024 66.1197C392.058 65.9699 392.123 65.8289 392.215 65.7064C392.307 65.5834 392.423 65.4819 392.558 65.4077C392.692 65.3335 392.84 65.2883 392.993 65.276C393.146 65.2632 393.3 65.283 393.444 65.3344L398.306 67.1254C398.439 67.1672 398.562 67.2357 398.668 67.3261C398.774 67.4171 398.861 67.5282 398.923 67.6529C398.985 67.7776 399.022 67.9138 399.03 68.053C399.038 68.1922 399.018 68.3315 398.972 68.4628Z" fill="#080B09"/>
<path d="M382.874 64.0212L388.044 63.6729C388.197 63.6641 388.35 63.6883 388.493 63.7436C388.636 63.7989 388.766 63.8837 388.874 63.9926C388.981 64.1016 389.065 64.2324 389.119 64.3761C389.172 64.5197 389.195 64.673 389.185 64.8262C389.18 65.0761 389.082 65.3155 388.909 65.4965C388.736 65.6774 388.502 65.7868 388.252 65.8035L383.119 66.3538C382.819 66.3779 382.523 66.2831 382.293 66.0889C382.064 65.8953 381.92 65.6186 381.894 65.3195L381.858 65.1174C381.851 64.9782 381.871 64.8385 381.918 64.7077C381.966 64.5763 382.039 64.456 382.134 64.3537C382.228 64.2513 382.343 64.1692 382.47 64.1121C382.597 64.055 382.735 64.0243 382.874 64.0212Z" fill="#080B09"/>
<path d="M435.378 109.081C428.887 103.163 426.972 106.795 425.097 107.263C425.097 107.263 418.847 109.485 420.217 114.854C421.666 120.534 437.245 157.452 437.245 157.452L456.903 152.798L455.12 147.65L451.449 137.046L447.527 125.707L447.118 124.347L442.353 109.367C442.353 109.367 438.76 112.255 435.378 109.081Z" fill="#5661AE"/>
<path d="M438.576 120.568C443.35 116.48 443.907 109.296 439.818 104.521C435.73 99.7465 428.544 99.1896 423.77 103.277C418.996 107.365 418.438 114.549 422.527 119.324C426.616 124.099 433.797 124.656 438.576 120.568Z" fill="#5661AE"/>
<path d="M437.095 152.264L419.708 199.304C419.615 199.593 419.633 199.907 419.756 200.184C419.879 200.462 420.099 200.684 420.38 200.808L429.032 204.609C429.449 204.787 429.919 204.803 430.345 204.655C430.771 204.507 431.131 204.205 431.346 203.808L455.761 159.255L437.095 152.264Z" fill="#5661AE"/>
<path d="M446.819 164.784C452.388 164.784 456.903 160.269 456.903 154.7C456.903 149.13 452.388 144.615 446.819 144.615C441.25 144.615 436.735 149.13 436.735 154.7C436.735 160.269 441.25 164.784 446.819 164.784Z" fill="#5661AE"/>
<path d="M174.53 267.518H212.417C212.417 271.698 210.757 275.707 207.801 278.663C204.846 281.618 200.837 283.279 196.657 283.279H190.291C186.111 283.279 182.102 281.618 179.146 278.663C176.191 275.707 174.53 271.698 174.53 267.518Z" fill="#E7EFFF"/>
<path d="M194.315 283.279H192.633V359.037H194.315V283.279Z" fill="#5CA4E6"/>
<path d="M192.633 359.037L169.539 366.521H217.05L194.315 359.037H192.633Z" fill="#5CA4E6"/>
<path d="M117.611 215.72L76.5155 363.245H84.8871L132.387 215.72H117.611Z" fill="#E7EFFF"/>
<path d="M117.611 215.72L114.594 226.551L130.34 222.079L132.387 215.72H117.611Z" fill="#96BAFD"/>
<path d="M467.945 215.72L509.041 363.245H500.669L453.166 215.72H467.945Z" fill="#D1E8F7"/>
<path d="M467.945 215.72L470.251 224.001L455.296 222.33L453.166 215.72H467.945Z" fill="#5CA4E6"/>
<path d="M182.35 110.942C182.35 110.942 187.876 120.913 189.792 125.029C191.709 129.143 192.364 133.583 189.172 135.626C184.83 138.407 180.024 137.789 174.845 137.21C170.361 136.709 164.744 124.094 165.432 120.997C166.12 117.9 173.917 105.476 182.35 110.942Z" fill="#FFCCB3"/>
<path d="M186.47 122.371C186.873 122.045 186.81 121.301 186.331 120.708C185.851 120.115 185.137 119.898 184.734 120.223C184.332 120.549 184.394 121.293 184.874 121.886C185.353 122.479 186.068 122.696 186.47 122.371Z" fill="#080B09"/>
<path d="M180.517 120.855L184.734 117.856C184.631 117.737 184.504 117.64 184.361 117.573C184.219 117.506 184.064 117.469 183.906 117.465C183.749 117.461 183.592 117.49 183.446 117.55C183.301 117.611 183.169 117.701 183.061 117.815L180.268 120.647C180.168 120.728 180.369 120.975 180.517 120.855Z" fill="#080B09"/>
<path d="M188.995 128.56C188.429 128.912 187.776 129.098 187.109 129.098C186.442 129.098 185.789 128.912 185.223 128.56" stroke="#EF6A77" stroke-miterlimit="10" stroke-linecap="round"/>
<path d="M178.387 116.923L187.415 112.356C187.415 112.356 184.141 101.707 172.147 100.594C163.347 99.7776 155.169 104.629 151.999 112.208C148.83 119.787 151.54 132.274 159.578 135.272C166.377 137.807 166.159 144.557 166.159 144.557L176.115 131.501C176.115 131.501 169.227 128.149 170.878 124.059C173.117 118.514 178.744 124.924 178.744 124.924L174.937 113.843L178.387 116.923Z" fill="#1F2D49"/>
<path d="M187.928 121.297C187.928 121.297 189.434 123.259 190.345 123.638C191.256 124.016 190.441 125.41 189.834 125.603C189.227 125.797 187.582 122.223 187.928 121.297Z" fill="#FFCCB3"/>
<path d="M150.707 131.995C156.615 131.995 161.405 127.206 161.405 121.297C161.405 115.389 156.615 110.599 150.707 110.599C144.799 110.599 140.009 115.389 140.009 121.297C140.009 127.206 144.799 131.995 150.707 131.995Z" fill="#0D1B33"/>
<path d="M149.524 132.465C155.432 132.465 160.222 127.676 160.222 121.767C160.222 115.859 155.432 111.069 149.524 111.069C143.616 111.069 138.826 115.859 138.826 121.767C138.826 127.676 143.616 132.465 149.524 132.465Z" fill="#1F2D49"/>
<path d="M254.453 19.9387H143.779C141.811 19.9387 140.216 21.5343 140.216 23.5024V90.9519C140.216 92.92 141.811 94.5156 143.779 94.5156H254.453C256.421 94.5156 258.016 92.92 258.016 90.9519V23.5024C258.016 21.5343 256.421 19.9387 254.453 19.9387Z" fill="#FEBB94"/>
<path d="M216.771 109.57H222.689" stroke="#D4DCF4" stroke-width="12" stroke-miterlimit="10" stroke-linecap="round"/>
<path d="M235.713 109.57H290.813" stroke="#5661AE" stroke-width="12" stroke-miterlimit="10" stroke-linecap="round"/>
<path d="M216.771 122.53H222.689" stroke="#D4DCF4" stroke-width="12" stroke-miterlimit="10" stroke-linecap="round"/>
<path d="M235.713 122.53H261.367" stroke="#5661AE" stroke-width="12" stroke-miterlimit="10" stroke-linecap="round"/>
<path d="M216.771 135.718H222.689" stroke="#D4DCF4" stroke-width="12" stroke-miterlimit="10" stroke-linecap="round"/>
<path d="M235.713 135.718H279.831" stroke="#5661AE" stroke-width="12" stroke-miterlimit="10" stroke-linecap="round"/>
<path d="M148.049 59.9497C148.049 59.9497 157.802 57.8956 160.895 62.6385C163.989 67.3814 167.082 76.2915 174.094 75.1359C181.105 73.9808 184.489 50.6765 191.501 50.8825C198.512 51.0889 197.397 66.3506 205.027 66.5566C212.657 66.763 210.531 58.0273 215.625 58.2663C221.805 58.5557 221.112 76.6617 229.155 76.8677C237.197 77.0741 236.373 52.9463 248.54 53.3587" stroke="white" stroke-width="6.35676" stroke-miterlimit="10" stroke-linecap="round"/>
<path d="M151.159 31.2284H170.631" stroke="white" stroke-width="10.0826" stroke-miterlimit="10" stroke-linecap="round"/>
<path opacity="0.4" d="M151.159 40.3154H191.398" stroke="white" stroke-width="10.0826" stroke-miterlimit="10" stroke-linecap="round"/>
<path opacity="0.4" d="M307.423 69.9214C314.414 69.9214 320.082 64.2539 320.082 57.2628C320.082 50.272 314.414 44.6046 307.423 44.6046C300.432 44.6046 294.765 50.272 294.765 57.2628C294.765 64.2539 300.432 69.9214 307.423 69.9214Z" fill="white"/>
<path d="M303.507 53.7779V61.8121C303.507 62.0348 303.565 62.254 303.675 62.4472C303.786 62.6409 303.945 62.8025 304.136 62.9158C304.328 63.0296 304.545 63.0911 304.768 63.095C304.991 63.099 305.211 63.045 305.406 62.9378L312.751 58.9209C312.953 58.8102 313.121 58.6477 313.239 58.4496C313.356 58.2515 313.418 58.0253 313.418 57.7952C313.418 57.5646 313.356 57.3389 313.239 57.1408C313.121 56.9427 312.953 56.7798 312.751 56.6691L305.406 52.6522C305.211 52.5455 304.991 52.491 304.768 52.495C304.545 52.4989 304.328 52.5608 304.136 52.6741C303.945 52.7879 303.786 52.9491 303.676 53.1428C303.566 53.3365 303.507 53.5552 303.507 53.7779Z" fill="white"/>
<path d="M139.098 0H353.14C354.717 0 356.229 0.626296 357.344 1.74142C358.459 2.85611 359.085 4.36827 359.085 5.945V14.9007H133.153V5.945C133.153 4.36827 133.779 2.85611 134.894 1.74142C136.009 0.626296 137.521 0 139.098 0Z" fill="#5CA4E6"/>
<path d="M487.568 208.587H424.464V215.72H487.568V208.587Z" fill="#96BAFD"/>
<path d="M411.306 215.72L452.401 363.245H444.03L396.53 215.72H411.306Z" fill="#E7EFFF"/>
<path d="M411.306 215.72L414.323 226.551L398.578 222.079L396.53 215.72H411.306Z" fill="#5CA4E6"/>
<path d="M464.514 88.7951C481.634 88.7951 495.513 74.916 495.513 57.7951C495.513 40.6738 481.634 26.7947 464.514 26.7947C447.39 26.7947 433.511 40.6738 433.511 57.7951C433.511 74.916 447.39 88.7951 464.514 88.7951Z" fill="#FEBB94"/>
<path d="M475.561 57.0414C475.561 55.0365 475.016 53.0689 473.984 51.3498C472.952 49.6308 471.472 48.2249 469.702 47.2828C467.932 46.3403 465.938 45.8972 463.935 46.0004C461.932 46.1036 459.995 46.7492 458.335 47.8687C456.671 48.9883 455.344 50.5386 454.492 52.3547C453.64 54.1708 453.302 56.1836 453.508 58.1785C453.715 60.1729 454.457 62.0737 455.66 63.6773C456.864 65.2812 458.485 66.5277 460.342 67.2831V70.9109H468.67V67.2831C470.707 66.4543 472.451 65.0375 473.676 63.213C474.906 61.389 475.561 59.24 475.561 57.0414Z" stroke="white" stroke-width="3.71807" stroke-linecap="round" stroke-linejoin="round"/>
<path d="M460.342 70.911H468.7V72.6902C468.7 73.4439 468.402 74.1668 467.866 74.7C467.334 75.2332 466.61 75.5327 465.859 75.5327H463.184C462.428 75.5327 461.708 75.2332 461.172 74.7C460.641 74.1668 460.342 73.4439 460.342 72.6902V70.911Z" stroke="white" stroke-width="3.71807" stroke-linecap="round" stroke-linejoin="round"/>
<path d="M462.639 70.9108V58.2193C462.639 57.9154 462.516 57.6242 462.301 57.4094C462.086 57.1946 461.796 57.0739 461.493 57.0739H461.458C461.155 57.0739 460.86 57.1946 460.649 57.4094C460.434 57.6242 460.311 57.9154 460.311 58.2193C460.311 58.3695 460.342 58.5184 460.399 58.6576C460.456 58.7964 460.54 58.9224 460.649 59.0292C460.755 59.1355 460.882 59.2198 461.018 59.2773C461.159 59.3348 461.308 59.3643 461.458 59.3643H467.554C467.703 59.3643 467.852 59.3348 467.993 59.2773C468.129 59.2198 468.256 59.1355 468.362 59.0292C468.472 58.9224 468.555 58.7964 468.612 58.6576C468.669 58.5184 468.7 58.3695 468.7 58.2193C468.7 57.9154 468.577 57.6242 468.362 57.4094C468.147 57.1946 467.857 57.0739 467.554 57.0739H467.453C467.15 57.0739 466.86 57.1946 466.645 57.4094C466.429 57.6242 466.306 57.9154 466.306 58.2193V70.9108" stroke="white" stroke-width="3.71807" stroke-linecap="round" stroke-linejoin="round"/>
<path d="M464.519 40.057V42.8942" stroke="white" stroke-width="3.71807" stroke-linecap="round" stroke-linejoin="round"/>
<path d="M454.29 42.7903L455.709 45.2476" stroke="white" stroke-width="3.71807" stroke-linecap="round" stroke-linejoin="round"/>
<path d="M446.802 50.2711L449.257 51.6897" stroke="white" stroke-width="3.71807" stroke-linecap="round" stroke-linejoin="round"/>
<path d="M482.223 50.2953L479.768 51.7139" stroke="white" stroke-width="3.71807" stroke-linecap="round" stroke-linejoin="round"/>
<path d="M474.744 42.8043L473.325 45.2612" stroke="white" stroke-width="3.71807" stroke-linecap="round" stroke-linejoin="round"/>
<path d="M123.83 19.9387H100.831C99.2252 19.9387 97.9238 21.2405 97.9238 22.8462V45.8453C97.9238 47.451 99.2252 48.7528 100.831 48.7528H123.83C125.436 48.7528 126.737 47.451 126.737 45.8453V22.8462C126.737 21.2405 125.436 19.9387 123.83 19.9387Z" fill="#5375D9"/>
<path d="M123.83 55.5143H100.831C99.2252 55.5143 97.9238 56.8161 97.9238 58.4213V81.4209C97.9238 83.0266 99.2252 84.3279 100.831 84.3279H123.83C125.436 84.3279 126.737 83.0266 126.737 81.4209V58.4213C126.737 56.8161 125.436 55.5143 123.83 55.5143Z" fill="#5375D9"/>
<path d="M121.707 66.0376C121.692 65.2562 121.544 64.4828 121.269 63.7507C121.026 63.1244 120.656 62.5556 120.181 62.0804C119.706 61.6056 119.137 61.2349 118.511 60.992C117.778 60.718 117.005 60.5695 116.224 60.5542C115.214 60.5063 114.894 60.4949 112.335 60.4949C109.775 60.4949 109.454 60.5063 108.449 60.5502C107.667 60.5656 106.894 60.7136 106.162 60.9885C105.536 61.231 104.967 61.6017 104.492 62.0769C104.017 62.5516 103.646 63.1208 103.403 63.7471C103.129 64.4788 102.981 65.2523 102.966 66.0341C102.918 67.0433 102.906 67.3635 102.906 69.9232C102.906 72.4828 102.918 72.803 102.962 73.8083C102.977 74.5901 103.125 75.3635 103.4 76.0957C103.643 76.722 104.013 77.2907 104.488 77.7659C104.963 78.2407 105.532 78.6114 106.159 78.8538C106.89 79.1283 107.664 79.2768 108.445 79.2921C109.451 79.3365 109.771 79.3475 112.331 79.3475C114.89 79.3475 115.211 79.3365 116.216 79.2921C116.998 79.2768 117.771 79.1288 118.503 78.8538C119.13 78.6118 119.699 78.2411 120.174 77.7664C120.649 77.2912 121.019 76.722 121.262 76.0957C121.536 75.3635 121.684 74.5901 121.7 73.8083C121.744 72.803 121.755 72.4828 121.755 69.9232C121.755 67.3635 121.751 67.0433 121.707 66.0376ZM120.01 73.735C120.003 74.3323 119.894 74.9243 119.685 75.4843C119.528 75.891 119.288 76.2599 118.98 76.5682C118.671 76.8766 118.302 77.1168 117.896 77.274C117.335 77.4822 116.744 77.5916 116.146 77.5982C115.152 77.6425 114.854 77.6535 112.338 77.6535C109.823 77.6535 109.521 77.6425 108.53 77.5982C107.932 77.592 107.341 77.4826 106.781 77.274C106.372 77.1238 106.001 76.8836 105.698 76.5704C105.386 76.2665 105.146 75.8967 104.995 75.4878C104.786 74.9278 104.677 74.3358 104.671 73.7385C104.626 72.7441 104.615 72.4459 104.615 69.9306C104.615 67.4149 104.626 67.1132 104.671 66.1223C104.677 65.525 104.786 64.933 104.995 64.373C105.145 63.9632 105.386 63.5925 105.702 63.2904C106.006 62.9781 106.375 62.7379 106.784 62.5868C107.344 62.379 107.936 62.2692 108.534 62.2626C109.528 62.2187 109.827 62.2077 112.342 62.2077C114.861 62.2077 115.159 62.2187 116.15 62.2626C116.747 62.2688 117.339 62.3786 117.899 62.5868C118.309 62.737 118.678 62.9772 118.982 63.2904C119.294 63.5943 119.534 63.9645 119.685 64.373C119.894 64.9334 120.003 65.525 120.01 66.1223C120.054 67.1167 120.065 67.4149 120.065 69.9306C120.065 72.4459 120.054 72.7406 120.01 73.735Z" fill="white"/>
<path d="M112.334 65.08C111.377 65.08 110.44 65.3641 109.644 65.8964C108.848 66.4283 108.227 67.1846 107.86 68.0696C107.494 68.9546 107.398 69.9283 107.585 70.8677C107.772 71.8072 108.233 72.6702 108.91 73.3474C109.587 74.0247 110.45 74.4858 111.39 74.6729C112.329 74.8596 113.303 74.7639 114.188 74.3971C115.073 74.0308 115.829 73.4098 116.361 72.6135C116.893 71.8173 117.178 70.8809 117.178 69.923C117.177 68.6388 116.667 67.4068 115.758 66.499C114.85 65.5908 113.619 65.0804 112.334 65.08ZM112.334 73.0646C111.713 73.0646 111.106 72.8801 110.589 72.5349C110.073 72.1897 109.67 71.6991 109.432 71.1251C109.194 70.5511 109.132 69.9195 109.253 69.3099C109.375 68.7007 109.674 68.1407 110.113 67.7015C110.553 67.2623 111.112 66.9633 111.722 66.842C112.331 66.7208 112.963 66.7827 113.537 67.0208C114.111 67.2584 114.601 67.6611 114.946 68.1776C115.292 68.6941 115.476 69.3015 115.476 69.923C115.476 70.7562 115.145 71.5551 114.555 72.144C113.967 72.7334 113.168 73.0642 112.334 73.0646Z" fill="white"/>
<path d="M118.499 64.8887C118.499 65.1122 118.433 65.331 118.309 65.5172C118.185 65.703 118.008 65.8479 117.802 65.9335C117.595 66.0192 117.368 66.0416 117.148 65.9977C116.929 65.9542 116.728 65.8466 116.569 65.6885C116.411 65.5303 116.303 65.3288 116.26 65.1096C116.216 64.89 116.238 64.6629 116.324 64.4561C116.41 64.2496 116.555 64.0731 116.74 63.9488C116.927 63.8245 117.145 63.7582 117.369 63.7582C117.668 63.7582 117.956 63.8772 118.168 64.0893C118.38 64.3015 118.499 64.5887 118.499 64.8887Z" fill="white"/>
<path d="M115.186 29.3477H116.828V26.4872C116.034 26.4003 115.235 26.3577 114.436 26.3608C112.068 26.3608 110.446 27.8501 110.446 30.5876V33.1064H107.833V36.3042H110.446V44.3499H113.649V36.3051H116.157L116.555 33.1073H113.649V30.9043C113.649 29.9802 113.898 29.3477 115.186 29.3477Z" fill="white"/>
</g>
<defs>
<linearGradient id="paint0_linear_2003_1251" x1="240.495" y1="-0.362779" x2="264.357" y2="325.368" gradientUnits="userSpaceOnUse">
<stop stop-color="white"/>
<stop offset="1" stop-color="#94B9FF"/>
</linearGradient>
<linearGradient id="paint1_linear_2003_1251" x1="286.367" y1="208.57" x2="286.398" y2="223.872" gradientUnits="userSpaceOnUse">
<stop stop-color="white"/>
<stop offset="1" stop-color="#94B9FF"/>
</linearGradient>
<linearGradient id="paint2_linear_2003_1251" x1="176.588" y1="176.83" x2="201.053" y2="367.772" gradientUnits="userSpaceOnUse">
<stop stop-color="white"/>
<stop offset="1" stop-color="#94B9FF"/>
</linearGradient>
</defs>
</svg>
