<svg width="585" height="412" viewBox="0 0 585 412" fill="none" xmlns="http://www.w3.org/2000/svg">
<mask id="mask0_2003_1399" style="mask-type:luminance" maskUnits="userSpaceOnUse" x="58" y="0" width="469" height="412">
<path d="M526.2 0.539185H58.8V411.425H526.2V0.539185Z" fill="white"/>
</mask>
<g mask="url(#mask0_2003_1399)">
<path d="M152.428 0.539185H438.628C442.958 0.539185 447.107 2.25828 450.169 5.31831C453.226 8.37834 454.945 12.5285 454.945 16.8562V34.8718H136.111V16.8562C136.111 12.5285 137.831 8.37834 140.89 5.31831C143.95 2.25828 148.101 0.539185 152.428 0.539185Z" fill="#5375D9"/>
<path d="M136.111 34.8719H454.945V323.878C454.945 327.795 454.176 331.674 452.676 335.293C451.175 338.912 448.982 342.2 446.21 344.971C443.442 347.741 440.152 349.938 436.535 351.437C432.912 352.936 429.034 353.707 425.117 353.707H165.94C162.023 353.707 158.144 352.936 154.525 351.437C150.906 349.938 147.618 347.741 144.848 344.971C142.078 342.2 139.881 338.912 138.382 335.293C136.883 331.674 136.111 327.795 136.111 323.878V34.8719Z" fill="url(#paint0_linear_2003_1399)"/>
<path d="M344.43 239.881H256.978V282.352H344.43V239.881Z" fill="#FFCCB3"/>
<path d="M256.463 266.064C246.207 276.156 242.172 325.854 242.712 353.707H364.799C364.799 353.707 364.58 292.967 355.324 272.498C346.812 253.675 332.663 281.442 256.463 266.064Z" fill="#1F2D49"/>
<path d="M329.736 46.5949C329.736 46.5949 339.865 35.0404 359.528 33.3593C379.191 31.6783 385.074 48.9002 384.234 59.481C383.393 70.0618 367.984 91.9151 371.066 101.161C374.148 110.406 359.656 105.924 358.076 87.4323C356.497 68.941 350.613 43.1654 334.643 52.4108L329.736 46.5949Z" fill="#080B09"/>
<path d="M332.81 41.1862C332.81 41.1862 335.233 39.7824 336.987 43.0571C338.742 46.3318 342.018 52.9814 337.865 54.7441C333.712 56.5072 332.81 41.1862 332.81 41.1862Z" fill="#5375D9"/>
<path d="M276.643 147.678C276.643 147.678 292.351 165.308 287.127 170.963C276.78 182.585 249.262 204.429 240.245 211.66C239.856 211.958 239.411 212.176 238.937 212.301C238.463 212.427 237.969 212.457 237.483 212.391C236.998 212.324 236.53 212.163 236.107 211.914C235.684 211.666 235.314 211.337 235.02 210.945L213.698 182.913C212.864 181.834 212.475 180.476 212.611 179.119C212.747 177.762 213.398 176.509 214.429 175.616L255.729 140.002L276.643 147.678Z" fill="#5375D9"/>
<path d="M251.846 170.092C251.846 170.092 232.27 181.726 230.506 205.103L234.405 210.112C234.405 210.112 236.853 214.378 240.245 211.66C243.637 208.943 259.329 196.373 259.329 196.373L251.846 170.092Z" fill="#0E66AF"/>
<path d="M270.148 178.954C282.358 178.954 292.257 169.056 292.257 156.845C292.257 144.635 282.358 134.736 270.148 134.736C257.938 134.736 248.039 144.635 248.039 156.845C248.039 169.056 257.938 178.954 270.148 178.954Z" fill="#5375D9"/>
<path d="M212.577 226.148L193.256 200.566L211.547 186.366L214.414 184.058L234.455 210.268L230.966 212.777L212.577 226.148Z" fill="#FFCCB3"/>
<path d="M230.966 212.777C225.79 205.848 216.058 192.306 211.547 186.366L214.414 184.058L234.405 210.111L230.966 212.777Z" fill="#FF967C"/>
<path d="M202.623 229.697C211.487 229.697 218.673 222.511 218.673 213.648C218.673 204.783 211.487 197.598 202.623 197.598C193.759 197.598 186.574 204.783 186.574 213.648C186.574 222.511 193.759 229.697 202.623 229.697Z" fill="#FFCCB3"/>
<path d="M216.212 205.014C216.212 205.014 164.44 128.983 162.047 122.526C159.718 116.22 147.489 131.394 147.489 131.394L187.558 218.816L216.212 205.014Z" fill="#FFCCB3"/>
<path d="M287.488 98.9852L281.264 142.378C281.264 142.378 279.63 148.137 286.881 149.009C294.132 149.881 309.593 147.932 315.115 142.048C320.637 136.164 318.705 133.249 318.705 133.249L306.994 86.1504L287.488 98.9852Z" fill="#FFCCB3"/>
<path d="M286.622 104.601L301.846 99.2233L282.985 127.177L286.622 104.601Z" fill="#FF967C"/>
<path d="M270.263 45.387C270.263 45.387 257.202 76.0761 264.009 97.1095C268.448 110.827 278.116 113.293 300.256 103.013C320.557 93.588 325.83 86.458 325.83 86.458L328.824 52.2474C328.824 52.2474 283.528 18.0335 270.263 45.387Z" fill="#FFCCB3"/>
<path d="M281.154 129.902C281.154 129.902 264.423 134.55 261.027 137.267C257.632 139.983 255.162 162.062 250.144 172.968C242.714 189.114 237.904 197.703 250.386 215.446C257.914 226.148 255.354 253.355 255.354 253.355H347.008C344.231 199.859 356.52 136.796 356.52 136.796L315.154 127.264C305.828 128.872 281.154 129.902 281.154 129.902Z" fill="#5375D9"/>
<path d="M278.228 130.765C278.228 130.765 279.465 122.355 283.419 121.763C287.373 121.171 311.536 117.537 315.294 119.12C319.052 120.702 323.602 130.765 323.602 130.765C323.602 130.765 315.887 149.581 304.811 150.57C293.734 151.559 274.668 148.144 276.685 141.148C278.701 134.152 278.228 130.765 278.228 130.765Z" fill="#5375D9"/>
<path d="M270.703 133.321C270.703 133.321 273.376 149.55 287.892 149.294C302.408 149.038 323.502 127.264 323.502 127.264" stroke="white" stroke-width="1.35709" stroke-miterlimit="10"/>
<path d="M336.471 156.845C336.471 156.845 322.046 166.382 326.296 176.004C331.073 186.824 331.032 214.689 317.321 216.436C292.855 219.552 303.485 223.83 314.797 226.564C326.109 229.297 321.478 229.3 321.478 241.019C321.478 249.36 347.689 256.592 347.008 249.852C342.45 204.763 361.396 176.212 336.471 156.845Z" fill="#0E66AF"/>
<path d="M269.099 90.5388L281.249 91.1398C281.206 91.2894 281.14 91.494 281.044 91.7347C280.838 92.2569 280.495 92.9448 279.951 93.6108C278.873 94.9315 276.991 96.1867 273.738 95.8577C271.684 95.4642 270.516 94.0832 269.855 92.7758C269.524 92.1211 269.323 91.4892 269.205 91.0212C269.157 90.8289 269.122 90.6651 269.099 90.5388Z" fill="#E56441" stroke="#E56441"/>
<path d="M269.901 70.3648C270.408 68.4825 269.785 66.6776 268.508 66.3329C267.231 65.9882 265.784 67.2349 265.276 69.1172C264.768 70.9995 265.392 72.8044 266.669 73.1491C267.946 73.4933 269.393 72.2471 269.901 70.3648Z" fill="#080B09"/>
<path d="M288.697 75.7244C289.204 73.8421 288.581 72.0372 287.304 71.6925C286.027 71.3483 284.58 72.5945 284.072 74.4768C283.564 76.3591 284.188 78.1641 285.465 78.5087C286.742 78.8534 288.189 77.6067 288.697 75.7244Z" fill="#080B09"/>
<path d="M265.148 60.6421L274.703 63.3889C274.869 63.4221 275.042 63.3936 275.189 63.3091C275.336 63.2246 275.447 63.0898 275.503 62.9293C275.546 62.6279 275.528 62.3207 275.45 62.0264C275.372 61.7316 275.235 61.4562 275.047 61.2165C274.859 60.9763 274.625 60.7769 274.358 60.6302C274.091 60.4835 273.797 60.3919 273.494 60.362L265.287 59.4985C264.658 59.3285 264.361 60.4299 265.148 60.6421Z" fill="#080B09"/>
<path d="M297.815 68.81L284.857 66.1586C284.974 65.7731 285.17 65.4161 285.434 65.1113C285.697 64.8061 286.022 64.5597 286.386 64.3878C286.75 64.216 287.147 64.122 287.55 64.1125C287.953 64.103 288.353 64.178 288.725 64.3328L298.184 68.0661C298.498 68.1506 298.286 68.9377 297.815 68.81Z" fill="#080B09"/>
<path d="M275.679 70.903L269.533 79.1794L271.848 82.4518" stroke="#E56441" stroke-width="2.23881" stroke-linecap="round"/>
<path d="M287.109 161.2C288.299 161.2 289.264 158.535 289.264 155.247C289.264 151.959 288.299 149.294 287.109 149.294C285.919 149.294 284.954 151.959 284.954 155.247C284.954 158.535 285.919 161.2 287.109 161.2Z" fill="white"/>
<path d="M386.427 243.107L354.476 245.725L349.021 222.569L342.45 204.763L376.076 200.738L380.28 220.667L386.427 243.107Z" fill="#FFCCB3"/>
<path d="M377.211 206.12L378.39 211.708L345.276 212.42L343.098 206.518L377.211 206.12Z" fill="#FF967C"/>
<path d="M351.022 180.319C363.232 180.319 373.13 170.421 373.13 158.21C373.13 146 363.232 136.101 351.022 136.101C338.811 136.101 328.913 146 328.913 158.21C328.913 170.421 338.811 180.319 351.022 180.319Z" fill="#5375D9"/>
<path d="M346.758 147.816C346.758 147.816 370.058 143.991 372.037 151.432C376.312 166.393 381.566 190.412 382.844 201.899C382.887 202.387 382.833 202.88 382.686 203.347C382.538 203.814 382.299 204.248 381.983 204.623C381.666 204.998 381.279 205.306 380.843 205.53C380.408 205.754 379.931 205.89 379.442 205.929L344.351 208.925C342.992 209.051 341.638 208.652 340.565 207.811C339.491 206.969 338.781 205.749 338.58 204.4L329.076 161.368L346.758 147.816Z" fill="#5375D9"/>
<path d="M278.406 42.4698C278.406 42.4698 279.233 57.3764 291.86 64.5999C291.86 64.5999 295.553 76.0329 309.335 78.7218C309.335 78.7218 308.521 68.2136 315.09 68.3247C326.244 68.5136 320.758 85.4335 313.217 88.2093C308.092 90.0959 305.005 96.7915 312.612 112.051C330.081 105.82 342.366 80.6577 337.55 52.7411C333.693 30.3851 305.978 23.0846 300.283 23.8129C300.283 23.8129 276.635 15.6432 264.183 38.0491C253.539 57.2027 263.48 68.6337 263.48 68.6337L269.153 51.5871C269.153 51.5871 271.522 53.251 278.406 42.4698Z" fill="#080B09"/>
<path d="M386.545 298.346H301.917C300.28 298.346 298.699 297.748 297.472 296.665C296.245 295.582 295.455 294.088 295.251 292.463L287.44 230.122C287.322 229.177 287.406 228.217 287.687 227.307C287.967 226.396 288.439 225.556 289.069 224.841C289.699 224.127 290.474 223.555 291.343 223.164C292.211 222.772 293.153 222.569 294.105 222.569H394.356C395.309 222.569 396.251 222.772 397.119 223.164C397.988 223.555 398.762 224.127 399.393 224.841C400.023 225.556 400.495 226.396 400.775 227.307C401.056 228.217 401.14 229.177 401.022 230.122L393.21 292.463C393.007 294.088 392.217 295.582 390.99 296.665C389.762 297.748 388.182 298.346 386.545 298.346Z" fill="url(#paint1_linear_2003_1399)"/>
<path d="M344.43 265.235C347.711 265.235 350.37 262.575 350.37 259.295C350.37 256.014 347.711 253.355 344.43 253.355C341.149 253.355 338.49 256.014 338.49 259.295C338.49 262.575 341.149 265.235 344.43 265.235Z" fill="white"/>
<path d="M149.69 136.388L144.59 126.605C144.59 126.605 126.558 116.29 124.468 112.561C122.378 108.831 121.556 98.1824 125.256 95.456C125.256 95.456 110.869 84.6501 113.318 82.4607C115.76 80.1126 144.026 101.111 144.026 101.111C144.026 101.111 140.584 85.6409 145.814 84.916C147.23 90.9118 149.657 96.6229 152.99 101.804C158.496 110.317 159.175 117.942 159.175 117.942L165.664 130.396L149.69 136.388Z" fill="#FFCCB3"/>
<path d="M126.226 95.7295L134.939 101.22" stroke="#FF967C" stroke-width="2.87188" stroke-linecap="round" stroke-linejoin="round"/>
<path d="M124.927 102.011L132.322 106.608" stroke="#FF967C" stroke-width="2.87188" stroke-linecap="round" stroke-linejoin="round"/>
<path d="M126.364 108.802L131.296 111.919" stroke="#FF967C" stroke-width="2.87188" stroke-linecap="round" stroke-linejoin="round"/>
<path d="M160.309 21.8579C162.602 21.8579 164.461 19.9989 164.461 17.7055C164.461 15.412 162.602 13.553 160.309 13.553C158.015 13.553 156.156 15.412 156.156 17.7055C156.156 19.9989 158.015 21.8579 160.309 21.8579Z" fill="white"/>
<path d="M177.08 21.8579C179.374 21.8579 181.233 19.9989 181.233 17.7055C181.233 15.412 179.374 13.553 177.08 13.553C174.787 13.553 172.928 15.412 172.928 17.7055C172.928 19.9989 174.787 21.8579 177.08 21.8579Z" fill="white"/>
<path d="M192.838 21.8579C195.132 21.8579 196.991 19.9989 196.991 17.7055C196.991 15.412 195.132 13.553 192.838 13.553C190.545 13.553 188.686 15.412 188.686 17.7055C188.686 19.9989 190.545 21.8579 192.838 21.8579Z" fill="white"/>
<path opacity="0.7" d="M68.1035 17.1965C84.7984 31.4346 128.826 63.8987 184.744 65.4496C185.888 65.4838 186.972 65.9628 187.769 66.7846C188.565 67.6059 189.009 68.7058 189.008 69.8499V158.451C189.008 159.581 188.574 160.668 187.795 161.487C187.016 162.306 185.952 162.794 184.823 162.85C168.011 163.686 104.258 163.589 62.0141 118.362C61.2607 117.55 60.8439 116.481 60.8472 115.374V20.5519C60.8467 19.7111 61.0869 18.8875 61.5398 18.1787C61.9927 17.4704 62.6388 16.9059 63.4022 16.5532C64.1651 16.2 65.0139 16.0728 65.8471 16.1872C66.6802 16.3011 67.4631 16.651 68.1035 17.1965Z" fill="#FEBB94"/>
<path d="M74.4363 43.3059C74.4363 43.3059 87.6106 56.107 105.618 64.0588" stroke="white" stroke-width="7.4328" stroke-miterlimit="10" stroke-linecap="round"/>
<path opacity="0.4" d="M74.4363 58.8253C74.4363 58.8253 92.7714 75.9275 116.622 82.2775" stroke="white" stroke-width="7.4328" stroke-miterlimit="10" stroke-linecap="round"/>
<path d="M71.7053 115.574V78.5662L84.6802 87.851V125.753L71.7053 115.574Z" fill="white"/>
<path d="M93.605 130.528V104.16L106.58 111.919V137.985L93.605 130.528Z" fill="white"/>
<path d="M149.086 151.17V124.802L136.111 123.026V149.092L149.086 151.17Z" fill="white"/>
<path d="M170.398 152.299V106.133H157.423V151.997L170.398 152.299Z" fill="white"/>
<path d="M114.858 142.081V130.026L127.833 133.674V146.78L114.858 142.081Z" fill="white"/>
<g opacity="0.7">
<path d="M100.599 200.788C117.294 213.046 161.322 245.036 217.24 239.956C217.784 239.892 218.335 239.946 218.856 240.114C219.378 240.282 219.857 240.56 220.261 240.93C220.666 241.299 220.986 241.751 221.2 242.255C221.414 242.759 221.518 243.303 221.504 243.851V332.452C221.475 333.624 221.044 334.751 220.281 335.643C219.519 336.535 218.473 337.136 217.319 337.347C200.506 340.177 130.583 338.78 94.5095 302.676C94.1364 302.301 93.8411 301.857 93.6408 301.367C93.4404 300.878 93.3393 300.354 93.3431 299.826V205.004C93.3431 201.249 97.742 198.689 100.599 200.788Z" fill="#96BAFD"/>
</g>
<path d="M369.313 295.802C369.313 295.802 373.786 296.173 373.112 298.43C372.438 300.687 368.445 299.646 364.799 301.903C361.153 304.16 346.737 305.771 339.537 304.571C332.336 303.37 330.336 295.802 330.336 295.802C330.336 295.802 329.132 288.621 341.851 287.884C354.57 287.146 360.489 291.228 362.701 295.652L369.313 295.802Z" fill="#FFCCB3"/>
<path d="M335.743 289L338.49 296.388" stroke="#E56441" stroke-width="2.23881" stroke-linecap="round"/>
<path d="M342.858 287.797L345.604 295.185" stroke="#E56441" stroke-width="2.23881" stroke-linecap="round"/>
<path d="M350.37 288.423L353.117 295.811" stroke="#E56441" stroke-width="2.23881" stroke-linecap="round"/>
<path opacity="0.7" d="M504.668 207.996C481.382 227.856 419.968 273.141 341.969 275.304C340.374 275.352 338.86 276.02 337.749 277.166C336.639 278.312 336.019 279.846 336.021 281.442V405.031C336.02 406.608 336.626 408.124 337.713 409.267C338.799 410.409 340.284 411.09 341.858 411.167C365.31 412.334 454.237 412.199 513.165 349.111C514.215 347.978 514.799 346.489 514.794 344.943V212.676C514.794 211.503 514.457 210.355 513.825 209.366C513.194 208.378 512.292 207.591 511.229 207.098C510.165 206.606 508.978 206.429 507.82 206.588C506.657 206.747 505.565 207.236 504.668 207.996Z" fill="#5375D9"/>
<path d="M495.838 244.416C495.838 244.416 477.461 262.272 452.343 273.364" stroke="white" stroke-width="10.368" stroke-miterlimit="10" stroke-linecap="round"/>
<path opacity="0.4" d="M495.838 266.064C495.838 266.064 470.259 289.919 436.99 298.777" stroke="white" stroke-width="10.368" stroke-miterlimit="10" stroke-linecap="round"/>
<path d="M483.894 168.897H412.806C411.412 168.897 410.031 169.172 408.742 169.706C407.454 170.239 406.283 171.022 405.297 172.008C404.311 172.994 403.528 174.165 402.995 175.453C402.461 176.742 402.186 178.123 402.186 179.517V201.51C402.186 202.905 402.461 204.286 402.995 205.574C403.528 206.863 404.311 208.034 405.297 209.02C406.283 210.007 407.454 210.789 408.742 211.322C410.031 211.856 411.412 212.131 412.806 212.131H438.044L445.488 219.578C446.186 220.275 447.131 220.667 448.118 220.667C449.105 220.667 450.05 220.275 450.748 219.578L458.192 212.131H483.894C486.709 212.131 489.415 211.012 491.404 209.02C493.398 207.029 494.514 204.327 494.514 201.51V179.517C494.514 176.701 493.398 174 491.404 172.008C489.415 170.016 486.709 168.897 483.894 168.897Z" fill="white"/>
<path d="M432.343 183.538C431.393 182.661 430.149 182.174 428.858 182.174C427.567 182.174 426.323 182.661 425.374 183.538L424.061 184.75L422.748 183.538C421.8 182.661 420.556 182.174 419.264 182.174C417.972 182.174 416.728 182.661 415.779 183.538C415.278 183.991 414.878 184.545 414.603 185.162C414.329 185.78 414.188 186.448 414.188 187.124C414.188 187.799 414.329 188.467 414.603 189.085C414.878 189.703 415.278 190.256 415.779 190.709L424.061 198.386L432.343 190.81C432.865 190.36 433.287 189.801 433.572 189.174C433.862 188.547 434.009 187.865 434.009 187.174C434.009 186.484 433.862 185.802 433.572 185.174C433.287 184.547 432.865 183.988 432.343 183.538Z" fill="#F4608A"/>
<path d="M441.59 188.023C441.662 187.093 442.022 186.365 442.668 185.839C443.314 185.314 444.154 185.051 445.184 185.051C445.873 185.051 446.466 185.177 446.96 185.43C447.468 185.673 447.847 186.006 448.099 186.431C448.36 186.856 448.493 187.336 448.493 187.872C448.493 188.499 448.313 189.04 447.947 189.495C447.591 189.95 447.126 190.243 446.551 190.375V190.45C447.207 190.612 447.729 190.931 448.113 191.406C448.498 191.881 448.692 192.503 448.692 193.272C448.692 193.848 448.56 194.369 448.294 194.834C448.033 195.289 447.639 195.648 447.112 195.911C446.585 196.174 445.953 196.305 445.217 196.305C444.145 196.305 443.266 196.027 442.578 195.471C441.89 194.905 441.505 194.106 441.424 193.075H442.758C442.83 193.681 443.076 194.177 443.504 194.561C443.926 194.945 444.496 195.137 445.203 195.137C445.911 195.137 446.447 194.955 446.808 194.591C447.183 194.217 447.373 193.737 447.373 193.151C447.373 192.392 447.116 191.846 446.613 191.512C446.105 191.178 445.341 191.012 444.32 191.012H443.974V189.859H444.339C445.265 189.849 445.972 189.697 446.447 189.404C446.922 189.101 447.159 188.635 447.159 188.008C447.159 187.472 446.983 187.043 446.627 186.719C446.286 186.396 445.787 186.234 445.142 186.234C444.515 186.234 444.007 186.396 443.622 186.719C443.238 187.043 443.01 187.477 442.943 188.023H441.59ZM452.205 194.318L450.511 198.399H449.585L450.691 194.318H452.205ZM460.551 186.461H455.23V189.919C455.462 189.596 455.804 189.333 456.26 189.131C456.715 188.918 457.204 188.812 457.731 188.812C458.572 188.812 459.255 188.989 459.777 189.343C460.304 189.687 460.679 190.137 460.903 190.693C461.135 191.239 461.249 191.821 461.249 192.437C461.249 193.166 461.116 193.818 460.841 194.394C460.57 194.971 460.148 195.425 459.583 195.759C459.027 196.093 458.334 196.26 457.503 196.26C456.445 196.26 455.586 195.987 454.926 195.441C454.271 194.895 453.867 194.166 453.729 193.256H455.078C455.211 193.833 455.486 194.283 455.913 194.607C456.336 194.93 456.872 195.092 457.518 195.092C458.32 195.092 458.918 194.854 459.326 194.379C459.73 193.893 459.929 193.256 459.929 192.468C459.929 191.679 459.73 191.072 459.326 190.648C458.918 190.213 458.325 189.995 457.537 189.995C457 189.995 456.53 190.127 456.122 190.39C455.728 190.643 455.443 190.991 455.258 191.436H453.957V185.248H460.551V186.461ZM462.92 195.122C464.202 194.091 465.208 193.246 465.935 192.589C466.666 191.922 467.278 191.229 467.772 190.511C468.28 189.783 468.531 189.07 468.531 188.372C468.531 187.715 468.37 187.199 468.047 186.825C467.734 186.441 467.221 186.249 466.514 186.249C465.826 186.249 465.289 186.466 464.905 186.901C464.529 187.326 464.33 187.897 464.297 188.615H462.963C463.006 187.483 463.347 186.608 463.993 185.991C464.643 185.374 465.479 185.066 466.5 185.066C467.539 185.066 468.365 185.354 468.968 185.93C469.585 186.507 469.894 187.3 469.894 188.312C469.894 189.151 469.642 189.97 469.139 190.769C468.641 191.558 468.076 192.256 467.44 192.862C466.803 193.459 465.987 194.156 464.995 194.955H470.212V196.108H462.92V195.122ZM478.558 186.34L474.342 196.23H472.947L477.224 186.476H471.37V185.293H478.558V186.34Z" fill="#5375D9"/>
<path opacity="0.7" d="M66.8074 371.323H120.403C121.455 371.323 122.496 371.117 123.468 370.714C124.439 370.312 125.322 369.722 126.065 368.978C126.809 368.235 127.398 367.352 127.801 366.381C128.203 365.409 128.41 364.368 128.41 363.317V346.735C128.41 345.684 128.203 344.643 127.801 343.671C127.398 342.7 126.809 341.817 126.065 341.073C125.322 340.33 124.439 339.74 123.468 339.338C122.496 338.935 121.455 338.728 120.403 338.728H101.377L95.7627 333.113C95.2371 332.588 94.5241 332.292 93.7807 332.292C93.0377 332.292 92.3246 332.588 91.7991 333.113L86.1845 338.728H66.8074C64.6834 338.728 62.6468 339.572 61.1452 341.073C59.6436 342.575 58.8 344.611 58.8 346.735V363.317C58.8 365.44 59.6436 367.477 61.1452 368.978C62.6468 370.48 64.6834 371.323 66.8074 371.323Z" fill="#5375D9"/>
<path d="M92.0559 359.102C93.0244 358.324 93.7825 357.688 94.3318 357.192C94.8806 356.689 95.342 356.166 95.7156 355.625C96.0968 355.076 96.2872 354.539 96.2872 354.013C96.2872 353.517 96.1652 353.128 95.9212 352.846C95.6848 352.557 95.2997 352.411 94.7661 352.411C94.2477 352.411 93.8438 352.576 93.5542 352.903C93.2722 353.224 93.1193 353.654 93.0965 354.195H92.0901C92.1209 353.342 92.3801 352.682 92.8677 352.217C93.3557 351.752 93.9847 351.52 94.7548 351.52C95.54 351.52 96.1614 351.737 96.619 352.172C97.0838 352.606 97.3164 353.205 97.3164 353.967C97.3164 354.6 97.126 355.217 96.7448 355.819C96.3712 356.414 95.944 356.94 95.464 357.397C94.9836 357.848 94.3697 358.374 93.6225 358.976H97.5566V359.845H92.0559V359.102ZM98.508 358.095V357.306L102.522 351.748H103.768V357.192H104.912V358.095H103.768V359.936H102.739V358.095H98.508ZM102.785 352.835L99.7086 357.192H102.785V352.835ZM105.929 353.75C105.982 353.048 106.253 352.499 106.741 352.103C107.229 351.706 107.862 351.508 108.639 351.508C109.158 351.508 109.603 351.603 109.977 351.794C110.358 351.977 110.644 352.229 110.835 352.549C111.033 352.869 111.132 353.231 111.132 353.635C111.132 354.108 110.995 354.516 110.72 354.859C110.454 355.202 110.103 355.423 109.668 355.522V355.579C110.164 355.701 110.557 355.941 110.846 356.3C111.136 356.658 111.281 357.127 111.281 357.707C111.281 358.141 111.181 358.534 110.983 358.884C110.785 359.228 110.488 359.498 110.091 359.696C109.695 359.895 109.218 359.994 108.662 359.994C107.854 359.994 107.19 359.784 106.672 359.365C106.154 358.938 105.864 358.336 105.803 357.558H106.809C106.863 358.015 107.049 358.389 107.37 358.678C107.69 358.968 108.117 359.113 108.651 359.113C109.184 359.113 109.588 358.976 109.863 358.701C110.145 358.419 110.286 358.057 110.286 357.615C110.286 357.043 110.095 356.631 109.714 356.38C109.333 356.128 108.757 356.002 107.987 356.002H107.724V355.133H107.999C108.7 355.126 109.23 355.011 109.588 354.79C109.947 354.561 110.126 354.211 110.126 353.738C110.126 353.334 109.992 353.01 109.725 352.766C109.466 352.522 109.093 352.4 108.605 352.4C108.132 352.4 107.751 352.522 107.461 352.766C107.171 353.01 107 353.338 106.946 353.75H105.929ZM117.295 353.635C117.127 352.789 116.605 352.366 115.728 352.366C115.049 352.366 114.542 352.629 114.207 353.155C113.871 353.673 113.707 354.531 113.715 355.728C113.89 355.331 114.18 355.023 114.584 354.802C114.996 354.573 115.454 354.458 115.956 354.458C116.742 354.458 117.367 354.702 117.832 355.19C118.305 355.678 118.541 356.353 118.541 357.215C118.541 357.733 118.438 358.198 118.232 358.61C118.034 359.022 117.729 359.35 117.317 359.593C116.913 359.837 116.422 359.959 115.842 359.959C115.057 359.959 114.443 359.784 114.001 359.433C113.559 359.082 113.25 358.599 113.075 357.981C112.899 357.363 112.812 356.601 112.812 355.694C112.812 352.896 113.788 351.497 115.739 351.497C116.487 351.497 117.073 351.699 117.501 352.103C117.927 352.507 118.179 353.018 118.255 353.635H117.295ZM115.739 355.339C115.411 355.339 115.103 355.408 114.813 355.545C114.523 355.675 114.287 355.876 114.104 356.151C113.929 356.418 113.841 356.746 113.841 357.134C113.841 357.714 114.008 358.186 114.344 358.553C114.68 358.911 115.16 359.09 115.785 359.09C116.319 359.09 116.742 358.926 117.054 358.599C117.375 358.263 117.535 357.813 117.535 357.249C117.535 356.655 117.382 356.189 117.077 355.854C116.772 355.511 116.326 355.339 115.739 355.339Z" fill="white"/>
<path d="M352.08 357.527C352.08 357.527 369.173 353.948 376.988 345.657C387.342 334.673 389.73 321.499 401.075 320.144C418.879 318.018 429.2 380.876 450.815 372.371C472.429 363.867 467.321 316.927 480.181 308.971C489.04 303.49 493.645 319.79 506.05 315.538" stroke="white" stroke-width="10.368" stroke-miterlimit="10" stroke-linecap="round"/>
<path opacity="0.7" d="M183.871 305.948C196.648 309.596 226.539 316.115 265.707 311.619C266.336 311.529 266.978 311.578 267.586 311.761C268.195 311.944 268.757 312.258 269.232 312.679C269.707 313.101 270.085 313.622 270.339 314.204C270.593 314.787 270.717 315.418 270.703 316.054V376.503C270.674 377.837 270.176 379.117 269.295 380.12C268.415 381.122 267.21 381.782 265.891 381.982C251.945 383.889 210.537 387.967 179.679 374.644C178.89 374.295 178.222 373.72 177.759 372.991C177.296 372.262 177.06 371.412 177.08 370.549V311.295C177.08 307.79 180.608 305.017 183.871 305.948Z" fill="url(#paint2_linear_2003_1399)"/>
<path d="M69.2691 361.609H71.0247C71.3508 361.609 71.6632 361.479 71.8934 361.249C72.1241 361.019 72.2537 360.706 72.2542 360.38V352.303C72.2537 351.977 72.1241 351.665 71.8934 351.434C71.6632 351.204 71.3508 351.074 71.0247 351.073H69.2691C68.943 351.074 68.6306 351.204 68.4004 351.434C68.1696 351.665 68.04 351.977 68.0396 352.303V360.38C68.04 360.706 68.1696 361.019 68.4004 361.249C68.6306 361.479 68.943 361.609 69.2691 361.609Z" fill="white"/>
<path d="M77.0169 345.981C76.3148 345.981 75.9635 346.332 75.9635 348.088C75.9635 349.757 74.3475 351.1 73.3079 351.792V360.493C74.4325 361.014 76.6832 361.785 80.1777 361.785H81.3014C81.9641 361.785 82.605 361.552 83.1115 361.125C83.6181 360.698 83.9575 360.106 84.0691 359.453L84.8557 354.887C84.9255 354.484 84.9065 354.07 84.7992 353.675C84.6924 353.28 84.5006 352.913 84.2371 352.6C83.9732 352.287 83.6442 352.035 83.2734 351.862C82.9022 351.69 82.4977 351.6 82.0885 351.6H78.773C79.1461 350.712 79.326 349.754 79.2999 348.791C79.2999 346.684 77.7195 345.981 77.0169 345.981V345.981Z" fill="white"/>
<path d="M127.77 290.432C118.453 287.148 110.901 276.932 110.901 267.616C110.901 258.3 118.453 253.41 127.77 256.695V245.868C112.719 240.561 100.519 248.46 100.519 263.51C100.519 278.561 112.719 295.063 127.77 300.37C142.184 305.453 153.977 298.417 154.948 284.592L144.572 280.933C143.839 289.314 136.599 293.545 127.77 290.432Z" fill="white"/>
<path d="M131.23 243.628V254.455C140.546 257.74 148.098 267.955 148.098 277.272C148.098 277.759 148.073 278.231 148.033 278.693L158.408 282.352C158.451 281.742 158.481 281.124 158.481 280.487C158.481 265.437 146.28 248.934 131.23 243.628Z" fill="#5375D9"/>
<path d="M127.77 290.432V300.37" stroke="white" stroke-width="2.42819" stroke-miterlimit="10"/>
<path d="M110.901 267.616L100.519 263.955" stroke="white" stroke-width="2.42819" stroke-miterlimit="10"/>
<path d="M171.471 269.164L190.737 272.825" stroke="white" stroke-width="10.368" stroke-miterlimit="10" stroke-linecap="round"/>
<path opacity="0.4" d="M171.471 299.352L190.737 303.013" stroke="white" stroke-width="10.368" stroke-miterlimit="10" stroke-linecap="round"/>
<path d="M171.471 284.565L199.151 289.825" stroke="white" stroke-width="10.368" stroke-miterlimit="10" stroke-linecap="round"/>
<g opacity="0.7">
<path d="M518.943 10.1897C502.247 22.448 471.707 53.3597 405.053 63.63C399.95 64.4162 398.04 68.0469 398.04 72.0589V156.571C398.068 157.743 398.5 158.87 399.262 159.762C400.024 160.653 401.07 161.255 402.224 161.466C419.037 164.296 483.785 147.78 522.504 114.527C526.202 111.351 526.202 106.023 526.202 104.916V14.4061C526.202 10.6509 521.801 8.0917 518.943 10.1897Z" fill="url(#paint3_linear_2003_1399)"/>
</g>
<path d="M406.853 78.69V130.962C406.852 131.417 406.954 131.867 407.151 132.277C407.347 132.687 407.634 133.048 407.989 133.333C408.344 133.617 408.758 133.818 409.201 133.921C409.644 134.024 410.105 134.026 410.549 133.926C420.071 131.794 445.825 125.629 462.089 117.956C462.612 117.71 463.048 117.321 463.357 116.835C463.661 116.349 463.827 115.785 463.822 115.21V64.3056C463.827 63.7967 463.699 63.2959 463.452 62.8487C463.21 62.4019 462.859 62.0241 462.427 61.7492C461.999 61.4743 461.51 61.3115 461.002 61.2759C460.494 61.2403 459.986 61.3328 459.521 61.5455C450.459 65.7198 428.678 74.8385 409.734 75.6588C408.956 75.6958 408.222 76.032 407.685 76.5964C407.148 77.1609 406.85 77.9109 406.853 78.69Z" fill="white"/>
<path d="M409.207 122.548V128.046C409.207 128.463 409.302 128.873 409.487 129.246C409.672 129.619 409.94 129.945 410.27 130.198C410.601 130.45 410.986 130.623 411.395 130.702C411.803 130.782 412.225 130.766 412.626 130.657L441.116 122.868C441.567 122.745 441.975 122.509 442.307 122.181C442.64 121.854 442.877 121.447 443.005 120.999C443.133 120.551 443.143 120.078 443.034 119.626C442.924 119.173 442.701 118.756 442.388 118.415L427.111 101.982C426.836 101.687 426.503 101.456 426.128 101.308C425.753 101.16 425.35 101.097 424.948 101.124C424.547 101.151 424.156 101.267 423.805 101.464C423.454 101.662 423.151 101.935 422.919 102.263L409.702 120.987C409.379 121.444 409.207 121.989 409.207 122.548Z" fill="#5375D9"/>
<path opacity="0.6" d="M438.253 109.653L446.803 118.725C447.079 119.017 447.435 119.22 447.824 119.308C448.213 119.396 448.621 119.366 448.997 119.22C451.522 118.233 457.195 116.003 460.067 114.768C460.428 114.612 460.732 114.355 460.95 114.027C461.164 113.699 461.278 113.315 461.278 112.922V104.421C461.278 103.988 461.135 103.566 460.879 103.219L448.859 87.1166C448.64 86.8275 448.351 86.6015 448.019 86.4629C447.686 86.3242 447.321 86.2777 446.965 86.328C446.609 86.3788 446.272 86.5241 445.987 86.7496C445.707 86.9751 445.493 87.2718 445.365 87.6093L437.836 107.564C437.703 107.916 437.669 108.299 437.745 108.668C437.817 109.038 437.997 109.379 438.253 109.653Z" fill="#5375D9"/>
<path d="M430.748 95.4874C433.283 95.4874 435.338 93.4328 435.338 90.8977C435.338 88.3626 433.283 86.308 430.748 86.308C428.213 86.308 426.157 88.3626 426.157 90.8977C426.157 93.4328 428.213 95.4874 430.748 95.4874Z" fill="#FEBB94"/>
<path d="M477.058 59.8398C488.836 53.8667 500.172 47.0567 510.977 39.4629" stroke="white" stroke-width="10.368" stroke-miterlimit="10" stroke-linecap="round"/>
<path d="M477.058 79.6669C477.058 79.6669 484.777 75.9046 495.368 69.4786" stroke="white" stroke-width="10.368" stroke-miterlimit="10" stroke-linecap="round"/>
<path d="M477.058 99.0517C488.836 93.0782 500.172 86.2686 510.977 78.6748" stroke="white" stroke-width="10.368" stroke-miterlimit="10" stroke-linecap="round"/>
<path d="M477.058 120.815C488.836 114.842 500.172 108.032 510.977 100.438" stroke="white" stroke-width="10.368" stroke-miterlimit="10" stroke-linecap="round"/>
<path d="M413.398 149.001C415.714 149.001 417.591 147.125 417.591 144.81C417.591 142.494 415.714 140.617 413.398 140.617C411.083 140.617 409.207 142.494 409.207 144.81C409.207 147.125 411.083 149.001 413.398 149.001Z" fill="white"/>
<path d="M437.707 142.219C440.019 142.219 441.899 140.342 441.899 138.027C441.899 135.712 440.019 133.835 437.707 133.835C435.39 133.835 433.515 135.712 433.515 138.027C433.515 140.342 435.39 142.219 437.707 142.219Z" fill="white"/>
<path d="M459.63 134.731C461.947 134.731 463.822 132.854 463.822 130.538C463.822 128.223 461.947 126.346 459.63 126.346C457.318 126.346 455.438 128.223 455.438 130.538C455.438 132.854 457.318 134.731 459.63 134.731Z" fill="white"/>
</g>
<defs>
<linearGradient id="paint0_linear_2003_1399" x1="257.084" y1="-362.567" x2="427.999" y2="697.199" gradientUnits="userSpaceOnUse">
<stop stop-color="white"/>
<stop offset="1" stop-color="#94B9FF"/>
</linearGradient>
<linearGradient id="paint1_linear_2003_1399" x1="341.401" y1="222.389" x2="353.087" y2="384.096" gradientUnits="userSpaceOnUse">
<stop stop-color="white"/>
<stop offset="1" stop-color="#94B9FF"/>
</linearGradient>
<linearGradient id="paint2_linear_2003_1399" x1="221.561" y1="305.58" x2="236.676" y2="472.233" gradientUnits="userSpaceOnUse">
<stop stop-color="white"/>
<stop offset="1" stop-color="#94B9FF"/>
</linearGradient>
<linearGradient id="paint3_linear_2003_1399" x1="446.665" y1="-180.464" x2="542.737" y2="320.653" gradientUnits="userSpaceOnUse">
<stop stop-color="white"/>
<stop offset="1" stop-color="#94B9FF"/>
</linearGradient>
</defs>
</svg>
