<svg width="116" height="115" viewBox="0 0 116 115" fill="none" xmlns="http://www.w3.org/2000/svg">
<g clip-path="url(#clip0_2003_1068)">
<path d="M9.36899 52.0359L9.55337 50.8785L5.78205 50.2297L6.53631 45.3723L6.55307 45.3022L5.46358 45.1268L4.69256 50.0544L1.8096 49.5634L2.64767 44.0922L2.66443 44.022L1.5917 43.8467L0.569252 50.4752L0.55249 50.5454L9.30194 52.0359H9.36899Z" fill="#222222"/>
<path d="M8.34646 40.0589C8.8493 40.2693 9.35215 40.3921 9.83823 40.3921C10.2237 40.3921 10.6093 40.3219 10.978 40.1817C11.8328 39.8485 12.453 39.2172 12.8218 38.2702C13.2073 37.3058 13.1737 36.4114 12.7379 35.6223L13.5928 35.9906L14.0286 34.9034L7.75981 32.1853L7.32402 33.2725L8.19561 33.6408C7.34078 33.8863 6.73737 34.4825 6.36862 35.3944C5.9831 36.3764 5.9831 37.3233 6.38538 38.1826C6.78765 39.0418 7.44135 39.6556 8.34646 40.0589ZM7.35754 35.7626C7.62572 35.0963 8.06152 34.6579 8.64817 34.4474C8.88283 34.3597 9.11749 34.3247 9.36891 34.3247C9.7209 34.3247 10.0896 34.4124 10.4752 34.5702C11.1289 34.8508 11.5814 35.2716 11.8664 35.8328C12.1513 36.4114 12.1681 37.0427 11.8999 37.7091C11.6317 38.3755 11.1959 38.8314 10.5925 39.0418C10.0226 39.2523 9.40243 39.2172 8.74874 38.9366C8.09504 38.656 7.64248 38.2352 7.3743 37.6565C7.10612 37.0778 7.10612 36.429 7.35754 35.7626Z" fill="#222222"/>
<path d="M12.3527 27.5734C12.7047 27.8189 13.0399 27.9242 13.3751 27.8891C13.6936 27.8365 14.012 27.7137 14.3137 27.5033C14.6155 27.2929 14.9172 27.0474 15.1853 26.7668C15.4703 26.4862 15.7385 26.2232 16.0067 26.0128C16.2581 25.7848 16.5095 25.627 16.7442 25.5393C16.9621 25.4516 17.18 25.4691 17.3811 25.627C17.6996 25.8549 17.8001 26.1881 17.6996 26.6265C17.6493 26.8194 17.5822 27.0123 17.4984 27.1877C17.3978 27.3805 17.2973 27.5559 17.1799 27.7488C17.0626 27.9417 16.895 28.0995 16.7106 28.2573C16.191 28.6607 15.6882 28.6957 15.1686 28.3976L15.1183 28.3626L14.4478 29.3621L14.5149 29.3972C14.8836 29.6251 15.2691 29.7479 15.6547 29.7479C15.8558 29.7479 16.0569 29.7128 16.2581 29.6602C16.9285 29.4673 17.5319 28.9938 18.0515 28.2223C18.5376 27.5033 18.7723 26.8194 18.7723 26.1706C18.7723 25.5217 18.5041 24.9957 17.951 24.5923C17.599 24.3293 17.247 24.2241 16.9118 24.2767C16.5765 24.3293 16.2581 24.4521 15.9564 24.645C15.6547 24.8379 15.353 25.1009 15.068 25.3815C14.7998 25.662 14.5316 25.9075 14.2635 26.153C14.012 26.381 13.7606 26.5388 13.526 26.644C13.3081 26.7317 13.1069 26.7142 12.9058 26.5739C12.6544 26.3985 12.5538 26.1706 12.5706 25.8725C12.5873 25.5744 12.7382 25.2061 13.0231 24.7852C13.593 23.926 14.1629 23.6805 14.7495 23.9961L14.7998 24.0312L15.4535 23.0492L15.3865 23.0141C14.9004 22.7336 14.3808 22.6634 13.878 22.8037C13.2745 22.9791 12.7382 23.4174 12.2521 24.1364C11.7493 24.8905 11.5146 25.5568 11.5314 26.153C11.5649 26.6966 11.8331 27.1877 12.3527 27.5734Z" fill="#222222"/>
<path d="M22.6271 22.0847L23.4652 21.2781L20.8169 18.2795C20.4314 17.8411 20.247 17.3325 20.2805 16.7889C20.3141 16.2453 20.532 15.7718 20.9342 15.4036C21.3197 15.0353 21.7723 14.86 22.2416 14.895C22.7277 14.9301 23.1635 15.1756 23.5658 15.6315L26.2141 18.6302L27.0522 17.8235L24.3536 14.8074C23.7502 14.1235 23.0294 13.7552 22.2584 13.7201C21.9064 13.7026 21.5544 13.7552 21.2359 13.8955C20.9175 14.0358 20.5822 14.2638 20.247 14.5794C19.9118 14.895 19.6939 15.2808 19.5766 15.7017C19.4928 16.0524 19.4592 16.4207 19.4592 16.7714L17.0456 14.0183L16.2075 14.8249L22.5601 22.0321L22.6271 22.0847Z" fill="#222222"/>
<path d="M27.2664 5.97739L26.248 6.65482L27.0213 7.92714L28.0397 7.24972L27.2664 5.97739Z" fill="#222222"/>
<path d="M31.1755 14.6845L31.209 14.7546L32.1644 14.1058L28.5607 8.17868L28.5272 8.12607L27.5718 8.75736L31.1755 14.6845Z" fill="#222222"/>
<path d="M36.774 10.3706C37.193 10.581 37.6456 10.6862 38.0981 10.6862C38.5339 10.6862 38.9865 10.581 39.4558 10.3881C40.3944 9.98481 41.0314 9.33598 41.3666 8.42412C41.6683 7.56486 41.6348 6.63546 41.266 5.67099C40.8973 4.70652 40.2939 4.02262 39.5061 3.6193C38.668 3.21597 37.7629 3.21597 36.841 3.60176C35.9024 4.00509 35.2654 4.65391 34.9302 5.56577C34.6285 6.42503 34.662 7.35443 35.0308 8.3189C35.3828 9.28337 35.9694 9.96727 36.774 10.3706ZM38.0814 4.40841C38.3998 4.40841 38.7015 4.49609 39.0032 4.65391C39.5396 4.95202 39.9419 5.42549 40.1933 6.10939C40.4615 6.79328 40.495 7.42457 40.3106 8.02079C40.1263 8.63455 39.6905 9.09048 39.0535 9.37105C38.3998 9.65162 37.7964 9.63409 37.2601 9.31844C36.7237 9.03787 36.3214 8.54687 36.07 7.86297C35.8018 7.17907 35.7683 6.54778 35.9527 5.95156C36.137 5.33781 36.5728 4.88188 37.2098 4.6013C37.5115 4.47855 37.7964 4.40841 38.0814 4.40841Z" fill="#222222"/>
<path d="M47.0151 7.68771L48.1381 7.49482L47.518 3.46158C47.4342 2.86536 47.5347 2.35682 47.8532 1.90089C48.1717 1.46249 48.5907 1.19946 49.1271 1.11178C49.6467 1.0241 50.0992 1.12931 50.4847 1.44496C50.8702 1.74307 51.1049 2.21653 51.2055 2.83029L51.8256 6.86353L52.9487 6.67063L52.3285 2.63739C52.1944 1.70799 51.7921 0.989025 51.1552 0.515558C50.8702 0.287592 50.5518 0.147306 50.2165 0.0596265C49.8813 -0.0105168 49.479 -0.0105168 49.0265 0.0596265C48.5739 0.12977 48.1884 0.322664 47.8699 0.620773C47.6018 0.866275 47.3839 1.14685 47.2163 1.44496L47.0654 0.498022L45.9424 0.690916L46.9984 7.6351L47.0151 7.68771Z" fill="#222222"/>
<path d="M107.021 68.8704L106.954 68.8528L105.932 72.6581C105.781 73.1842 105.747 73.7453 105.814 74.2889C105.881 74.8501 106.049 75.3761 106.317 75.8671C106.92 76.9544 107.859 77.6909 109.133 78.0591C109.619 78.1994 110.088 78.2695 110.558 78.2695C111.295 78.2695 111.982 78.0767 112.636 77.7084C113.105 77.4278 113.508 77.0771 113.843 76.6387C114.178 76.2003 114.413 75.7093 114.547 75.1657L115.553 71.4306L115.569 71.3604L107.021 68.8704ZM107.691 70.2907L114.228 72.2022L113.524 74.8325C113.29 75.7269 112.753 76.3932 111.966 76.7615C111.211 77.1297 110.357 77.1823 109.435 76.9193C108.53 76.6562 107.826 76.1477 107.356 75.4112C106.87 74.6572 106.736 73.8154 106.987 72.9211L107.691 70.2907Z" fill="#222222"/>
<path d="M106.015 82.6534C105.16 82.1449 104.272 81.9871 103.4 82.215C102.495 82.443 101.791 83.0392 101.289 83.9511C100.886 84.67 100.735 85.389 100.802 86.0378C100.886 86.7042 101.121 87.3004 101.54 87.8265L101.607 87.8966L102.194 86.8094L102.21 86.7743L102.194 86.7393C101.758 86.0203 101.741 85.2838 102.177 84.4771C102.495 83.8985 102.931 83.5302 103.468 83.3549C103.987 83.197 104.507 83.2321 105.026 83.4425L102.311 88.4402L102.277 88.4929L102.68 88.7384C103.3 89.1066 103.92 89.2995 104.54 89.2995C104.792 89.2995 105.026 89.2644 105.278 89.2118C106.183 88.9839 106.887 88.4052 107.39 87.4933C107.893 86.5814 108.01 85.6521 107.725 84.7227C107.457 83.8809 106.887 83.1795 106.015 82.6534ZM106.485 86.9848C106.2 87.5284 105.781 87.8791 105.261 88.0545C104.792 88.2123 104.289 88.1947 103.786 88.0019L105.948 84.0388C106.367 84.407 106.635 84.8454 106.753 85.3364C106.87 85.8976 106.786 86.4412 106.485 86.9848Z" fill="#222222"/>
<path d="M99.847 93.631C99.8302 93.631 99.8302 93.631 99.8135 93.631C99.495 93.631 99.1598 93.7186 98.8413 93.894C98.5228 94.0518 98.2044 94.2623 97.8859 94.5078C97.5674 94.7533 97.2657 94.9637 96.9808 95.1566C96.6958 95.3495 96.4277 95.4722 96.193 95.5248C95.9583 95.5774 95.7572 95.5248 95.5728 95.3495C95.2879 95.0864 95.2208 94.7533 95.3717 94.3324C95.4387 94.1395 95.5393 93.9641 95.6399 93.8063C95.7404 93.631 95.8745 93.4731 96.0254 93.2978C96.1762 93.1224 96.3439 92.9821 96.545 92.8594C97.0981 92.5262 97.601 92.5437 98.087 92.912L98.1373 92.9471L98.9251 92.0352L98.8748 91.9826C98.372 91.5617 97.8021 91.4039 97.1652 91.4916C96.4779 91.5968 95.8242 92.0001 95.2208 92.684C94.6509 93.3328 94.3325 93.9817 94.2654 94.613C94.1984 95.2443 94.3995 95.8054 94.9024 96.2789C95.2208 96.577 95.5561 96.7348 95.8913 96.7348C96.2265 96.7348 96.5618 96.6471 96.8802 96.4893C97.1987 96.3315 97.5339 96.121 97.8524 95.8755C98.1541 95.63 98.4558 95.4196 98.7407 95.2267C99.0257 95.0338 99.2771 94.9111 99.5285 94.8409C99.7632 94.7708 99.9476 94.8234 100.132 94.9988C100.584 95.4196 100.467 95.9983 99.8135 96.7699C99.143 97.5414 98.5564 97.7168 98.02 97.331L97.9697 97.2959L97.1987 98.1903L97.2657 98.2429C97.6345 98.5235 98.0368 98.6637 98.4558 98.6637C98.5564 98.6637 98.6402 98.6637 98.7407 98.6462C99.3609 98.5585 99.9476 98.1727 100.501 97.5415C101.087 96.8576 101.406 96.2263 101.456 95.63C101.506 95.0338 101.288 94.5077 100.836 94.0869C100.501 93.7712 100.182 93.631 99.847 93.631Z" fill="#222222"/>
<path d="M93.7458 105.327L94.6342 106.501L95.5896 105.712L94.6845 104.538L93.7458 105.327Z" fill="#222222"/>
<path d="M89.874 98.2603L89.8405 98.2077L88.9521 98.9442L93.1257 104.45L93.1593 104.503L94.0476 103.767L89.874 98.2603Z" fill="#222222"/>
<path d="M84.8121 103.275C83.9572 102.96 83.0856 103.03 82.2308 103.521C81.3592 104.012 80.8396 104.713 80.672 105.625L80.3368 104.959C80.0183 104.345 79.9345 103.784 80.0686 103.311C80.2027 102.837 80.605 102.399 81.2754 102.048C82.1302 101.575 82.851 101.575 83.4041 102.048L83.4376 102.083L84.5271 101.469L84.4601 101.399C84.0075 100.943 83.4712 100.663 82.8342 100.592C82.1973 100.522 81.4598 100.715 80.6385 101.171C79.8172 101.627 79.264 102.241 79.0126 102.977C78.7612 103.731 78.8618 104.556 79.3143 105.45L82.3314 111.412L82.3649 111.482L83.3706 110.921L82.9348 110.062C83.7226 110.43 84.5606 110.378 85.3987 109.922C86.3038 109.413 86.8737 108.712 87.1084 107.782C87.3263 106.888 87.2089 105.994 86.7564 105.082C86.2871 104.187 85.6334 103.574 84.8121 103.275ZM86.0021 107.519C85.8513 108.15 85.4658 108.641 84.8456 108.992C84.2422 109.325 83.6388 109.378 83.0689 109.15C82.5157 108.922 82.08 108.484 81.7615 107.852C81.443 107.221 81.3425 106.59 81.4765 105.994C81.5436 105.695 81.6777 105.432 81.8621 105.169C82.0464 104.924 82.2979 104.713 82.6163 104.538C82.9851 104.328 83.3538 104.222 83.7226 104.222C83.9572 104.222 84.1919 104.257 84.4266 104.345C84.9964 104.573 85.449 104.994 85.7675 105.625C86.0524 106.274 86.1362 106.905 86.0021 107.519Z" fill="#222222"/>
<path d="M74.4367 107.081L73.3472 107.379L74.3362 111.325C74.487 111.903 74.42 112.429 74.1518 112.903C73.8836 113.359 73.4813 113.674 72.9617 113.815C72.4589 113.955 71.9896 113.885 71.5705 113.622C71.1683 113.359 70.8833 112.92 70.7325 112.324L69.7435 108.361L68.6541 108.659L69.643 112.64C69.8776 113.552 70.3302 114.218 71.0006 114.639C71.3024 114.832 71.6376 114.954 71.9728 114.99C72.0566 115.007 72.1572 115.007 72.2577 115.007C72.5259 115.007 72.8276 114.972 73.1461 114.884C73.5819 114.762 73.9507 114.534 74.2356 114.218C74.4703 113.955 74.6714 113.657 74.8222 113.324L75.0569 114.253L76.1464 113.955L74.4535 107.151L74.4367 107.081Z" fill="#222222"/>
<path d="M65.2514 52.7197L65.1844 52.7022L64.1619 53.9472L64.1452 53.9648V53.9998C64.1116 54.2453 64.1452 54.4733 64.229 54.6662C64.3128 54.8416 64.4301 54.9994 64.5642 55.1572C64.6983 55.2975 64.8324 55.4553 64.9665 55.5956C65.1006 55.7359 65.2011 55.8762 65.3017 56.034L65.3352 56.1041L65.4023 56.0866C65.7543 55.9989 65.8549 55.806 65.8716 55.6482C65.9051 55.4553 65.9051 55.2624 65.9051 55.052C65.9051 54.8591 65.9051 54.6662 65.9387 54.4733C65.9554 54.3155 66.0728 54.2103 66.2739 54.1226L66.3912 54.07L66.3242 53.9648C66.2404 53.842 66.1733 53.7193 66.123 53.614C66.056 53.4913 66.0057 53.3861 65.9387 53.2633C65.8716 53.1406 65.7878 53.0354 65.6872 52.9477C65.5531 52.86 65.419 52.7899 65.2514 52.7197Z" fill="#222222"/>
<path d="M100.886 63.101C101.171 62.9783 101.473 62.838 101.741 62.6802C101.808 62.6451 101.875 62.5925 101.942 62.5399C101.993 62.4873 102.043 62.4522 102.11 62.4347L103.987 61.4877L104.155 61.6631L104.222 61.6105C104.49 61.3825 104.758 61.2072 105.06 61.0844C105.345 60.9617 105.647 60.8214 105.932 60.6636C106.032 60.6636 106.133 60.6109 106.2 60.5057C106.25 60.4181 106.317 60.3304 106.384 60.2427C106.451 60.155 106.518 60.0673 106.602 59.9972C106.652 59.9446 106.736 59.927 106.853 59.9621L106.904 59.9797L106.937 59.9446C107.055 59.8569 107.155 59.7342 107.256 59.6114C107.34 59.5062 107.44 59.3834 107.524 59.2782C107.641 59.1555 107.725 59.0503 107.775 58.9801C107.826 58.91 107.876 58.8574 107.926 58.7872C107.96 58.7346 108.01 58.6645 108.077 58.6119C108.127 58.5417 108.211 58.454 108.328 58.3488L108.396 58.2787L108.328 58.2085C108.328 58.2085 108.328 58.2085 108.328 58.1735C108.328 58.1209 108.345 58.1033 108.345 58.0858L108.362 57.8403C108.362 57.7351 108.312 57.6474 108.211 57.5948L108.161 57.5772L108.111 57.6123C107.96 57.7526 107.792 57.8754 107.624 57.9981C107.457 58.1209 107.289 58.2261 107.122 58.3488C106.904 58.4891 106.753 58.5943 106.636 58.6645C106.518 58.7346 106.401 58.8223 106.317 58.8924C106.233 58.9626 106.133 59.0503 106.049 59.1379L105.647 59.5413L105.513 59.3484L105.429 59.436C105.295 59.5763 105.144 59.7166 105.01 59.8394C104.892 59.9446 104.742 59.9621 104.54 59.892L104.49 59.8744L104.457 59.892C104.373 59.9446 104.289 59.9797 104.188 59.9972C104.071 60.0147 103.971 60.0323 103.87 60.0673C103.769 60.1024 103.669 60.1375 103.585 60.2076C103.484 60.2778 103.417 60.4005 103.35 60.5759C103.199 60.5934 103.049 60.6109 102.898 60.6285C102.73 60.646 102.579 60.6636 102.428 60.7162C102.278 60.7512 102.127 60.8214 102.009 60.9091C101.875 60.9967 101.758 61.1195 101.657 61.2773C101.607 61.3825 101.557 61.4527 101.54 61.5403C101.507 61.6105 101.49 61.6982 101.473 61.7683C101.406 61.7859 101.322 61.7859 101.238 61.7683C101.155 61.7683 101.104 61.7157 101.054 61.6456L101.021 61.593L100.953 61.6105C100.652 61.6631 100.35 61.7508 100.065 61.856C99.7802 61.9612 99.4952 62.084 99.2438 62.2067C98.9756 62.3295 98.7074 62.4522 98.4225 62.5574C98.1543 62.6626 97.8694 62.7328 97.5844 62.7679C97.2827 62.5574 96.8637 62.61 96.4446 62.6451C96.2603 62.6626 96.0591 62.6626 95.8915 62.6451C95.7574 62.6276 95.6401 62.575 95.5395 62.4873C95.6233 62.3119 95.7407 62.1716 95.8747 62.0664C96.0424 61.9437 96.21 61.8385 96.3943 61.7683C96.5787 61.6806 96.7799 61.6105 96.9642 61.5579C97.1654 61.5053 97.3498 61.4176 97.5174 61.3124C97.685 61.2072 97.8191 61.0669 97.9364 60.9091C98.037 60.7688 98.0873 60.5759 98.104 60.3304C98.1878 60.3479 98.2549 60.3654 98.3387 60.383C98.456 60.4005 98.5733 60.4356 98.6739 60.4707L98.7242 60.4882L98.7577 60.4707C98.875 60.4005 98.9588 60.2778 99.0259 60.1375C99.0762 60.0323 99.1265 59.9271 99.2103 59.8394C99.3276 59.9271 99.4282 59.9797 99.512 59.9621C99.5623 59.9621 99.6125 59.927 99.6461 59.8744C99.6964 59.7868 99.7466 59.6815 99.7969 59.5237C99.8304 59.401 99.8807 59.2782 99.9645 59.173C100.015 59.1029 100.132 59.0853 100.317 59.1379L100.35 59.1555L100.384 59.1379C100.669 58.945 100.886 58.7171 101.054 58.4365C101.205 58.1735 101.339 57.8754 101.473 57.5772C101.557 57.4019 101.641 57.2265 101.724 57.0687C101.808 56.9109 101.892 56.7531 102.009 56.6128C102.127 56.455 102.177 56.2621 102.177 56.0516C102.177 55.8763 102.127 55.7184 102.026 55.5782C102.194 55.4554 102.244 55.2625 102.177 54.9995C102.093 54.7189 101.926 54.4909 101.674 54.2805C101.423 54.0701 101.104 53.9473 100.752 53.9123C100.4 53.8772 100.065 54.0175 99.7299 54.3507C99.512 54.1928 99.3444 54.1753 99.1935 54.263C99.0762 54.3507 98.9589 54.4559 98.8415 54.5786C98.741 54.7014 98.6069 54.8066 98.4728 54.9118C98.3554 54.9995 98.2046 54.9995 98.0034 54.8943L97.9532 54.8767L97.9029 54.9293C97.7017 55.1398 97.4671 55.3327 97.2492 55.508C97.0145 55.6834 96.7799 55.8763 96.562 56.0692C96.3273 56.2621 96.1094 56.4725 95.9083 56.6829C95.6904 56.9109 95.506 57.1564 95.3551 57.437L95.3384 57.472V57.5071C95.3719 57.6649 95.3719 57.7701 95.3551 57.8578C95.3384 57.9455 95.3049 58.0156 95.2546 58.0858C95.2043 58.1559 95.154 58.2261 95.087 58.2962C95.0199 58.3664 94.9361 58.4716 94.8691 58.5943L94.8355 58.6294L94.8523 58.682C94.8691 58.7346 94.9026 58.7872 94.9696 58.8398C94.9864 58.8574 95.0032 58.8924 95.0032 58.9275C95.0032 59.0503 94.9696 59.0853 94.9696 59.1029C94.9361 59.1379 94.9026 59.1555 94.8691 59.1555C94.802 59.1555 94.735 59.1555 94.6679 59.1555C94.5841 59.1555 94.5171 59.1379 94.45 59.1379H94.3495V59.2431C94.3495 59.3308 94.3495 59.4185 94.3662 59.5062C94.3662 59.5763 94.383 59.664 94.383 59.7517C94.383 59.9972 94.3495 60.2076 94.2824 60.4005C94.2154 60.5934 94.1316 60.7688 94.031 60.9266C93.9137 61.1195 93.8466 61.3299 93.8801 61.593C93.8801 61.628 93.8969 61.6631 93.8969 61.6982C93.8299 61.7332 93.7796 61.7858 93.7293 61.8735L93.5617 61.6982L93.4946 61.8209C93.3102 62.1541 93.1929 62.2418 93.1426 62.2593C93.0253 62.2944 92.9247 62.3119 92.8242 62.2944C92.6901 62.2769 92.556 62.2944 92.4219 62.3295C92.2878 62.3645 92.1705 62.5048 92.0196 62.7328C91.9526 62.6626 91.8688 62.6276 91.785 62.6276C91.785 62.6276 91.785 62.6276 91.7682 62.6276C91.6844 62.6276 91.5838 62.6802 91.5 62.7679C91.3659 62.6451 91.2486 62.575 91.148 62.575C91.0307 62.575 90.9134 62.5925 90.8128 62.6276C90.7122 62.6626 90.6284 62.7152 90.5279 62.7503C90.4441 62.7854 90.3602 62.7854 90.2597 62.7503C90.1926 62.7152 90.1759 62.6977 90.1759 62.6977C90.1591 62.6802 90.1088 62.6451 90.0585 62.61C89.7904 62.3996 89.6395 62.1716 89.6227 61.9612C89.5892 61.7332 89.5725 61.4877 89.5725 61.2773C89.5725 61.0318 89.5389 60.8214 89.4719 60.6109C89.4048 60.4005 89.2205 60.2252 88.902 60.0849C88.9355 59.9095 89.0026 59.7517 89.0864 59.6465C89.187 59.5062 89.3043 59.401 89.4384 59.3133C89.5725 59.2256 89.7233 59.1379 89.8909 59.0678C90.0585 58.9976 90.2429 58.8924 90.4105 58.7872L90.4776 58.7521L90.4608 58.682C90.377 58.4365 90.3602 58.2085 90.4105 58.0156C90.4608 57.8227 90.5279 57.6299 90.6117 57.437C90.6955 57.2616 90.796 57.0687 90.8799 56.8583C90.9637 56.6479 90.9972 56.4199 90.9637 56.1568V56.1218L90.9469 56.1042C90.8631 56.0166 90.7625 55.9464 90.6452 55.9113C90.5279 55.8763 90.4105 55.8587 90.2932 55.8938C90.1759 55.9113 90.0753 55.964 89.9747 56.0166C89.8742 56.0867 89.8071 56.1744 89.7568 56.2796C89.4384 56.6128 89.1534 57.0161 88.902 57.5071C88.6673 57.9981 88.4159 58.4365 88.1813 58.8223L88.1645 58.8574C88.1142 59.1905 87.9634 59.4536 87.7622 59.664C87.5443 59.8744 87.2761 60.0849 86.9912 60.2778C86.7063 60.4707 86.4046 60.6811 86.1196 60.8915C85.8347 61.102 85.6168 61.365 85.4324 61.6806C85.2648 61.6631 85.1307 61.6982 85.0301 61.7858C84.9296 61.8735 84.8457 61.9787 84.7787 62.1015C84.7117 62.2242 84.6614 62.347 84.5943 62.4873C84.5608 62.575 84.5105 62.6626 84.4435 62.7328C84.2423 62.6451 84.058 62.6276 83.9071 62.6977C83.7395 62.7679 83.5886 62.8555 83.4545 62.9607C83.3372 63.0484 83.2031 63.1361 83.0858 63.1887C83.0523 63.2062 82.9517 63.2589 82.7841 63.1361L82.7003 63.0835L82.65 63.1712C82.5997 63.2413 82.5494 63.2939 82.4824 63.2939C82.4153 63.3115 82.3315 63.3115 82.2645 63.2939C82.1974 63.1536 82.0969 63.0309 81.9963 62.9081C81.9125 62.8029 81.8957 62.6977 81.946 62.575C82.1136 62.5048 82.3315 62.3821 82.3148 62.2067C82.3148 62.1541 82.298 62.119 82.2812 62.0664L82.298 62.0489L82.3483 61.9963L82.1639 61.6806L82.0969 61.7157C82.0466 61.6456 82.0131 61.5754 81.9795 61.5053C81.9628 61.4702 81.946 61.4001 82.0969 61.2948L82.1304 61.2773L82.1472 61.2422C82.2645 60.874 82.4153 60.5057 82.5997 60.1726C82.7841 59.8218 82.9517 59.4711 83.1361 59.1204C83.3037 58.7697 83.4713 58.4014 83.6222 58.0332C83.773 57.6649 83.8903 57.2791 83.9574 56.8933C83.9742 56.8057 84.0077 56.7355 84.0412 56.6303C84.0747 56.5251 84.0747 56.4199 84.058 56.3322C84.058 56.0867 83.9574 55.9113 83.773 55.7886C83.6054 55.6834 83.421 55.6308 83.2366 55.6483C83.0523 55.6658 82.8847 55.7535 82.7506 55.8938C82.6165 56.0341 82.5829 56.2445 82.65 56.49C82.0466 56.981 81.5773 57.6123 81.242 58.3313C80.9068 59.0853 80.6889 59.8569 80.5883 60.6636V60.7162L80.6386 60.7512C80.6889 60.7863 80.6889 60.8214 80.6721 60.874C80.6219 60.9792 80.5883 61.0669 80.5381 61.1721C80.4878 61.2948 80.471 61.4001 80.471 61.5228C80.4878 61.6982 80.6554 61.7858 80.7727 61.8385C80.7727 61.9086 80.7727 61.9963 80.756 62.0664C80.756 62.084 80.756 62.1541 80.6219 62.2242L80.5548 62.2593L80.5716 62.3295C80.5883 62.4522 80.6219 62.575 80.6554 62.6802C80.5381 62.7679 80.4207 62.838 80.3034 62.9257C80.1693 63.0309 80.052 63.1536 79.9347 63.2589C79.8173 63.3816 79.7 63.4868 79.5659 63.592C79.5491 63.6096 79.5156 63.6271 79.4486 63.6797C79.3648 63.7323 79.281 63.8025 79.1804 63.8726C79.0798 63.9428 78.996 63.9954 78.9122 64.048C78.8116 64.1006 78.7781 64.1356 78.7614 64.1532C78.5602 64.2584 78.3926 64.3285 78.292 64.3987C78.1915 64.4513 78.0406 64.574 77.8227 64.7319C77.5545 64.7494 77.2863 64.802 77.0014 64.8722C76.75 64.9423 76.5153 64.9949 76.2807 65.0475C76.2136 64.802 76.113 64.574 75.9957 64.3636C75.8616 64.1181 75.7275 63.8726 75.5934 63.6271L75.5599 63.592C75.4594 63.5219 75.3588 63.4517 75.2582 63.3816C75.1744 63.3115 75.0738 63.2589 74.99 63.2062C75.0068 63.101 75.0403 62.9783 75.0738 62.8555C75.1074 62.7152 75.1409 62.575 75.1576 62.4347C75.1912 62.3645 75.2582 62.2593 75.3253 62.084C75.4091 61.8911 75.4929 61.6982 75.5767 61.4702L75.7946 60.874C75.8616 60.6986 75.8952 60.5934 75.9119 60.5583C75.9622 60.4005 76.0125 60.2252 76.046 60.0673L76.1466 59.5763C76.2304 59.436 76.2974 59.2782 76.3477 59.1029C76.398 58.9275 76.4483 58.7697 76.5153 58.6294C76.5991 58.4365 76.6829 58.2611 76.75 58.1209C76.817 57.9806 76.8841 57.8403 76.9344 57.7C76.9846 57.5597 77.0517 57.4194 77.102 57.2791C77.1523 57.1564 77.2025 56.9986 77.2696 56.8407C77.454 56.8057 77.6216 56.7706 77.7892 56.7355C77.9736 56.7005 78.1747 56.6654 78.3758 56.6303L78.4932 56.6128L77.9065 55.2274L76.7332 54.8767L76.6997 54.9118C76.6494 54.9469 76.5824 54.9819 76.4986 55.017C76.398 55.0521 76.3142 55.0872 76.1969 55.1398C76.0963 55.1748 75.9957 55.2099 75.8784 55.245C75.7778 55.2801 75.6772 55.3151 75.6102 55.3327L75.5934 55.3502C75.5432 55.3853 75.4761 55.4379 75.3923 55.4729C75.3085 55.5256 75.2079 55.5782 75.0906 55.6308L74.7721 55.7711C74.6716 55.8237 74.5878 55.8587 74.5375 55.8763C74.2358 55.999 73.9341 56.1218 73.6491 56.2445C73.3474 56.3673 73.0457 56.5251 72.7608 56.718C72.5932 56.8583 72.4591 56.9635 72.3585 57.0512C72.2747 57.1213 72.1406 57.2265 71.9562 57.3668C71.8389 57.4896 71.7383 57.6299 71.6378 57.8052C71.5539 57.963 71.4701 58.1033 71.3696 58.2261C71.269 58.3313 71.1517 58.4365 71.0176 58.5417C70.8667 58.6469 70.7326 58.7521 70.6153 58.8574L70.1795 59.8218C70.1795 59.8218 70.1627 59.8569 70.0789 59.9621C70.0119 60.0323 69.9449 60.1199 69.861 60.2076L69.6431 60.4356C69.5593 60.5233 69.5258 60.5759 69.5091 60.6285L69.1235 61.5403C69.0062 61.6806 68.9056 61.8209 68.8218 61.9612C68.7213 62.1015 68.6375 62.2593 68.5369 62.4171L68.5201 62.4522L68.5369 62.5048C68.5537 62.5574 68.5704 62.61 68.5704 62.6626C68.4196 62.6977 68.2855 62.7679 68.1849 62.9081L68.1681 62.9257V62.9432C68.1346 63.1186 68.0843 63.2238 68.0173 63.2589C67.9167 63.2939 67.8162 63.3115 67.6988 63.329C67.5647 63.329 67.4306 63.3641 67.2966 63.3991C67.1457 63.4518 67.0451 63.5745 66.9781 63.8025C66.844 63.8551 66.7267 63.8551 66.6261 63.8375C66.5088 63.82 66.3914 63.7849 66.2741 63.7499C66.1568 63.7148 66.0227 63.6973 65.8886 63.7148C65.7545 63.7148 65.6036 63.7849 65.4193 63.8901C65.2181 63.8726 65.017 63.8901 64.7991 63.9077C64.598 63.9252 64.4304 63.8726 64.2795 63.7499L64.2292 63.7148L64.1789 63.7323C64.0616 63.7849 63.894 63.82 63.8269 63.7499C63.7599 63.6622 63.7096 63.5394 63.6761 63.3816C63.6426 63.2062 63.6258 63.0309 63.6258 62.838C63.6258 62.6802 63.5923 62.5574 63.5588 62.4697C63.6426 62.4171 63.6928 62.347 63.7264 62.2769C63.7599 62.1892 63.7934 62.084 63.8102 61.9787C63.8269 61.8911 63.8605 61.8209 63.894 61.7508C63.9107 61.6982 63.9778 61.6806 64.0784 61.6806H64.2292L64.1622 61.5403C64.0281 61.2422 63.9946 61.0143 64.0784 60.8389C64.1789 60.646 64.2963 60.4356 64.4639 60.2602C64.6315 60.0673 64.7823 59.8394 64.9164 59.6289C65.0673 59.3834 65.084 59.0853 65.0002 58.6995C64.9667 58.5768 64.9164 58.4891 64.8494 58.419C64.8494 58.4014 64.8661 58.4014 64.8661 58.3839L64.9332 58.2085L64.7488 58.2611C64.7153 58.2787 64.6818 58.2962 64.6482 58.2962C64.6147 58.2787 64.5812 58.2611 64.5477 58.2436C64.4471 58.2261 64.3465 58.2085 64.246 58.2261C64.1454 58.2261 64.0448 58.2436 63.961 58.2436H63.9275L63.894 58.2787C63.7934 58.3839 63.6928 58.4891 63.5755 58.5943C63.4582 58.6995 63.3409 58.8398 63.2403 58.9626C63.1397 59.1029 63.0727 59.2432 63.0056 59.3834C62.838 59.5588 62.6704 59.7166 62.5196 59.9095L61.5809 60.9792C61.296 61.3124 60.944 61.593 60.5752 61.8209C60.4244 61.7683 60.2903 61.7683 60.173 61.8034C60.0556 61.8385 59.9551 61.8911 59.8545 61.9787C59.7539 62.0489 59.6701 62.1541 59.6031 62.2593C59.536 62.347 59.469 62.4347 59.3852 62.5224C59.1673 62.5574 58.9661 62.6451 58.765 62.7503C58.5471 62.8731 58.346 63.0134 58.1616 63.1712C57.9772 63.329 57.7928 63.5219 57.6252 63.6973C57.4911 63.8551 57.3738 63.9954 57.2565 64.1357L56.8039 63.4693L56.4687 63.8025C56.4016 63.7148 56.3346 63.6096 56.2675 63.5044C56.1837 63.3641 56.1167 63.2062 56.0496 63.0484C55.9826 62.8906 55.9491 62.7328 55.9323 62.5574C55.9156 62.3996 55.9323 62.2593 55.9658 62.119V62.1015V62.084C55.8988 61.5053 55.8485 60.9091 55.7982 60.3128C55.7479 59.7342 55.7312 59.1379 55.7647 58.5768C56.0999 57.8403 56.4184 57.0862 56.7033 56.3322C56.9715 55.5957 57.2565 54.8241 57.5414 54.0175C57.6252 53.772 57.709 53.5265 57.7928 53.2634L57.8431 53.1056C57.9437 52.8075 58.0443 52.5094 58.1616 52.1937C58.2957 51.7904 58.4633 51.5449 58.6644 51.4397C58.8656 51.3345 59.1002 51.2819 59.3181 51.2994C59.5695 51.2994 59.821 51.317 60.0724 51.3345C60.3406 51.352 60.592 51.2643 60.8602 51.1065C61.011 51.1942 61.1786 51.2293 61.3295 51.1942C61.4803 51.1591 61.5977 51.089 61.6815 50.9838L61.9497 51.2643H61.9832C62.2178 51.2819 62.4525 51.2643 62.6872 51.2117C62.9051 51.1591 63.1397 51.1065 63.3576 51.0539C63.5755 51.0013 63.7934 50.9487 63.9946 50.9136C64.1957 50.8786 64.3968 50.8961 64.5644 50.9487L64.6315 50.9662L64.665 50.9136C64.7823 50.7383 64.9164 50.6331 65.084 50.6331C65.2684 50.6155 65.4696 50.6506 65.6539 50.6857C65.8718 50.7207 66.073 50.7383 66.2909 50.7383C66.5255 50.7383 66.7434 50.6155 66.9278 50.4051L66.9613 50.37L66.9446 50.3174C66.8943 50.1596 66.8943 50.0544 66.911 49.9492C66.9446 49.8439 66.9613 49.7387 66.9948 49.6335C67.0116 49.5283 67.0116 49.4056 66.9613 49.3003C66.911 49.1951 66.7937 49.0724 66.5926 48.9496L66.559 48.9321H66.5255C66.3411 48.9672 66.1232 49.0198 65.9053 49.0724C65.6707 49.125 65.4528 49.1776 65.2181 49.2127C64.9835 49.2477 64.7656 49.2828 64.5477 49.2828C64.3298 49.3003 64.1119 49.2828 63.9443 49.2653H63.9107L63.8772 49.2828C63.7934 49.3529 63.7096 49.3705 63.6258 49.3354C63.5252 49.3003 63.4247 49.2653 63.3073 49.2127C63.19 49.16 63.0727 49.1074 62.9218 49.0548C62.771 49.0022 62.6034 49.0373 62.4357 49.125L62.419 49.1425L62.4022 49.16C62.3352 49.2653 62.2346 49.4056 62.134 49.4056C62.0335 49.4056 61.9161 49.388 61.7988 49.3529C61.6647 49.3003 61.5474 49.2653 61.4133 49.2477C61.2792 49.2302 61.1619 49.2653 61.0278 49.388C60.8769 49.2302 60.6758 49.2653 60.4747 49.3354C60.3909 49.3705 60.2903 49.4055 60.173 49.4406C60.0891 49.4582 60.0053 49.4582 59.9215 49.4406C59.821 49.3003 59.7036 49.16 59.5695 49.0198C59.469 48.897 59.4522 48.7567 59.5193 48.5814C59.6198 48.4937 59.7204 48.3534 59.8042 48.178C59.888 48.0378 59.9718 47.9676 60.0724 47.9501H60.1562L60.173 47.8799C60.1897 47.8098 60.2232 47.7221 60.2903 47.6169C60.3741 47.4941 60.4244 47.3889 60.4747 47.2662C60.5417 47.1434 60.5417 47.0207 60.5249 46.8979C60.4914 46.7927 60.4244 46.7226 60.307 46.6524C60.4076 46.5121 60.4747 46.3719 60.5249 46.214C60.592 46.0387 60.6423 45.8458 60.6926 45.6353C60.7428 45.4425 60.7764 45.2496 60.8099 45.0391C60.8434 44.8462 60.8937 44.6709 60.9607 44.4955L60.9943 44.4254L60.8937 44.1974C60.7428 44.1097 60.592 44.022 60.4411 43.9344C60.2735 43.8467 60.0724 43.8116 59.8712 43.8467L59.8377 43.8642C59.3852 44.1273 59.0499 44.4604 58.832 44.8638C58.6141 45.2496 58.4465 45.6704 58.3124 46.1263C58.1783 46.5823 58.061 47.0382 57.9604 47.4941C57.8599 47.9325 57.7258 48.3534 57.5246 48.7567C57.2565 49.0022 57.005 49.1951 56.7369 49.3179C56.4687 49.4406 56.1837 49.5283 55.8988 49.5634C55.6138 49.5984 55.3121 49.5984 55.0104 49.5809C54.7087 49.5458 54.3735 49.4932 54.0383 49.4231H54.0047L53.9712 49.4406C53.8539 49.5108 53.7533 49.5458 53.6192 49.5458C53.4684 49.5458 53.3511 49.5634 53.2337 49.5809C53.0996 49.5984 52.9991 49.6511 52.8985 49.7387C52.7979 49.8264 52.7476 49.9842 52.7309 50.2297V50.4402C52.7476 50.5629 52.8315 50.6681 52.9655 50.7032C53.1667 50.7558 53.4181 50.7558 53.6528 50.7207C53.8539 50.6857 53.9545 50.6857 54.0047 50.7032C54.0383 50.7207 54.0886 50.7383 54.1388 50.7733C54.34 50.861 54.5579 50.8961 54.7758 50.9136C55.178 50.9312 55.5971 50.9312 55.9994 50.9662C56.1502 50.9838 56.3178 51.0188 56.4854 51.0715C56.1335 51.9833 55.7982 52.9127 55.4798 53.8597C55.1445 54.8241 54.8596 55.8061 54.6082 56.8057C54.5076 57.209 54.4238 57.6123 54.3232 57.9981C54.2394 58.4014 54.1388 58.8048 54.0383 59.2081L53.9712 59.4887C53.9545 59.5763 53.9377 59.6815 53.9545 59.8043C53.9712 59.9972 53.988 60.1726 54.0383 60.3654C54.0886 60.5408 54.1053 60.6986 54.1221 60.8564C54.1221 60.8915 54.1221 60.9441 54.1221 60.9792C54.0718 61.0143 54.0215 61.0493 53.9712 61.0844C53.9042 61.1195 53.8204 61.1546 53.7366 61.1546H53.6863V61.2598C53.6863 61.5754 53.636 61.628 53.636 61.628C53.5857 61.6456 53.5187 61.6456 53.4349 61.628C53.3343 61.593 53.217 61.5754 53.0996 61.5579C52.9823 61.5579 52.8817 61.628 52.7979 61.7858L52.6303 61.6105L52.5633 61.7332C52.3789 62.0664 52.2616 62.1541 52.2113 62.1716C52.094 62.2067 51.9934 62.2242 51.8928 62.2067C51.7587 62.1892 51.6246 62.2067 51.4905 62.2418C51.3564 62.2768 51.2391 62.4171 51.0883 62.6451C51.0212 62.575 50.9374 62.5399 50.8536 62.5399C50.8536 62.5399 50.8536 62.5399 50.8368 62.5399C50.753 62.5399 50.6525 62.5925 50.5687 62.6802C50.4346 62.5574 50.3172 62.4873 50.2167 62.4873C50.0993 62.4873 49.982 62.5048 49.8814 62.5399C49.7809 62.575 49.6971 62.6276 49.5965 62.6626C49.5127 62.6977 49.4289 62.6977 49.3283 62.6626C49.2613 62.6276 49.2445 62.61 49.2445 62.61C49.2277 62.5925 49.1775 62.5574 49.1272 62.5224C48.859 62.3119 48.7081 62.084 48.6914 61.8735C48.6579 61.6456 48.6411 61.4001 48.6411 61.1896C48.6411 60.9441 48.6076 60.7337 48.5405 60.5233C48.4735 60.3128 48.2891 60.1375 47.9706 59.9972C48.0042 59.8218 48.0712 59.664 48.155 59.5588C48.2556 59.4185 48.3729 59.3133 48.507 59.2256C48.6411 59.1379 48.792 59.0503 48.9596 58.9801C49.1272 58.91 49.3116 58.8048 49.4792 58.6995L49.5462 58.6645L49.5295 58.5943C49.4456 58.3488 49.4289 58.1209 49.4792 57.928C49.5295 57.7351 49.5965 57.5422 49.6803 57.3493C49.7641 57.1739 49.8647 56.981 49.9485 56.7706C50.0323 56.5602 50.0658 56.3322 50.0323 56.0692V56.0341L50.0155 56.0166C49.9317 55.9289 49.8312 55.8587 49.7138 55.8237C49.5965 55.7886 49.4792 55.7711 49.3618 55.8061C49.2445 55.8237 49.1439 55.8763 49.0434 55.9289C48.9428 55.999 48.8758 56.0867 48.8255 56.1919C48.507 56.5251 48.2221 56.9284 47.9706 57.4194C47.736 57.9104 47.4846 58.3488 47.2499 58.7346L47.2331 58.7697C47.1829 59.1029 47.032 59.3659 46.8309 59.5763C46.613 59.7868 46.3448 59.9972 46.0598 60.1901C45.7749 60.383 45.4732 60.5934 45.1882 60.8038C44.9033 61.0143 44.6854 61.2773 44.501 61.593C44.3334 61.5754 44.1993 61.6105 44.0988 61.6982C43.9982 61.7858 43.9144 61.8911 43.8473 62.0138C43.7803 62.1366 43.73 62.2593 43.663 62.3996C43.6294 62.4873 43.5792 62.575 43.5121 62.6451C43.311 62.5574 43.1266 62.5399 42.9757 62.61C42.8081 62.6802 42.6573 62.7679 42.5232 62.8731C42.4059 62.9607 42.2718 63.0484 42.1544 63.101C42.1209 63.1186 42.0203 63.1712 41.8527 63.0484L41.7689 62.9958L41.7186 63.0835C41.6684 63.1536 41.6181 63.2062 41.551 63.2062C41.484 63.2238 41.4002 63.2238 41.3331 63.2062C41.2661 63.066 41.1655 62.9432 41.0649 62.8205C40.9811 62.7152 40.9644 62.61 41.0147 62.4873C41.1823 62.4171 41.4002 62.2944 41.3834 62.119C41.3834 61.9963 41.3331 61.8735 41.2326 61.7508C41.1488 61.6456 41.0985 61.5403 41.0482 61.4351C41.0314 61.4001 41.0147 61.3299 41.1655 61.2247L41.199 61.2072L41.2158 61.1721C41.3331 60.8038 41.484 60.4356 41.6684 60.1024C41.8527 59.7517 42.0203 59.401 42.2047 59.0503C42.3723 58.6995 42.5399 58.3313 42.6908 57.963C42.8417 57.5948 42.959 57.209 43.026 56.8232C43.0428 56.7355 43.0763 56.6654 43.1098 56.5602C43.1434 56.455 43.1434 56.3497 43.1266 56.2621C43.1266 56.0166 43.026 55.8412 42.8417 55.7185C42.674 55.6132 42.4897 55.5606 42.3053 55.5782C42.1209 55.5957 41.9533 55.6834 41.8192 55.8237C41.6851 55.9639 41.6516 56.1744 41.7186 56.4199C41.1152 56.9109 40.6459 57.5422 40.3107 58.2611C40.2772 58.3488 40.2436 58.419 40.2101 58.5066C40.1431 58.5417 40.0593 58.5943 39.9922 58.6645C39.8749 58.4891 39.7408 58.4014 39.6067 58.4014H39.5899C39.4558 58.4014 39.305 58.454 39.1877 58.5417C39.0703 58.6119 38.953 58.682 38.8357 58.7346C38.7854 58.7521 38.6848 58.7872 38.5507 58.6469L38.5004 58.5943L38.4334 58.6294C38.0982 58.8398 37.7462 58.9275 37.411 58.8749C37.0757 58.8398 36.7405 58.7171 36.422 58.5242V57.0161C36.4053 56.9284 36.3717 56.8057 36.3215 56.6303C36.2712 56.455 36.2209 56.2796 36.1706 56.1042C36.1203 55.9289 36.0533 55.736 36.003 55.5606C35.9527 55.3853 35.9024 55.2625 35.8857 55.1573L35.8689 55.1222L35.8354 55.1047C35.5002 54.8592 35.1985 54.789 34.9303 54.8592C34.6788 54.9293 34.4442 55.0345 34.2095 55.2099C33.9749 55.3677 33.7402 55.5256 33.4888 55.6658C33.2541 55.8061 32.9692 55.8412 32.6675 55.8061L32.4831 55.7711L32.5669 55.9464C32.5837 55.999 32.6004 56.0516 32.5669 56.1042C32.5334 56.1744 32.4999 56.2621 32.4831 56.3322C32.4496 56.4023 32.4328 56.49 32.4328 56.5602C32.4328 56.6303 32.4496 56.7005 32.5166 56.7706C32.4663 56.8232 32.4161 56.8583 32.3658 56.8933C32.282 56.946 32.1982 56.9986 32.0976 57.0336C31.997 57.0862 31.9132 57.1213 31.8126 57.1739C31.7121 57.2265 31.6115 57.2967 31.5277 57.3844L31.4942 57.4194V57.472C31.5277 57.7175 31.4774 57.9104 31.3433 58.0332C31.1925 58.1735 31.0081 58.2962 30.8405 58.419C30.6393 58.5417 30.4885 58.682 30.3376 58.8398C30.1868 58.9977 30.17 59.2432 30.2538 59.5413C30.1365 59.6114 30.0695 59.6991 30.0192 59.7868C29.8516 59.8744 29.6672 59.9621 29.4996 60.0498C29.1811 60.2252 28.8626 60.4005 28.5274 60.5759C28.2425 60.7162 27.9575 60.8214 27.6391 60.8915C27.6223 59.7517 27.4212 58.6294 27.0021 57.5772C26.5831 56.5076 26.0635 55.473 25.4266 54.4909C25.7785 53.772 26.0802 53.0004 26.3149 52.2113C26.5663 51.4046 26.7004 50.5629 26.7004 49.7037C26.7004 49.3705 26.6501 49.0022 26.5496 48.5814C26.4658 48.1956 26.3652 47.8449 26.2814 47.5117C26.2479 47.4065 26.1976 47.3013 26.1641 47.1785C26.1305 47.0557 26.097 46.9505 26.0635 46.8453V46.8102C25.9797 46.5823 25.8456 46.3894 25.6947 46.2491C25.5439 46.1088 25.3763 46.0036 25.1751 45.9335C24.9908 45.8633 24.7896 45.8107 24.5885 45.7756C24.3873 45.7406 24.1862 45.7055 24.0018 45.6704L23.7672 45.6178C23.566 45.5827 23.4822 45.5652 23.1973 45.6353C23.0632 45.6704 22.9291 45.7055 22.7783 45.7406C22.6274 45.7756 22.4933 45.8282 22.3592 45.8633L22.0407 45.9685C21.3032 46.2666 20.6496 46.67 20.0964 47.161C19.5601 47.652 19.074 48.2131 18.6549 48.8093C18.2359 49.4055 17.8672 50.0719 17.5319 50.7733C17.2135 51.4572 16.895 52.1587 16.5933 52.8776C16.3083 53.544 16.0066 54.2104 15.7049 54.8592C15.4032 55.508 15.0512 56.1393 14.649 56.718L14.6322 56.7531V56.7881C14.649 57.0687 14.6154 57.3317 14.5316 57.5422C14.4478 57.7877 14.364 58.0156 14.2635 58.2261C14.1629 58.454 14.0623 58.6995 13.9785 58.9275C13.8947 59.1555 13.8444 59.401 13.8444 59.664C13.5762 59.7517 13.4254 59.8744 13.3416 60.0498C13.2745 60.2076 13.241 60.4005 13.241 60.5934C13.241 60.7688 13.2075 60.9441 13.174 61.1019C13.1404 61.2422 13.0231 61.365 12.8052 61.4527L12.7382 61.4877L12.7549 61.5754C12.8052 61.7858 12.822 62.0138 12.7885 62.2593C12.7717 62.5224 12.7382 62.7854 12.6879 63.066L12.5706 63.9252C12.537 64.2233 12.537 64.5214 12.5706 64.8195V64.8897L12.6376 64.9072C12.9393 65.0124 13.1907 65.03 13.3919 64.9598C13.5762 64.8897 13.7439 64.7845 13.8612 64.6267C13.9785 64.4688 14.0623 64.2935 14.1461 64.083C14.2132 63.8726 14.297 63.6622 14.3808 63.4693C14.4646 63.2589 14.5652 63.066 14.6825 62.8906C14.7998 62.7152 14.9507 62.575 15.1518 62.4697L16.1743 63.2413C16.2245 63.2764 16.2916 63.329 16.3419 63.3816C16.4089 63.4517 16.476 63.5044 16.543 63.5394C16.8615 63.7148 17.2135 63.9077 17.599 64.0655C17.9845 64.2409 18.3868 64.3811 18.8058 64.5214C19.2081 64.6617 19.6271 64.7845 20.0294 64.8897C20.4317 64.9949 20.8172 65.065 21.1692 65.1177C21.5714 65.1703 21.9905 65.2053 22.3927 65.2053C22.795 65.2053 23.214 65.1703 23.6163 65.1177C24.4376 64.9949 25.1919 64.6793 25.8623 64.1707L25.9126 64.1357L25.8959 64.0655C25.8456 63.8901 25.8456 63.7674 25.9294 63.6797C26.0132 63.5745 26.1305 63.4868 26.2646 63.4167C26.4322 63.3465 26.5831 63.2764 26.7339 63.2238C26.9183 63.1536 27.0524 63.066 27.1362 62.9432L27.1865 62.8731L27.0356 62.7503C27.3374 62.5399 27.6391 62.3645 27.924 62.1892C28.2257 62.0138 28.5609 61.8385 28.9129 61.6806C29.1476 61.5754 29.3822 61.4527 29.6001 61.3299C29.6001 61.3475 29.6001 61.3825 29.6001 61.4001C29.5499 61.593 29.4828 61.7858 29.399 61.9787C29.3152 62.1716 29.2314 62.3821 29.1476 62.575C29.0638 62.7854 29.0303 63.0309 29.0638 63.2764V63.3115L29.0805 63.329C29.2314 63.5219 29.3487 63.7499 29.4325 63.9778C29.5163 64.2058 29.5666 64.4513 29.5834 64.6968V64.8195L29.684 64.802C29.8013 64.7845 29.9186 64.7845 30.0024 64.802C30.103 64.8371 30.1868 64.8722 30.2706 64.9423C30.3544 65.0124 30.455 65.0826 30.5388 65.1527C30.6393 65.2404 30.7399 65.3106 30.8405 65.3632L30.874 65.3807H30.9075C31.4774 65.3105 32.0305 65.1177 32.5501 64.8546C33.0698 64.5916 33.5223 64.2409 33.9078 63.82C34.176 63.8551 34.3604 63.8025 34.4777 63.6622C34.5783 63.5394 34.6621 63.3816 34.7124 63.2062C34.7627 63.0484 34.8129 62.8731 34.88 62.7152C34.9303 62.575 35.0476 62.4873 35.232 62.4171L35.3661 62.3821L35.299 62.2769C35.2655 62.2418 35.232 62.1892 35.1817 62.1366C35.1649 62.119 35.1649 62.119 35.1649 62.1015C35.4163 62.0138 35.6007 61.856 35.6845 61.6456C35.7683 61.4351 35.8354 61.2247 35.8857 60.9967C35.936 60.7688 36.003 60.5759 36.0868 60.4181C36.1539 60.2778 36.3215 60.1901 36.5729 60.1726C36.6399 60.155 36.707 60.155 36.774 60.1726C36.8578 60.1726 36.9416 60.1901 37.0254 60.1901C37.1595 60.1726 37.2936 60.1901 37.4277 60.2252C37.5786 60.2602 37.7462 60.2602 37.9138 60.2427C38.4837 60.155 38.9698 60.0673 39.4056 60.0147C39.5061 59.9972 39.6235 59.9797 39.7408 59.9621C39.6905 60.2076 39.6402 60.4531 39.6067 60.6986V60.7512L39.657 60.7863C39.7073 60.8214 39.7073 60.8564 39.6905 60.9091C39.6402 61.0143 39.6067 61.1019 39.5564 61.2072C39.5061 61.3299 39.4894 61.4351 39.4894 61.5579C39.5061 61.7332 39.6737 61.8209 39.7911 61.8735C39.7911 61.9437 39.7911 62.0314 39.7743 62.1015C39.7743 62.119 39.7743 62.1892 39.6402 62.2593L39.5732 62.2944L39.5899 62.3645C39.657 62.7152 39.7576 63.0484 39.8916 63.3816C40.0257 63.7148 40.1598 64.0304 40.2939 64.3812L40.3107 64.4513H40.3777C40.5286 64.4513 40.6459 64.4864 40.7297 64.5565C40.8303 64.6267 40.9141 64.7143 40.9979 64.802C41.0817 64.8897 41.1823 64.9774 41.2828 65.065C41.3834 65.1527 41.5175 65.1878 41.6851 65.1878C41.7019 65.1878 41.7354 65.1878 41.7522 65.1878C41.7689 65.1878 41.7857 65.1878 41.903 65.1527C41.9868 65.1352 42.0371 65.1177 42.0539 65.1001C42.3388 65.0124 42.607 64.9072 42.8584 64.7494C43.1098 64.5916 43.2775 64.3811 43.3948 64.083C43.6797 64.0655 43.9647 63.9954 44.2664 63.8551C44.5848 63.7148 44.9033 63.5219 45.1882 63.2939C45.4732 63.066 45.7414 62.8205 45.976 62.5224C46.1939 62.2593 46.3615 61.9963 46.4956 61.7332C46.4956 61.7332 46.4956 61.7332 46.5124 61.7332C46.7135 61.7332 46.8476 61.7858 46.9147 61.8735C47.0152 61.9787 47.0655 62.119 47.0991 62.2769C47.1326 62.4522 47.1661 62.6276 47.1829 62.8029C47.1996 63.0134 47.2667 63.1887 47.3672 63.329C47.4343 63.4167 47.4678 63.4517 47.5181 63.4517C47.5349 63.4517 47.5516 63.4693 47.5851 63.5044C47.6689 63.557 47.736 63.6271 47.803 63.6973C47.8701 63.7849 47.9539 63.8551 48.0545 63.9252C48.792 64.539 49.6635 64.7669 50.6189 64.6091H50.6525L50.6692 64.5916C50.753 64.5039 50.8536 64.4338 50.9542 64.3987C51.0715 64.3461 51.1721 64.311 51.2894 64.2584C51.4067 64.2058 51.5073 64.1532 51.5911 64.0655C51.6749 63.9954 51.742 63.8726 51.809 63.7323C51.9096 63.6622 52.0101 63.6096 52.0772 63.5745C52.1442 63.5394 52.2113 63.5219 52.2616 63.5044C52.3286 63.4868 52.3957 63.4868 52.4627 63.4693C52.5465 63.4693 52.6471 63.4517 52.7979 63.4517H52.8315L53.988 62.5399C54.055 62.9607 54.1724 63.3465 54.3567 63.7148C54.6082 64.2233 54.9769 64.6617 55.4798 65.0124C55.5636 65.0651 55.6809 65.1352 55.8317 65.2053C55.9826 65.2755 56.0999 65.3281 56.2005 65.3632C56.3178 65.3807 56.4352 65.3982 56.5693 65.3982C56.7871 65.3982 57.0218 65.3632 57.2565 65.293C57.6252 65.1878 57.9437 65.0475 58.1783 64.8722C58.2454 64.8722 58.3124 64.8722 58.3795 64.8722C58.5136 64.8546 58.6812 64.8371 58.7818 64.8897C58.8153 64.9072 58.8488 64.9423 58.8823 64.9949L58.9494 65.1177L59.0499 65.0124C59.3349 64.6968 59.6198 64.3987 59.9383 64.1357C60.24 63.8726 60.5752 63.6271 60.8937 63.3991C60.9943 63.329 61.0948 63.2589 61.2122 63.1887C61.3295 63.1186 61.4301 63.0484 61.5306 62.9783C61.7318 62.8555 61.8994 62.6977 62.0502 62.5399C62.0502 62.6626 62.0335 62.7854 62.0335 62.8906C62.0502 63.1361 62.0838 63.3641 62.1508 63.592C62.2178 63.82 62.3184 64.0304 62.4693 64.1707C62.5363 64.2409 62.6034 64.311 62.6872 64.3636C62.7542 64.4162 62.8213 64.4864 62.8883 64.574C62.9721 64.6793 63.0559 64.7845 63.1565 64.9072C63.257 65.03 63.3576 65.1527 63.4749 65.2404C63.5923 65.3456 63.7264 65.4158 63.8605 65.4508C63.9778 65.4859 64.1119 65.4859 64.246 65.4684C64.2963 65.556 64.3801 65.6087 64.4471 65.6262C64.4639 65.6262 64.4639 65.6262 64.4806 65.6262C64.5477 65.6262 64.6147 65.6087 64.6985 65.556C64.7656 65.5034 64.8326 65.4508 64.8997 65.3982C64.95 65.3456 64.9835 65.3281 65.017 65.3105C65.084 65.293 65.1679 65.293 65.2684 65.293C65.3857 65.3105 65.4863 65.3105 65.5701 65.3105C65.8048 65.3105 65.9892 65.3106 66.14 65.3281C66.2909 65.3456 66.492 65.3106 66.7099 65.2404L66.7602 65.2229L66.7769 65.1703C66.8272 65.0651 66.8943 64.9248 66.9948 64.9072C67.2127 64.8546 67.4642 64.8897 67.6653 64.8195C67.7826 64.7845 67.8664 64.6617 67.9167 64.4688L67.9838 64.4513L68.0173 64.4338C68.3525 64.1883 68.6375 64.0129 68.8218 63.8901C68.8554 63.8726 68.8889 63.8551 68.9224 63.82C68.9559 63.8726 68.9727 63.9077 69.0062 63.9603C69.1235 64.1532 69.2241 64.2935 69.3079 64.3987L69.3414 64.4338L70.3471 64.539H70.3639C70.498 64.5039 70.6488 64.4688 70.8164 64.4162C70.9841 64.3811 71.1517 64.3285 71.2858 64.2584C71.5372 64.1532 71.8221 63.9778 72.1238 63.7499C72.1574 63.7323 72.1741 63.6973 72.2076 63.6797C72.1574 63.82 72.1071 63.9778 72.0568 64.1181C72.0065 64.2759 71.9562 64.4338 71.9227 64.5916C71.8892 64.7319 71.8892 64.9072 71.8892 65.0826C71.8892 65.2404 71.8892 65.4158 71.8724 65.5736V65.5911L72.1741 66.4328C72.1406 66.5556 72.0903 66.6783 72.0233 66.8186C71.9562 66.9765 71.9059 67.1167 71.8724 67.2746C71.8557 67.4149 71.8221 67.5727 71.7886 67.748C71.7551 67.9059 71.7216 68.0637 71.6713 68.1864C71.6042 68.3267 71.5372 68.467 71.4701 68.6073C71.3863 68.7476 71.3193 68.8879 71.2522 69.0457C71.1852 69.186 71.1349 69.3438 71.0679 69.5016C71.0008 69.6594 70.9505 69.7997 70.8835 69.94V69.9751C70.8667 70.1504 70.8332 70.3083 70.8164 70.4486L70.7494 70.7817C70.7326 70.8869 70.7159 70.922 70.7159 70.9396C70.6656 71.0798 70.5985 71.2201 70.5315 71.3429C70.4477 71.5007 70.3806 71.641 70.3136 71.7988C70.2466 71.9566 70.1963 72.132 70.1627 72.2898C70.1292 72.4476 70.0957 72.6055 70.0454 72.7457C69.9784 72.9211 69.9281 73.0789 69.8778 73.2367L69.727 73.7278V73.7453C69.7437 73.8856 69.7772 74.0609 69.8108 74.2363C69.8443 74.4292 69.8778 74.6221 69.9113 74.815C69.9449 75.0079 69.9951 75.2008 70.0287 75.4112C70.0622 75.5865 70.1125 75.7619 70.1795 75.8847C70.1628 75.9723 70.1292 76.0776 70.1125 76.2003C70.0957 76.3231 70.0622 76.4283 70.0454 76.5335L70.0287 76.6212L71.1014 77.1472L72.2076 77.2349L72.2412 77.2174C72.5093 77.042 72.7775 76.8316 73.0457 76.6212C73.2971 76.4107 73.5653 76.1828 73.8 75.9723C73.9173 75.8671 74.0346 75.7619 74.1687 75.6567C74.3196 75.5339 74.4369 75.4287 74.5375 75.306C74.5878 75.2358 74.6716 75.1306 74.7721 74.9728C74.8727 74.815 74.99 74.6572 75.0906 74.4818C75.1912 74.3064 75.2917 74.1486 75.3923 73.9733C75.4929 73.8154 75.5599 73.6751 75.5934 73.5875C75.6605 73.4296 75.7108 73.2718 75.7611 73.0965C75.8113 72.9211 75.8616 72.7808 75.9287 72.6405L76.3142 71.7462V71.7111C76.3142 71.6936 76.3309 71.641 76.3477 71.5708C76.3645 71.4832 76.398 71.3779 76.4315 71.2552C76.465 71.1324 76.4986 71.0272 76.5321 70.922C76.5656 70.7817 76.5824 70.7291 76.5824 70.7116C76.5991 70.5362 76.6327 70.3784 76.6494 70.203C76.6662 70.0277 76.6829 69.8699 76.7165 69.712C76.7332 69.5542 76.7667 69.3964 76.817 69.221C76.8673 69.0632 76.9008 68.8879 76.9176 68.7125C76.9679 68.3969 77.0014 68.0637 77.0014 67.713C77.0014 67.3622 76.9846 67.0115 76.9176 66.6783L76.8673 66.4328L76.8506 66.4504V66.4328L76.9846 66.4153C77.0349 66.3978 77.102 66.3978 77.1523 66.3978H77.2193L77.2528 66.3452C77.2696 66.2926 77.3031 66.2399 77.3366 66.2049C77.3534 66.1698 77.3702 66.1523 77.3869 66.1172C77.4372 66.1347 77.5042 66.1523 77.5545 66.1523C77.6383 66.1698 77.7054 66.1873 77.7724 66.2049L77.8227 66.2224L77.873 66.1698C77.8898 66.1523 77.94 66.0997 78.0071 66.0471C78.0909 65.9944 78.1579 65.9243 78.2417 65.8542C78.3256 65.784 78.3926 65.7139 78.4596 65.6613C78.5267 65.6087 78.5602 65.5736 78.577 65.556C78.5937 65.556 78.6273 65.5385 78.6608 65.5385C78.7278 65.521 78.7949 65.5034 78.8619 65.4859C78.929 65.4684 79.0295 65.4333 79.1469 65.3982L79.1636 65.3807C79.2307 65.3281 79.281 65.293 79.3145 65.2755L79.4318 65.1527C79.4486 65.1352 79.4821 65.1001 79.5491 65.065C79.6832 64.9774 79.8006 64.8546 79.9179 64.7494C80.0352 64.6267 80.1358 64.5214 80.2531 64.4162C80.3537 64.311 80.4878 64.2233 80.6219 64.1532C80.7727 64.0655 80.9068 63.9778 81.0241 63.8901L81.0409 63.8726C81.1079 64.0129 81.1582 64.1532 81.2253 64.311L81.242 64.3812H81.3091C81.4599 64.3812 81.5773 64.4162 81.6611 64.4864C81.7616 64.5565 81.8455 64.6442 81.9293 64.7319C82.0131 64.8195 82.1136 64.9072 82.2142 64.9949C82.3148 65.0826 82.4489 65.1177 82.6165 65.1177C82.6332 65.1177 82.6668 65.1177 82.6835 65.1177C82.7003 65.1177 82.717 65.1177 82.8344 65.0826C82.9182 65.0651 82.9685 65.0475 82.9852 65.03C83.2702 64.9423 83.5384 64.8371 83.7898 64.6793C84.0412 64.5214 84.2088 64.311 84.3261 64.0129C84.6111 63.9954 84.896 63.9252 85.1977 63.7849C85.5162 63.6446 85.8347 63.4518 86.1196 63.2238C86.4046 62.9958 86.6727 62.7503 86.9074 62.4522C87.1253 62.1892 87.2929 61.9261 87.427 61.6631C87.427 61.6631 87.427 61.6631 87.4438 61.6631C87.6449 61.6631 87.779 61.7157 87.846 61.8034C87.9466 61.9086 87.9969 62.0489 88.0304 62.2067C88.0639 62.3821 88.0975 62.5574 88.1142 62.7328C88.131 62.9432 88.198 63.1186 88.2986 63.2589C88.3656 63.3465 88.3992 63.3816 88.4494 63.3816C88.4662 63.3816 88.483 63.3991 88.5165 63.4342C88.6003 63.4868 88.6673 63.557 88.7344 63.6271C88.8014 63.7148 88.8852 63.7849 88.9858 63.8551C89.7233 64.4688 90.5949 64.6968 91.5503 64.539H91.5838L91.6006 64.5214C91.6844 64.4338 91.785 64.3636 91.8855 64.3285C92.0029 64.2759 92.1034 64.2409 92.2208 64.1883C92.3381 64.1356 92.4387 64.083 92.5225 63.9954C92.6063 63.9252 92.6733 63.8025 92.7404 63.6622C92.8409 63.592 92.9415 63.5394 93.0085 63.5044C93.0756 63.4693 93.1426 63.4518 93.1929 63.4342C93.26 63.4167 93.327 63.4167 93.3941 63.3991C93.4779 63.3991 93.5784 63.3816 93.7293 63.3816H93.7628L94.3495 62.9081C94.4333 63.066 94.5171 63.1887 94.5841 63.2764C94.6847 63.4342 94.802 63.592 94.9026 63.7849C95.0199 63.9778 95.1372 64.1532 95.2546 64.2935C95.3887 64.4338 95.5395 64.539 95.7071 64.6091C95.7742 64.6267 95.8412 64.6442 95.925 64.6442C96.0424 64.6442 96.1765 64.6091 96.3273 64.539C96.6793 64.6091 96.9642 64.6091 97.333 64.5565C97.4838 64.539 97.6515 64.5214 97.8023 64.5039C97.9532 64.5039 98.104 64.5039 98.2381 64.539H98.2716L98.3052 64.5214C98.4225 64.4513 98.5733 64.4162 98.7912 64.3987C99.0259 64.3812 99.227 64.3461 99.4282 64.311C99.6293 64.2584 99.7969 64.1707 99.8975 64.0655C100.015 63.9428 100.032 63.7674 99.9478 63.5219L100.099 63.4693C100.3 63.329 100.601 63.2238 100.886 63.101ZM100.434 55.8587C100.417 55.9113 100.384 55.9815 100.333 56.0867C100.266 56.2445 100.216 56.3673 100.182 56.4374C100.048 56.8057 99.8807 57.1739 99.6796 57.5071C99.4952 57.8403 99.2103 58.0507 98.8415 58.1559L98.808 58.1735L98.7912 58.2085C98.6907 58.419 98.5398 58.5943 98.3219 58.7346C98.104 58.8749 97.8694 59.0152 97.6347 59.1379C97.4 59.2607 97.1486 59.401 96.914 59.5413C96.7128 59.664 96.5452 59.8218 96.4111 59.9972L96.3608 59.9446C96.2938 59.8744 96.2267 59.8394 96.1765 59.8394C96.277 59.6816 96.3441 59.5237 96.4111 59.3484C96.4782 59.1555 96.5452 58.9801 96.629 58.8223C96.7128 58.6645 96.7966 58.5066 96.914 58.3839C97.0145 58.2611 97.1654 58.1559 97.3665 58.0858L97.4336 58.0683V57.9981C97.4503 57.8052 97.4671 57.5948 97.5006 57.4019C97.5341 57.2441 97.5509 57.0687 97.5844 56.8933C97.8023 56.946 98.0034 56.946 98.1711 56.8758C98.3554 56.8057 98.523 56.7005 98.6571 56.5777C98.7912 56.455 98.9253 56.3147 99.0426 56.1568C99.16 56.0166 99.2773 55.8938 99.4114 55.8061C99.5455 55.7185 99.6796 55.6658 99.8304 55.6658C99.9813 55.6658 100.199 55.736 100.434 55.8587ZM70.5818 62.4171L70.6153 62.3821V62.347C70.6153 62.119 70.6488 62.0138 70.6824 61.9612C70.7326 61.8911 70.7997 61.8034 70.8667 61.7508C70.9505 61.6806 71.0176 61.5754 71.0846 61.4351C71.1517 61.2948 71.1684 61.0844 71.1517 60.7863V60.6109L71.0343 60.6986C71.0846 60.6109 71.1181 60.5233 71.1684 60.4707C71.2355 60.3654 71.336 60.2778 71.4366 60.1901C71.5539 60.0849 71.6713 59.9797 71.7551 59.8744C71.8556 59.7517 71.9562 59.6289 72.04 59.4887C72.1238 59.3659 72.2076 59.2432 72.2914 59.1204C72.5932 58.682 72.9284 58.3488 73.2636 58.1209C73.6156 57.8754 74.0011 57.6299 74.4369 57.3844H74.4704L74.504 57.3493C74.6716 57.1739 74.8559 56.9986 75.0236 56.8407C75.1576 56.718 75.2917 56.5952 75.4091 56.4725C75.4091 56.5251 75.4091 56.5602 75.4258 56.6128C75.4258 56.718 75.4426 56.8232 75.4426 56.9109C75.3085 57.209 75.1912 57.5422 75.0906 57.8754C74.99 58.2085 74.8895 58.5417 74.7721 58.8574C74.7721 58.8749 74.7386 58.91 74.5878 59.1204C74.4704 59.2782 74.3363 59.436 74.2022 59.6289C74.0514 59.8218 73.9173 59.9972 73.8 60.1726C73.6826 60.3479 73.6156 60.4707 73.5821 60.5759C73.2971 60.7512 73.0122 60.9792 72.7608 61.2247C72.5093 61.4877 72.2579 61.7332 72.0065 61.9963C71.8892 62.1366 71.7551 62.2593 71.621 62.3645C71.4869 62.4697 71.3696 62.5925 71.2522 62.7152C71.0511 62.7328 70.8667 62.7503 70.6656 62.7854C70.5315 62.8029 70.3974 62.8205 70.2466 62.8555C70.3304 62.6977 70.4477 62.575 70.5818 62.4171ZM74.9733 65.3456C74.8727 65.3632 74.7554 65.3807 74.638 65.4158C74.4872 65.4333 74.3196 65.4333 74.152 65.4333C74.1687 65.3632 74.2023 65.3106 74.2358 65.2404C74.2861 65.1527 74.3196 65.0475 74.3363 64.9598C74.4202 64.9598 74.504 64.9423 74.5878 64.9072C74.6716 64.8722 74.7554 64.8722 74.8392 64.8897C74.8895 64.8897 74.9398 64.8897 74.99 64.9072C75.0236 64.9248 75.0738 64.9423 75.1241 64.9423C75.1409 65.0124 75.1576 65.0826 75.1744 65.1352C75.1912 65.1878 75.1912 65.2404 75.2079 65.293C75.1074 65.3105 75.0403 65.3281 74.9733 65.3456ZM72.8278 69.3263C72.8613 69.1684 72.8949 69.0106 72.9451 68.8703C73.0457 68.5722 73.163 68.2916 73.2804 68.0111C73.3977 67.748 73.515 67.485 73.6324 67.222C73.9508 67.1518 74.3028 67.0992 74.638 67.0466C74.9565 67.0115 75.275 66.9589 75.5767 66.9063C75.5934 67.0466 75.627 67.1869 75.6437 67.3272C75.6773 67.485 75.694 67.6428 75.7275 67.8182L75.8113 68.9405C75.694 69.2386 75.627 69.5893 75.5767 69.9575C75.5264 70.3258 75.4929 70.6765 75.4594 70.9922C75.3923 71.15 75.342 71.2903 75.275 71.4306C75.2079 71.5708 75.1409 71.7287 75.0738 71.8514L74.5878 72.6931C74.5207 72.8334 74.4369 72.9912 74.3699 73.1315C74.3028 73.2718 74.219 73.3946 74.1352 73.4998C74.1184 73.5173 74.0849 73.5524 74.0179 73.605C73.9508 73.6576 73.867 73.7278 73.7832 73.7804L73.515 73.9733C73.4312 74.0259 73.3809 74.0785 73.3642 74.0785L73.3307 74.1135C73.1798 74.3415 73.0289 74.6045 72.8949 74.9027C72.7608 74.9728 72.6434 75.0429 72.5261 75.1131C72.4088 75.2008 72.2915 75.2709 72.1574 75.341C71.973 75.4287 71.7383 75.5339 71.4869 75.6041L71.269 75.3586C71.202 75.2709 71.1182 75.1832 71.0511 75.0955C71.0679 74.9728 71.1014 74.8325 71.1349 74.6922C71.1852 74.5344 71.2187 74.3766 71.2355 74.2188C71.269 74.0609 71.2858 73.9031 71.3193 73.7453C71.3361 73.5875 71.3696 73.4296 71.3863 73.2894C71.4534 72.9737 71.5204 72.6756 71.621 72.3775C71.7216 72.0794 71.8054 71.7813 71.8892 71.4656C71.9059 71.3604 71.9562 71.2026 72.0233 71.0097C72.0903 70.8168 72.1406 70.6765 72.1909 70.5888C72.2579 70.4485 72.3417 70.3083 72.4423 70.1855C72.5429 70.0452 72.6267 69.9049 72.677 69.7471C72.744 69.6594 72.7943 69.5016 72.8278 69.3263ZM73.1798 62.9257C73.1966 62.9257 73.2133 62.9081 73.2301 62.9081C73.1798 62.9958 73.1295 63.0835 73.0792 63.1712C72.9284 63.2413 72.7943 63.3115 72.6602 63.3816C72.5429 63.4517 72.4088 63.5044 72.2747 63.5745C72.4926 63.3991 72.6937 63.2413 72.8613 63.101C72.9787 63.0134 73.0625 62.9607 73.1798 62.9257ZM34.9806 58.4014C34.947 58.4365 34.9135 58.454 34.8632 58.4716C34.7794 58.4891 34.7124 58.5066 34.6286 58.4891C34.5448 58.4891 34.461 58.4716 34.3771 58.4365C34.3269 58.419 34.2766 58.4014 34.2431 58.3664C34.2598 58.2261 34.2095 58.1033 34.1257 57.9981C34.0419 57.9104 33.9581 57.8228 33.8743 57.7351C33.7905 57.6649 33.7234 57.5772 33.6732 57.472C33.6396 57.4194 33.6396 57.3493 33.6564 57.2616C33.8408 57.2791 33.9916 57.2441 34.109 57.1564C34.2431 57.0512 34.3436 56.9284 34.4442 56.7881L34.7124 56.3848C34.7794 56.2796 34.8632 56.1919 34.9638 56.1218C35.1146 56.2445 35.1985 56.4023 35.2487 56.5426C35.2823 56.718 35.299 56.9109 35.2655 57.1213C35.232 57.3317 35.1817 57.5422 35.1146 57.7701C35.0308 57.9981 34.9973 58.2085 34.9806 58.4014ZM34.109 61.9086C33.9413 61.9963 33.8073 62.1366 33.7234 62.3295C33.6229 62.5574 33.5391 62.7679 33.4385 62.9783C33.3547 63.1712 33.2541 63.3115 33.1368 63.3991C33.0362 63.4693 32.8351 63.4342 32.5669 63.2764L32.5334 63.2589L32.4831 63.2764C32.3658 63.329 32.2484 63.3641 32.1144 63.3816C31.9803 63.4167 31.8462 63.4342 31.7121 63.4693C31.578 63.5044 31.4439 63.557 31.3098 63.6096C31.2428 63.6446 31.159 63.6797 31.0919 63.7323C31.0919 63.7323 31.0919 63.7148 31.0751 63.7148C31.0416 63.6446 30.9746 63.592 30.9243 63.557L30.874 63.5219L30.7064 63.6446C30.7567 63.4693 30.807 63.2939 30.807 63.101C30.8237 62.7854 30.8572 62.4873 30.8908 62.1716C30.9243 61.8735 30.9913 61.593 31.0751 61.3299C31.159 61.0844 31.3433 60.9091 31.6115 60.7688L31.6953 60.7337L31.6618 60.646C31.578 60.4356 31.5445 60.2427 31.578 60.0849C31.6115 59.9095 31.6953 59.7517 31.7959 59.6114C31.8965 59.4711 32.0305 59.3133 32.1814 59.1905C32.3155 59.0678 32.4496 58.9275 32.5501 58.7872C32.7848 58.8223 32.9859 58.8924 33.1536 59.0152C33.3379 59.1555 33.5223 59.2958 33.7067 59.4536C33.8911 59.6114 34.0754 59.7517 34.2598 59.8744C34.4274 59.9972 34.6286 60.0673 34.8632 60.0673C34.8632 60.3654 34.7794 60.646 34.6453 60.9091C34.4777 61.1896 34.2933 61.4877 34.0922 61.7508L34.0419 61.8209L34.109 61.9086ZM25.9964 60.9091L26.0635 61.0143C26.1641 61.1721 26.1808 61.2598 26.1641 61.3124C26.1641 61.3825 26.1305 61.4527 26.0802 61.5053C26.0132 61.5754 25.9294 61.628 25.8288 61.6806C25.7283 61.7332 25.6277 61.7683 25.5271 61.8209C25.393 61.8911 25.2589 61.9437 25.1584 61.9963C25.041 62.0489 24.9069 62.1541 24.8231 62.2944C24.6891 62.3119 24.555 62.347 24.4209 62.3821C24.2868 62.4171 24.1527 62.4347 24.0186 62.4697C23.7504 62.5224 23.499 62.575 23.2643 62.6276C23.0464 62.6802 22.8285 62.7679 22.6106 62.9081C22.5436 62.8205 22.4765 62.7679 22.3927 62.7679C22.3089 62.7503 22.2251 62.7679 22.1246 62.8205C22.0575 62.8555 21.9737 62.8906 21.8899 62.9257C21.8396 62.9607 21.7726 62.9432 21.6888 62.9257L21.6385 62.9081L21.605 62.9432C21.4541 63.0484 21.2865 63.101 21.1021 63.101C21.0853 63.101 21.0853 63.101 21.0686 63.101C20.8507 63.101 20.6328 63.066 20.4149 63.0309C20.197 62.9958 19.9791 62.9432 19.7444 62.8731C19.5265 62.8205 19.3254 62.7854 19.1243 62.7854H19.1075C18.9231 62.6802 18.7388 62.5925 18.5376 62.5224L17.951 62.3295C17.5152 62.1716 17.0961 61.9437 16.6939 61.6456C16.3083 61.365 15.9396 61.1019 15.5541 60.8564C16.0737 60.0147 16.5095 59.1379 16.828 58.2085C17.1632 57.2791 17.4816 56.3147 17.8001 55.3327C17.9342 54.8943 18.0851 54.4559 18.2359 54.035C18.3868 53.6142 18.5376 53.1758 18.6885 52.7549V52.7374C18.9399 52.4042 19.1745 52.0359 19.3589 51.6677C19.5433 51.2994 19.7277 50.9136 19.8953 50.5103C19.912 50.4752 19.9288 50.4226 19.9791 50.3349C20.0126 50.2473 20.0629 50.1596 20.0964 50.0719C20.1467 49.9842 20.1802 49.8966 20.2138 49.8089C20.264 49.6861 20.264 49.6511 20.264 49.6335V48.9145C20.264 48.7743 20.2976 48.634 20.3646 48.5463C20.4317 48.4411 20.5155 48.3534 20.616 48.2657C20.7166 48.178 20.8339 48.1079 20.9513 48.0378C21.0853 47.9676 21.2027 47.8975 21.32 47.8273C21.4876 47.7396 21.6217 47.652 21.739 47.5643C21.8564 47.4766 21.9737 47.3363 22.0743 47.1785L22.1078 47.1434C22.2419 47.0557 22.4095 46.9856 22.5771 46.9505C22.7615 46.8979 22.9626 46.8804 23.147 46.8629C23.3481 46.8629 23.5493 46.8629 23.7337 46.8979C23.918 46.9155 24.0856 46.9681 24.2365 47.0207C24.4041 47.0908 24.5382 47.2136 24.6891 47.4065C24.8231 47.5818 24.9405 47.7572 25.041 47.915C25.041 48.0904 25.041 48.2482 25.0578 48.406C25.0746 48.5814 25.1751 48.7392 25.3595 48.8444C25.4266 49.3003 25.4433 49.7037 25.4266 50.0544C25.4098 50.4226 25.3595 50.7733 25.2757 51.089C25.1919 51.4222 25.0913 51.7554 24.9405 52.0885C24.8064 52.4392 24.6388 52.8075 24.4544 53.2108L24.1192 53.9999C23.9013 54.1052 23.6498 54.1753 23.3817 54.1578C23.08 54.1578 22.8118 54.1052 22.5939 53.9999L22.5604 53.9824L22.5268 53.9999C22.3089 54.1227 22.0407 54.1928 21.7558 54.2279C21.4373 54.263 21.1356 54.298 20.8507 54.3507C20.549 54.4033 20.2808 54.526 20.0461 54.6838C19.7947 54.8417 19.6439 55.1398 19.5601 55.5431V55.5782L19.5768 55.6132C19.6439 55.7535 19.6774 55.8938 19.6439 56.0341C19.6103 56.1744 19.5601 56.3322 19.493 56.455L19.3086 56.8407C19.2416 56.981 19.2248 57.1213 19.2751 57.2441C19.3422 57.3493 19.426 57.437 19.5265 57.472C19.5768 57.4896 19.6439 57.5246 19.6942 57.5597C19.8282 57.8228 20.0294 57.9806 20.2808 58.0156C20.4987 58.0507 20.7501 58.0507 21.0015 57.9981C21.253 57.9455 21.5044 57.8929 21.7558 57.8228C21.9905 57.7526 22.2084 57.7351 22.3927 57.7351H22.4263L22.443 57.7175C22.6106 57.6299 22.8118 57.5071 23.0297 57.3668C23.2476 57.2265 23.4655 57.0862 23.6834 56.9109C23.9013 56.7531 24.1024 56.5602 24.2868 56.3848C24.4376 56.227 24.555 56.0867 24.6388 55.9113C24.9069 56.2095 25.1248 56.5426 25.3092 56.8933C25.5104 57.2967 25.678 57.7351 25.8121 58.1735C25.9462 58.6119 26.0467 59.0853 26.1305 59.5588C26.2143 59.9797 26.2814 60.3654 26.3652 60.7512C26.2981 60.7512 26.2143 60.7863 26.1641 60.8564L25.9964 60.9091ZM23.0129 55.3677V55.6834C22.9123 55.736 22.795 55.7886 22.6944 55.8237C22.5771 55.8763 22.443 55.9289 22.3257 55.999C22.1078 56.1218 21.8731 56.2445 21.6552 56.3497C21.4541 56.4374 21.253 56.5076 21.0351 56.5602C21.1189 56.4199 21.1859 56.2796 21.2697 56.1218C21.3535 55.9464 21.4541 55.8061 21.5547 55.6658C21.6552 55.5431 21.7726 55.4203 21.9234 55.3502C22.0407 55.2801 22.1748 55.245 22.3425 55.245C22.376 55.245 22.3927 55.245 22.4263 55.245C22.4765 55.245 22.5101 55.245 22.5268 55.245C22.5771 55.2625 22.6274 55.245 22.6777 55.245C22.7615 55.2274 22.8453 55.245 22.9123 55.245C22.9459 55.2801 22.9794 55.2976 23.0129 55.3677Z" fill="#222222"/>
<path d="M58.4966 112.57C29.667 112.57 6.20099 88.0195 6.20099 57.8578H5.14502C5.14502 88.6332 29.0803 113.674 58.4966 113.674C59.4185 113.674 60.3739 113.657 61.2957 113.604L61.2454 112.5C60.3403 112.535 59.4185 112.57 58.4966 112.57Z" fill="#222222"/>
<path d="M110.792 57.8571H111.848C111.848 27.0817 87.9131 2.04056 58.4968 2.04056V3.14532C87.3432 3.14532 110.792 27.6955 110.792 57.8571Z" fill="#222222"/>
<path d="M90.1423 91.2459C72.5429 109.659 43.9144 109.659 26.3317 91.2459L25.5774 92.0351C34.5783 101.452 46.4118 106.169 58.2286 106.169C70.0622 106.169 81.879 101.452 90.8798 92.0351C91.4497 91.4388 92.0196 90.8251 92.556 90.1938L91.7682 89.4398C91.2486 90.0535 90.7122 90.6673 90.1423 91.2459Z" fill="#222222"/>
<path d="M26.3315 24.4695C34.8463 15.5613 46.1938 10.6338 58.2452 10.6338C70.2967 10.6338 81.6274 15.5438 90.1589 24.4695L90.9132 23.6804C72.9114 4.84693 43.6125 4.84693 25.594 23.6804L26.3315 24.4695Z" fill="#222222"/>
</g>
<defs>
<clipPath id="clip0_2003_1068">
<rect width="115" height="115" fill="white" transform="translate(0.55249 0.00701904)"/>
</clipPath>
</defs>
</svg>
