<svg width="156" height="73" viewBox="0 0 156 73" fill="none" xmlns="http://www.w3.org/2000/svg">
<g clip-path="url(#clip0_2003_1037)">
<path d="M32.9046 15.4378H27.4322L20.833 32.5253L14.2338 15.4378H8.8418L20.833 46.4608L32.9046 15.4378Z" fill="#222222"/>
<path d="M45.0567 15.4378H39.9866V46.4608H45.0567V15.4378Z" fill="#222222"/>
<path d="M63.2447 38.4977C69.361 38.4977 74.4311 33.3548 74.4311 26.9677C74.4311 20.6636 69.4415 15.4378 63.2447 15.4378C57.048 15.4378 52.0583 20.6636 52.0583 26.9677C52.0583 33.3548 57.1284 38.4977 63.2447 38.4977ZM63.2447 20.5806C66.7053 20.5806 69.4415 23.4009 69.4415 26.9677C69.4415 30.5345 66.7053 33.3548 63.2447 33.3548C59.7842 33.3548 57.0479 30.5345 57.0479 26.9677C57.0479 23.4009 59.7842 20.5806 63.2447 20.5806Z" fill="#222222"/>
<path d="M73.0628 41.3181H53.1848V46.461H73.0628V41.3181Z" fill="#222222"/>
<path d="M97.6085 41.318H86.5026V15.4378H81.5129V46.4608H97.6085V41.318Z" fill="#222222"/>
<path d="M125.132 41.318H110.083V33.5207H122.557V28.3779H110.083V20.6636H125.132V15.4378H105.012V46.4608H125.132V41.318Z" fill="#222222"/>
<path d="M136.238 46.4608H141.227V20.6636H146.217V15.4378H131.168V20.6636H136.238V46.4608Z" fill="#222222"/>
<path d="M63.2448 39.8251C70.0854 39.8251 75.6383 34.1016 75.6383 27.0509C75.6383 20.0002 70.0854 14.2767 63.2448 14.2767C56.4041 14.2767 50.8512 20.0002 50.8512 27.0509C50.7707 34.1016 56.4041 39.8251 63.2448 39.8251ZM63.2448 14.9403C69.7634 14.9403 74.9945 20.332 74.9945 27.0509C74.9945 33.6868 69.7634 39.1615 63.2448 39.1615C56.7261 39.1615 51.495 33.7698 51.495 27.0509C51.495 20.332 56.7261 14.9403 63.2448 14.9403Z" fill="#222222"/>
<path d="M0.55249 0.507019V63.2167C0.55249 63.7144 0.954883 64.1292 1.43775 64.1292H37.4917C37.9746 64.1292 38.377 63.7144 38.377 63.2167C38.377 62.719 37.9746 62.3043 37.4917 62.3043H2.32298V2.24895H153.782V62.3043H131.168C130.685 62.3043 130.282 62.719 130.282 63.2167C130.282 63.7144 130.685 64.1292 131.168 64.1292H154.667C155.15 64.1292 155.552 63.7144 155.552 63.2167V0.507019H0.55249Z" fill="#222222"/>
<path d="M152.414 61.2258V3.24423H2.88623V61.2258C2.88623 61.3917 3.04718 61.5576 3.20814 61.5576H42.7227C42.8032 61.5576 42.8032 61.5576 42.8837 61.5576C43.286 61.3917 43.6884 61.0599 44.0908 60.894V60.977L44.0103 61.0599C43.6884 61.3088 43.3665 61.6406 42.9641 62.0553C42.7227 62.3042 42.5617 62.4701 42.4008 62.636C42.3203 62.7189 42.1594 62.8848 42.0789 62.9678C41.596 63.5484 41.1131 64.129 40.7108 64.6267C40.2279 65.2074 39.8255 65.788 39.5036 66.2857C39.1817 66.7834 38.8598 67.2811 38.6988 67.7788C38.4574 68.1936 38.3769 68.6083 38.3769 68.9401V69.023C38.4574 69.4378 38.6988 69.5208 38.9402 69.5208C39.0207 69.5208 39.0207 69.5208 39.1012 69.5208C39.2622 69.4378 39.4231 69.3549 39.5841 69.2719C39.745 69.1889 39.906 69.0231 40.0669 68.8572C40.3889 68.5254 40.7108 68.1106 41.1131 67.6959C41.5155 67.1982 41.8374 66.7005 42.2398 66.0369C42.4008 65.7051 42.5617 65.4562 42.7227 65.1244C42.8837 64.7926 43.0446 64.5438 43.286 64.212L43.5275 63.7972C43.9299 63.8802 44.4127 63.7972 44.9761 63.4655C45.4589 63.1337 46.0223 62.7189 46.4247 62.2212L46.5052 62.1383C47.149 61.8894 47.7928 61.6406 48.4366 61.3917C49.0804 61.1429 49.5633 60.8111 50.0462 60.4793L50.2876 60.3134C50.2071 60.4793 50.0462 60.7281 49.9657 60.894C49.8047 61.2258 49.7243 61.4747 49.7243 61.7235C49.6438 61.8894 49.7242 61.9724 49.8047 62.0553C49.8852 62.0553 49.8852 62.1383 49.9657 62.1383C50.0462 62.1383 50.1267 62.1383 50.1267 61.9724C50.4486 61.6406 50.851 61.3917 51.3338 61.0599C51.8972 60.7281 52.2995 60.4793 52.7824 60.3134C53.2653 60.0645 53.5872 59.9816 53.9091 59.8986C53.9896 59.8986 54.1505 59.8986 54.1505 59.8986C54.231 59.8986 54.3115 59.8986 54.3115 59.9816C54.231 60.0645 54.1505 60.2304 54.0701 60.3963C53.9091 60.5622 53.7481 60.8111 53.6677 60.977C53.5067 61.1429 53.4262 61.3917 53.2653 61.5576C53.1848 61.8065 53.1848 61.9724 53.1848 62.1383C53.2653 62.3042 53.4262 62.3871 53.6677 62.3871C53.9091 62.3871 54.1505 62.3042 54.5529 62.2212C54.8748 62.1383 55.1967 61.9724 55.5991 61.8065C56.0015 61.6406 56.3234 61.4747 56.6453 61.3088C56.8063 61.2258 56.9672 61.1429 57.1282 61.0599C57.1282 61.1429 57.1282 61.1429 57.0477 61.2258C56.9672 61.5576 57.1282 61.8065 57.3696 62.0553C57.5306 62.2212 57.8525 62.3042 58.1744 62.3042H58.2549C58.5768 62.3042 59.0597 62.1383 59.5425 61.8065C59.8644 61.8894 60.1864 61.8894 60.5888 61.8065C60.9911 61.7235 61.3935 61.6406 61.8764 61.4747C62.2788 61.3088 62.6812 61.1429 63.0835 60.977C63.164 60.894 63.325 60.894 63.4055 60.8111C63.4055 60.894 63.325 60.977 63.325 61.0599C63.325 61.2258 63.2445 61.3088 63.2445 61.4747C63.2445 61.7235 63.325 61.9724 63.4859 62.0553C63.6469 62.2212 63.8079 62.3042 64.0493 62.3042C64.2102 62.3871 64.4517 62.3871 64.7736 62.3871C65.015 62.3871 65.3369 62.3871 65.7393 62.3042C66.4636 62.1383 67.1879 61.9724 67.9122 61.7235C68.556 61.4747 69.1999 61.2258 69.8437 60.977C69.8437 61.0599 69.8437 61.0599 69.8437 61.1429C69.7632 61.4747 69.9241 61.7235 70.1656 61.9724C70.3265 62.1383 70.6484 62.2212 70.9704 62.2212H71.0509C71.3728 62.2212 71.8556 62.0553 72.3385 61.7235C72.6604 61.8065 72.9823 61.8065 73.3847 61.7235C73.7871 61.6406 74.1895 61.5576 74.6724 61.3917C74.7528 61.3917 74.9138 61.3088 74.9942 61.2258C74.8333 61.5576 74.8333 61.8065 74.9942 62.0553C75.2357 62.553 75.6381 62.636 76.2819 62.3871C76.7648 62.1383 77.4086 61.7235 78.1329 60.977C77.7305 61.5576 77.3281 62.1383 77.0062 62.7189C76.4428 63.5484 75.799 64.4608 74.9942 65.3733L74.9138 65.4562L74.109 65.9539C73.2237 66.5346 72.3385 67.1152 71.5337 67.6959C70.7289 68.2765 70.0046 68.7742 69.3608 69.2719C68.7975 69.7696 68.2341 70.2673 67.8317 70.682C67.4294 71.0968 67.1879 71.5115 67.1879 71.8433V71.9263C67.2684 72.1751 67.3489 72.341 67.5903 72.424C67.6708 72.424 67.7513 72.5069 67.9122 72.5069C67.9927 72.5069 68.0732 72.5069 68.1536 72.5069C68.3146 72.424 68.5561 72.341 68.7975 72.1751C69.0389 72.0092 69.2803 71.8433 69.5218 71.6774C70.0851 71.2627 70.6485 70.765 71.2923 70.1843C72.0166 69.5208 72.6604 68.7742 73.3042 68.1106L74.27 67.0323L75.2357 65.9539L77.0867 64.7926C77.8915 64.2949 78.5353 63.8802 79.0986 63.4655C79.7425 63.0507 80.3862 62.636 81.0301 62.2212C81.5934 61.8065 82.1568 61.4747 82.7201 61.1429C82.8811 60.977 83.042 60.894 83.2835 60.8111C83.4444 60.6452 83.6858 60.5622 84.0078 60.3134C84.3297 60.1475 84.732 59.8986 85.2149 59.4839C85.2954 59.6498 85.2954 59.7327 85.2954 59.8157C85.2954 59.9816 85.3759 60.0645 85.5368 60.3134C85.2954 60.6452 85.054 60.977 84.8125 61.3088C84.6516 61.7235 84.5711 61.9724 84.8125 62.3042C84.9735 62.4701 85.2149 62.553 85.5368 62.553C85.6978 62.553 85.7783 62.553 85.9392 62.553C86.5026 62.4701 87.0659 62.3042 87.7098 62.0553C88.1926 61.8894 88.6755 61.6406 89.1583 61.3917C89.1583 61.4747 89.0778 61.5576 89.0778 61.6406C88.9974 61.9724 89.0779 62.2212 89.3998 62.3871C89.4802 62.4701 89.5607 62.4701 89.7217 62.4701C89.8022 62.4701 89.9631 62.4701 90.0436 62.3871C90.3655 62.3042 90.6069 62.2212 90.9289 62.0553C91.3313 61.8894 91.5726 61.7235 91.8946 61.5576C92.136 61.3917 92.297 61.3088 92.4579 61.1429C92.4579 61.3088 92.4579 61.3917 92.4579 61.5576C92.5384 61.8065 92.6994 61.9724 92.9408 62.0553C93.1822 62.1383 93.5041 62.1383 93.826 61.9724C94.1479 61.8894 94.4699 61.7235 94.8722 61.4747C95.1137 61.3088 95.3551 61.2258 95.5966 61.0599L95.677 60.977C95.677 60.977 95.677 60.977 95.7575 60.977C95.9185 60.894 96.0794 60.7281 96.1599 60.7281C96.1599 60.8111 96.1599 60.8111 96.1599 60.894L96.0794 61.1429L95.9989 61.2258C95.677 61.4747 95.3551 61.8065 94.9528 62.2212C94.7113 62.4701 94.4698 62.7189 94.3089 62.8848L94.0675 63.1337C93.5846 63.7143 93.1017 64.2949 92.6993 64.7926C92.2165 65.3733 91.8141 65.9539 91.4922 66.4516C91.1703 66.9493 90.8483 67.447 90.6874 67.9447C90.446 68.4424 90.3655 68.7742 90.3655 69.106V69.1889C90.446 69.6037 90.6874 69.6866 90.9289 69.6866C91.0093 69.6866 91.0093 69.6866 91.0898 69.6866C91.2507 69.6037 91.4117 69.5207 91.5727 69.4378C91.7336 69.3549 91.8946 69.1889 92.0555 69.023C92.3774 68.6913 92.6993 68.2765 93.1017 67.8618C93.5041 67.3641 93.826 66.7834 94.2284 66.2028C94.3894 65.871 94.5503 65.6221 94.7113 65.2903C94.8722 65.0415 95.0332 64.7097 95.2746 64.3779L95.5161 63.9632C95.9184 64.0461 96.4013 63.9631 96.9647 63.6313C97.4476 63.2995 98.0109 62.8848 98.4133 62.3871L98.4937 62.3042H98.5742C99.2181 62.0553 99.8619 61.8065 100.506 61.5576C101.15 61.3088 101.632 60.977 102.115 60.7281L102.437 60.5622C102.357 60.7281 102.196 60.977 102.115 61.1429C101.954 61.4747 101.874 61.7235 101.874 61.9724C101.793 62.1383 101.874 62.2212 101.954 62.3042C102.035 62.3042 102.035 62.3871 102.115 62.3871C102.196 62.3871 102.276 62.3871 102.276 62.2212C102.598 61.8894 103.001 61.6406 103.483 61.3088C104.047 60.977 104.449 60.7281 104.932 60.5622C105.415 60.3134 105.737 60.2304 106.059 60.1475C106.139 60.1475 106.22 60.1475 106.3 60.1475C106.381 60.1475 106.461 60.1475 106.461 60.2304C106.381 60.3134 106.3 60.4793 106.22 60.6452C106.059 60.8111 105.978 61.0599 105.817 61.2258C105.656 61.3917 105.576 61.6406 105.415 61.8065C105.334 62.0553 105.334 62.2212 105.334 62.3871C105.415 62.553 105.576 62.636 105.817 62.636C106.059 62.636 106.3 62.553 106.622 62.4701C106.944 62.3871 107.266 62.2212 107.668 62.0553C107.91 61.9724 108.151 61.8065 108.392 61.7235C108.473 61.8894 108.553 61.9724 108.634 62.1383C108.795 62.3042 109.036 62.4701 109.278 62.553C109.519 62.636 109.761 62.7189 110.083 62.7189C110.485 62.7189 110.968 62.636 111.451 62.553C111.934 62.4701 112.336 62.3042 112.819 62.1383C113.221 61.9724 113.624 61.8065 114.106 61.5576C114.509 61.3088 114.831 61.1429 115.153 60.894C115.153 60.894 115.153 60.894 115.153 60.8111C115.233 60.7281 115.314 60.7281 115.475 60.6452C115.636 60.5622 115.796 60.3963 115.957 60.3134L116.118 60.2304C116.199 60.2304 116.199 60.1475 116.199 60.1475C116.36 60.3134 116.521 60.3963 116.843 60.4793C117.084 60.5622 117.326 60.5622 117.567 60.5622C117.728 61.3088 118.13 61.8065 118.694 62.2212C119.257 62.636 119.981 62.8848 120.786 62.9678C121.028 62.9678 121.349 63.0507 121.591 63.0507C122.074 63.0507 122.637 62.9678 123.2 62.8848C124.005 62.7189 124.729 62.3871 125.293 62.0553H125.373H151.77C152.253 61.5576 152.414 61.3917 152.414 61.2258ZM73.5456 67.1152C73.4652 67.1982 73.3847 67.2811 73.3847 67.3641C73.3042 67.447 73.1433 67.6129 73.0628 67.6959C72.419 68.3595 71.6947 69.0231 71.0509 69.6866C70.4875 70.1843 69.9242 70.765 69.2803 71.1797C68.7975 71.5945 68.3951 71.7604 68.0732 71.8433C67.9927 71.9263 67.9122 71.9263 67.9122 71.9263V71.8433C67.9927 71.5945 68.2341 71.3456 68.4756 71.0138C68.7975 70.682 69.1998 70.2673 69.7632 69.7696C70.1656 69.4378 70.6485 69.023 71.2923 68.6083C71.8556 68.1936 72.4994 67.7788 73.1433 67.3641L73.5456 67.1152ZM43.286 62.7189C43.0446 62.8848 42.9641 63.0507 42.8837 63.1337V63.3825L42.9641 63.5484L42.8032 63.9632L41.6765 65.7051C41.3546 66.2857 40.9522 66.7834 40.6303 67.2811C40.2279 67.7788 39.906 68.1106 39.6646 68.4424C39.2622 68.8572 39.1012 68.9401 39.0207 68.9401H38.9402L39.0207 68.8572C39.0207 68.6083 39.1817 68.2765 39.4231 67.8618C39.6645 67.447 39.906 67.0323 40.2279 66.5346C40.5498 66.1198 40.8717 65.6221 41.3546 65.0415C41.757 64.5438 42.1593 64.0461 42.6422 63.5484C42.8032 63.3825 42.8836 63.2166 42.9641 63.1337C43.0446 63.0507 43.1251 62.9678 43.2056 62.8848L43.3665 62.7189L43.608 62.4701L43.286 62.7189ZM45.137 62.636C44.8151 62.8848 44.4127 63.1337 44.1713 63.2996C44.0103 63.3825 43.8494 63.3825 43.7689 63.3825C43.7689 63.3825 43.7689 63.3825 43.6884 63.3825L43.7689 63.1337L43.9299 63.0507C44.0103 63.0507 44.0103 63.0507 44.0908 62.9678C44.2518 62.9678 44.3323 62.8848 44.4932 62.8848C44.6542 62.7189 44.8956 62.636 45.137 62.636ZM46.8271 60.3963C46.7466 60.7281 46.5051 61.0599 46.1832 61.5576L46.0223 61.6406L45.298 61.8894C45.2175 61.8894 45.137 61.9724 45.0565 61.9724C44.9761 61.9724 44.8151 62.0553 44.7346 62.0553C44.5737 62.1383 44.3322 62.2212 44.2518 62.2212H44.1713C44.2518 62.1383 44.2518 61.9724 44.2518 61.8894C44.3322 61.7235 44.3323 61.6406 44.4127 61.4747L44.5737 61.1429L44.6542 61.0599C44.7346 60.977 44.8956 60.8111 44.9761 60.8111C45.0565 60.7281 45.2175 60.6452 45.298 60.5622C46.1832 59.8986 46.5051 59.7327 46.6661 59.7327H46.7466C46.8271 59.9816 46.988 59.9816 46.8271 60.3963ZM59.1401 61.3917C58.8182 61.5576 58.5768 61.6406 58.2549 61.6406C58.0135 61.6406 57.8525 61.5576 57.772 61.3917C57.6916 61.1429 57.772 60.894 58.0135 60.6452C58.2549 60.4793 58.4963 60.3134 58.7378 60.0645C58.8987 59.9816 58.9792 59.8157 59.1401 59.7327C58.9792 59.9816 58.8987 60.3134 58.8987 60.5622C58.8987 60.894 58.9792 61.1429 59.1401 61.3917ZM60.0254 60.4793C59.8644 60.6452 59.7035 60.8111 59.623 60.977C59.5425 60.894 59.4621 60.7281 59.5425 60.5622C59.623 60.3134 59.7035 60.0645 59.784 59.8986C59.9449 59.6498 60.1059 59.4839 60.2668 59.318C60.4278 59.1521 60.5083 59.0691 60.6692 59.0691C60.6692 59.0691 60.6692 59.1521 60.6692 59.235C60.6692 59.4009 60.5887 59.5668 60.4278 59.8157C60.2668 60.0645 60.1864 60.3134 60.0254 60.4793ZM71.7751 61.3917C71.4532 61.5576 71.2118 61.6406 70.8899 61.6406C70.6485 61.6406 70.4875 61.5576 70.4071 61.3917C70.3266 61.1429 70.407 60.894 70.6485 60.6452C70.8899 60.4793 71.1313 60.3134 71.3727 60.0645C71.5337 59.9816 71.6142 59.8157 71.7751 59.7327C71.6142 59.9816 71.5337 60.3134 71.5337 60.5622C71.5337 60.894 71.6142 61.1429 71.7751 61.3917ZM72.6604 60.4793C72.4995 60.6452 72.419 60.8111 72.258 60.977C72.1775 60.894 72.1775 60.7281 72.1775 60.5622C72.1775 60.3134 72.3385 60.0645 72.419 59.8986C72.5799 59.6498 72.7409 59.4839 72.9018 59.318C73.0628 59.1521 73.1433 59.0691 73.3042 59.0691C73.3042 59.0691 73.3042 59.1521 73.3042 59.235C73.3042 59.4009 73.2238 59.5668 73.0628 59.8157C72.9823 60.0645 72.8214 60.3134 72.6604 60.4793ZM92.4579 60.5622C92.136 60.8111 91.8141 60.977 91.4922 61.2258C91.1703 61.3917 90.8484 61.5576 90.5265 61.7235C90.285 61.8065 90.0436 61.8894 89.8826 61.8894C89.8826 61.8894 89.8021 61.8065 89.8826 61.5576C89.9631 61.3917 90.124 61.1429 90.285 60.977C90.3655 60.894 90.446 60.8111 90.5265 60.7281C90.6874 60.6452 90.7679 60.5622 90.8484 60.5622C90.9288 60.5622 90.9288 60.4793 91.0093 60.3963C91.2508 60.2304 91.4922 60.1475 91.7336 60.1475C91.9751 60.1475 92.136 60.2304 92.2165 60.2304C92.297 60.3134 92.3775 60.3963 92.5384 60.3963H92.6189C92.5384 60.4793 92.5384 60.5622 92.4579 60.5622ZM95.5966 62.7189C95.3551 62.8848 95.1942 63.0507 95.1942 63.1337V63.3825L95.2746 63.5484L95.1137 63.9632L93.987 65.7051C93.6651 66.2857 93.2627 66.7834 92.9408 67.2811C92.5384 67.7788 92.2165 68.1106 91.9751 68.4424C91.5727 68.8572 91.4117 68.9401 91.3313 68.9401H91.2507L91.3313 68.8572C91.3313 68.6083 91.4922 68.2765 91.7336 67.8618C91.9751 67.447 92.2165 67.0323 92.5384 66.5346C92.8603 66.1198 93.1822 65.6221 93.6651 65.0415C94.0675 64.5438 94.4699 64.0461 94.9528 63.5484C95.0332 63.3825 95.1942 63.2996 95.2746 63.1337C95.3551 63.0507 95.4356 62.9678 95.5161 62.8848L95.677 62.7189L95.9184 62.4701L95.5966 62.7189ZM97.4475 62.636C97.1256 62.8848 96.8037 63.1337 96.4818 63.2996C96.3208 63.3825 96.1599 63.3825 96.0794 63.3825C96.0794 63.3825 96.0794 63.3825 95.9989 63.3825L96.0794 63.1337L96.2404 63.0507L96.4013 62.9678C96.5623 62.9678 96.6428 62.8848 96.8037 62.8848C97.0452 62.7189 97.2866 62.636 97.4475 62.636ZM99.2181 60.3963C99.1376 60.7281 98.8962 61.0599 98.5742 61.5576L98.4133 61.6406L97.689 61.8894C97.6085 61.8894 97.528 61.9724 97.4475 61.9724C97.3671 61.9724 97.2061 62.0553 97.1256 62.0553C96.9647 62.1383 96.7232 62.2212 96.6428 62.2212H96.5623C96.6428 62.1383 96.6428 61.9724 96.6428 61.8894C96.7232 61.7235 96.7233 61.6406 96.8037 61.4747L96.9647 61.1429L97.0452 61.0599C97.2061 60.894 97.2866 60.8111 97.3671 60.8111C97.4476 60.7281 97.6085 60.6452 97.689 60.5622C98.5742 59.8986 98.8961 59.7327 99.0571 59.7327C99.1376 59.7327 99.1376 59.7327 99.1376 59.7327C99.1376 59.9816 99.2985 59.9816 99.2181 60.3963ZM151.69 60.8111H125.615C125.534 60.8111 125.534 60.8111 125.454 60.894C125.454 60.894 125.454 60.894 125.373 60.894C124.649 61.3917 123.844 61.6406 123.039 61.8065C122.235 61.9724 121.43 61.9724 120.786 61.8894C120.062 61.7235 119.498 61.4747 119.016 61.1429C118.533 60.8111 118.291 60.3134 118.291 59.6498C118.291 59.5668 118.291 59.4839 118.05 59.4839C117.969 59.4839 117.889 59.4839 117.808 59.4839C117.567 59.5668 117.326 59.5668 117.084 59.4839C116.923 59.4009 116.843 59.318 116.762 59.235C116.843 59.1521 116.923 59.0691 116.923 58.9862C116.923 58.9032 116.923 58.8203 116.923 58.7373C116.843 58.5714 116.682 58.5714 116.601 58.5714H116.521C116.36 58.5714 116.199 58.7373 116.118 59.0691C115.957 59.1521 115.796 59.318 115.475 59.5668L115.394 59.6498C115.233 59.7327 115.153 59.8157 115.072 59.8986C115.072 59.8986 114.992 59.8986 114.992 59.9816C114.428 60.3963 113.785 60.7281 113.06 61.0599C112.336 61.3917 111.531 61.6406 110.807 61.7235C110.404 61.8065 110.002 61.7235 109.761 61.6406C109.519 61.4747 109.278 61.3088 109.197 61.1429C109.197 61.1429 109.197 61.1429 109.278 61.1429C109.358 61.1429 109.439 61.0599 109.6 60.977C109.841 60.894 110.083 60.7281 110.324 60.5622C110.565 60.3963 110.807 60.2304 110.968 60.0645C111.129 59.8986 111.209 59.6498 111.209 59.4839C111.209 59.235 111.048 59.0691 110.807 59.0691C110.565 58.9862 110.404 58.9862 110.163 59.0691C109.841 59.1521 109.6 59.318 109.278 59.4839C108.956 59.7327 108.795 59.9816 108.634 60.3134C108.553 60.4793 108.553 60.5622 108.553 60.7281C108.553 60.7281 108.473 60.7281 108.473 60.8111C108.312 60.894 108.151 60.977 107.99 61.0599C107.829 61.1429 107.668 61.2258 107.588 61.2258L107.427 61.3088C107.185 61.3917 107.024 61.4747 106.863 61.5576C106.461 61.7235 106.3 61.8065 106.22 61.8065C106.22 61.8065 106.22 61.6406 106.381 61.4747C106.541 61.2258 106.702 60.977 106.944 60.7281C107.185 60.3963 107.266 60.1475 107.266 59.9816C107.185 59.6498 106.944 59.4009 106.622 59.4009C106.381 59.4009 106.059 59.4009 105.737 59.5668C105.415 59.7327 105.012 59.8986 104.61 60.0645C104.208 60.3134 103.805 60.4793 103.483 60.6452C103.322 60.7281 103.161 60.8111 103.081 60.894L103.725 59.7327C104.208 59.4009 104.53 59.1521 104.851 58.9032C105.012 58.8203 105.254 58.6544 105.415 58.4885C107.185 57.4101 108.392 56.4148 108.956 55.7512C109.358 55.2535 109.6 54.8387 109.519 54.5069C109.519 54.341 109.439 54.2581 109.358 54.1751C109.197 54.0092 108.956 54.0092 108.634 54.0922C108.393 54.1751 108.071 54.341 107.829 54.5069C107.588 54.6728 107.266 54.8387 107.024 55.0876L106.944 55.1705C106.622 55.4194 106.22 55.7512 105.898 56.083C105.415 56.5807 104.932 57.0784 104.53 57.659C104.127 58.1567 103.725 58.7373 103.403 59.318L103.322 59.4009C103.161 59.5668 102.92 59.6498 102.759 59.8157C102.518 59.9816 102.357 60.0645 102.115 60.2304C101.793 60.3963 101.471 60.5622 101.069 60.8111C100.586 61.0599 100.103 61.2258 99.7009 61.4747H99.6204L99.7814 61.3088C100.023 60.977 100.103 60.6452 100.184 60.3134C100.184 59.9816 100.103 59.7327 99.7814 59.4839C99.54 59.318 99.1376 59.4009 98.7352 59.5668C98.4133 59.7327 97.9304 60.0645 97.528 60.3963C97.528 60.3134 97.528 60.2304 97.528 60.1475V59.7327C97.528 59.6498 97.528 59.4839 97.2866 59.4839C97.2061 59.4839 97.0452 59.4839 96.9647 59.7327C96.9647 59.8157 96.8842 59.8986 96.8037 59.9816C96.7233 60.0645 96.5623 60.1475 96.2404 60.3134C95.9185 60.4793 95.5965 60.6452 95.2746 60.894C94.9527 61.0599 94.6308 61.2258 94.3089 61.3917C93.987 61.5576 93.826 61.5576 93.6651 61.4747C93.5846 61.4747 93.5846 61.3088 93.6651 61.0599C93.7456 60.8111 93.9065 60.5622 94.148 60.3963C94.3089 60.3134 94.3089 60.1475 94.2284 59.9816C94.1479 59.8986 94.0675 59.8157 93.987 59.8157C93.9065 59.8157 93.7456 59.8986 93.6651 59.9816L93.5846 60.0645C93.5041 60.1475 93.4237 60.2304 93.3432 60.2304C93.3432 60.1475 93.3432 60.1475 93.3432 60.1475C93.2627 59.9816 93.1018 59.8986 92.9408 59.7327C92.6994 59.6498 92.5384 59.5668 92.2165 59.5668C91.8141 59.5668 91.4922 59.6498 91.0898 59.8986C90.9288 59.9816 90.7679 60.1475 90.6069 60.2304C90.5265 60.3134 90.3655 60.3134 90.285 60.3963C89.9631 60.5622 89.5607 60.7281 89.2388 60.894C88.8364 61.0599 88.5145 61.2258 88.1121 61.3917C87.7902 61.5576 87.3878 61.6406 87.0659 61.7235C86.744 61.8065 86.5025 61.8894 86.2611 61.8894C86.1002 61.8894 86.0197 61.8065 86.0197 61.8065C86.0197 61.5576 86.1002 61.3088 86.3416 61.1429C86.5831 60.894 86.744 60.7281 86.905 60.5622C86.9855 60.5622 86.9854 60.5622 86.9854 60.4793C86.9854 60.3963 86.9855 60.3134 86.905 60.1475C86.5831 59.7327 86.4221 59.4009 86.4221 59.0691L87.1464 58.4885C87.5488 58.2396 87.7902 57.9908 87.9512 57.8249C88.1121 57.7419 88.1926 57.576 88.434 57.4101L88.6754 57.1613C88.9169 56.9124 89.0779 56.6636 89.1583 56.4977C89.1583 56.3318 89.1583 56.2489 89.1583 56.1659C89.0779 56.083 89.0779 56.083 88.9974 56.083C88.8364 56.083 88.595 56.083 88.1926 56.2489C87.8707 56.4148 87.5488 56.5807 87.2269 56.7465C86.9049 56.9954 86.6635 57.2442 86.4221 57.576C86.1806 57.9078 86.0197 58.2396 85.9392 58.5714L85.8587 58.7373L85.5368 58.9862C85.3759 59.0691 85.2149 59.235 85.054 59.318C84.893 59.4009 84.7321 59.5668 84.5711 59.6498L84.4906 59.7327C84.4102 59.7327 84.3297 59.7327 84.3297 59.8157C84.2492 59.8986 84.1687 59.8986 84.0883 59.9816C83.9273 60.0645 83.8468 60.1475 83.7663 60.2304C83.6054 60.3963 83.364 60.4793 83.1225 60.6452C82.6396 60.977 82.0763 61.3088 81.513 61.7235C81.2715 61.8894 81.0301 62.0553 80.7886 62.1383C80.3863 62.3871 80.0644 62.636 79.662 62.8848C78.9377 63.2996 78.2939 63.7143 77.65 64.129L77.1671 64.4608C77.9719 63.3825 78.5353 62.553 78.9377 61.8065C79.4205 60.977 79.8229 60.3134 80.0644 59.8157C80.0644 59.7327 80.1448 59.5668 79.9839 59.4009C79.9034 59.4009 79.8229 59.318 79.8229 59.318C79.7424 59.318 79.662 59.318 79.662 59.4009C79.3401 59.7327 79.0182 60.0645 78.6962 60.3134C78.3743 60.6452 77.972 60.977 77.65 61.2258C77.3281 61.4747 77.0062 61.7235 76.6843 61.8065C76.4429 61.8894 76.2819 61.9724 76.2014 61.8065C76.1209 61.7235 76.0405 61.6406 76.2014 61.3917C76.2819 61.1429 76.5233 60.977 76.7648 60.7281C76.8452 60.6452 77.0062 60.5622 77.0867 60.4793C77.2476 60.3963 77.3281 60.3134 77.4086 60.2304C77.5695 60.1475 77.65 60.0645 77.811 59.9816C78.2938 59.7327 78.7767 59.4839 79.2596 59.318C79.4205 59.235 79.501 59.0691 79.501 58.9032V58.8203C79.4205 58.7373 79.3401 58.6544 79.0986 58.6544C78.6962 58.8203 78.2133 59.0691 77.811 59.235C77.489 59.4009 77.2476 59.5668 76.9257 59.7327C76.7648 59.8157 76.6038 59.8986 76.3624 60.0645C76.0405 60.2304 75.6381 60.3963 75.3162 60.4793C74.9943 60.5622 74.6724 60.7281 74.27 60.8111C74.0285 60.894 73.8676 60.894 73.7066 60.894C73.7871 60.8111 73.8676 60.7281 73.948 60.6452C74.109 60.3963 74.27 60.2304 74.4309 59.9816C74.5919 59.7327 74.6724 59.4839 74.6724 59.235C74.7528 58.9862 74.6723 58.7373 74.5114 58.5714C74.4309 58.4885 74.3504 58.4885 74.3504 58.4055C74.27 58.4055 74.2699 58.4055 74.1895 58.4055H74.109C73.8676 58.4055 73.6261 58.4885 73.3847 58.7373C73.2237 58.8203 73.1432 58.9862 72.9823 59.1521C72.9823 59.1521 72.9823 59.1521 72.9823 59.0691C72.9823 58.9862 72.9018 58.9032 72.7409 58.9032C72.6604 58.9032 72.5799 58.9032 72.4995 58.9032C72.258 58.9862 72.0166 59.1521 71.6947 59.318C71.4532 59.4839 71.2923 59.6498 71.1313 59.8157C71.0508 59.8157 70.9704 59.8986 70.8899 59.9816C70.4875 60.1475 70.0046 60.3963 69.5218 60.5622C68.8779 60.8111 68.3951 60.977 67.9122 61.1429C67.3489 61.3088 66.7855 61.4747 66.3832 61.4747C65.9003 61.5576 65.4979 61.5576 65.2565 61.4747C65.015 61.3917 64.8541 61.3088 64.8541 61.1429C64.8541 60.977 64.9346 60.7281 65.015 60.4793C65.0955 60.2304 65.2565 59.9816 65.4174 59.8157C66.1417 59.4009 66.9465 58.9862 67.5903 58.4055C68.3146 57.9078 69.0389 57.3272 69.6827 56.7465C70.0851 56.7465 70.568 56.7465 71.0509 56.7465C71.5337 56.7465 72.0166 56.8295 72.419 56.8295C72.4995 56.8295 72.5799 56.8295 72.6604 56.8295C72.9018 56.8295 72.9823 56.7466 72.9823 56.6636C72.9823 56.4977 72.9823 56.4148 72.8214 56.3318L72.5799 56.2489L70.3265 56.083C70.7289 55.7512 71.0508 55.3364 71.3727 55.0876C71.6946 54.7558 71.8556 54.424 71.9361 54.1751C71.9361 54.0922 71.9361 54.0092 71.8556 53.9263C71.7752 53.8433 71.6947 53.7604 71.5337 53.7604C71.3727 53.7604 71.0508 53.8433 70.7289 54.0092C70.407 54.1751 70.0851 54.424 69.6827 54.6728C69.3608 54.9217 69.0389 55.1705 68.6365 55.4194C68.3146 55.6682 68.0732 55.8341 67.9122 56C67.2684 56 66.5441 56 65.6588 56.083C64.9345 56.083 64.2907 56.1659 63.8079 56.2489C63.7274 56.2489 63.6469 56.2489 63.6469 56.2489C63.4859 56.3318 63.4055 56.4148 63.4055 56.5807C63.4055 56.7466 63.5664 56.8295 63.7274 56.8295C63.8078 56.8295 63.8884 56.8295 63.9688 56.8295C64.5322 56.7466 65.015 56.7465 65.5784 56.7465C66.0613 56.7465 66.6246 56.7465 67.1879 56.7465C66.6246 57.3272 66.2222 57.742 65.9003 58.1567C65.4979 58.5714 65.176 58.9862 64.9345 59.318L63.8079 59.9816C63.486 60.1475 63.164 60.3134 62.8421 60.3963C62.5202 60.4793 62.1983 60.6452 61.7959 60.7281C61.5545 60.8111 61.3935 60.8111 61.2326 60.8111C61.313 60.7281 61.3935 60.6452 61.474 60.5622C61.6349 60.3134 61.7959 60.1475 61.9569 59.8986C62.1178 59.6498 62.1983 59.4009 62.1983 59.1521C62.2788 58.9032 62.1983 58.6544 62.0373 58.4885C61.9569 58.4055 61.8764 58.4055 61.8764 58.3226C61.7959 58.3226 61.7959 58.3226 61.7154 58.3226H61.635C61.3935 58.3226 61.1521 58.4055 60.9107 58.6544C60.7497 58.7373 60.6692 58.9032 60.5083 59.0691C60.5083 59.0691 60.5083 59.0691 60.5083 58.9862C60.5083 58.9032 60.4278 58.8203 60.2668 58.8203C60.1863 58.8203 60.1059 58.8203 60.0254 58.8203C59.784 58.9032 59.5425 59.0691 59.2206 59.235C59.0597 59.318 58.9792 59.4009 58.8182 59.5668C58.5768 59.7327 58.3354 59.8157 58.0135 59.9816C57.6916 60.1475 57.3696 60.2304 57.1282 60.3963C56.9672 60.4793 56.8063 60.5622 56.6453 60.6452C56.4844 60.7281 56.4039 60.7281 56.2429 60.8111L56.082 60.894C55.8406 60.977 55.6796 61.0599 55.5186 61.1429C55.1163 61.3088 54.9553 61.3917 54.8748 61.3917C54.8748 61.3088 54.8748 61.2258 55.0358 61.0599C55.1967 60.8111 55.3577 60.6452 55.5991 60.3134C55.8406 59.9816 55.921 59.8157 55.921 59.5668C55.8406 59.235 55.5991 58.9862 55.2772 58.9862C55.0358 58.9862 54.7139 58.9862 54.392 59.1521C54.0701 59.318 53.6677 59.4839 53.2653 59.6498C52.8629 59.8986 52.4605 60.0645 52.1386 60.2304C51.9776 60.3134 51.8167 60.3963 51.7362 60.4793L52.38 59.318C52.8629 58.9862 53.1848 58.7373 53.5067 58.4885C53.6677 58.4055 53.9091 58.2396 54.0701 58.0737C55.8406 56.9954 57.0477 56 57.6111 55.3364C58.0135 54.8387 58.2549 54.424 58.1744 54.0922C58.1744 53.9263 58.0939 53.8433 58.0135 53.7604C57.8525 53.5945 57.6111 53.5945 57.2892 53.6774C57.0477 53.7604 56.7258 53.9263 56.4844 54.0922C56.243 54.2581 55.921 54.424 55.6796 54.6728L55.5991 54.7558C55.2772 55.0046 54.8748 55.3364 54.5529 55.6682C54.0701 56.1659 53.5872 56.6636 53.1848 57.2443C52.7824 57.7419 52.38 58.3226 52.0581 58.9032L51.9776 58.9862C51.8167 59.1521 51.5752 59.235 51.4143 59.4009C51.1728 59.5668 51.0119 59.6498 50.7705 59.8157C50.4486 59.9816 50.1267 60.1475 49.7243 60.3963C49.2414 60.6452 48.839 60.8111 48.3561 61.0599H48.2757L48.4366 60.894C48.6781 60.5622 48.7585 60.2304 48.839 59.8986C48.839 59.5668 48.7585 59.318 48.4366 59.0691C48.1952 58.9032 47.7928 58.9862 47.3904 59.1521C47.0685 59.318 46.6661 59.6498 46.1832 59.9816C46.1832 59.8986 46.1832 59.8157 46.1832 59.7327V59.318C46.1832 59.235 46.1832 59.0691 45.9418 59.0691C45.8613 59.0691 45.7004 59.0691 45.6199 59.318C45.5394 59.4839 45.3785 59.6498 45.2175 59.8157C44.9761 59.9816 44.8151 60.1475 44.6542 60.1475C44.5737 60.1475 44.5737 60.2304 44.4932 60.2304C44.3323 60.3134 44.1713 60.3963 44.0103 60.4793H4.89817V3.49308H152.977V60.8111H151.69ZM109.439 60.3134C109.519 60.1475 109.68 59.9816 109.841 59.8157C110.083 59.5668 110.324 59.4839 110.646 59.4839C110.726 59.4839 110.726 59.4839 110.807 59.4839C110.807 59.5668 110.726 59.6498 110.646 59.7327L110.565 59.8157C110.565 59.8157 110.565 59.8157 110.485 59.8157C110.404 59.8157 110.404 59.8157 110.324 59.8986C110.002 59.9816 109.761 60.1475 109.439 60.3134ZM104.449 58.4055C104.771 57.9908 105.173 57.4102 105.737 56.9125C106.381 56.1659 107.185 55.5853 108.071 55.0046C108.473 54.7558 108.714 54.5899 108.795 54.5899C108.875 54.5899 108.956 54.5899 108.956 54.5899C109.036 54.7558 108.875 54.9217 108.714 55.1705C108.393 55.5023 108.071 55.8341 107.668 56.1659C107.266 56.5807 106.783 56.9125 106.22 57.2443C105.737 57.576 105.334 57.8249 105.012 58.0737L104.449 58.4055ZM67.9122 56.9954C67.5098 57.3272 67.1074 57.576 66.705 57.9078C66.3027 58.1567 65.9003 58.4885 65.4174 58.8203C65.8198 58.3226 66.1417 57.9908 66.3832 57.742C66.6246 57.4931 66.866 57.3272 67.027 57.1613L67.1879 57.0784H67.9122V56.9954ZM67.8317 56.4148C68.3146 56 68.7975 55.6682 69.1999 55.4194C69.6023 55.1705 69.9241 55.0046 70.1656 54.8387C70.0046 55.0046 69.8437 55.2535 69.6023 55.4194C69.2804 55.7512 68.9584 56 68.6365 56.3318H67.8317V56.4148ZM52.0581 58.4055C52.38 57.9908 52.7824 57.4102 53.3458 56.9125C53.9896 56.1659 54.7944 55.5853 55.6796 55.0046C56.082 54.7558 56.3234 54.5899 56.4039 54.5899C56.4844 54.5899 56.5649 54.5899 56.5649 54.5899C56.6454 54.7558 56.4844 54.9217 56.3234 55.1705C56.082 55.5023 55.6796 55.8341 55.2772 56.1659C54.8748 56.5807 54.392 56.9125 53.8286 57.2443L52.4605 58.1567L52.0581 58.4055Z" fill="#222222"/>
</g>
<defs>
<clipPath id="clip0_2003_1037">
<rect width="155" height="72" fill="white" transform="translate(0.55249 0.507019)"/>
</clipPath>
</defs>
</svg>
