<svg width="185" height="107" viewBox="0 0 185 107" fill="none" xmlns="http://www.w3.org/2000/svg">
<rect x="0.5" y="0.807526" width="183.552" height="105.399" rx="29.5" stroke="black"/>
<path d="M15 65.7835H169.552V67.1635H15V65.7835Z" fill="#222222"/>
<path d="M153.645 91.5065V90.8465H159.345V91.5065H153.645Z" fill="#222222"/>
<path d="M144.595 84.5065C144.328 84.2265 144.055 83.9865 143.775 83.7865C143.495 83.5865 143.195 83.4265 142.875 83.3065C142.555 83.1865 142.215 83.0999 141.855 83.0465C141.495 82.9799 141.101 82.9465 140.675 82.9465C139.168 82.9465 138.075 83.2332 137.395 83.8065C136.715 84.3799 136.375 85.1465 136.375 86.1065C136.375 86.7599 136.521 87.2732 136.815 87.6465C137.108 88.0199 137.575 88.3199 138.215 88.5465C138.855 88.7599 139.681 88.9732 140.695 89.1865C141.735 89.3999 142.635 89.6465 143.395 89.9265C144.155 90.2065 144.741 90.5865 145.155 91.0665C145.568 91.5465 145.775 92.2065 145.775 93.0465C145.775 93.6465 145.655 94.1799 145.415 94.6465C145.188 95.0999 144.855 95.4799 144.415 95.7865C143.975 96.0932 143.441 96.3265 142.815 96.4865C142.201 96.6332 141.515 96.7065 140.755 96.7065C139.995 96.7065 139.288 96.6332 138.635 96.4865C137.981 96.3265 137.368 96.0865 136.795 95.7665C136.221 95.4465 135.681 95.0399 135.175 94.5465L135.595 94.0265C135.915 94.3732 136.261 94.6799 136.635 94.9465C137.021 95.1999 137.428 95.4132 137.855 95.5865C138.295 95.7599 138.755 95.8932 139.235 95.9865C139.728 96.0665 140.241 96.1065 140.775 96.1065C142.108 96.1065 143.155 95.8599 143.915 95.3665C144.688 94.8599 145.075 94.1199 145.075 93.1465C145.075 92.4665 144.908 91.9265 144.575 91.5265C144.241 91.1132 143.735 90.7799 143.055 90.5265C142.375 90.2599 141.508 90.0199 140.455 89.8065C139.428 89.5932 138.555 89.3599 137.835 89.1065C137.128 88.8532 136.588 88.4999 136.215 88.0465C135.855 87.5932 135.675 86.9799 135.675 86.2065C135.675 85.3665 135.881 84.6599 136.295 84.0865C136.708 83.4999 137.288 83.0599 138.035 82.7665C138.781 82.4599 139.655 82.3065 140.655 82.3065C141.268 82.3065 141.828 82.3665 142.335 82.4865C142.841 82.6065 143.308 82.7865 143.735 83.0265C144.175 83.2665 144.588 83.5865 144.975 83.9865L144.595 84.5065Z" fill="#222222"/>
<path d="M127.864 95.9665V96.6065H118.484V82.4065H127.684V83.0465H119.184V89.0265H126.624V89.6665H119.184V95.9665H127.864Z" fill="#222222"/>
<path d="M108.148 96.6065V83.8065L102.188 93.8665H101.708L95.7476 83.8065V96.6065H95.0476V82.4065H95.6876L101.948 92.9665L108.208 82.4065H108.848V96.6065H108.148Z" fill="#222222"/>
<path d="M86.3229 95.9665V96.6065H76.9429V82.4065H86.1429V83.0465H77.6429V89.0265H85.0829V89.6665H77.6429V95.9665H86.3229Z" fill="#222222"/>
<path d="M67.2949 82.4065V96.6065H66.6149V89.6665H57.1749V96.6065H56.4749V82.4065H57.1749V89.0265H66.6149V82.4065H67.2949Z" fill="#222222"/>
<path d="M48.4042 83.0465H43.0842V96.6065H42.3842V83.0465H37.0642V82.4065H48.4042V83.0465Z" fill="#222222"/>
<path d="M25.2329 91.5065V90.8465H30.9329V91.5065H25.2329Z" fill="#222222"/>
<path d="M168.31 33.9055C168.31 46.9465 158.65 57.4345 147.058 57.4345C135.397 57.4345 125.806 46.9465 125.806 33.9055C125.806 20.8645 135.397 10.3075 147.058 10.3075C158.65 10.3075 168.31 20.8645 168.31 33.9055ZM165.274 33.9055C165.274 22.6585 157.132 13.3435 147.058 13.3435C136.915 13.3435 128.842 22.6585 128.842 33.9055C128.842 45.1525 136.915 54.3985 147.058 54.3985C157.132 54.3985 165.274 45.1525 165.274 33.9055Z" fill="#222222"/>
<path d="M123.318 37.5625C123.318 38.3215 122.835 39.0805 121.8 39.0805H120.765V47.2915C120.765 47.4295 120.558 47.9815 120.489 48.1195C116.832 53.7775 110.208 57.4345 103.722 57.4345C92.7505 57.4345 82.8835 46.9465 82.8835 33.9055C82.8835 20.8645 91.4396 10.3075 102.411 10.3075C109.449 10.3075 115.038 13.8955 118.281 19.4155C118.557 19.1395 118.971 18.9325 119.385 18.9325C119.523 18.9325 119.592 19.0015 119.73 19.0015C120.42 19.0705 120.972 19.5535 120.972 20.4505V26.0395C120.972 26.2465 120.903 26.4535 120.834 26.7985C120.834 27.6265 120.144 28.1095 119.316 28.1785C118.695 28.1785 118.005 27.8335 117.798 26.9365C116.28 19.0705 110.553 13.3435 102.411 13.3435C92.9576 13.3435 85.9195 22.6585 85.9195 33.9055C85.9195 45.1525 94.2685 54.3985 103.722 54.3985C109.104 54.3985 114.693 51.5005 117.729 46.8775V39.0805C116.763 39.0805 116.142 38.3905 116.073 37.5625C116.073 36.8035 116.625 36.0445 117.591 36.0445H121.8C122.766 36.0445 123.318 36.8035 123.318 37.5625Z" fill="#222222"/>
<path d="M80.3758 33.9055C80.3758 46.9465 70.7158 57.4345 59.1238 57.4345C47.4628 57.4345 37.8718 46.9465 37.8718 33.9055C37.8718 20.8645 47.4628 10.3075 59.1238 10.3075C70.7158 10.3075 80.3758 20.8645 80.3758 33.9055ZM77.3398 33.9055C77.3398 22.6585 69.1978 13.3435 59.1238 13.3435C48.9808 13.3435 40.9078 22.6585 40.9078 33.9055C40.9078 45.1525 48.9808 54.3985 59.1238 54.3985C69.1978 54.3985 77.3398 45.1525 77.3398 33.9055Z" fill="#222222"/>
<path d="M37.4939 18.9325C37.4939 23.5555 33.8369 27.3505 29.2829 27.3505C26.8679 27.3505 24.6599 26.2465 23.1419 24.5905C22.8659 24.3145 22.7969 24.0385 22.7969 23.6935C22.7969 22.9345 23.4869 22.3135 24.2459 22.3135C24.5909 22.3135 24.9359 22.4515 25.2119 22.7965C26.1779 23.9005 27.6959 24.5905 29.2829 24.5905C32.3189 24.5905 34.7339 22.0375 34.7339 18.9325C34.7339 14.7925 31.3529 13.2745 27.7649 13.2745C25.5569 13.2745 23.3489 13.8265 21.4169 14.5855V55.2265C21.4169 56.1235 20.9339 56.6065 20.0369 56.6065H17.6219C16.7249 56.6065 16.2419 55.9165 16.2419 55.2265C16.2419 54.5365 16.7249 53.8465 17.6219 53.8465H18.5879V16.1035C18.3119 16.3105 18.1049 16.3795 17.8289 16.3795C17.0699 16.3795 16.4489 15.6205 16.4489 14.8615C16.4489 14.4475 16.6559 14.0335 17.0699 13.7575C19.6919 11.9635 23.6939 10.5145 27.6959 10.5145C32.9399 10.5145 37.4939 13.0675 37.4939 18.9325Z" fill="#222222"/>
</svg>
