<svg width="88" height="109" viewBox="0 0 88 109" fill="none" xmlns="http://www.w3.org/2000/svg">
<g clip-path="url(#clip0_2003_971)">
<path d="M87.4145 0.507019H0.635951C0.289068 0.507019 0 0.80853 0 1.17034V107.844C0 108.206 0.289068 108.507 0.635951 108.507H87.3566C87.7035 108.507 87.9926 108.206 87.9926 107.844V1.17034C88.0504 0.80853 87.7613 0.507019 87.4145 0.507019ZM86.7785 1.77335V92.4668H1.2719V1.77335H86.7785ZM28.0975 101.211C28.1553 101.391 28.2131 101.572 28.2131 101.814C28.2131 102.537 27.8084 103.08 27.1147 103.321C26.8834 103.381 26.5943 103.442 26.3053 103.442H23.7037V97.8337H26.1318C26.71 97.8337 27.1725 98.0146 27.5194 98.3764C27.8084 98.6779 27.9241 99.0397 27.9241 99.4618C27.9241 99.9442 27.8084 100.306 27.5772 100.547C27.8663 100.668 28.0397 100.909 28.0975 101.211ZM28.9647 100.608C28.9647 99.8236 29.196 99.1 29.7163 98.5573C30.2366 98.0146 30.8726 97.7131 31.682 97.7131C32.4913 97.7131 33.1273 98.0146 33.6476 98.5573C34.168 99.1 34.3992 99.7633 34.3992 100.608C34.3992 101.391 34.168 102.115 33.6476 102.658C33.1273 103.201 32.4913 103.502 31.682 103.502C30.8726 103.502 30.2366 103.201 29.7163 102.658C29.196 102.115 28.9647 101.391 28.9647 100.608ZM36.8852 101.994C37.1165 102.175 37.3477 102.296 37.6946 102.296C38.0415 102.296 38.3305 102.175 38.5618 101.994C38.7931 101.753 38.9087 101.391 38.9087 100.969V97.7734H40.0071V100.909C40.0071 101.633 39.7759 102.296 39.3712 102.718C38.9087 103.2 38.3884 103.442 37.6946 103.442C37.0008 103.442 36.4227 103.2 36.018 102.718C35.6133 102.236 35.382 101.633 35.382 100.909V97.7734H36.4805V100.969C36.5383 101.452 36.6539 101.753 36.8852 101.994ZM40.8165 98.9191V97.7734H45.326V98.9191H43.6494V103.381H42.551V98.9191H40.8165ZM46.1932 103.442V97.8337H47.2917V103.442H46.1932ZM52.3215 103.442C52.4371 103.502 52.5527 103.502 52.6684 103.502C52.8996 103.502 53.1309 103.442 53.3621 103.2L53.5934 103.02L54.2293 103.924L53.9981 104.105C53.5934 104.407 53.1309 104.587 52.6684 104.587C52.2637 104.587 51.859 104.467 51.5121 104.226C51.223 104.045 50.9339 103.743 50.7605 103.442C50.0667 103.381 49.4886 103.08 49.0261 102.597C48.5636 102.055 48.2745 101.391 48.2745 100.608C48.2745 99.8236 48.5058 99.1 49.0261 98.5573C49.5464 98.0146 50.1824 97.7131 50.9918 97.7131C51.8012 97.7131 52.4371 98.0146 52.9574 98.5573C53.4778 99.1 53.709 99.7633 53.709 100.608C53.709 101.331 53.4778 101.934 53.0731 102.477C52.784 102.899 52.3793 103.14 51.9168 103.321C52.0902 103.381 52.2059 103.442 52.3215 103.442ZM56.2528 101.994C56.4841 102.175 56.7153 102.296 57.0622 102.296C57.4091 102.296 57.6982 102.175 57.9294 101.994C58.1607 101.753 58.2763 101.391 58.2763 100.969V97.7734H59.3748V100.909C59.3748 101.633 59.1435 102.296 58.7388 102.718C58.2763 103.2 57.756 103.442 57.0622 103.442C56.3685 103.442 55.7903 103.2 55.3856 102.718C54.9809 102.236 54.7497 101.633 54.7497 100.909V97.7734H55.8481V100.969C55.8481 101.391 55.9637 101.753 56.2528 101.994ZM64.4624 100.005V101.15H61.8029V102.236H64.8093V103.381H60.7045V97.7734H64.8093V98.9191H61.8029V100.005H64.4624Z" fill="#222222"/>
<path d="M51.0495 98.8588C50.5292 98.8588 50.1823 99.0397 49.8932 99.3412C49.6042 99.6427 49.4885 100.065 49.4885 100.547C49.4885 101.03 49.6042 101.452 49.8932 101.753C50.1823 102.055 50.587 102.236 51.0495 102.236C51.5698 102.236 51.9167 102.055 52.2058 101.753C52.4948 101.452 52.6105 101.03 52.6105 100.547C52.6105 100.065 52.437 99.6427 52.2058 99.3412C51.9167 99.0397 51.512 98.8588 51.0495 98.8588Z" fill="#222222"/>
<path d="M32.8961 101.813C33.1851 101.512 33.3008 101.09 33.3008 100.607C33.3008 100.125 33.1273 99.7029 32.8961 99.4014C32.607 99.0999 32.2023 98.919 31.7398 98.919C31.2195 98.919 30.8726 99.0999 30.5835 99.4014C30.2945 99.7029 30.1788 100.125 30.1788 100.607C30.1788 101.09 30.2945 101.512 30.5835 101.813C30.8726 102.115 31.2773 102.296 31.7398 102.296C32.2023 102.296 32.5492 102.175 32.8961 101.813Z" fill="#222222"/>
<path d="M26.3052 101.15H24.8599V102.296H26.363C26.6521 102.296 26.8255 102.235 26.9412 102.115C27.0568 102.054 27.1146 101.934 27.1146 101.753C27.1146 101.572 27.0568 101.452 26.9412 101.331C26.8255 101.211 26.5943 101.15 26.3052 101.15Z" fill="#222222"/>
<path d="M26.8257 99.7026C26.8836 99.6423 26.8835 99.5821 26.8835 99.4615C26.8835 99.3409 26.8836 99.2807 26.8257 99.2204C26.8257 99.1601 26.7679 99.0998 26.7101 99.0998C26.5945 98.9793 26.421 98.919 26.1898 98.919H24.8022V100.004H26.132C26.5945 100.004 26.7679 99.8835 26.8257 99.7026Z" fill="#222222"/>
<path d="M10.3485 14.2558H14.0486L17.9799 25.7131C19.194 21.9141 22.1425 13.6528 23.241 11.6025C24.9176 8.40653 27.8661 6.9593 31.5083 7.50201L31.1036 11.1201C28.8489 10.7583 27.2879 11.4819 26.3629 13.4116C24.5129 16.8487 19.8878 31.8638 19.83 31.9844L19.5987 32.1653L16.5924 32.2256L10.3485 14.2558Z" fill="#222222"/>
<path d="M33.5896 17.1503H31.2771V13.894H39.5445V17.1503H37.0585V28.487H33.5896V17.1503ZM31.2771 29.0297H39.5445V32.286H31.2771V29.0297Z" fill="#222222"/>
<path d="M46.5978 14.2557H50.1822L55.7324 24.8688V14.2557H59.2012V32.1653L58.9699 32.2859H55.6167L50.0666 21.6125V32.2859H46.5978V14.2557Z" fill="#222222"/>
<path d="M69.0872 54.3561V51.5822H74.2905V47.9641H63.5371V51.5822H65.5606V57.9742H76.8921V54.3561H69.0872Z" fill="#222222"/>
<path d="M69.0873 43.2607H76.3719V39.6426H65.5607V47.3009H69.0873V43.2607Z" fill="#222222"/>
<path d="M16.0146 43.5622H10.7535V39.8839H24.7445V43.5622H19.4834V57.9743H15.9568V43.5622H16.0146Z" fill="#222222"/>
<path d="M44.2852 73.9541C44.2852 68.9491 48.1587 64.9692 52.9572 64.9692C57.698 64.9692 61.5715 69.0094 61.5715 73.9541C61.5715 78.8989 57.698 82.9994 52.9572 82.9994C48.1587 82.9994 44.2852 78.9592 44.2852 73.9541ZM58.0448 73.9541C58.0448 70.9994 55.7323 68.6476 52.8994 68.6476C50.0665 68.6476 47.754 71.0597 47.754 73.9541C47.754 76.9089 50.0665 79.321 52.8994 79.321C55.7323 79.321 58.0448 76.9089 58.0448 73.9541Z" fill="#222222"/>
<path d="M76.9499 21.492H63.5371V24.9895H76.9499V21.492Z" fill="#222222"/>
<path d="M19.7147 72.2657C19.2522 72.0848 18.7318 71.9642 18.1537 71.8436C17.8646 71.7833 17.5756 71.7833 17.2865 71.723C17.0552 71.723 16.824 71.6627 16.6505 71.6627C16.4193 71.6024 16.188 71.5421 15.9568 71.4818C15.6099 71.3009 15.3208 71.0597 15.0896 70.7582C14.8583 70.4567 14.7427 70.0949 14.7427 69.733V69.6727C14.7427 68.5873 15.7255 67.6828 16.9974 67.6828C17.6334 67.6828 18.3271 67.9843 18.7318 68.4064C18.9631 68.6476 19.4256 69.1903 19.5991 69.6727V69.733L22.6054 68.2255H22.6632V68.1652C21.9694 65.8737 19.5991 64.2456 16.9974 64.2456C13.702 64.2456 11.0426 66.6577 11.0426 69.6124C11.0426 70.1552 11.1582 70.6979 11.3317 71.2406C11.5051 71.723 11.7942 72.2054 12.0833 72.6878C12.4301 73.1099 12.8348 73.532 13.2395 73.8336C13.702 74.1954 14.2224 74.4366 14.7427 74.6175C15.263 74.7984 15.8412 74.919 16.4771 74.9793C16.5927 74.9793 16.7662 74.9793 16.8818 74.9793H16.9396C17.2865 74.9793 17.6334 75.0396 17.9803 75.0999C18.385 75.1602 18.7897 75.4014 19.1365 75.7029C19.4834 76.0044 19.8303 76.4868 19.9459 76.9089C20.0037 77.1501 20.0616 77.3913 20.0616 77.6326C20.0616 79.0798 18.7318 80.2858 17.1131 80.2858C16.2459 80.2858 15.4365 79.924 14.8583 79.3813C14.8583 79.3813 14.8005 79.321 14.6849 79.2004C14.6271 79.1401 14.6271 79.1401 14.5692 79.0798C14.338 78.7783 13.9911 78.1753 13.8177 77.4516V77.3913L10.7535 78.8989V78.9592C11.3895 81.6728 14.1067 83.6024 17.1131 83.6024C20.6975 83.6024 23.646 80.9491 23.646 77.6929C23.646 75.3411 22.085 73.2305 19.7147 72.2657Z" fill="#222222"/>
<path d="M32.0865 69.1904V68.4065V64.7884H28.6177V72.4467H32.0865V69.1904Z" fill="#222222"/>
<path d="M37.6944 64.7884V73.11H26.5364V76.7281H28.6177V83.1201H32.0865V79.502V78.115V76.7281H37.6944V83.1201H41.2211V64.7884H37.6944Z" fill="#222222"/>
<path d="M52.3792 49.5321V52.7884H56.3105C55.3855 53.7532 54.2292 54.3563 52.8417 54.3563C50.0088 54.3563 47.6962 51.9442 47.6962 48.9894C47.6962 46.0346 50.0088 43.6226 52.8417 43.6226C54.8073 43.6226 56.5996 44.7683 57.4668 46.6377L60.5309 44.8889C59.0277 41.8738 56.0792 40.0045 52.8417 40.0045C48.0431 40.0045 44.2274 44.0447 44.2274 48.9894C44.2274 53.9341 48.1009 58.0347 52.8417 58.0347C56.1371 58.0347 59.2012 56.2859 60.5887 52.8487V49.5924H52.3792V49.5321Z" fill="#222222"/>
<path d="M35.9022 40.1252L32.6646 40.1855C32.6646 40.1855 28.5599 53.5121 26.5364 58.095H28.5599H30.3521H38.3882H39.4867H40.7007H42.0883L35.9022 40.1252ZM31.5662 54.8387C32.6646 51.884 33.7631 48.6277 34.399 46.6377L37.2319 54.8387H31.5662Z" fill="#222222"/>
<path d="M73.8858 64.8487C73.4811 64.7884 73.1342 64.7884 72.7295 64.7884H69.1451H68.0466H65.6184V83.1201H69.1451V67.9844H73.4233C74.753 68.105 75.8515 69.3713 75.8515 70.8789C75.8515 72.3261 74.8686 73.5321 73.5967 73.713H69.8388V76.909H72.7873H73.2498C76.314 76.909 78.8578 74.1955 78.8578 70.8186C78.8578 69.3713 78.3953 67.9241 77.4702 66.7784C76.4874 65.8135 75.2155 65.0296 73.8858 64.8487Z" fill="#222222"/>
</g>
<defs>
<clipPath id="clip0_2003_971">
<rect width="88" height="108" fill="white" transform="translate(0 0.507019)"/>
</clipPath>
</defs>
</svg>
