<svg width="127" height="91" viewBox="0 0 127 91" fill="none" xmlns="http://www.w3.org/2000/svg">
<mask id="path-1-inside-1_2021_37" fill="white">
<path d="M0.55249 0.162506H126.468V90.8515H0.55249V0.162506Z"/>
</mask>
<path d="M0.55249 1.16251H126.468V-0.837494H0.55249V1.16251ZM126.468 89.8515H0.55249V91.8515H126.468V89.8515Z" fill="black" mask="url(#path-1-inside-1_2021_37)"/>
<path d="M125.904 65.1315V66.9795H121.344V80.8515H119.304V66.9795H114.744V65.1315H125.904Z" fill="#222222"/>
<path d="M102.856 65.1315V66.9795H96.6157V71.9475H102.376V73.7715H96.6157V79.0035H102.856V80.8515H94.5757V65.1315H102.856Z" fill="#222222"/>
<path d="M76.2109 65.1315V79.0515H82.4509V80.8515H74.1709V65.1315H76.2109Z" fill="#222222"/>
<path d="M55.8064 65.1315V79.0515H62.0464V80.8515H53.7664V65.1315H55.8064Z" fill="#222222"/>
<path d="M37.2248 65.1315L42.0488 80.8515H39.8408L38.8088 77.2035H33.0248L31.9928 80.8515H29.9048L34.7048 65.1315H37.2248ZM35.9288 67.0035L33.5288 75.3795H38.3048L35.9288 67.0035Z" fill="#222222"/>
<path d="M20.4791 65.1315L16.8552 80.8515H14.1191L10.9031 67.4595L7.71115 80.8515H4.97515L1.32715 65.1315H3.48715L6.41515 78.6195L9.51115 65.1315H12.2951L15.4151 78.6195L18.3191 65.1315H20.4791Z" fill="#222222"/>
<path d="M126.468 10.9665V54.8515H120.773V34.7515H103.353V54.8515H97.658V10.9665H103.353V29.6595H120.773V10.9665H126.468Z" fill="#222222"/>
<path d="M77.7631 10.1625C80.1751 10.1625 83.3241 10.5198 87.2101 11.2345L87.0761 16.2595C83.4135 15.5448 80.3091 15.1875 77.7631 15.1875C75.1725 15.1875 73.2965 15.7012 72.1351 16.7285C71.0185 17.7558 70.4601 19.3192 70.4601 21.4185V23.1605C70.4601 24.2772 70.5941 25.1705 70.8621 25.8405C71.1748 26.4658 71.7108 27.0242 72.4701 27.5155C73.2295 27.9622 74.3685 28.4312 75.8871 28.9225L82.1181 30.9995C85.1108 32.0268 87.2101 33.3892 88.4161 35.0865C89.6668 36.7838 90.2921 39.2628 90.2921 42.5235V43.7965C90.2921 47.7718 89.1308 50.7422 86.8081 52.7075C84.5301 54.6728 80.7781 55.6555 75.5521 55.6555C73.0061 55.6555 69.7455 55.2088 65.7701 54.3155L65.9041 49.1565C69.6115 50.0498 72.7828 50.4965 75.4181 50.4965C78.7681 50.4965 81.1355 50.0052 82.5201 49.0225C83.9048 47.9952 84.5971 46.4095 84.5971 44.2655V42.0545C84.5971 40.4912 84.2398 39.3075 83.5251 38.5035C82.8551 37.6548 81.6491 36.9402 79.9071 36.3595L73.0061 34.0815C69.9241 33.0542 67.7801 31.7365 66.5741 30.1285C65.3681 28.4758 64.7651 25.9968 64.7651 22.6915V21.9545C64.7651 18.0685 65.7925 15.1428 67.8471 13.1775C69.9465 11.1675 73.2518 10.1625 77.7631 10.1625Z" fill="#222222"/>
<path d="M49.0981 10.9665L62.5651 54.8515H56.4011L53.5201 44.6675H37.3731L34.4921 54.8515H28.6631L42.0631 10.9665H49.0981ZM45.4801 16.1925L38.7801 39.5755H52.1131L45.4801 16.1925Z" fill="#222222"/>
<path d="M14.8235 10.1625C16.5655 10.1625 18.4415 10.3412 20.4515 10.6985C22.5062 11.0112 23.7122 11.1898 24.0695 11.2345L23.9355 16.2595C20.0048 15.5448 16.9675 15.1875 14.8235 15.1875C11.7862 15.1875 9.59749 15.8128 8.25749 17.0635C6.91749 18.3142 6.24749 20.3912 6.24749 23.2945V42.4565C6.24749 45.3598 6.89516 47.4368 8.19049 48.6875C9.53049 49.8935 11.7415 50.4965 14.8235 50.4965C16.9675 50.4965 20.0048 50.1392 23.9355 49.4245L24.0695 54.5835C23.7122 54.6282 22.5062 54.8068 20.4515 55.1195C18.4415 55.4768 16.5655 55.6555 14.8235 55.6555C9.68682 55.6555 6.02416 54.5612 3.83549 52.3725C1.64682 50.1838 0.55249 46.7668 0.55249 42.1215V23.6965C0.55249 19.0512 1.64682 15.6342 3.83549 13.4455C6.02416 11.2568 9.68682 10.1625 14.8235 10.1625Z" fill="#222222"/>
</svg>
