<svg width="103" height="111" viewBox="0 0 103 111" fill="none" xmlns="http://www.w3.org/2000/svg">
<g clip-path="url(#clip0_2003_944)">
<path d="M51.2677 105.456C51.2879 105.498 51.3283 105.518 51.3687 105.518H52.0959C52.1565 105.518 52.2171 105.456 52.2171 105.394L52.1767 100.696V100.571C52.1767 100.55 52.1565 100.509 52.1363 100.488C52.1161 100.467 52.0959 100.447 52.0555 100.447L51.3081 100.467C51.2475 100.467 51.1869 100.53 51.1869 100.592L51.2071 103.627L49.3891 100.613L49.3487 100.55C49.3285 100.509 49.2881 100.488 49.2477 100.488H48.5205C48.4599 100.488 48.3993 100.55 48.3993 100.613L48.4397 105.29V105.435C48.4397 105.456 48.4599 105.498 48.4801 105.518C48.5003 105.539 48.5205 105.56 48.5609 105.56L49.3083 105.539C49.3689 105.539 49.4295 105.477 49.4295 105.414L49.4093 102.4L51.2273 105.414L51.2677 105.456Z" fill="#222222"/>
<path d="M59.0246 99.5943L58.3984 99.719C58.358 99.719 58.3176 99.7606 58.2974 99.8229L57.55 104.687L57.5298 104.874C57.5298 104.916 57.5298 104.957 57.5702 104.978C57.5904 104.999 57.6106 105.019 57.651 105.019H57.6712L58.4186 104.874C58.459 104.874 58.4994 104.832 58.5196 104.77L58.6812 103.523L60.1356 103.253L60.7618 104.354C60.782 104.396 60.8426 104.417 60.883 104.417L61.6102 104.292C61.6506 104.292 61.6708 104.271 61.691 104.23C61.7112 104.188 61.7112 104.146 61.691 104.126L59.1458 99.6567C59.1054 99.6151 59.065 99.5943 59.0246 99.5943ZM58.8024 102.546L58.9842 101.278L59.6306 102.38L58.8024 102.546Z" fill="#222222"/>
<path d="M34.643 102.359C34.6632 102.38 34.6834 102.421 34.7036 102.421L35.3904 102.733C35.4106 102.733 35.4106 102.733 35.4308 102.733C35.4712 102.733 35.5116 102.712 35.5318 102.671L37.4104 98.2433C37.4306 98.2225 37.4306 98.1809 37.4104 98.1601C37.3902 98.1393 37.37 98.0978 37.3498 98.0978L36.764 97.8483L36.663 97.8068C36.6428 97.786 36.6024 97.786 36.5822 97.8068C36.562 97.8276 36.5216 97.8483 36.5216 97.8691L35.7944 99.5736L34.0976 98.8253L34.8248 97.1208C34.845 97.0585 34.8248 96.9961 34.7642 96.9753L34.1784 96.7051L34.0774 96.6635C34.0572 96.6428 34.0168 96.6428 33.9966 96.6635C33.9764 96.6843 33.936 96.7051 33.936 96.7259L32.0574 101.153C32.0372 101.216 32.0574 101.278 32.118 101.299L32.8048 101.611C32.825 101.631 32.8654 101.631 32.8856 101.611C32.9058 101.59 32.9462 101.569 32.9462 101.548L33.734 99.6567L35.4308 100.405L34.643 102.297C34.6228 102.297 34.6228 102.338 34.643 102.359Z" fill="#222222"/>
<path d="M40.5213 100.114C40.5819 100.135 40.6425 100.093 40.6627 100.031L40.8647 99.3449C40.8647 99.3241 40.8647 99.2826 40.8647 99.2618C40.8445 99.241 40.8243 99.2202 40.8041 99.1994L39.2689 98.7421C39.2083 98.7213 39.1477 98.7629 39.1275 98.8253L38.9255 99.5112C38.9255 99.532 38.9255 99.5736 38.9255 99.5944C38.9457 99.6151 38.9659 99.6359 38.9861 99.6567L39.2891 99.7399L38.4205 102.775L38.1175 102.691C38.0973 102.671 38.0569 102.691 38.0367 102.691C38.0165 102.712 37.9963 102.733 37.9761 102.754L37.7943 103.44C37.7741 103.502 37.8145 103.564 37.8751 103.585L39.2891 104.022L39.4103 104.063C39.4305 104.063 39.4305 104.063 39.4507 104.063C39.4911 104.063 39.5517 104.022 39.5517 103.98L39.7537 103.294C39.7739 103.232 39.7335 103.17 39.6729 103.149L39.3699 103.045L40.2385 100.01L40.5213 100.114Z" fill="#222222"/>
<path d="M44.5815 99.927C44.1775 99.8646 43.7735 99.927 43.4301 100.093C43.0665 100.26 42.7837 100.551 42.5413 100.904C42.2989 101.278 42.1575 101.694 42.0767 102.193C41.9959 102.671 42.0161 103.128 42.1373 103.544C42.2585 103.96 42.4605 104.313 42.7433 104.604C43.0261 104.874 43.3897 105.061 43.7937 105.124C43.9149 105.144 44.0159 105.144 44.1371 105.144C44.4199 105.144 44.7027 105.082 44.9653 104.957C45.3289 104.791 45.6117 104.5 45.8541 104.147C46.0965 103.793 46.2379 103.357 46.3187 102.879C46.3995 102.38 46.3591 101.922 46.2581 101.507C46.1369 101.07 45.9349 100.717 45.6521 100.447C45.3491 100.176 44.9855 100.01 44.5815 99.927ZM45.3289 102.712C45.2885 103.045 45.1875 103.336 45.0259 103.565C44.8845 103.793 44.7229 103.96 44.5209 104.063C44.3189 104.167 44.1371 104.188 43.9149 104.167C43.7129 104.147 43.5311 104.043 43.3695 103.876C43.2079 103.71 43.1069 103.502 43.0463 103.253C42.9857 102.983 42.9655 102.671 43.0261 102.338C43.0665 102.006 43.1675 101.715 43.3089 101.486C43.4503 101.257 43.6119 101.091 43.8139 100.966C43.9553 100.883 44.0967 100.842 44.2583 100.842C44.3189 100.842 44.3593 100.842 44.4199 100.862C44.6219 100.904 44.8037 100.987 44.9653 101.153C45.1269 101.32 45.2279 101.528 45.2885 101.798C45.3693 102.089 45.3895 102.401 45.3289 102.712Z" fill="#222222"/>
<path d="M29.9363 95.3747C30.0979 95.3539 30.2595 95.4163 30.4615 95.541C30.6433 95.645 30.7847 95.7905 30.8655 95.936C30.9463 96.0815 31.0069 96.2893 31.0271 96.5388L31.0473 96.6635C31.0473 96.705 31.0675 96.7258 31.0877 96.7466C31.1079 96.7674 31.1483 96.7674 31.1685 96.7674L31.8352 96.6635L31.9362 96.6219C31.9968 96.6011 32.0169 96.5595 32.0169 96.4972L31.9967 96.3933C31.9563 96.0191 31.8351 95.7073 31.6533 95.4163C31.4715 95.1461 31.2291 94.9174 30.9261 94.7096C30.5019 94.4394 30.0777 94.3354 29.7141 94.3978C29.3101 94.4601 28.9869 94.6888 28.7647 95.0837C28.3809 95.7489 28.5627 96.4764 29.3303 97.2663C29.5727 97.5157 29.7141 97.7444 29.7747 97.9314C29.8151 98.0769 29.7949 98.2016 29.7141 98.3679C29.6333 98.5134 29.5323 98.5966 29.3909 98.6174C29.2495 98.6382 29.0677 98.5966 28.8455 98.4511C28.6435 98.3264 28.4819 98.1601 28.3809 97.9314C28.2597 97.7028 28.1991 97.4741 28.1991 97.1831V97.0376C28.1991 96.9961 28.1789 96.9753 28.1587 96.9545C28.1385 96.9337 28.0981 96.9129 28.0577 96.9337L27.3507 97.0584L27.2497 97.1C27.2093 97.1208 27.1689 97.1623 27.1689 97.2247V97.3286C27.2093 97.7236 27.3103 98.0977 27.5123 98.4303C27.7143 98.7837 27.9567 99.0539 28.2799 99.241C28.5627 99.428 28.8455 99.532 29.1283 99.5735C29.2091 99.5735 29.2697 99.5943 29.3505 99.5943C29.5525 99.5943 29.7545 99.5527 29.9363 99.4696C30.1787 99.3449 30.3807 99.1786 30.5221 98.9084C30.7645 98.5134 30.8251 98.0977 30.7039 97.7236C30.5827 97.3702 30.3605 96.9961 30.0171 96.6219C29.7545 96.3517 29.6131 96.1438 29.5525 95.9983C29.5121 95.8736 29.5323 95.7489 29.6131 95.6242C29.7141 95.4371 29.7949 95.3747 29.9363 95.3747Z" fill="#222222"/>
<path d="M78.3158 95.3123C78.134 95.4578 77.9118 95.5409 77.6896 95.5617C77.427 95.5825 77.2048 95.5409 76.9624 95.4578L76.8412 95.4162C76.8008 95.3954 76.7806 95.4162 76.7402 95.4162C76.72 95.437 76.6998 95.4578 76.6796 95.4993L76.5382 96.2269V96.3308C76.5382 96.3931 76.5584 96.4347 76.619 96.4555L76.72 96.4971C76.9624 96.5802 77.2048 96.601 77.4472 96.601C77.5684 96.601 77.7098 96.5802 77.8512 96.5594C78.235 96.4971 78.5784 96.3516 78.8612 96.1229C79.1238 95.9151 79.3258 95.6864 79.4672 95.437C79.6086 95.1668 79.6692 94.8965 79.6692 94.6263C79.649 94.3561 79.5682 94.0859 79.3864 93.8573C79.1036 93.4831 78.7602 93.2752 78.3764 93.2545C78.033 93.2129 77.6088 93.3168 77.124 93.5039C76.821 93.6286 76.5786 93.7117 76.3766 93.7117C76.2352 93.7117 76.1342 93.6494 76.0534 93.5247C75.9726 93.4 75.9524 93.296 75.9928 93.1505C76.0332 92.9842 76.1544 92.8595 76.316 92.714C76.4978 92.5893 76.6594 92.5062 76.821 92.4854C77.0028 92.4646 77.2048 92.4854 77.427 92.5477L77.5482 92.5893C77.5684 92.6101 77.6088 92.5893 77.6492 92.5893C77.6694 92.5685 77.6896 92.5477 77.7098 92.5062L77.8512 91.8202V91.6955C77.8512 91.6331 77.8108 91.5916 77.7704 91.5708L77.6694 91.55C77.326 91.4669 76.9826 91.4461 76.6796 91.5084C76.3766 91.5708 76.0736 91.7163 75.7706 91.9449C75.3666 92.2567 75.1242 92.6101 75.0231 92.9842C74.9221 93.3792 75.0232 93.7741 75.2858 94.1483C75.5888 94.564 76.215 94.9589 77.4472 94.4185C77.7704 94.2938 78.0128 94.2314 78.2148 94.2314C78.3562 94.2314 78.4774 94.3145 78.5784 94.46C78.6794 94.5848 78.6996 94.7095 78.6794 94.855C78.6188 95.0213 78.5178 95.1668 78.3158 95.3123Z" fill="#222222"/>
<path d="M67.1853 98.1186L68.3569 97.5781L69.9325 101.112L69.9931 101.236C70.0133 101.278 70.0537 101.299 70.0941 101.299C70.1143 101.299 70.1345 101.299 70.1345 101.278L70.7001 101.008L70.8011 100.966C70.8213 100.945 70.8415 100.925 70.8617 100.904C70.8819 100.883 70.8819 100.842 70.8617 100.821L69.2255 97.1624L70.2759 96.6635L70.3769 96.622C70.3971 96.6012 70.4173 96.5804 70.4375 96.5596C70.4577 96.5388 70.4577 96.4972 70.4375 96.4765L70.1547 95.8529C70.1345 95.7905 70.0537 95.7697 70.0133 95.7905L66.9227 97.2455L66.8217 97.2871C66.8015 97.3079 66.7813 97.3287 66.7611 97.3495C66.7409 97.3703 66.7409 97.4118 66.7611 97.4326L67.0439 98.0562C67.0641 98.1186 67.1247 98.1393 67.1853 98.1186Z" fill="#222222"/>
<path d="M73.4271 98.659L73.7705 99.2826C73.7907 99.3034 73.8109 99.3242 73.8311 99.345H73.8513C73.8715 99.345 73.8917 99.345 73.9119 99.3242L75.2855 98.4719C75.3461 98.4304 75.3663 98.368 75.3259 98.3057L74.9825 97.6821C74.9623 97.6613 74.9421 97.6405 74.9219 97.6197C74.9017 97.6197 74.8613 97.6197 74.8411 97.6405L74.5785 97.8068L73.0231 95.0838L73.2857 94.9175C73.3463 94.876 73.3665 94.8136 73.3261 94.7512L72.9827 94.1277C72.9625 94.1069 72.9423 94.0861 72.9221 94.0653C72.9019 94.0653 72.8615 94.0653 72.8413 94.0861L71.4677 94.9383C71.4475 94.9591 71.4273 94.9799 71.4071 95.0007C71.4071 95.0215 71.4071 95.063 71.4273 95.0838L71.7909 95.6866C71.8313 95.749 71.8919 95.749 71.9525 95.7282L72.2151 95.5619L73.7907 98.2849L73.5281 98.4512C73.4069 98.5343 73.3867 98.5967 73.4271 98.659Z" fill="#222222"/>
<path d="M66.034 102.816L66.0744 102.858C66.0946 102.879 66.1552 102.899 66.1754 102.879L66.9632 102.629C67.0036 102.608 67.0238 102.588 67.044 102.546C67.044 102.504 67.044 102.463 67.0036 102.442L65.3472 100.883C65.529 100.717 65.6502 100.53 65.731 100.322C65.8522 100.01 65.8724 99.6775 65.7714 99.3242C65.6906 99.0539 65.5492 98.8253 65.3472 98.6382C65.1452 98.4511 64.923 98.3264 64.6402 98.2849C64.3776 98.2433 64.0948 98.2641 63.812 98.3472L62.398 98.8045L62.2768 98.8461C62.2566 98.8461 62.2162 98.8669 62.2162 98.9084C62.196 98.9292 62.196 98.9708 62.2162 98.9916L63.5898 103.461L63.6302 103.585C63.6504 103.627 63.6908 103.668 63.7312 103.668C63.7514 103.668 63.7514 103.668 63.7716 103.668L64.4786 103.44C64.4988 103.44 64.5392 103.419 64.5392 103.377C64.5594 103.357 64.5594 103.315 64.5392 103.294L63.9938 101.486L64.4584 101.34L66.034 102.816ZM63.7514 100.613L63.408 99.4489L64.0544 99.241C64.2564 99.1787 64.4382 99.1787 64.5594 99.241C64.7008 99.3034 64.7816 99.4281 64.8422 99.6152C64.9028 99.8022 64.8826 99.9477 64.822 100.093C64.7614 100.218 64.62 100.322 64.3978 100.384L63.7514 100.613Z" fill="#222222"/>
<path d="M82.4363 92.5686L82.5373 92.6725C82.5575 92.6933 82.5979 92.7141 82.6181 92.7141C82.6383 92.7141 82.6787 92.6933 82.6989 92.6725L83.2443 92.1529C83.2847 92.1113 83.2847 92.0282 83.2443 91.9866L80.5577 89.0557L81.4869 88.1412C81.5273 88.0996 81.5273 88.0164 81.4869 87.9749L81.0223 87.476C80.9819 87.4344 80.9011 87.4344 80.8607 87.476L78.3761 89.908L78.2953 89.9911C78.2751 90.0119 78.2549 90.0327 78.2549 90.0743C78.2549 90.0951 78.2751 90.1366 78.2953 90.1574L78.7599 90.6563C78.8003 90.6979 78.8811 90.6979 78.9215 90.6563L79.8507 89.7625L82.4363 92.5686Z" fill="#222222"/>
<path d="M43.5312 11.6484L44.2382 11.5445H44.319C44.3796 11.5445 44.42 11.5029 44.42 11.4406L44.723 8.92546C44.7432 8.80074 44.7432 8.69681 44.7634 8.59288C44.8038 8.69681 44.8442 8.77996 44.8846 8.88389L45.7532 11.1288L45.7936 11.2119C45.8138 11.2535 45.8744 11.2951 45.9148 11.2951L46.6016 11.1911H46.6824C46.743 11.1911 46.7834 11.1496 46.7834 11.0872L47.3894 6.3272L47.4096 6.1817C47.4096 6.14012 47.4096 6.09855 47.3692 6.07777C47.349 6.05698 47.3086 6.03619 47.2682 6.03619L46.4198 6.16091C46.3592 6.16091 46.339 6.20248 46.3188 6.26484L46.0562 8.69681L46.036 8.88389C46.036 8.96703 46.0158 9.02939 46.0158 9.11254C45.9754 8.98782 45.9148 8.8631 45.8744 8.73839L45.0462 6.55585L45.0058 6.4727C44.9856 6.43113 44.925 6.38956 44.8846 6.41034L44.1978 6.51427H44.0968C44.0362 6.51427 43.9958 6.55585 43.9958 6.6182L43.713 9.09175C43.6928 9.23725 43.6726 9.38276 43.6726 9.52826C43.612 9.38276 43.5716 9.23725 43.511 9.11254L42.6424 6.82607C42.6222 6.78449 42.5616 6.74292 42.5212 6.74292L41.6526 6.86764C41.6122 6.86764 41.592 6.88842 41.5718 6.93C41.5516 6.95078 41.5516 6.99235 41.5718 7.03393L43.41 11.5653C43.4302 11.6277 43.4706 11.6484 43.5312 11.6484Z" fill="#222222"/>
<path d="M52.9443 10.8586C52.9443 10.8794 52.9443 10.921 52.9645 10.9418C52.9847 10.9625 53.0049 10.9833 53.0453 10.9833L53.8735 11.0249C53.9341 11.0249 53.9947 10.9833 53.9947 10.921L54.0755 8.9463L55.7319 6.30646C55.7521 6.26489 55.7521 6.22332 55.7319 6.18175C55.7117 6.14017 55.6713 6.11939 55.6309 6.11939L54.7421 6.07782H54.6815C54.6411 6.07782 54.6007 6.0986 54.5805 6.14017L53.7725 7.5952C53.7119 7.69913 53.6715 7.78228 53.6311 7.86542C53.5705 7.71992 53.5099 7.57442 53.4291 7.40813L52.8635 6.11939L52.8433 6.05703C52.8231 6.01546 52.7827 5.99467 52.7423 5.99467L51.7929 5.9531C51.7525 5.93231 51.7121 5.97389 51.6919 6.01546C51.6717 6.05703 51.6717 6.0986 51.6919 6.14017L53.0251 8.92551L52.9443 10.7755V10.8586Z" fill="#222222"/>
<path d="M58.5195 11.6275C58.6609 11.6483 58.8023 11.6691 58.9235 11.6691C60.0951 11.6691 60.9637 10.8169 61.1859 9.445C61.4283 7.9484 60.7213 6.78438 59.4083 6.55573C59.2669 6.53495 59.1457 6.51416 59.0043 6.51416C57.8529 6.51416 56.9439 7.38718 56.7217 8.73827C56.6005 9.445 56.7217 10.1102 57.0247 10.6298C57.3883 11.1702 57.8933 11.5236 58.5195 11.6275ZM57.8327 8.92535C57.9741 8.05233 58.4589 7.51189 59.0447 7.51189C59.1053 7.51189 59.1659 7.51189 59.2467 7.53268C60.0345 7.67818 60.2567 8.53041 60.1355 9.27871C60.0547 9.81915 59.8123 10.2557 59.4891 10.5051C59.2669 10.6714 59.0043 10.7337 58.7215 10.6922C58.4589 10.6506 58.2165 10.5051 58.0751 10.2764C57.8327 9.92308 57.7519 9.445 57.8327 8.92535Z" fill="#222222"/>
<path d="M69.8719 9.96462C69.8921 9.94383 69.8921 9.90226 69.8719 9.88147C69.8517 9.86069 69.8315 9.81911 69.8113 9.81911L69.1649 9.52811L69.0639 9.48654C69.0437 9.46575 69.0033 9.46575 68.9831 9.48654C68.9629 9.50732 68.9225 9.52811 68.9225 9.54889L67.1045 13.7893L67.0641 13.8932C67.0439 13.9555 67.0641 14.0179 67.1247 14.0387L67.8721 14.3921C67.8923 14.4128 67.9327 14.4128 67.9529 14.3921C67.9731 14.3713 68.0135 14.3505 68.0135 14.3297L68.7003 12.7292L68.9023 12.6252L69.2861 14.9117V14.9741C69.2861 15.0156 69.3265 15.0572 69.3467 15.0572L70.2557 15.4729C70.2759 15.4729 70.2961 15.4937 70.2961 15.4937C70.3163 15.4937 70.3365 15.4937 70.3567 15.4729C70.3971 15.4521 70.3971 15.4106 70.3971 15.369L69.8517 12.2303L72.1343 11.1079C72.1747 11.0871 72.1949 11.0455 72.1949 11.0039C72.1949 10.9623 72.1747 10.9208 72.1343 10.9L71.1849 10.4635C71.1445 10.4427 71.1243 10.4427 71.0839 10.4635L69.2457 11.4196L69.8113 10.0893L69.8719 9.96462Z" fill="#222222"/>
<path d="M66.3774 9.92324C66.4986 9.50751 66.4582 9.11258 66.2562 8.80079C66.034 8.40585 65.6502 8.15642 65.0038 7.96934C64.5998 7.84463 64.1756 7.7407 63.8726 7.71991H63.7918C63.7514 7.71991 63.6908 7.76148 63.6908 7.80305L62.4182 12.1681L62.3778 12.2721C62.3778 12.2928 62.3778 12.3344 62.3778 12.3552C62.398 12.376 62.4182 12.3968 62.4384 12.4176L63.2262 12.667C63.2868 12.6878 63.3474 12.6462 63.3676 12.5839L63.8726 10.8378L64.1352 10.921C64.519 11.0665 64.5998 11.2328 64.5594 11.7732C64.519 12.5007 64.4988 12.8125 64.5392 12.9788L64.5594 13.0411C64.5594 13.0827 64.5998 13.1035 64.6402 13.1243L65.4886 13.3945C65.5088 13.3945 65.5088 13.3945 65.529 13.3945C65.5492 13.3945 65.5896 13.3737 65.6098 13.3737C65.63 13.3529 65.6502 13.3114 65.6502 13.2698L65.6098 13.0411C65.5694 12.8749 65.6098 12.3344 65.63 11.8148C65.6502 11.4406 65.6098 11.1288 65.4684 10.9002C65.9128 10.7339 66.236 10.4013 66.3774 9.92324ZM65.3472 9.6738C65.2462 10.0272 64.9028 10.1727 64.4786 10.0272L64.1554 9.92324L64.4786 8.80079C64.5594 8.82157 64.6604 8.84236 64.7816 8.88393C65.428 9.09179 65.4078 9.42437 65.3472 9.6738Z" fill="#222222"/>
<path d="M39.7133 8.42643C39.7739 8.40564 39.8143 8.34328 39.7941 8.28093L39.5921 7.55341C39.5921 7.53263 39.5719 7.49105 39.5315 7.49105C39.5113 7.47027 39.4709 7.47027 39.4507 7.49105L37.0469 8.21857L36.9459 8.26014C36.8853 8.28092 36.8449 8.34328 36.8651 8.40564L38.1377 12.8331L38.1781 12.9578C38.1781 12.9786 38.1983 13.0202 38.2387 13.0202C38.2589 13.0202 38.2791 13.0409 38.2993 13.0409C38.3195 13.0409 38.3195 13.0409 38.3397 13.0409L40.8445 12.2926L40.9455 12.2511C41.0061 12.2303 41.0465 12.1679 41.0263 12.1056L40.8243 11.3781C40.8041 11.3157 40.7435 11.2741 40.6829 11.2949L38.9659 11.8146L38.6629 10.7545L40.0769 10.318L40.1779 10.2764C40.2385 10.2556 40.2789 10.1932 40.2587 10.1309L40.0567 9.40337C40.0567 9.38259 40.0365 9.34102 39.9961 9.34102C39.9759 9.32023 39.9355 9.32023 39.9153 9.34102L38.4003 9.79831L38.1579 8.92529L39.6729 8.468L39.7133 8.42643Z" fill="#222222"/>
<path d="M32.0777 10.2556L32.0171 10.2141C31.9767 10.1933 31.9363 10.1933 31.9161 10.1933L31.2495 10.4843L31.1485 10.5258C31.0879 10.5466 31.0677 10.6298 31.0879 10.6713L32.8655 14.9325L32.9261 15.0572C32.9463 15.078 32.9665 15.0988 32.9867 15.1196C33.0069 15.1196 33.0069 15.1196 33.0271 15.1196C33.0473 15.1196 33.0473 15.1196 33.0675 15.1196L33.7947 14.8078C33.8149 14.787 33.8351 14.7662 33.8553 14.7454C33.8755 14.7246 33.8755 14.6831 33.8553 14.6623L33.0675 12.7707C32.9463 12.5005 32.8453 12.2511 32.7443 12.0224C32.9463 12.1679 33.1281 12.3134 33.2897 12.4174L35.5117 13.9971C35.5521 14.0179 35.5925 14.0179 35.6127 14.0179L36.2389 13.7477L36.3399 13.7061C36.4005 13.6853 36.4207 13.623 36.4005 13.5606L34.6229 9.27868L34.5825 9.17475C34.5623 9.15396 34.5421 9.13318 34.5219 9.11239C34.5017 9.09161 34.4613 9.09161 34.4411 9.11239L33.8149 9.4034L33.7139 9.44497C33.6533 9.46575 33.6331 9.5489 33.6533 9.59047L34.4209 11.4404C34.5017 11.6483 34.6027 11.8769 34.7239 12.1264C34.5825 12.0224 34.4209 11.8977 34.2795 11.7938L32.0777 10.2556Z" fill="#222222"/>
<path d="M24.5229 96.4765L25.1087 96.9545C25.1289 96.9753 25.1491 96.9753 25.1693 96.9753C25.1895 96.9753 25.1895 96.9753 25.2097 96.9753C25.2501 96.9546 25.2703 96.9338 25.2905 96.8922L26.8257 92.0075C26.8459 91.9659 26.8257 91.9035 26.7853 91.8827L26.2803 91.4878C26.2399 91.467 26.1995 91.4462 26.1591 91.4878L22.0989 94.1484L21.9574 94.2316C21.917 94.2524 21.9171 94.2939 21.8969 94.3147C21.8969 94.3563 21.9171 94.3979 21.9373 94.4186L22.5433 94.8967C22.5837 94.9175 22.6443 94.9383 22.6847 94.8967L23.6947 94.19L24.8663 95.1254L24.4825 96.331C24.4825 96.3933 24.4825 96.4557 24.5229 96.4765ZM24.5027 93.6703L25.5531 92.9844L25.1693 94.2108L24.5027 93.6703Z" fill="#222222"/>
<path d="M23.634 90.4069L23.7148 90.49C23.7552 90.5316 23.836 90.5316 23.8764 90.49L24.341 89.9911C24.3814 89.9496 24.3814 89.8664 24.341 89.8248L22.4826 88.0165L22.4018 87.9333C22.3614 87.8917 22.2806 87.8917 22.2402 87.9333L19.1091 91.363L19.0283 91.4462C18.9879 91.4877 18.9879 91.5709 19.0283 91.6124L19.5737 92.1321C19.5939 92.1529 19.6141 92.1737 19.6545 92.1737C19.6747 92.1737 19.7151 92.1529 19.7353 92.1321L21.0686 90.6563L21.9372 91.5085L22.018 91.5917C22.0584 91.6332 22.1392 91.6332 22.1796 91.5917L22.624 91.0928C22.6442 91.072 22.6644 91.0304 22.6644 91.0096C22.6644 90.9889 22.6442 90.9473 22.624 90.9265L21.6746 89.9911L22.4018 89.2013L23.634 90.4069Z" fill="#222222"/>
<path d="M0.870698 41.0191C1.5373 41.227 2.2039 40.8528 2.4261 40.1877C9.11232 18.0713 28.666 3.18842 51.1688 3.06371C74.3181 3.18842 93.8919 18.0713 100.578 40.1877C100.78 40.8528 101.467 41.227 102.134 41.0191C102.457 40.9152 102.719 40.6865 102.861 40.3955C103.022 40.0837 103.043 39.7512 102.942 39.4186C95.9523 16.3044 75.5503 0.735666 51.391 0.507019C51.3102 0.507019 51.2496 0.507019 51.1688 0.507019C51.088 0.507019 51.0072 0.507019 50.9466 0.507019C27.454 0.735666 7.05191 16.3044 0.0626966 39.4186C-0.0383036 39.7512 0.00209649 40.0837 0.143497 40.3955C0.305097 40.6865 0.567698 40.9152 0.870698 41.0191Z" fill="#222222"/>
<path d="M101.95 59.0823L102.03 59.0407C102.475 58.7705 102.657 58.2508 102.475 57.752C102.333 57.3363 101.889 56.9205 101.142 57.1492C100.071 57.5649 98.8994 58.0014 97.647 58.4587C96.5966 58.8536 95.627 59.2694 94.7382 59.7059C94.3948 59.2694 93.9706 58.8329 93.506 58.4379C92.8394 57.8767 92.2132 57.461 91.6274 57.17L91.6072 57.1492L91.5668 57.1284C91.2638 57.0037 90.9406 57.0245 90.6174 57.2323C90.1326 57.5857 89.5064 57.8975 88.759 58.1885C87.9712 58.5003 87.1228 58.7705 86.234 58.9991C85.3452 59.2278 84.4766 59.4149 83.608 59.5604C82.396 59.7474 81.4264 59.789 80.8002 59.7474C80.8608 59.6227 80.9012 59.498 80.9012 59.3525C80.9416 58.8121 80.6385 58.3548 80.1537 58.2716C80.0325 58.2508 79.9114 58.2093 79.8103 58.1677C79.9114 58.1053 80.0124 58.043 80.1537 57.9806C80.3961 57.8975 80.6588 57.8143 80.9416 57.752C81.2244 57.6896 81.487 57.6688 81.7496 57.6688C82.3354 57.6688 82.7394 57.2323 82.7394 56.6087C82.7394 55.9852 82.3354 55.5487 81.7496 55.5487C81.3254 55.5487 80.881 55.611 80.4366 55.7149C79.972 55.8189 79.5478 55.9852 79.1842 56.193C78.7802 56.4009 78.4569 56.6711 78.1741 56.9621C78.0529 57.0868 77.952 57.2323 77.8711 57.3986C76.4167 58.1261 74.9825 58.6666 73.6089 59.0199C72.0939 59.4149 70.9223 59.6227 70.1345 59.6227C69.8113 59.6227 69.6699 59.498 69.5891 59.4149C69.3669 59.1446 69.1851 58.8744 69.0639 58.6666C68.9225 58.3963 68.7609 58.1053 68.5791 57.8143C68.2761 57.357 67.8317 57.1076 67.3267 57.1076C66.8015 57.1076 66.2965 57.2739 65.7713 57.5857L66.5389 53.2414C68.3569 53.0543 70.2759 52.9088 72.1949 52.8049C72.5787 52.8465 72.8413 52.701 73.0029 52.5555C73.2251 52.3684 73.3261 52.0774 73.3261 51.7448C73.3261 51.1004 72.8817 50.6431 72.2151 50.6431C69.4881 50.7471 66.8621 50.9549 64.4381 51.2667C62.3373 51.5369 60.2163 51.8903 58.1357 52.306C58.1155 52.1397 58.0549 52.015 57.9943 51.9319C57.8933 51.7656 57.6711 51.5577 57.2873 51.4954C56.7419 51.4122 56.2773 51.7032 56.0955 52.2021C56.0147 52.3892 55.9743 52.5762 55.9541 52.7425C55.2067 52.9088 54.4391 53.0751 53.6917 53.2414L50.9849 53.865C50.5607 53.9273 50.3385 54.1352 50.2375 54.3015C50.1163 54.4678 50.0153 54.7796 50.1163 55.1953C50.2173 55.611 50.4597 55.8189 50.6415 55.9228C50.9041 56.0683 51.1869 56.0683 51.4697 55.9644C52.3787 55.7357 53.2473 55.5279 54.0553 55.3616C54.5603 55.2576 55.0653 55.1329 55.5703 55.029C55.5097 55.5902 55.4895 56.1307 55.4895 56.6503C55.4895 56.879 55.4895 57.1076 55.5097 57.357C54.3583 57.6688 53.0251 57.8351 51.5303 57.8351C50.9647 57.8351 50.3991 57.8143 49.8335 57.7728C49.3891 57.7312 48.9447 57.6688 48.5205 57.5857C48.5003 57.5025 48.4801 57.4194 48.4397 57.3363C48.1569 56.6711 47.5913 56.5464 47.0863 56.7127C46.7833 56.8374 46.5005 57.0452 46.2379 57.3155C45.7531 57.5233 45.2481 57.6896 44.8037 57.8559C43.2281 58.4379 42.2383 58.7913 42.2585 59.6227C42.0767 59.6435 41.7131 59.6435 40.9455 59.5396C40.6223 59.498 40.3597 59.4564 40.1375 59.4564C39.4709 59.4564 38.9457 59.3317 38.5619 59.0823C38.4407 58.9991 38.3397 58.9368 38.2589 58.8536C38.4811 58.7289 38.6831 58.5834 38.8851 58.4587C39.5113 58.1053 40.0971 57.752 40.5819 57.3778C41.4707 56.6919 42.2181 55.9852 42.8241 55.2576C43.4503 54.5301 43.9149 53.7818 44.2179 53.0335C44.5411 52.2852 44.7027 51.5785 44.7027 50.9757C44.7027 50.2482 44.5007 49.6454 44.1169 49.1881C43.6927 48.6892 43.0867 48.4398 42.3191 48.4398C41.5515 48.4398 40.7435 48.6892 39.9355 49.1881C39.1679 49.6662 38.4609 50.2898 37.8145 51.0796C37.1681 51.8695 36.6227 52.7841 36.2187 53.8234C35.7945 54.8835 35.5925 56.006 35.5925 57.17C35.5925 57.4402 35.6127 57.7312 35.6531 58.0014C31.6535 60.2463 27.2296 61.93 22.523 63.0316C19.3516 63.7799 16.3014 64.1541 13.433 64.1541C10.0596 64.1333 6.7064 63.7592 5.2318 60.7868C3.39359 57.1284 4.82779 52.0774 9.4738 45.7584C12.9482 41.04 17.877 37.1945 23.735 34.6586C31.2697 31.3952 36.4611 31.6239 39.6123 35.3238C39.9759 35.7395 40.5213 35.7811 40.9253 35.4069C41.3091 35.0536 41.4909 34.4092 41.0465 33.8896C37.8347 30.0857 32.5625 29.2958 25.8156 31.6239C23.4724 32.4345 21.2302 33.453 19.1496 34.6378C26.0984 23.1431 38.1983 16.1382 51.5101 16.1382C66.0541 16.1382 79.1236 24.4735 85.6482 37.9221C85.8502 38.3586 86.2946 38.6288 86.7592 38.6288C86.9612 38.6288 87.143 38.5872 87.3046 38.4833C87.9106 38.1715 88.1732 37.4024 87.8702 36.7788C80.78 22.4988 66.8419 13.6023 51.3687 13.6023C35.8753 13.6023 21.9574 22.478 15.0086 36.7788C14.9278 36.9451 14.8874 37.153 14.8874 37.34C12.827 38.8782 10.9686 40.6035 9.3526 42.5158C5.757 46.7354 1.63619 53.0128 2.50479 59.0199C3.39359 65.1518 9.0092 66.2535 13.332 66.2535C14.9884 66.2535 16.463 66.0872 17.3922 65.9833C23.9774 65.2558 30.502 63.1564 36.2995 59.9345C36.3803 60.0384 36.4611 60.1632 36.5419 60.2671C37.2893 61.1401 38.4609 61.5974 40.0163 61.5974C40.9253 61.5974 41.9959 61.4103 43.2079 61.0154C43.7735 60.8283 44.3795 60.5997 45.0259 60.2879C45.0461 60.5165 45.0865 60.7244 45.1673 60.9115C45.2683 61.2233 45.6319 61.93 46.6823 61.93C47.4701 61.93 48.1165 61.535 48.4801 60.7868C48.6417 60.475 48.7427 60.1632 48.8235 59.8514C49.0659 59.8722 49.3487 59.8929 49.6113 59.9137C50.1769 59.9553 50.7829 59.9553 51.4091 59.9553C53.0453 59.9553 54.4997 59.789 55.7521 59.4772C55.8935 59.9345 56.0753 60.371 56.3177 60.766C56.6813 61.3895 57.1863 61.9092 57.8125 62.3457C58.4387 62.7822 59.2265 63.0524 60.1355 63.1564C60.7617 63.2395 61.2465 62.8861 61.3677 62.3041C61.4283 62.0131 61.3677 61.7013 61.2061 61.4727C61.0849 61.3064 60.8425 61.0778 60.3981 61.0362C59.8123 60.953 59.3275 60.7867 58.9841 60.5373C58.6205 60.2879 58.3175 59.9553 58.0953 59.5812C57.8731 59.207 57.7115 58.7705 57.6105 58.2716C57.5095 57.752 57.4691 57.2115 57.4691 56.6503C57.4691 56.2346 57.4893 55.8189 57.5499 55.3824L57.6711 54.5509C59.9133 54.1144 62.1555 53.7403 64.3169 53.4493L62.9635 60.9946C62.8625 61.535 63.1453 62.0131 63.6907 62.1586C64.1553 62.2833 64.6199 62.0963 64.8219 61.7221C65.4683 60.766 66.0137 60.08 66.4581 59.6851C66.7207 59.4357 66.9227 59.3109 67.0641 59.2694C67.1045 59.3317 67.1449 59.4357 67.1853 59.5396C67.3873 60.0177 67.6903 60.475 68.0337 60.8907C68.4781 61.4519 69.1851 61.7221 70.1143 61.7221C70.5789 61.7221 71.1647 61.6598 71.8515 61.535C72.5181 61.4103 73.2655 61.244 74.0533 61.0362C74.8411 60.8283 75.6895 60.5581 76.5581 60.2255C76.9823 60.0592 77.4065 59.8929 77.8307 59.7059C77.8105 59.8098 77.8105 59.8929 77.8105 59.9761C77.8105 60.4334 77.9722 61.244 79.1236 61.6182C80.174 61.9508 81.6688 62.0547 83.9312 61.6805C84.8604 61.535 85.83 61.3272 86.7794 61.0778C87.749 60.8283 88.6782 60.5165 89.567 60.1632C90.2134 59.9137 90.779 59.6435 91.2638 59.3525C91.5668 59.5396 91.89 59.789 92.2334 60.0592C92.496 60.2671 92.7182 60.475 92.9202 60.6828C92.5768 60.9115 92.2738 61.1609 92.0314 61.3895C91.5264 61.8884 91.284 62.4081 91.284 62.9693C91.284 63.4266 91.4456 63.8215 91.7688 64.1541C92.092 64.4867 92.4758 64.653 92.9202 64.653C93.7686 64.653 94.4554 64.3827 94.9604 63.8215C95.4654 63.2811 95.7078 62.6367 95.7078 61.9092C95.7078 61.8053 95.7078 61.7221 95.6876 61.6182C96.4956 61.2648 97.4248 60.8699 98.455 60.4542C99.7074 59.9761 100.859 59.5188 101.95 59.0823ZM38.0165 54.6341C38.3195 53.8234 38.7235 53.0959 39.2285 52.4931C39.7133 51.8903 40.2385 51.4122 40.8041 51.0589C41.3293 50.7263 41.7939 50.5808 42.2181 50.5808C42.4605 50.5808 42.5211 50.5808 42.5211 50.9965C42.5211 51.3291 42.3999 51.7656 42.1979 52.2645C41.9555 52.8049 41.6121 53.3453 41.1273 53.9066C40.6425 54.4886 40.0163 55.0706 39.2689 55.6318C38.7841 56.006 38.1983 56.3593 37.5721 56.6711C37.6125 55.9644 37.7539 55.2784 38.0165 54.6341Z" fill="#222222"/>
<path d="M102.111 69.9948C101.445 69.787 100.778 70.1611 100.556 70.8263C93.8697 92.9427 74.3161 107.826 51.1466 107.95C28.664 107.826 9.11037 92.9427 2.42416 70.8471C2.22216 70.1819 1.53536 69.8078 0.86876 70.0156C0.545559 70.1196 0.282959 70.3482 0.141559 70.6392C-0.0200416 70.951 -0.0402416 71.2836 0.0607585 71.6162C7.04997 94.7095 27.452 110.299 50.9446 110.507C51.0254 110.507 51.1063 110.507 51.1669 110.507C51.2477 110.507 51.3083 110.507 51.389 110.507C75.5483 110.278 95.9503 94.7095 102.94 71.5954C103.041 71.2628 103 70.9302 102.859 70.6184C102.697 70.3274 102.435 70.0988 102.111 69.9948Z" fill="#222222"/>
<path d="M86.6177 72.3853C86.1531 72.3853 85.7289 72.6555 85.5067 73.092C78.9821 86.5198 65.9127 94.8758 51.3687 94.8758C36.8247 94.8758 23.7552 86.5406 17.2306 73.092C17.0892 72.7802 16.8266 72.5516 16.5236 72.4476C16.2004 72.3437 15.8772 72.3645 15.5742 72.5308C15.2712 72.6763 15.0692 72.9465 14.948 73.2583C14.847 73.5909 14.8672 73.9234 15.0086 74.2352C21.9372 88.536 35.8753 97.4117 51.3687 97.4117C66.8419 97.4117 80.7799 88.536 87.7287 74.2352C88.0317 73.6116 87.7894 72.8426 87.1631 72.5308C87.0015 72.4268 86.7995 72.3853 86.6177 72.3853Z" fill="#222222"/>
</g>
<defs>
<clipPath id="clip0_2003_944">
<rect width="103" height="110" fill="white" transform="translate(0 0.507019)"/>
</clipPath>
</defs>
</svg>
