<svg width="136" height="29" viewBox="0 0 136 29" fill="none" xmlns="http://www.w3.org/2000/svg">
<path d="M22.68 13.36C24.3333 13.9733 25.6133 14.8667 26.52 16.04C27.4267 17.2133 27.88 18.6267 27.88 20.28C27.88 22.7333 26.8667 24.64 24.84 26C22.8133 27.3333 19.88 28 16.04 28H0.28L0.28 -1.90735e-06L15.24 -1.90735e-06C18.9733 -1.90735e-06 21.7867 0.666665 23.68 2C25.6 3.33333 26.56 5.10667 26.56 7.32C26.56 8.62667 26.2267 9.8 25.56 10.84C24.92 11.88 23.96 12.72 22.68 13.36ZM9.56 6.6V10.76H13.96C16.0133 10.76 17.04 10.0667 17.04 8.68C17.04 7.29333 16.0133 6.6 13.96 6.6H9.56ZM15.24 21.4C17.32 21.4 18.36 20.6667 18.36 19.2C18.36 17.7333 17.32 17 15.24 17H9.56V21.4H15.24ZM42.4975 28.4C40.0708 28.4 37.8842 27.92 35.9375 26.96C34.0175 25.9733 32.5108 24.6267 31.4175 22.92C30.3242 21.1867 29.7775 19.2267 29.7775 17.04C29.7775 14.8533 30.3242 12.9067 31.4175 11.2C32.5108 9.46667 34.0175 8.12 35.9375 7.16C37.8842 6.2 40.0708 5.72 42.4975 5.72C44.9508 5.72 47.1375 6.2 49.0575 7.16C51.0042 8.12 52.5108 9.46667 53.5775 11.2C54.6708 12.9067 55.2175 14.8533 55.2175 17.04C55.2175 19.2267 54.6708 21.1867 53.5775 22.92C52.5108 24.6267 51.0042 25.9733 49.0575 26.96C47.1375 27.92 44.9508 28.4 42.4975 28.4ZM42.4975 21.36C43.5375 21.36 44.3908 20.9867 45.0575 20.24C45.7242 19.4667 46.0575 18.4 46.0575 17.04C46.0575 15.68 45.7242 14.6267 45.0575 13.88C44.3908 13.1333 43.5375 12.76 42.4975 12.76C41.4575 12.76 40.6042 13.1333 39.9375 13.88C39.2708 14.6267 38.9375 15.68 38.9375 17.04C38.9375 18.4 39.2708 19.4667 39.9375 20.24C40.6042 20.9867 41.4575 21.36 42.4975 21.36ZM69.6069 28.4C67.1802 28.4 64.9935 27.92 63.0469 26.96C61.1269 25.9733 59.6202 24.6267 58.5269 22.92C57.4335 21.1867 56.8869 19.2267 56.8869 17.04C56.8869 14.8533 57.4335 12.9067 58.5269 11.2C59.6202 9.46667 61.1269 8.12 63.0469 7.16C64.9935 6.2 67.1802 5.72 69.6069 5.72C72.0602 5.72 74.2469 6.2 76.1669 7.16C78.1135 8.12 79.6202 9.46667 80.6869 11.2C81.7802 12.9067 82.3269 14.8533 82.3269 17.04C82.3269 19.2267 81.7802 21.1867 80.6869 22.92C79.6202 24.6267 78.1135 25.9733 76.1669 26.96C74.2469 27.92 72.0602 28.4 69.6069 28.4ZM69.6069 21.36C70.6469 21.36 71.5002 20.9867 72.1669 20.24C72.8335 19.4667 73.1669 18.4 73.1669 17.04C73.1669 15.68 72.8335 14.6267 72.1669 13.88C71.5002 13.1333 70.6469 12.76 69.6069 12.76C68.5669 12.76 67.7135 13.1333 67.0469 13.88C66.3802 14.6267 66.0469 15.68 66.0469 17.04C66.0469 18.4 66.3802 19.4667 67.0469 20.24C67.7135 20.9867 68.5669 21.36 69.6069 21.36ZM93.7162 28.4C91.8496 28.4 90.0096 28.2 88.1963 27.8C86.3829 27.4 84.9163 26.88 83.7963 26.24L86.2763 20.28C87.2896 20.8933 88.4896 21.3733 89.8763 21.72C91.2629 22.0667 92.6096 22.24 93.9163 22.24C94.9563 22.24 95.6763 22.16 96.0763 22C96.5029 21.8133 96.7163 21.5467 96.7163 21.2C96.7163 20.8533 96.4496 20.6133 95.9163 20.48C95.4096 20.3467 94.5696 20.2133 93.3963 20.08C91.6096 19.8667 90.0896 19.6 88.8363 19.28C87.5829 18.9333 86.4763 18.28 85.5163 17.32C84.5829 16.36 84.1163 14.9867 84.1163 13.2C84.1163 11.7867 84.5429 10.52 85.3963 9.4C86.2496 8.28 87.5163 7.38667 89.1963 6.72C90.9029 6.05333 92.9429 5.72 95.3163 5.72C96.9696 5.72 98.5829 5.88 100.156 6.2C101.756 6.49333 103.116 6.93333 104.236 7.52L101.756 13.48C99.8363 12.4133 97.7296 11.88 95.4363 11.88C93.4629 11.88 92.4763 12.2267 92.4763 12.92C92.4763 13.2667 92.7429 13.52 93.2763 13.68C93.8096 13.8133 94.6496 13.9467 95.7963 14.08C97.5829 14.2933 99.0896 14.5733 100.316 14.92C101.57 15.2667 102.663 15.92 103.596 16.88C104.556 17.84 105.036 19.2133 105.036 21C105.036 22.36 104.61 23.6 103.756 24.72C102.903 25.84 101.623 26.7333 99.9163 27.4C98.2096 28.0667 96.1429 28.4 93.7162 28.4ZM123.893 27.24C122.533 28.0133 120.68 28.4 118.333 28.4C115.267 28.4 112.907 27.6667 111.253 26.2C109.6 24.7067 108.773 22.48 108.773 19.52V13.92H105.773V7.32H108.773V1.2L117.813 1.2V7.32L122.293 7.32V13.92L117.813 13.92V19.44C117.813 20.1067 117.987 20.6267 118.333 21C118.68 21.3733 119.133 21.56 119.693 21.56C120.467 21.56 121.147 21.36 121.733 20.96L123.893 27.24ZM130.643 28.4C129.123 28.4 127.856 27.92 126.843 26.96C125.856 25.9733 125.363 24.72 125.363 23.2C125.363 21.68 125.856 20.4533 126.843 19.52C127.856 18.56 129.123 18.08 130.643 18.08C132.163 18.08 133.416 18.56 134.403 19.52C135.416 20.4533 135.923 21.68 135.923 23.2C135.923 24.72 135.416 25.9733 134.403 26.96C133.416 27.92 132.163 28.4 130.643 28.4Z" fill="#5375D9"/>
</svg>
