<svg width="585" height="441" viewBox="0 0 585 441" fill="none" xmlns="http://www.w3.org/2000/svg">
<mask id="mask0_2003_1971" style="mask-type:luminance" maskUnits="userSpaceOnUse" x="0" y="0" width="533" height="441">
<path d="M532.348 0.424805H0V440.425H532.348V0.424805Z" fill="white"/>
</mask>
<g mask="url(#mask0_2003_1971)">
<path d="M415.433 63.9346H285.588C282.657 63.9346 280.281 66.3114 280.281 69.243V160.857C280.281 163.788 282.657 166.165 285.588 166.165H415.433C418.361 166.165 420.737 163.788 420.737 160.857V69.243C420.737 66.3114 418.361 63.9346 415.433 63.9346Z" fill="#FEBB94"/>
<path d="M298.932 82.3563H295.087L294.426 84.2324H292.854L296.144 75.0368H297.888L301.177 84.2324H299.592L298.932 82.3563ZM298.509 81.1277L297.016 76.8599L295.51 81.1277H298.509ZM302.106 80.5597C302.106 79.8286 302.256 79.1812 302.555 78.6174C302.863 78.0536 303.277 77.6175 303.797 77.3094C304.325 76.9923 304.911 76.834 305.554 76.834C306.03 76.834 306.496 76.9393 306.955 77.1511C307.421 77.3533 307.791 77.6265 308.064 77.97V74.4556H309.583V84.2324H308.064V83.1355C307.818 83.4881 307.474 83.7787 307.034 84.0079C306.602 84.2366 306.104 84.3509 305.541 84.3509C304.907 84.3509 304.325 84.1927 303.797 83.8756C303.277 83.5495 302.863 83.1006 302.555 82.5278C302.256 81.9466 302.106 81.2907 302.106 80.5597ZM308.064 80.5861C308.064 80.0837 307.958 79.6481 307.747 79.2781C307.544 78.908 307.276 78.6259 306.941 78.4321C306.606 78.2384 306.245 78.1415 305.858 78.1415C305.47 78.1415 305.109 78.2384 304.775 78.4321C304.44 78.6174 304.167 78.8948 303.955 79.2648C303.753 79.6259 303.651 80.0573 303.651 80.5597C303.651 81.0615 303.753 81.5019 303.955 81.8804C304.167 82.2594 304.44 82.5501 304.775 82.7528C305.118 82.9465 305.479 83.0434 305.858 83.0434C306.245 83.0434 306.606 82.9465 306.941 82.7528C307.276 82.5591 307.544 82.2769 307.747 81.9069C307.958 81.5284 308.064 81.0879 308.064 80.5861ZM314.204 84.3509C313.632 84.3509 313.116 84.2498 312.659 84.0471C312.209 83.8359 311.852 83.5543 311.588 83.2017C311.324 82.8407 311.183 82.4399 311.165 81.9995H312.724C312.751 82.3076 312.896 82.5675 313.16 82.7787C313.434 82.9815 313.772 83.0831 314.178 83.0831C314.6 83.0831 314.926 83.0037 315.156 82.8449C315.393 82.6776 315.512 82.4664 315.512 82.2107C315.512 81.9381 315.38 81.7354 315.116 81.603C314.86 81.4712 314.451 81.3256 313.887 81.1674C313.341 81.0176 312.896 80.872 312.553 80.7312C312.209 80.5904 311.909 80.3744 311.654 80.0838C311.408 79.7931 311.284 79.4099 311.284 78.9345C311.284 78.547 311.399 78.1945 311.628 77.8774C311.857 77.5518 312.183 77.2961 312.606 77.1114C313.037 76.9261 313.53 76.834 314.085 76.834C314.913 76.834 315.578 77.0452 316.08 77.4682C316.591 77.8821 316.864 78.4501 316.899 79.1722H315.393C315.367 78.8461 315.234 78.5867 314.997 78.393C314.759 78.1992 314.438 78.1018 314.032 78.1018C313.636 78.1018 313.332 78.177 313.121 78.3268C312.909 78.4766 312.804 78.6746 312.804 78.9213C312.804 79.115 312.874 79.2781 313.015 79.4099C313.156 79.5422 313.328 79.6481 313.53 79.727C313.733 79.7974 314.032 79.89 314.429 80.0043C314.957 80.1457 315.389 80.2907 315.724 80.4405C316.067 80.5814 316.362 80.7931 316.609 81.0747C316.855 81.3563 316.983 81.7311 316.992 82.1975C316.992 82.6115 316.877 82.9815 316.648 83.3076C316.419 83.6331 316.094 83.8888 315.671 84.0736C315.257 84.2588 314.768 84.3509 314.204 84.3509Z" fill="white"/>
<path d="M377.259 121.185C377.259 126.476 375.69 131.647 372.751 136.046C369.812 140.444 365.634 143.873 360.746 145.897C355.859 147.922 350.48 148.452 345.291 147.42C340.103 146.388 335.337 143.84 331.596 140.099C327.855 136.358 325.308 131.592 324.275 126.404C323.244 121.215 323.773 115.837 325.798 110.949C327.822 106.061 331.251 101.884 335.649 98.9446C340.048 96.0055 345.22 94.4365 350.51 94.4365" stroke="white" stroke-width="17.1948" stroke-miterlimit="10"/>
<path d="M355.493 89.3215C362.587 89.3215 369.391 92.1399 374.407 97.1561C379.423 102.172 382.241 108.976 382.241 116.07" stroke="#5375D9" stroke-width="17.1948" stroke-miterlimit="10"/>
<path d="M292.602 146.9H308.258" stroke="white" stroke-width="6.72632" stroke-miterlimit="10" stroke-linecap="round"/>
<path opacity="0.4" d="M292.602 155.665H324.957" stroke="white" stroke-width="6.72632" stroke-miterlimit="10" stroke-linecap="round"/>
<path d="M382.241 146.987H397.897" stroke="white" stroke-width="6.72632" stroke-miterlimit="10" stroke-linecap="round"/>
<path opacity="0.4" d="M382.241 155.753H414.597" stroke="white" stroke-width="6.72632" stroke-miterlimit="10" stroke-linecap="round"/>
<path d="M49.3557 55.4158H237.846C242.852 55.4158 247.653 57.4046 251.193 60.9444C254.733 64.4843 256.722 69.2856 256.722 74.2918V85.5895H30.4797V74.2918C30.4797 69.2856 32.4686 64.4843 36.0084 60.9444C39.5482 57.4046 44.3496 55.4158 49.3557 55.4158Z" fill="#5375D9"/>
<path d="M30.4797 85.5879H256.722V298.963C256.722 302.941 255.142 306.755 252.33 309.567C249.518 312.379 245.704 313.959 241.727 313.959H45.475C41.4979 313.959 37.6838 312.379 34.8719 309.567C32.0594 306.755 30.4797 302.941 30.4797 298.963V85.5879Z" fill="url(#paint0_linear_2003_1971)"/>
<path opacity="0.6" d="M145.853 273.282C189.177 273.282 224.298 238.161 224.298 194.837C224.298 151.514 189.177 116.393 145.853 116.393C102.529 116.393 67.4084 151.514 67.4084 194.837C67.4084 238.161 102.529 273.282 145.853 273.282Z" stroke="white" stroke-width="30" stroke-miterlimit="10"/>
<path d="M51.3747 75.8803C53.9321 75.8803 56.005 73.8073 56.005 71.2499C56.005 68.6931 53.9321 66.6201 51.3747 66.6201C48.8174 66.6201 46.7444 68.6931 46.7444 71.2499C46.7444 73.8073 48.8174 75.8803 51.3747 75.8803Z" fill="white"/>
<path d="M70.0761 75.8803C72.6335 75.8803 74.7065 73.8073 74.7065 71.2499C74.7065 68.6931 72.6335 66.6201 70.0761 66.6201C67.5188 66.6201 65.4458 68.6931 65.4458 71.2499C65.4458 73.8073 67.5188 75.8803 70.0761 75.8803Z" fill="white"/>
<path d="M87.6474 75.8803C90.2042 75.8803 92.2772 73.8073 92.2772 71.2499C92.2772 68.6931 90.2042 66.6201 87.6474 66.6201C85.0901 66.6201 83.0171 68.6931 83.0171 71.2499C83.0171 73.8073 85.0901 75.8803 87.6474 75.8803Z" fill="white"/>
<path d="M299.157 181.826H487.649C492.651 181.826 497.453 183.815 500.994 187.355C504.536 190.895 506.521 195.696 506.521 200.702V212H280.281V200.702C280.281 195.696 282.269 190.895 285.809 187.355C289.35 183.815 294.15 181.826 299.157 181.826Z" fill="#5375D9"/>
<path d="M280.281 212.002H506.521V425.377C506.521 429.355 504.943 433.169 502.132 435.981C499.321 438.793 495.505 440.373 491.529 440.373H295.276C291.299 440.373 287.485 438.793 284.673 435.981C281.861 433.169 280.281 429.355 280.281 425.377V212.002Z" fill="url(#paint1_linear_2003_1971)"/>
<path opacity="0.6" d="M405.155 404.633C448.481 404.633 483.599 369.512 483.599 326.188C483.599 282.865 448.481 247.743 405.155 247.743C361.832 247.743 326.711 282.865 326.711 326.188C326.711 369.512 361.832 404.633 405.155 404.633Z" stroke="white" stroke-width="30" stroke-miterlimit="10"/>
<path d="M301.176 202.294C303.733 202.294 305.806 200.221 305.806 197.664C305.806 195.107 303.733 193.034 301.176 193.034C298.619 193.034 296.546 195.107 296.546 197.664C296.546 200.221 298.619 202.294 301.176 202.294Z" fill="white"/>
<path d="M319.878 202.294C322.434 202.294 324.507 200.221 324.507 197.664C324.507 195.107 322.434 193.034 319.878 193.034C317.32 193.034 315.247 195.107 315.247 197.664C315.247 200.221 317.32 202.294 319.878 202.294Z" fill="white"/>
<path d="M337.449 202.294C340.006 202.294 342.079 200.221 342.079 197.664C342.079 195.107 340.006 193.034 337.449 193.034C334.892 193.034 332.819 195.107 332.819 197.664C332.819 200.221 334.892 202.294 337.449 202.294Z" fill="white"/>
<path d="M370.556 345.929L359.4 440.426H404.224L429.805 346.491L370.556 345.929Z" fill="#1F2D49"/>
<path d="M405.631 435.26L400.359 406.25L410.81 374.578H427.005L405.631 435.26Z" fill="#0D1B33"/>
<path d="M453.59 346.49C453.272 352.161 453.272 357.846 453.59 363.517C454.897 381.849 451.16 433.381 451.192 440.425H411.392C411.226 430.667 408.748 346.891 408.748 346.891L453.59 346.49Z" fill="#1F2D49"/>
<path d="M369.708 352.702L453.59 363.518V346.491L370.557 345.929L369.708 352.702Z" fill="#0D1B33"/>
<path d="M385.607 250.09C387.948 238.532 382.443 238.829 380.61 236.992C380.61 236.992 373.736 231.324 368.498 236.607C362.954 242.197 331.174 285.614 331.174 285.614L351.059 303.902L354.796 299.442L364.479 287.895L374.835 275.552L376.121 274.147L390.092 258.324C390.092 258.324 384.283 256.175 385.607 250.09Z" fill="#FEBB94"/>
<path d="M393.923 252.06C396.604 244.057 392.289 235.396 384.286 232.715C376.283 230.035 367.622 234.349 364.942 242.353C362.261 250.356 366.576 259.017 374.579 261.697C382.582 264.377 391.243 260.063 393.923 252.06Z" fill="#FEBB94"/>
<path d="M375.938 274.086C376.338 271.67 377.141 266.839 378.003 262.435L382.592 241.123C382.592 241.123 370.269 259.335 364.593 272.02C360.389 281.526 355.512 291.215 354.705 299.411L364.386 287.863L374.742 275.521L375.938 274.086Z" fill="#FF967C"/>
<path d="M336.004 229.337C334.969 219.562 337.629 219.089 337.665 213.789C337.684 208.611 345.503 199.024 341.773 199.217C338.044 199.411 335.425 202.975 335.425 202.975C334.872 198.33 335.806 190.599 331.053 187.682C326.299 184.765 325.18 186.177 321.308 187.337C310.974 190.511 316.743 204.186 316.848 208.519C316.942 211.247 321.739 221.449 321.957 223.331L323.485 230.586L336.004 229.337Z" fill="#FFCCB3"/>
<path d="M330.115 201.332L328.701 187.302" stroke="#E56441" stroke-width="1.20133" stroke-linecap="round"/>
<path d="M325.28 201.487L322.981 188.01" stroke="#E56441" stroke-width="1.20133" stroke-linecap="round"/>
<path d="M319.601 201.52L318.439 193.455" stroke="#E56441" stroke-width="1.20133" stroke-linecap="round"/>
<path d="M327.435 212.042C329.124 208.095 333.505 204.296 333.505 204.296L327.435 212.042Z" fill="#E56441"/>
<path d="M327.435 212.042C329.124 208.095 333.505 204.296 333.505 204.296" stroke="#E56441" stroke-width="1.20133" stroke-linecap="round"/>
<path d="M354.111 289.511L337.575 224.232C337.459 223.841 337.203 223.506 336.855 223.293C336.507 223.079 336.093 223.002 335.692 223.076L323.222 225.453C322.626 225.573 322.097 225.911 321.735 226.4C321.375 226.889 321.209 227.495 321.27 228.099L328.14 295.97L354.111 289.511Z" fill="#FEBB94"/>
<path d="M341.496 307.754C348.974 307.754 355.037 301.691 355.037 294.212C355.037 286.734 348.974 280.671 341.496 280.671C334.017 280.671 327.955 286.734 327.955 294.212C327.955 301.691 334.017 307.754 341.496 307.754Z" fill="#FEBB94"/>
<path d="M396.159 225.933C396.159 225.933 380.679 230.501 376.784 232.13C372.889 233.759 372.629 240.277 372.37 244.894C372.187 248.128 371.575 297.059 371.816 327.822C371.867 334.394 370.642 338.564 369.855 342.216C369.639 343.19 369.522 344.182 369.506 345.179C369.5 345.529 369.564 345.877 369.694 346.202C369.824 346.528 370.017 346.824 370.261 347.075C370.506 347.326 370.797 347.526 371.12 347.664C371.442 347.802 371.788 347.875 372.138 347.879L451.387 348.62C451.387 348.62 454.902 349.13 454.055 345.12C453.214 340.735 452.753 336.285 452.679 331.82C451.885 299.869 451.737 246.359 451.393 243.826C450.874 240.024 454.955 236.75 450.53 234.836L429.16 227.061L396.159 225.933Z" fill="#FEBB94"/>
<path d="M435.745 261.253C435.745 261.253 436.947 305.54 436.692 320.302C436.539 329.501 426.021 333.397 425.989 338.723C425.973 341.874 434.49 339.914 438.249 338.689C446.703 335.935 452.266 339.676 452.266 339.676L450.011 258.974L435.745 261.253Z" fill="#FF967C"/>
<path d="M399.736 210.284L404.461 234.966L406.131 236.733C406.131 236.733 405.47 237.524 407.369 235.62C411.846 231.131 423.638 225.66 423.151 223.897C422.452 221.371 420.425 205.636 420.425 205.636L399.736 210.284Z" fill="#FFCCB3"/>
<path d="M399.543 211.922H411.993L398.318 233.164L399.543 211.922Z" fill="#FF967C"/>
<path d="M435.597 201.175C439.233 192.165 428.122 191.022 426.2 190.904C424.279 190.784 425.565 176.207 425.565 176.207C425.565 176.207 405.928 166.315 400.383 168.672C400.383 168.672 392.422 185.151 388.659 196.105C384.897 207.057 386.522 212.951 390.474 214.546C395.714 217.192 402.598 218.032 407.519 216.815C416.285 214.648 421.849 207.651 421.849 207.651C421.997 207.63 422.082 207.62 422.082 207.62C422.082 207.62 432.166 209.685 435.597 201.175Z" fill="#FFCCB3"/>
<path d="M430.319 209.095C437.408 204.148 443.368 198.617 444.496 191.598C446.772 177.454 438.837 174.035 438.837 174.035C444.115 164.014 432.077 158.6 425.867 156.579C405.345 149.901 392.832 157.148 391.958 165.09C391.587 168.416 392.122 171.533 393.808 174.089C393.75 176.54 394.004 178.989 394.563 181.376L397.956 175.098C398.62 175.95 399.492 176.618 400.489 177.036C411.636 182.348 423.072 176.459 423.072 176.459C418.615 181.611 418.583 193.015 418.869 195.397C419.282 198.832 421.405 196.323 421.405 196.323C423.496 192.946 431.267 190.484 433.3 197.487C434.888 202.944 420.574 208.314 420.574 208.314L422.008 216.817C424.676 217.363 424.279 214.543 424.989 215.485C425.698 216.426 427.201 217.032 427.493 214.144C427.784 211.256 430.325 209.091 430.325 209.091L430.319 209.095Z" fill="#BC775C"/>
<path d="M408.115 192.935C408.757 191.695 408.618 190.349 407.805 189.929C406.993 189.509 405.815 190.173 405.173 191.413C404.532 192.653 404.671 193.999 405.483 194.419C406.295 194.839 407.474 194.175 408.115 192.935Z" fill="#080B09"/>
<path d="M396.959 187.073C397.601 185.833 397.462 184.487 396.65 184.067C395.837 183.647 394.659 184.312 394.017 185.551C393.376 186.791 393.515 188.137 394.327 188.557C395.14 188.977 396.318 188.312 396.959 187.073Z" fill="#080B09"/>
<path d="M398.368 191.2C398.368 191.2 399.08 194.436 396.938 193.907C394.91 193.332 393.403 194.208 394.992 196.49" stroke="#E56441" stroke-width="1.20133" stroke-linecap="round"/>
<path d="M394.613 199.172L394.621 199.176L394.629 199.178C395.868 199.608 398.341 200.467 399.977 201.065L399.98 201.066C400.033 201.085 400.08 201.118 400.116 201.161C400.152 201.205 400.174 201.258 400.182 201.314C400.19 201.369 400.182 201.427 400.16 201.478C400.139 201.528 400.104 201.572 400.06 201.604C399.581 201.912 398.965 202.266 398.311 202.539C397.651 202.815 396.974 202.998 396.372 202.982C395.782 202.967 395.272 202.761 394.903 202.257C394.524 201.739 394.266 200.872 394.273 199.482L394.274 199.461L394.27 199.44C394.264 199.396 394.269 199.351 394.285 199.31C394.302 199.269 394.329 199.233 394.363 199.205C394.398 199.178 394.44 199.161 394.484 199.155C394.528 199.149 394.573 199.155 394.613 199.172Z" fill="#E56441" stroke="#E56441"/>
<path d="M413.417 189.705L413.235 189.912C412.996 190.237 412.637 190.453 412.239 190.515C411.841 190.577 411.434 190.479 411.108 190.241L405.608 186.019C405.334 185.826 405.142 185.537 405.07 185.208C404.999 184.88 405.054 184.537 405.223 184.248C405.318 184.065 405.452 183.905 405.614 183.777C405.776 183.65 405.963 183.559 406.163 183.51C406.362 183.46 406.57 183.453 406.773 183.491C406.976 183.527 407.168 183.606 407.338 183.723L413.02 187.739C413.177 187.839 413.313 187.971 413.419 188.125C413.525 188.28 413.599 188.454 413.636 188.638C413.673 188.821 413.673 189.01 413.635 189.193C413.598 189.377 413.524 189.551 413.417 189.705Z" fill="#080B09"/>
<path d="M394.087 178.34L400.913 179.688C401.115 179.73 401.305 179.815 401.471 179.936C401.637 180.058 401.776 180.213 401.878 180.392C401.98 180.571 402.043 180.769 402.062 180.974C402.082 181.179 402.058 181.386 401.991 181.581C401.898 181.904 401.688 182.179 401.401 182.354C401.114 182.529 400.772 182.589 400.442 182.523L393.593 181.45C393.196 181.377 392.845 181.151 392.614 180.819C392.385 180.488 392.295 180.079 392.365 179.682L392.389 179.408C392.427 179.224 392.502 179.051 392.609 178.897C392.716 178.743 392.853 178.613 393.011 178.513C393.17 178.413 393.347 178.347 393.532 178.317C393.717 178.287 393.906 178.295 394.087 178.34Z" fill="#080B09"/>
<path d="M427.482 263.396L376.825 267.783C375.251 267.92 374.086 269.306 374.222 270.88L379.735 334.531C379.871 336.104 381.258 337.27 382.831 337.133L433.484 332.746C435.062 332.61 436.227 331.224 436.089 329.65L430.578 265.999C430.441 264.425 429.054 263.26 427.482 263.396Z" fill="#5375D9"/>
<path d="M382.115 275.207L403.004 273.398" stroke="white" stroke-width="5.04786" stroke-miterlimit="10" stroke-linecap="round"/>
<path d="M382.92 282.732L392.441 281.908" stroke="white" stroke-width="5.04786" stroke-miterlimit="10" stroke-linecap="round"/>
<path d="M451.758 247.294C443.96 237.531 440.456 242.207 437.714 242.445C437.714 242.445 428.434 244.175 429.165 252.024C429.937 260.33 443.595 315.682 443.595 315.682L472.255 313.528L470.894 305.895L468.099 290.174L465.119 273.366L464.849 271.365L461.498 249.252C461.498 249.252 455.797 252.508 451.758 247.294Z" fill="#FEBB94"/>
<path d="M453.685 264.149C461.308 259.47 463.69 249.498 459.015 241.877C454.336 234.256 444.363 231.871 436.74 236.55C429.122 241.228 426.735 251.2 431.414 258.821C436.094 266.442 446.062 268.828 453.685 264.149Z" fill="#FEBB94"/>
<path d="M385.076 317.98L367.003 319.325L362.731 329.401L364.191 341.84C364.191 341.84 367.301 340.573 367.623 336.173C367.945 331.773 382.332 334.894 386.093 330.061" fill="#FFCCB3"/>
<path d="M454.013 301.68L383.896 314.898C383.475 314.995 383.104 315.244 382.856 315.598C382.608 315.952 382.499 316.385 382.551 316.814L384.248 330.157C384.337 330.795 384.659 331.377 385.153 331.791C385.646 332.204 386.276 332.42 386.92 332.394L459.148 329.569L454.013 301.68Z" fill="#FEBB94"/>
<path d="M458.163 329.678C466.088 329.678 472.509 323.255 472.509 315.331C472.509 307.406 466.088 300.983 458.163 300.983C450.239 300.983 443.812 307.406 443.812 315.331C443.812 323.255 450.239 329.678 458.163 329.678Z" fill="#FEBB94"/>
<path d="M170.515 195.839L194.908 298.843L196.665 313.96H155.072L127.572 247.441L132.652 197.6L170.515 195.839Z" fill="#1F2D49"/>
<path d="M144.693 288.853L150.708 237.961L152.698 308.217L144.693 288.853Z" fill="#0D1B33"/>
<path d="M104.674 195.517C104.674 195.517 93.3004 214.623 93.1511 230.623C92.9272 254.637 91.2152 313.96 91.2152 313.96H141.398L150.708 237.963L137.262 195.517H104.674Z" fill="#1F2D49"/>
<path d="M170.515 195.839L104.282 196.519L97.8458 209.839L171.634 200.565L170.515 195.839Z" fill="#0D1B33"/>
<path d="M246.906 89.6033L250.432 82.2118C251.135 80.5083 252.239 78.9991 253.649 77.8118C255.802 76.0628 259.014 72.9776 259.804 70.4298C261.145 66.3616 267.422 54.7855 258.439 48.8593C255.116 46.6746 255.938 47.1834 250.546 48.466C245.155 49.7481 245.569 55.5457 243.679 59.8198C243.679 59.8198 242.133 55.7156 238.715 54.4415C235.297 53.1673 239.902 64.556 238.596 69.5484C237.291 74.5403 239.524 75.8235 235.823 84.9058L246.906 89.6033Z" fill="#FFCCB3"/>
<path d="M251.512 48.9304L249.327 59.8792" stroke="#E56441" stroke-width="1.20536" stroke-linecap="round"/>
<path d="M257.64 49.4321L253.901 61.4031" stroke="#E56441" stroke-width="1.20536" stroke-linecap="round"/>
<path d="M262.783 55.6182L259.388 63.0229" stroke="#E56441" stroke-width="1.20536" stroke-linecap="round"/>
<path d="M245.312 61.8281C245.312 61.8281 248.353 66.7449 248.962 71.0152L245.312 61.8281Z" fill="#E56441"/>
<path d="M245.312 61.8281C245.312 61.8281 248.353 66.7449 248.962 71.0152" stroke="#E56441" stroke-width="1.20536" stroke-linecap="round"/>
<path d="M152.031 99.8202C157.383 98.6488 165.437 97.986 169.222 100.43L206.913 126.485L236.334 78.4006L249.504 85.6868L222.432 146.208C218.451 156.522 208.529 156.368 202.465 152.85L182.798 143.237L152.031 99.8202Z" fill="#5661AE"/>
<path d="M175.968 124.84C175.968 124.84 175.894 121.739 183.206 133.686L202.465 152.851L182.799 143.238C164.818 136.013 170.443 127.701 175.968 124.84Z" fill="#465393"/>
<path d="M151.637 92.6188C151.637 92.6188 164.989 97.9019 167.028 99.5328C169.066 101.163 171.002 114.473 174.467 120.793C177.933 127.112 183.003 138.776 175.598 149.49C168.193 160.204 168.98 168.712 168.98 168.712L170.556 195.588L106.74 196.764C106.178 196.782 105.618 196.68 105.098 196.465C104.579 196.251 104.111 195.928 103.725 195.519C103.339 195.11 103.045 194.624 102.861 194.092C102.677 193.561 102.608 192.997 102.659 192.437C103.368 184.601 106.607 173.597 106.862 161.119C107.207 144.209 107.465 87.7069 107.465 87.7069L135.265 86.8345C140.865 87.8 151.637 92.6188 151.637 92.6188Z" fill="#5661AE"/>
<path d="M175.167 150.126C175.167 150.126 166.462 151.998 159.236 152.374C152.01 152.749 155.766 158.377 162.401 159.068C169.036 159.76 170.322 160.233 170.322 160.233C171.524 156.681 173.151 153.287 175.167 150.126Z" fill="#465393"/>
<path d="M105.813 173.041L103.579 185.996C103.579 185.996 105.052 189.86 111.927 192.231C118.802 194.601 124.966 193.889 128.995 189.385C133.025 184.881 147.067 164.078 147.067 164.078L105.813 173.041Z" fill="#465393"/>
<path d="M118.406 110.804C118.406 110.804 127.707 119.284 128.254 125.575C128.801 131.867 130.066 149.409 142.018 151.158C156.668 153.303 160.503 155.391 153.711 157.032C146.92 158.674 131.507 156.014 131.507 163.05C131.507 168.057 125.518 171.803 122.509 169.068C119.5 166.332 95.5345 124.755 118.406 110.804Z" fill="#465393"/>
<path d="M180.259 98.6255L173.004 114.31L186.137 119.925L193.979 102.118L180.259 98.6255Z" fill="#96BAFD"/>
<path d="M177.885 106.42L191.201 108.756L189.524 111.9L177.885 107.842V106.42Z" fill="#96BAFD"/>
<path d="M185.327 81.5679C181.838 80.2392 177.932 81.9909 176.604 85.4799L175.417 88.5989C174.088 92.0879 175.84 95.9936 179.329 97.3217C182.818 98.6504 186.724 96.8988 188.053 93.4097L189.239 90.2907C190.568 86.8017 188.816 82.8961 185.327 81.5679Z" fill="#5375D9"/>
<path d="M201.484 83.3384C220.013 91.0078 238.855 84.5162 238.855 84.5162L220.597 132.311C220.597 132.311 208.458 112.783 192.573 106.745C186.72 104.52 201.484 83.3384 201.484 83.3384Z" fill="#96BAFD"/>
<path d="M236.179 110.908C241.255 97.5763 242.838 85.8049 239.715 84.6154C236.591 83.4264 229.945 93.2699 224.869 106.601C219.794 119.933 218.211 131.704 221.334 132.893C224.457 134.083 231.104 124.239 236.179 110.908Z" fill="white"/>
<path d="M236.181 110.907C241.256 97.5756 243.204 85.9434 240.532 84.9259C237.858 83.908 231.577 93.8907 226.501 107.222C221.426 120.554 219.478 132.186 222.151 133.204C224.823 134.221 231.105 124.239 236.181 110.907Z" fill="#5375D9"/>
<path d="M191.371 79.4898L204.16 84.3589L195.249 107.766L182.459 102.896C181.673 102.597 180.954 102.146 180.343 101.569C179.731 100.992 179.239 100.3 178.895 99.5326C178.551 98.7655 178.362 97.9381 178.337 97.0975C178.313 96.2569 178.455 95.42 178.754 94.6344L183.109 83.1954C183.408 82.4098 183.859 81.6904 184.436 81.079C185.013 80.4676 185.705 79.9753 186.472 79.6312C187.239 79.2871 188.067 79.0976 188.907 79.0732C189.748 79.0489 190.585 79.1907 191.371 79.4898Z" fill="url(#paint2_linear_2003_1971)"/>
<path d="M194.686 85.8228L188.225 83.3629C187.676 83.1538 187.061 83.4296 186.852 83.9791C186.643 84.5285 186.919 85.1431 187.468 85.3522L193.929 87.8122C194.478 88.0213 195.093 87.7455 195.302 87.196C195.511 86.6465 195.235 86.0319 194.686 85.8228Z" fill="white"/>
<path d="M192.537 90.2462L186.077 87.7862C185.527 87.5771 184.913 87.8529 184.703 88.4024C184.494 88.9519 184.77 89.5665 185.319 89.7756L191.78 92.2355C192.329 92.4446 192.944 92.1688 193.153 91.6193C193.362 91.0699 193.086 90.4553 192.537 90.2462Z" fill="white"/>
<path d="M228.965 101.223L229.756 101.552C230.94 102.044 231.889 102.973 232.406 104.147C232.923 105.32 232.968 106.647 232.533 107.853C232.299 108.5 231.934 109.092 231.461 109.591C230.988 110.09 230.416 110.486 229.783 110.754C229.149 111.021 228.467 111.155 227.779 111.147C227.091 111.138 226.413 110.988 225.786 110.704L225.31 110.489C225.31 110.489 226.718 105.076 228.965 101.223Z" fill="url(#paint3_linear_2003_1971)"/>
<path d="M163.281 125.901L169.412 118.988C169.412 118.988 168.855 112.857 169.412 110.515C169.97 108.174 169.969 107.171 171.53 105.944C173.091 104.718 177.885 102.265 177.885 102.265V107.839L192.334 111.797C192.334 111.797 194.447 115.154 191.201 116.987C193.009 119.713 190.78 121.983 190.78 121.983C190.78 121.983 191.926 125.1 189.084 125.696C189.084 125.696 189.589 128.033 186.514 129.021C186.514 129.021 185.601 130.554 181.935 131.013C180.925 131.139 177.885 131.413 177.885 131.413L172.089 137.16L163.281 125.901Z" fill="#FFCCB3"/>
<path d="M164.792 124.198L175.5 133.778L176.706 132.582L165.512 123.385L164.792 124.198Z" fill="#FCBA9F"/>
<path d="M190.912 116.994C190.912 116.994 187.714 116.7 186.202 116.156L190.912 116.994Z" fill="#E56441"/>
<path d="M190.912 116.994C190.912 116.994 187.714 116.7 186.202 116.156" stroke="#E56441" stroke-width="1.20536" stroke-linecap="round"/>
<path d="M190.318 121.89C190.318 121.89 187.119 121.595 185.607 121.051L190.318 121.89Z" fill="#E56441"/>
<path d="M190.318 121.89C190.318 121.89 187.119 121.595 185.607 121.051" stroke="#E56441" stroke-width="1.20536" stroke-linecap="round"/>
<path d="M189.061 125.611C189.061 125.611 185.862 125.317 184.35 124.772L189.061 125.611Z" fill="#E56441"/>
<path d="M189.061 125.611C189.061 125.611 185.862 125.317 184.35 124.772" stroke="#E56441" stroke-width="1.20536" stroke-linecap="round"/>
<path d="M186.202 129C186.202 129 183.003 128.706 181.491 128.161L186.202 129Z" fill="#E56441"/>
<path d="M186.202 129C186.202 129 183.003 128.706 181.491 128.161" stroke="#E56441" stroke-width="1.20536" stroke-linecap="round"/>
<path d="M121.571 100.936C121.571 100.936 118.784 85.2649 106.247 87.5931C97.842 89.1542 94.5494 93.8438 95.7648 106.345C96.6139 115.086 102.949 154.065 105.227 169.989C107.564 186.332 122.109 189.215 131.927 181.088L177.479 135.548L163.461 123.008L128.238 151.982L121.571 100.936Z" fill="#5661AE"/>
<path fill-rule="evenodd" clip-rule="evenodd" d="M165.509 98.625L152.793 93.0815C150.512 104.348 151.487 101.967 149.916 102.815C149.916 102.815 136.5 103.326 133.043 86.9573L118.315 87.4459C118.315 87.4459 114.183 98.7107 131.741 104.18C128.979 110.781 138.691 122.073 151.093 109.35C159.687 122.161 165.463 110.212 161.313 105.573C167.516 101.962 165.509 98.625 165.509 98.625Z" fill="white"/>
<path d="M153.327 78.5414L152.576 99.5497C152.576 99.5497 153.604 104.15 148.882 103.64C144.161 103.129 137.805 99.4115 134.232 95.328C130.659 91.2451 130.903 90.9174 132.434 88.2377C133.965 85.5581 141.155 65.1348 141.155 65.1348L153.327 78.5414Z" fill="#FFCCB3"/>
<path d="M153.22 80.3033L144.515 74.7593C144.515 74.7593 148.371 91.6888 152.577 99.5499L153.22 80.3033Z" fill="#FCBA9F"/>
<path d="M143.493 23.0398C143.733 19.0045 142.853 14.9819 140.95 11.4156C137.802 5.72438 131.264 -2.14671 121.334 1.24386C111.405 4.63442 104.14 12.2631 107.894 23.0398C111.647 33.8166 122.075 37.2654 127.389 36.1172C132.702 34.969 143.493 23.0398 143.493 23.0398Z" fill="#493212"/>
<path d="M146.691 24.5374C146.12 23.5729 145.264 22.809 144.241 22.3501C143.218 21.8911 142.078 21.7598 140.978 21.9737C137.049 22.6979 132.914 25.7994 129.398 29.5219C125.883 33.2438 125.997 35.9452 127.594 37.5931C129.191 39.2404 146.691 24.5374 146.691 24.5374Z" fill="#5375D9"/>
<path d="M175.93 49.1651C175.93 49.1651 173.835 69.4063 163.986 78.6231C157.564 84.634 151.675 83.0941 142.893 71.0648C134.841 60.0356 134.133 54.6715 134.133 54.6715L142.643 35.525C142.643 35.525 176.932 30.6443 175.93 49.1651Z" fill="#FFCCB3"/>
<path d="M172.445 45.2003C172.445 45.2003 167.6 52.9137 158.724 53.0386C158.724 53.0386 153.375 58.0506 145.224 55.4139C145.224 55.4139 148.763 50.0445 145.224 48.1632C139.213 44.9685 137.143 55.6214 140.348 59.3317C142.527 61.853 142.65 66.4241 141.025 69.0492C139.4 71.6743 137.053 76.5397 137.053 76.5397C137.053 76.5397 132.338 72.6854 129.848 70.0391C121.185 60.834 119.768 39.1338 134.08 28.7774C148.39 18.4204 163.455 26.706 166.279 28.7774C166.279 28.7774 181.317 31.4036 181.344 47.0425C181.366 60.4121 171.851 63.593 171.851 63.593L174.691 52.8009C174.691 52.8009 172.934 52.9894 172.445 45.2003Z" fill="#493212"/>
<path d="M156.633 70.5193L163.019 73.6521C162.991 73.6843 162.959 73.7198 162.924 73.7569C162.727 73.967 162.44 74.2386 162.079 74.4842C161.359 74.9733 160.368 75.3471 159.205 74.9691C157.415 74.2005 156.807 73.0099 156.628 72.0248C156.537 71.5235 156.557 71.0677 156.6 70.7369C156.61 70.6559 156.622 70.5833 156.633 70.5193Z" fill="#E56441" stroke="#E56441"/>
<path d="M171.581 63.3058C171.867 62.1512 171.462 61.0581 170.679 60.8644C169.895 60.6712 169.029 61.4504 168.744 62.6054C168.459 63.76 168.862 64.8531 169.646 65.0463C170.43 65.2401 171.296 64.4603 171.581 63.3058Z" fill="#080B09"/>
<path d="M159.964 60.6122C160.249 59.4576 159.845 58.3645 159.061 58.1708C158.278 57.9775 157.411 58.7568 157.127 59.9118C156.841 61.0664 157.246 62.1595 158.029 62.3527C158.813 62.5465 159.679 61.7667 159.964 60.6122Z" fill="#080B09"/>
<path d="M174.153 58.8191L168.242 57.4618C168.143 57.4306 168.059 57.3644 168.005 57.2755C167.952 57.1871 167.932 57.0823 167.95 56.9801C168.016 56.8065 168.116 56.6477 168.245 56.5137C168.374 56.3798 168.528 56.2729 168.699 56.2004C168.87 56.1278 169.055 56.0908 169.24 56.0913C169.426 56.0913 169.61 56.1294 169.781 56.203L174.417 58.1669C174.803 58.2622 174.636 58.9382 174.153 58.8191Z" fill="#080B09"/>
<path d="M154.302 53.527L162.003 55.9398C162.054 55.6995 162.054 55.4512 162.004 55.2104C161.953 54.97 161.853 54.7424 161.709 54.5428C161.566 54.3433 161.382 54.176 161.169 54.0521C160.957 53.9283 160.721 53.8499 160.477 53.8224L154.325 53.0204C154.132 52.9727 154.013 53.4555 154.302 53.527Z" fill="#080B09"/>
<path d="M165.5 61.1841L166.335 67.4184L164.133 68.4813" stroke="#E56441" stroke-width="1.22499" stroke-linecap="round"/>
<path d="M249.003 329.679H37.2471C33.5098 329.679 30.4797 332.71 30.4797 336.447V402.574C30.4797 406.312 33.5098 409.342 37.2471 409.342H249.003C252.741 409.342 255.771 406.312 255.771 402.574V336.447C255.771 332.71 252.741 329.679 249.003 329.679Z" fill="#5375D9"/>
<path d="M79.4394 205.467H3.57849C1.60185 205.467 0 207.07 0 209.046V234.384C0 236.36 1.60185 237.962 3.57849 237.962H79.4394C81.4155 237.962 83.0173 236.36 83.0173 234.384V209.046C83.0173 207.07 81.4155 205.467 79.4394 205.467Z" fill="#FEBB94"/>
<path d="M100.51 369.119H105.819C106.283 369.118 106.728 368.933 107.055 368.605C107.384 368.276 107.568 367.831 107.568 367.367C107.568 366.903 107.384 366.457 107.055 366.129C106.728 365.801 106.283 365.616 105.819 365.615H100.51C100.046 365.615 99.6005 365.799 99.2717 366.128C98.943 366.456 98.7588 366.902 98.7588 367.367C98.7588 367.832 98.943 368.277 99.2717 368.606C99.6005 368.934 100.046 369.119 100.51 369.119Z" fill="white"/>
<path d="M90.3191 350.115C90.3191 349.834 90.2518 349.557 90.1221 349.308C89.9925 349.058 89.8045 348.843 89.5748 348.681C89.3445 348.52 89.0788 348.416 88.8003 348.378C88.5219 348.341 88.2381 348.371 87.9735 348.466L55.0857 360.306H47.4296C46.9648 360.306 46.5191 360.491 46.1909 360.82C45.8621 361.148 45.6774 361.593 45.6774 362.058V372.674C45.6774 373.139 45.8621 373.585 46.1909 373.913C46.5191 374.242 46.9648 374.426 47.4296 374.426H53.6395V388.598C53.6395 388.829 53.685 389.057 53.7729 389.269C53.8608 389.482 53.99 389.675 54.1525 389.838C54.3155 390 54.5087 390.129 54.721 390.217C54.9338 390.306 55.1614 390.351 55.3917 390.351H64.6804C64.9107 390.351 65.1389 390.305 65.3511 390.217C65.5639 390.129 65.7572 390 65.9197 389.838C66.0822 389.675 66.2113 389.481 66.2992 389.269C66.3876 389.056 66.4326 388.829 66.4326 388.598V378.511L87.9735 386.266C88.2381 386.361 88.5219 386.391 88.8003 386.354C89.0788 386.316 89.3445 386.213 89.5743 386.051C89.8045 385.889 89.9925 385.675 90.1221 385.425C90.2513 385.176 90.3191 384.899 90.3191 384.618V350.115ZM49.1817 370.922V363.81H53.6395V370.922H49.1817ZM62.9288 386.846H57.1439V375.167L62.9288 377.249V386.846ZM57.1439 371.443V363.29L86.8152 352.608V382.125L57.1439 371.443Z" fill="white"/>
<path d="M100.423 380.725L97.7686 378.071C97.6061 377.908 97.4129 377.779 97.2001 377.691C96.9878 377.603 96.7602 377.558 96.5299 377.558C96.2996 377.558 96.072 377.603 95.8592 377.691C95.6469 377.779 95.4537 377.908 95.2907 378.071C95.1282 378.233 94.999 378.426 94.9111 378.639C94.8232 378.851 94.7777 379.08 94.7777 379.309C94.7777 379.54 94.8232 379.768 94.9111 379.98C94.999 380.193 95.1282 380.385 95.2907 380.549L97.9449 383.203C98.1079 383.365 98.3006 383.494 98.5134 383.582C98.7262 383.67 98.9539 383.716 99.1841 383.716C99.4139 383.716 99.642 383.67 99.8543 383.582C100.067 383.494 100.26 383.365 100.423 383.203C100.585 383.04 100.715 382.846 100.802 382.634C100.891 382.421 100.936 382.194 100.936 381.964C100.936 381.734 100.891 381.506 100.802 381.293C100.715 381.081 100.585 380.887 100.423 380.725Z" fill="white"/>
<path d="M95.2907 356.661C95.6194 356.99 96.0651 357.174 96.5299 357.174C96.9947 357.174 97.4404 356.99 97.7686 356.661L100.423 354.007C100.752 353.679 100.936 353.233 100.936 352.769C100.936 352.304 100.752 351.858 100.423 351.53C100.094 351.201 99.6484 351.016 99.1836 351.016C98.7194 351.016 98.2736 351.201 97.9449 351.53L95.2907 354.184C94.9625 354.512 94.7777 354.958 94.7777 355.423C94.7777 355.887 94.9625 356.333 95.2907 356.661Z" fill="white"/>
<path d="M129.496 351.521H164.151" stroke="white" stroke-width="14.8881" stroke-miterlimit="10" stroke-linecap="round"/>
<path d="M129.496 390.323H193.715" stroke="white" stroke-width="14.8881" stroke-miterlimit="10" stroke-linecap="round"/>
<path opacity="0.4" d="M129.496 370.922H211.699" stroke="white" stroke-width="14.8881" stroke-miterlimit="10" stroke-linecap="round"/>
<path d="M528.478 259.506H489.427C487.294 259.506 485.563 261.237 485.563 263.372V299.003C485.563 301.138 487.294 302.869 489.427 302.869H528.478C530.617 302.869 532.348 301.138 532.348 299.003V263.372C532.348 261.237 530.617 259.506 528.478 259.506Z" fill="#5375D9"/>
<path d="M36.0136 228.561C35.4065 228.561 34.8596 228.456 34.3737 228.248C33.8877 228.031 33.506 227.728 33.2281 227.337C32.9507 226.947 32.8115 226.491 32.8115 225.971H34.3996C34.4345 226.361 34.5865 226.682 34.8554 226.934C35.1328 227.185 35.5192 227.311 36.0136 227.311C36.5255 227.311 36.9247 227.19 37.2111 226.947C37.4974 226.695 37.6409 226.374 37.6409 225.984C37.6409 225.68 37.5493 225.433 37.3672 225.242C37.1936 225.051 36.9723 224.903 36.7034 224.799C36.4435 224.695 36.0787 224.582 35.6103 224.461C35.02 224.305 34.5383 224.148 34.1656 223.992C33.8009 223.827 33.4886 223.576 33.2281 223.237C32.9682 222.899 32.838 222.448 32.838 221.884C32.838 221.363 32.9682 220.907 33.2281 220.517C33.4886 220.126 33.8533 219.827 34.3218 219.619C34.7903 219.411 35.3323 219.306 35.9485 219.306C36.8251 219.306 37.5409 219.528 38.0962 219.97C38.6605 220.404 38.9728 221.003 39.0337 221.766H37.3932C37.3672 221.437 37.2111 221.155 36.9247 220.92C36.6383 220.686 36.2609 220.569 35.7924 220.569C35.3673 220.569 35.02 220.677 34.7511 220.894C34.4822 221.112 34.3477 221.424 34.3477 221.831C34.3477 222.109 34.4303 222.339 34.5949 222.521C34.7686 222.695 34.9856 222.834 35.2455 222.938C35.506 223.042 35.8617 223.155 36.3133 223.276C36.912 223.441 37.3979 223.606 37.7706 223.771C38.1528 223.936 38.4736 224.192 38.734 224.539C39.0029 224.877 39.1374 225.333 39.1374 225.905C39.1374 226.365 39.0119 226.8 38.76 227.207C38.517 227.615 38.157 227.945 37.6795 228.197C37.211 228.439 36.6558 228.561 36.0136 228.561ZM44.5978 221.181C45.1446 221.181 45.6306 221.298 46.0557 221.532C46.4897 221.766 46.828 222.114 47.071 222.574C47.3224 223.033 47.4484 223.589 47.4484 224.24V228.47H45.9778V224.461C45.9778 223.819 45.8169 223.328 45.4961 222.99C45.1748 222.643 44.7365 222.469 44.1812 222.469C43.6259 222.469 43.1833 222.643 42.8535 222.99C42.5327 223.328 42.3723 223.819 42.3723 224.461V228.47H40.8885V218.838H42.3723V222.131C42.6238 221.827 42.9403 221.593 43.3225 221.428C43.7127 221.263 44.1378 221.181 44.5978 221.181ZM48.8464 224.851C48.8464 224.131 48.9941 223.493 49.289 222.938C49.5928 222.383 50.0005 221.953 50.5124 221.649C51.0332 221.337 51.606 221.181 52.2307 221.181C52.7944 221.181 53.2852 221.294 53.7012 221.519C54.1268 221.736 54.4651 222.009 54.7166 222.339V221.298H56.2136V228.47H54.7166V227.402C54.4651 227.741 54.1221 228.023 53.6885 228.248C53.2544 228.474 52.76 228.587 52.2047 228.587C51.5886 228.587 51.0242 228.43 50.5124 228.118C50.0005 227.797 49.5928 227.355 49.289 226.791C48.9941 226.218 48.8464 225.571 48.8464 224.851ZM54.7166 224.877C54.7166 224.382 54.6128 223.953 54.4042 223.589C54.2047 223.224 53.94 222.947 53.6102 222.756C53.2804 222.565 52.9247 222.469 52.543 222.469C52.1613 222.469 51.8056 222.565 51.4758 222.756C51.146 222.938 50.8771 223.211 50.6685 223.576C50.469 223.931 50.3694 224.356 50.3694 224.851C50.3694 225.346 50.469 225.78 50.6685 226.153C50.8771 226.526 51.146 226.812 51.4758 227.012C51.8141 227.203 52.1698 227.298 52.543 227.298C52.9247 227.298 53.2804 227.203 53.6102 227.012C53.94 226.821 54.2047 226.543 54.4042 226.179C54.6128 225.806 54.7166 225.372 54.7166 224.877ZM59.6465 222.339C59.863 221.975 60.1494 221.693 60.5051 221.493C60.8699 221.285 61.2992 221.181 61.7941 221.181V222.717H61.4162C60.8349 222.717 60.3924 222.864 60.0891 223.159C59.7937 223.454 59.6465 223.966 59.6465 224.695V228.47H58.1622V221.298H59.6465V222.339ZM69.7309 224.708C69.7309 224.977 69.7134 225.22 69.679 225.437H64.199C64.2424 226.01 64.4552 226.47 64.8369 226.816C65.2186 227.164 65.6871 227.337 66.2424 227.337C67.0406 227.337 67.605 227.003 67.9347 226.335H69.5355C69.3185 226.994 68.9241 227.537 68.3513 227.962C67.787 228.379 67.084 228.587 66.2424 228.587C65.5568 228.587 64.9412 228.435 64.3944 228.131C63.8565 227.819 63.4309 227.385 63.1186 226.83C62.8153 226.265 62.6633 225.615 62.6633 224.877C62.6633 224.139 62.8105 223.493 63.1059 222.938C63.4092 222.374 63.8301 221.94 64.3684 221.636C64.9147 221.333 65.5399 221.181 66.2424 221.181C66.9194 221.181 67.5224 221.328 68.0517 221.623C68.5811 221.918 68.9935 222.335 69.2883 222.873C69.5832 223.402 69.7309 224.014 69.7309 224.708ZM68.1819 224.24C68.1735 223.693 67.9782 223.254 67.5965 222.925C67.2143 222.595 66.7416 222.43 66.1773 222.43C65.6654 222.43 65.2276 222.595 64.8629 222.925C64.4986 223.246 64.2816 223.684 64.2123 224.24H68.1819Z" fill="white"/>
<path d="M21.9166 223.985C21.4031 223.985 20.8965 224.098 20.4323 224.317C19.968 224.535 19.5577 224.853 19.2306 225.249L15.0613 222.882C15.3292 222.128 15.3292 221.304 15.0613 220.55L19.2301 218.182C19.7875 218.853 20.5752 219.29 21.4391 219.409C22.303 219.527 23.1796 219.318 23.8964 218.822C24.6137 218.326 25.1187 217.579 25.3124 216.729C25.5062 215.879 25.3749 214.988 24.944 214.23C24.5126 213.472 23.8133 212.903 22.9838 212.635C22.1543 212.367 21.2543 212.42 20.4614 212.783C19.6689 213.145 19.0406 213.792 18.7012 214.595C18.3614 215.398 18.3344 216.299 18.6261 217.12L14.4573 219.488C13.9989 218.935 13.3811 218.537 12.6882 218.348C11.9953 218.159 11.261 218.188 10.585 218.432C9.90957 218.675 9.32569 219.121 8.91278 219.709C8.49988 220.297 8.27808 220.997 8.27808 221.716C8.27808 222.434 8.49988 223.134 8.91278 223.723C9.32516 224.31 9.90957 224.756 10.585 225C11.261 225.243 11.9953 225.273 12.6882 225.084C13.3811 224.895 13.9989 224.497 14.4568 223.943L18.6261 226.311C18.3788 227.009 18.3603 227.768 18.5731 228.478C18.7859 229.188 19.2189 229.811 19.8097 230.259C20.4005 230.706 21.1188 230.954 21.8594 230.966C22.6005 230.978 23.3257 230.754 23.9313 230.326C24.5364 229.898 24.9895 229.289 25.2256 228.587C25.4612 227.884 25.4675 227.125 25.2431 226.419C25.0186 225.712 24.5756 225.096 23.9774 224.659C23.3792 224.221 22.6577 223.985 21.9166 223.985ZM21.9166 213.685C22.3655 213.685 22.8043 213.818 23.1775 214.068C23.5512 214.317 23.8419 214.671 24.0139 215.086C24.186 215.501 24.231 215.957 24.1431 216.398C24.0557 216.838 23.8392 217.243 23.5221 217.56C23.2045 217.877 22.8001 218.093 22.3597 218.181C21.9192 218.269 21.4629 218.224 21.0479 218.052C20.6329 217.88 20.2787 217.589 20.0294 217.216C19.7801 216.842 19.6467 216.403 19.6472 215.954C19.6477 215.353 19.887 214.776 20.3126 214.35C20.7377 213.925 21.3147 213.685 21.9166 213.685ZM11.7719 223.985C11.323 223.985 10.8841 223.852 10.5109 223.603C10.1377 223.354 9.84657 222.999 9.67506 222.585C9.50302 222.17 9.45802 221.714 9.54537 221.273C9.63324 220.833 9.84923 220.428 10.1663 220.111C10.4839 219.794 10.8884 219.578 11.3288 219.49C11.7687 219.402 12.225 219.447 12.64 219.619C13.0545 219.791 13.4087 220.082 13.6585 220.455C13.9079 220.828 14.0407 221.267 14.0407 221.716C14.0402 222.317 13.8009 222.894 13.3753 223.32C12.9502 223.745 12.3732 223.984 11.7719 223.985ZM21.9166 229.746C21.4677 229.746 21.0288 229.613 20.6551 229.364C20.2819 229.115 19.9908 228.76 19.8192 228.346C19.6472 227.931 19.6022 227.474 19.6896 227.034C19.7774 226.593 19.9934 226.189 20.311 225.872C20.6281 225.554 21.0325 225.338 21.473 225.25C21.9134 225.163 22.3697 225.207 22.7847 225.38C23.1992 225.552 23.5539 225.842 23.8032 226.216C24.0526 226.589 24.1854 227.028 24.1854 227.477C24.1849 228.079 23.9456 228.655 23.52 229.081C23.0949 229.506 22.5179 229.745 21.9166 229.746Z" fill="white"/>
<path d="M494.393 287.774L501.19 280.976C501.635 280.532 502.238 280.282 502.863 280.282C503.493 280.282 504.096 280.532 504.541 280.976L509.856 286.293C510.3 286.737 510.904 286.987 511.534 286.987C512.158 286.987 512.762 286.737 513.206 286.293L521.899 277.603" stroke="white" stroke-width="5.16228" stroke-miterlimit="10" stroke-linecap="round"/>
<path d="M517.865 276.041H522.698C522.915 276.041 523.127 276.128 523.281 276.282C523.434 276.436 523.519 276.646 523.519 276.864V281.237" stroke="white" stroke-width="5.16228" stroke-miterlimit="10" stroke-linecap="round"/>
<path d="M410.932 193.852C412.152 191.075 411.427 188.072 409.315 187.145C407.203 186.217 404.502 187.716 403.283 190.493C402.064 193.27 402.788 196.273 404.9 197.201C407.012 198.128 409.713 196.629 410.932 193.852Z" stroke="#080B09" stroke-miterlimit="10"/>
<path d="M398.813 188.673C400.032 185.896 399.308 182.893 397.196 181.966C395.083 181.038 392.382 182.538 391.163 185.315C389.944 188.092 390.668 191.095 392.781 192.022C394.893 192.95 397.594 191.45 398.813 188.673Z" stroke="#080B09" stroke-miterlimit="10"/>
<path d="M398.814 188.676C398.814 188.676 401.732 188.624 403.283 190.493" stroke="#080B09" stroke-miterlimit="10"/>
<path d="M410.579 194.543H423.151" stroke="#080B09" stroke-miterlimit="10"/>
<path d="M151.093 109.35C151.093 109.35 151.954 120.964 151.093 130.17" stroke="#96BAFD" stroke-miterlimit="10"/>
<path fill-rule="evenodd" clip-rule="evenodd" d="M408.321 228.742C420.06 221.391 422.008 216.816 422.008 216.816L426.952 226.395L413.238 236.732C412.689 235.28 412.017 233.879 411.229 232.543L407.369 235.618L408.321 228.742ZM394.116 226.334L399.181 222.544C399.181 222.544 398.783 226.055 404.026 228.443L404.462 234.965L401.923 232.504L398.544 236.966L394.116 226.334Z" fill="#5375D9"/>
<path d="M407.369 235.619L408.322 228.742L411.229 232.543L407.369 235.619Z" fill="#5375D9"/>
<path d="M404.026 228.443L401.924 232.504L404.462 234.965L404.026 228.443Z" fill="#5375D9"/>
<path d="M404.461 234.966L406.061 254.728C406.083 255.005 406.199 255.265 406.388 255.467C406.578 255.67 406.83 255.802 407.105 255.842C407.285 255.869 407.469 255.855 407.643 255.802C407.818 255.748 407.977 255.656 408.112 255.533C408.246 255.41 408.351 255.258 408.419 255.089C408.488 254.92 408.517 254.738 408.507 254.556L407.369 235.62L406.131 236.733L404.461 234.966Z" fill="#5375D9"/>
<path d="M411.497 243.575C412.341 243.575 413.025 242.891 413.025 242.047C413.025 241.203 412.341 240.518 411.497 240.518C410.652 240.518 409.968 241.203 409.968 242.047C409.968 242.891 410.652 243.575 411.497 243.575Z" fill="#5375D9"/>
<path d="M411.994 252.577C412.838 252.577 413.522 251.893 413.522 251.049C413.522 250.204 412.838 249.52 411.994 249.52C411.149 249.52 410.465 250.204 410.465 251.049C410.465 251.893 411.149 252.577 411.994 252.577Z" fill="#5375D9"/>
</g>
<defs>
<linearGradient id="paint0_linear_2003_1971" x1="137.968" y1="85.0448" x2="190.947" y2="569.135" gradientUnits="userSpaceOnUse">
<stop stop-color="white"/>
<stop offset="1" stop-color="#94B9FF"/>
</linearGradient>
<linearGradient id="paint1_linear_2003_1971" x1="387.77" y1="211.459" x2="440.747" y2="695.547" gradientUnits="userSpaceOnUse">
<stop stop-color="white"/>
<stop offset="1" stop-color="#94B9FF"/>
</linearGradient>
<linearGradient id="paint2_linear_2003_1971" x1="194.328" y1="80.5517" x2="182.219" y2="132.399" gradientUnits="userSpaceOnUse">
<stop stop-color="white"/>
<stop offset="1" stop-color="#94B9FF"/>
</linearGradient>
<linearGradient id="paint3_linear_2003_1971" x1="228.883" y1="101.199" x2="231.868" y2="122.061" gradientUnits="userSpaceOnUse">
<stop stop-color="white"/>
<stop offset="1" stop-color="#94B9FF"/>
</linearGradient>
</defs>
</svg>
