<svg width="586" height="598" viewBox="0 0 586 598" fill="none" xmlns="http://www.w3.org/2000/svg">
<mask id="mask0_2003_858" style="mask-type:luminance" maskUnits="userSpaceOnUse" x="0" y="0" width="586" height="599">
<path d="M585.734 0H0.733887V598.007H585.734V0Z" fill="white"/>
</mask>
<g mask="url(#mask0_2003_858)">
<path d="M303.609 533.431C440.981 533.431 552.341 418.706 552.341 277.184C552.341 135.662 440.981 20.9365 303.609 20.9365C166.236 20.9365 54.873 135.662 54.873 277.184C54.873 418.706 166.236 533.431 303.609 533.431Z" stroke="#D1E8F7" stroke-width="1.91649" stroke-miterlimit="10"/>
<path d="M101.258 135.749C106.096 135.749 110.019 131.708 110.019 126.723C110.019 121.738 106.096 117.698 101.258 117.698C96.4196 117.698 92.4971 121.738 92.4971 126.723C92.4971 131.708 96.4196 135.749 101.258 135.749Z" fill="#FEBB94"/>
<path d="M552.341 295.968C557.182 295.968 561.107 291.928 561.107 286.943C561.107 281.958 557.182 277.917 552.341 277.917C547.507 277.917 543.582 281.958 543.582 286.943C543.582 291.928 547.507 295.968 552.341 295.968Z" fill="#5661AE"/>
<path d="M313.811 542.456C318.649 542.456 322.571 538.415 322.571 533.431C322.571 528.447 318.649 524.406 313.811 524.406C308.972 524.406 305.05 528.447 305.05 533.431C305.05 538.415 308.972 542.456 313.811 542.456Z" fill="#5375D9"/>
<path d="M309.371 470.025C411.848 470.025 494.921 384.443 494.921 278.872C494.921 173.3 411.848 87.7177 309.371 87.7177C206.894 87.7177 123.821 173.3 123.821 278.872C123.821 384.443 206.894 470.025 309.371 470.025Z" stroke="#D1E8F7" stroke-width="1.42966" stroke-miterlimit="10"/>
<path d="M491.741 324.109C495.35 324.109 498.276 321.095 498.276 317.377C498.276 313.658 495.35 310.644 491.741 310.644C488.131 310.644 485.205 313.658 485.205 317.377C485.205 321.095 488.131 324.109 491.741 324.109Z" fill="#FEBB94"/>
<path d="M137.276 357.441C140.886 357.441 143.812 354.427 143.812 350.708C143.812 346.99 140.886 343.975 137.276 343.975C133.667 343.975 130.741 346.99 130.741 350.708C130.741 354.427 133.667 357.441 137.276 357.441Z" fill="#5661AE"/>
<path d="M226.257 114.52C229.867 114.52 232.793 111.506 232.793 107.787C232.793 104.069 229.867 101.055 226.257 101.055C222.648 101.055 219.722 104.069 219.722 107.787C219.722 111.506 222.648 114.52 226.257 114.52Z" fill="#5375D9"/>
<path d="M405.943 490.55H191.662C182.365 490.55 175.554 482.786 176.447 473.208L213.027 81.1882C213.92 71.6109 222.181 63.8469 231.477 63.8469H445.758C455.055 63.8469 461.867 71.6109 460.973 81.1882L424.393 473.208C423.5 482.786 415.239 490.55 405.943 490.55Z" fill="#5375D9"/>
<path d="M390.841 490.55H176.56C167.264 490.55 160.452 482.786 161.346 473.208L197.925 81.1882C198.819 71.6109 207.079 63.8469 216.376 63.8469H430.657C439.953 63.8469 446.765 71.6109 445.871 81.1882L409.292 473.208C408.398 482.786 400.138 490.55 390.841 490.55Z" fill="url(#paint0_linear_2003_858)"/>
<path d="M382.721 477.517H187.113C178.498 477.517 172.185 470.323 173.013 461.447L207.397 92.9497C208.226 84.0739 215.881 76.8793 224.496 76.8793H420.104C428.72 76.8793 435.033 84.0739 434.205 92.9497L399.82 461.447C398.992 470.323 391.337 477.517 382.721 477.517Z" fill="white"/>
<path d="M398.407 244.514L188.57 244.322C187.713 244.346 186.861 244.181 186.07 243.839C185.28 243.497 184.569 242.985 183.987 242.337C183.403 241.689 182.962 240.921 182.69 240.083C182.418 239.245 182.323 238.357 182.411 237.478L193.724 108.069C193.928 106.201 194.79 104.476 196.145 103.218C197.499 101.959 199.254 101.255 201.078 101.237L410.915 101.43C411.772 101.406 412.624 101.57 413.415 101.913C414.205 102.255 414.916 102.767 415.498 103.415C416.082 104.063 416.523 104.831 416.795 105.669C417.067 106.507 417.162 107.395 417.074 108.273L405.761 237.683C405.557 239.55 404.695 241.276 403.34 242.534C401.986 243.793 400.231 244.497 398.407 244.514Z" fill="url(#paint1_linear_2003_858)"/>
<path d="M391.8 383.954H303.11C302.456 383.968 301.806 383.836 301.206 383.569C300.605 383.301 300.068 382.904 299.629 382.404C299.19 381.904 298.861 381.313 298.663 380.67C298.465 380.028 298.404 379.349 298.482 378.68L309.251 263.269C309.407 261.838 310.061 260.515 311.094 259.544C312.127 258.574 313.466 258.024 314.863 257.995H403.554C404.208 257.982 404.857 258.113 405.458 258.381C406.058 258.648 406.596 259.046 407.035 259.546C407.474 260.046 407.803 260.637 408.001 261.279C408.198 261.922 408.26 262.601 408.181 263.269L397.412 378.68C397.257 380.111 396.602 381.435 395.569 382.405C394.537 383.375 393.198 383.926 391.8 383.954Z" fill="url(#paint2_linear_2003_858)"/>
<path d="M370.657 320.288C380.659 310.467 381.747 294.918 373.088 285.558C364.428 276.198 349.301 276.572 339.299 286.392C329.297 296.213 328.208 311.762 336.868 321.122C345.527 330.482 360.655 330.109 370.657 320.288Z" stroke="#EF6A77" stroke-width="11.6898" stroke-miterlimit="10"/>
<path d="M343.734 326.042C335.437 322.351 330.178 313.577 331.133 303.34C332.399 289.773 344.101 278.775 357.27 278.775" stroke="white" stroke-width="11.6898" stroke-miterlimit="10" stroke-linecap="round"/>
<path d="M341.765 347.158H360.012" stroke="white" stroke-width="5.98374" stroke-miterlimit="10" stroke-linecap="round"/>
<path d="M339.778 368.447H358.025" stroke="white" stroke-width="5.98374" stroke-miterlimit="10" stroke-linecap="round"/>
<path opacity="0.4" d="M331.052 357.682H368.761" stroke="white" stroke-width="5.98374" stroke-miterlimit="10" stroke-linecap="round"/>
<path d="M283.337 383.954H194.647C193.993 383.968 193.343 383.836 192.743 383.569C192.143 383.301 191.605 382.904 191.166 382.404C190.728 381.904 190.398 381.313 190.2 380.67C190.002 380.028 189.941 379.349 190.019 378.68L200.788 263.269C200.944 261.838 201.598 260.515 202.631 259.544C203.664 258.574 205.003 258.024 206.4 257.995H295.091C295.745 257.982 296.394 258.113 296.995 258.381C297.595 258.648 298.133 259.046 298.572 259.546C299.011 260.046 299.34 260.637 299.538 261.279C299.735 261.922 299.797 262.601 299.718 263.269L288.949 378.68C288.794 380.111 288.139 381.435 287.107 382.405C286.075 383.375 284.735 383.926 283.337 383.954Z" fill="#FEBB94"/>
<path d="M262.194 320.288C272.196 310.467 273.284 294.918 264.624 285.558C255.965 276.198 240.837 276.572 230.835 286.392C220.833 296.213 219.745 311.762 228.404 321.122C237.063 330.482 252.192 330.109 262.194 320.288Z" stroke="#EF6A77" stroke-width="11.6898" stroke-miterlimit="10"/>
<path d="M270.359 303.34C269.093 316.907 257.392 327.904 244.223 327.904C231.053 327.904 221.404 316.907 222.67 303.34C223.936 289.773 235.638 278.775 248.807 278.775" stroke="white" stroke-width="11.6898" stroke-miterlimit="10" stroke-linecap="round"/>
<path d="M233.302 347.158H251.549" stroke="white" stroke-width="5.98374" stroke-miterlimit="10" stroke-linecap="round"/>
<path d="M231.316 368.447H249.563" stroke="white" stroke-width="5.98374" stroke-miterlimit="10" stroke-linecap="round"/>
<path opacity="0.4" d="M222.589 357.682H260.298" stroke="white" stroke-width="5.98374" stroke-miterlimit="10" stroke-linecap="round"/>
<path d="M384.366 466.502H186.677C186.057 466.514 185.442 466.389 184.873 466.136C184.304 465.882 183.794 465.506 183.378 465.032C182.962 464.558 182.65 463.998 182.462 463.389C182.275 462.78 182.217 462.137 182.291 461.503L188.191 398.283C188.338 396.927 188.958 395.672 189.937 394.752C190.916 393.833 192.185 393.311 193.509 393.284H391.198C391.818 393.271 392.433 393.396 393.002 393.65C393.571 393.903 394.081 394.279 394.497 394.753C394.912 395.227 395.224 395.787 395.412 396.396C395.599 397.005 395.658 397.648 395.583 398.283L389.684 461.503C389.537 462.859 388.917 464.113 387.938 465.033C386.96 465.953 385.69 466.474 384.366 466.502Z" fill="url(#paint3_linear_2003_858)"/>
<path d="M200.444 451.843L203.232 421.956" stroke="white" stroke-width="11.6898" stroke-miterlimit="10" stroke-linecap="round"/>
<path d="M220.906 430.907L218.952 451.843" stroke="white" stroke-width="11.6898" stroke-miterlimit="10" stroke-linecap="round"/>
<path d="M238.747 438.057L237.461 451.843" stroke="white" stroke-width="11.6898" stroke-miterlimit="10" stroke-linecap="round"/>
<path d="M259.483 414.189L255.969 451.843" stroke="white" stroke-width="11.6898" stroke-miterlimit="10" stroke-linecap="round"/>
<path d="M275.764 438.057L274.478 451.843" stroke="white" stroke-width="11.6898" stroke-miterlimit="10" stroke-linecap="round"/>
<path d="M296.345 415.852L292.986 451.843" stroke="white" stroke-width="11.6898" stroke-miterlimit="10" stroke-linecap="round"/>
<path d="M312.889 436.899L311.495 451.843" stroke="white" stroke-width="11.6898" stroke-miterlimit="10" stroke-linecap="round"/>
<path d="M330.746 443.883L330.003 451.843" stroke="white" stroke-width="11.6898" stroke-miterlimit="10" stroke-linecap="round"/>
<path d="M351.3 421.956L348.512 451.843" stroke="white" stroke-width="11.6898" stroke-miterlimit="10" stroke-linecap="round"/>
<path d="M370.871 410.576L367.021 451.843" stroke="white" stroke-width="11.6898" stroke-miterlimit="10" stroke-linecap="round"/>
<path d="M205.567 224.67L216.677 242.599C217.178 243.409 217.349 244.389 217.152 245.327C216.954 246.266 216.406 247.086 215.624 247.609L213.829 248.811C210.823 250.823 207.21 251.642 203.662 251.117C200.114 250.591 196.872 248.757 194.539 245.953L179.795 228.241L205.567 224.67Z" fill="#FFCCB3"/>
<path d="M197.089 231.57C197.089 231.57 201.203 246.122 209.468 250.79C211.613 249.934 213.675 248.869 215.624 247.609L206.357 231.57" fill="#FCBA9F"/>
<path d="M7.01978 297.011L50.6592 275.467C54.771 273.437 58.2476 270.259 60.6943 266.295L102.852 197.976C105.476 193.723 109.283 190.381 113.776 188.387L174.495 161.438L161.496 262.712L161.267 266.452C161.267 266.452 145.207 309.303 105.845 324.87L42.9119 364.525L7.01978 297.011Z" fill="#FFCCB3"/>
<path d="M54.511 273.09C54.511 273.09 75.1542 326.171 105.845 324.87L86.2497 337.217C86.2497 337.217 19.7396 324.507 44.6361 278.335L54.511 273.09Z" fill="#FCBA9F"/>
<path d="M165.097 180.18C165.097 180.18 143.628 193.582 144.767 224.67L170.549 214.745L165.097 180.18Z" fill="#FCBA9F"/>
<path d="M219.027 224.67L230.137 242.599C230.639 243.409 230.809 244.389 230.612 245.327C230.416 246.266 229.866 247.086 229.085 247.609L227.289 248.811C224.283 250.823 220.671 251.642 217.123 251.117C213.575 250.591 210.333 248.757 207.999 245.953L193.256 228.241L219.027 224.67Z" fill="#FFCCB3"/>
<path d="M383.274 231.74L173.436 231.548C172.579 231.572 171.727 231.407 170.937 231.065C170.146 230.722 169.436 230.21 168.853 229.563C168.27 228.915 167.828 228.147 167.556 227.309C167.284 226.471 167.189 225.583 167.277 224.704L178.59 95.2945C178.795 93.4269 179.656 91.7015 181.011 90.4433C182.365 89.1852 184.12 88.4807 185.945 88.4629L395.781 88.6558C396.638 88.6315 397.491 88.7965 398.281 89.1387C399.071 89.481 399.782 89.9932 400.365 90.6405C400.948 91.2885 401.39 92.0573 401.661 92.8947C401.933 93.7327 402.028 94.6208 401.941 95.4989L390.628 224.909C390.423 226.776 389.562 228.502 388.207 229.76C386.852 231.018 385.098 231.723 383.274 231.74Z" fill="#5375D9"/>
<path d="M187.329 165.236C187.329 165.236 206.165 161.312 211.235 170.418C216.304 179.523 220.675 196.623 234.162 194.419C247.65 192.214 257.974 147.507 271.233 147.915C284.493 148.323 279.818 177.603 294.251 178.012C308.683 178.42 306.117 161.656 315.736 162.124C327.404 162.69 323.054 197.427 338.269 197.836C353.483 198.246 355.966 151.953 378.965 152.765" stroke="white" stroke-width="7.56507" stroke-miterlimit="10" stroke-linecap="round"/>
<path d="M198.043 110.137L234.961 110.17" stroke="white" stroke-width="11.9991" stroke-miterlimit="10" stroke-linecap="round"/>
<path opacity="0.4" d="M196.518 127.571L272.812 127.641" stroke="white" stroke-width="11.9991" stroke-miterlimit="10" stroke-linecap="round"/>
<path d="M125.086 231.099L152.004 218.884L179.531 199.525C186.771 194.435 201.89 192.142 207.332 199.219C212.869 206.418 206.65 220.658 199.935 226.699L174.495 249.585L161.266 266.452L125.086 231.099Z" fill="#FFCCB3"/>
<path d="M179.795 206.877C179.795 206.877 183.429 221.313 192.851 223.811L202.845 215.113C203.858 214.335 204.707 213.354 205.34 212.228C205.973 211.101 206.377 209.854 206.527 208.562C206.676 207.269 206.57 205.959 206.212 204.711C205.854 203.463 205.253 202.303 204.446 201.302C203.036 199.553 201.069 198.377 198.896 197.984C196.722 197.591 194.484 198.007 192.581 199.158L179.795 206.877Z" stroke="#FF967C" stroke-width="3" stroke-linecap="round"/>
<path d="M52.3174 273.682C52.3174 273.682 47.1008 312.116 92.4969 334.124C92.4969 334.124 59.8865 364.941 47.3137 370.123C34.7417 375.304 -12.4956 322.351 4.30545 292.295C9.01718 283.867 52.3174 273.682 52.3174 273.682Z" fill="#5375D9"/>
<path d="M224.324 233.217C224.324 233.217 206.63 233.589 200.471 236.91L196.025 231.569L223.303 231.57L224.324 233.217Z" fill="#FCBA9F"/>
<path d="M550.108 231.74H424.301C414.824 231.74 407.822 223.826 408.661 214.063L425.54 17.6771C426.38 7.91477 434.742 0 444.219 0H570.026C579.506 0 586.504 7.91477 585.665 17.6771L568.784 214.063C567.945 223.826 559.581 231.74 550.108 231.74Z" fill="#FEBB94"/>
<path d="M532.097 110.89C552.022 91.2564 554.026 60.1124 536.584 41.3286C519.141 22.5447 488.851 23.2335 468.929 42.8675C449.009 62.5016 447 93.6455 464.444 112.429C481.888 131.214 512.179 130.524 532.097 110.89Z" fill="white"/>
<path d="M503.18 78.4076L534.761 108.08C534.761 108.08 541.945 100.125 544.088 94.4393L503.18 78.4076Z" fill="url(#paint4_linear_2003_858)"/>
<path d="M505.283 21.4073L500.795 73.6178C500.695 74.5688 500.868 75.529 501.292 76.3807C501.715 77.2316 502.372 77.936 503.18 78.4076L546.03 102.984C546.03 102.984 571.475 29.8523 505.283 21.4073Z" fill="#5375D9"/>
<path d="M438.212 162.231H490.331" stroke="white" stroke-width="12" stroke-miterlimit="10" stroke-linecap="round"/>
<path d="M434.397 206.622H486.516" stroke="white" stroke-width="12" stroke-miterlimit="10" stroke-linecap="round"/>
<path opacity="0.4" d="M436.327 184.176H544.033" stroke="white" stroke-width="12" stroke-miterlimit="10" stroke-linecap="round"/>
<path d="M395.388 376.416C395.388 376.416 412.189 371.8 421.13 381.719C421.13 381.719 437.202 378.712 443.736 387.923C443.736 387.923 457.984 388.773 462.111 394.761C465.542 395.249 468.787 396.664 471.515 398.864C474.242 401.063 476.356 403.968 477.64 407.282C481.536 416.742 478.232 471.435 474.359 491.033C473.391 495.935 473.722 501.015 475.319 505.739L485.17 534.902L417.014 564.255L400.833 520.775C400.833 520.775 381.136 488.167 378.322 482.369C375.508 476.572 380.277 428.465 370.672 398.413L395.388 376.416Z" fill="#FFCCB3"/>
<path d="M409.624 544.397L407.657 539.113C407.657 539.113 443.023 536.784 475.32 505.739L478.408 514.884C478.408 514.884 474.419 533.774 456.258 542.677C438.095 551.581 409.624 544.397 409.624 544.397Z" fill="#FCBA9F"/>
<path d="M409.623 544.397C409.623 544.397 452.432 548.414 478.408 514.884C478.408 514.884 487.999 520.064 502.726 557.988C507.249 569.637 431.719 611.109 419.507 593.87C419.507 593.87 408.964 570.895 409.623 544.397Z" fill="#5661AE"/>
<path d="M374.861 416.554C374.861 416.554 373.384 424.625 366.403 424.626C361.848 424.626 342.104 418.481 328.926 414.208C325.34 413.046 321.494 413.046 317.909 414.208C314.323 415.371 311.17 417.64 308.878 420.708L308.077 421.779C307.679 422.31 307.39 422.919 307.227 423.569C307.064 424.218 307.032 424.895 307.13 425.558C307.228 426.221 307.457 426.857 307.801 427.426C308.145 427.997 308.597 428.488 309.131 428.872C320.288 436.896 350.415 458.674 354.268 462.643C359.01 467.528 385.416 494.915 385.416 494.915L374.861 416.554Z" fill="#FFCCB3"/>
<path d="M373.258 408.468C373.258 408.468 387.528 428.367 385.416 432.723C383.303 437.079 361.176 423.761 361.176 423.761C361.176 423.761 379.031 428.493 373.258 408.468Z" fill="#FCBA9F"/>
<path d="M370.672 398.413L346.659 323.289C345.835 320.712 345.522 317.991 345.738 315.286C345.955 312.583 346.696 309.951 347.918 307.548C349.14 305.145 350.818 303.018 352.852 301.296C354.887 299.573 357.237 298.289 359.762 297.519C361.829 296.89 364.048 297.06 366.001 297.999C367.955 298.937 369.508 300.579 370.367 302.615L404.055 382.391L370.672 398.413Z" fill="#FFCCB3"/>
<path d="M360.259 365.835C360.939 366.987 361.843 367.981 362.914 368.756C363.986 369.531 365.2 370.069 366.483 370.338" stroke="#FF967C" stroke-width="3" stroke-linecap="round"/>
<path d="M368.898 327.377C371.82 326.043 375.043 324.179 376.429 322.004L367.488 300.132C367.296 299.66 367.01 299.237 366.647 298.888C366.284 298.539 365.854 298.274 365.385 298.11C364.915 297.946 364.417 297.886 363.924 297.936C363.43 297.985 362.952 298.142 362.522 298.395C359.34 300.287 355.14 303.701 354.977 308.602L361.025 324.106C361.322 324.863 361.763 325.55 362.324 326.128C362.884 326.705 363.552 327.16 364.286 327.465C365.021 327.771 365.809 327.92 366.601 327.905C367.393 327.89 368.175 327.71 368.898 327.377Z" stroke="#FF967C" stroke-width="3" stroke-linecap="round"/>
<path d="M401.345 375.974L409.624 394.761" stroke="#FF967C" stroke-width="3" stroke-linecap="round"/>
<path d="M421.461 382.103C425.668 388.316 427.923 395.71 427.921 403.286" stroke="#FF967C" stroke-width="3" stroke-linecap="round"/>
<path d="M444.132 388.275C444.132 388.275 448.299 398.121 448.643 405.907" stroke="#FF967C" stroke-width="3" stroke-linecap="round"/>
<path d="M462.694 395.345C464.335 399.5 464.972 404.004 464.548 408.468" stroke="#FF967C" stroke-width="3" stroke-linecap="round"/>
<path d="M326.764 438.057C326.764 438.057 331.695 431.605 330.003 428.369C328.312 425.134 320.788 420.558 316.44 421.056C314.365 421.378 312.362 422.08 310.529 423.13C310.195 423.31 309.914 423.576 309.711 423.903C309.509 424.23 309.392 424.605 309.373 424.992C309.355 425.379 309.435 425.765 309.606 426.11C309.777 426.456 310.032 426.75 310.347 426.962L326.764 438.057Z" stroke="#FF967C" stroke-width="3" stroke-linecap="round"/>
<path d="M241.967 516.721H91.7417C91.1217 516.733 90.5065 516.609 89.9371 516.355C89.3678 516.101 88.858 515.725 88.4426 515.251C88.0265 514.778 87.7144 514.217 87.5272 513.608C87.3392 512.999 87.281 512.356 87.3559 511.722L93.2549 448.501C93.4019 447.145 94.0226 445.891 95.0012 444.971C95.9797 444.052 97.2489 443.53 98.5735 443.503H248.8C249.42 443.49 250.035 443.615 250.604 443.869C251.173 444.122 251.683 444.498 252.099 444.972C252.514 445.446 252.826 446.007 253.014 446.615C253.201 447.225 253.26 447.868 253.186 448.501L247.287 511.722C247.139 513.078 246.518 514.332 245.54 515.252C244.562 516.171 243.292 516.694 241.967 516.721Z" fill="#FEBB94"/>
<path d="M105.845 459.99H198.556" stroke="#EF6A77" stroke-width="11.6898" stroke-miterlimit="10" stroke-linecap="round"/>
<path d="M105.845 459.99H170.271" stroke="white" stroke-width="11.6898" stroke-miterlimit="10" stroke-linecap="round"/>
<path d="M104.458 480.112H197.169" stroke="#EF6A77" stroke-width="11.6898" stroke-miterlimit="10" stroke-linecap="round"/>
<path d="M104.458 480.112H142.976" stroke="white" stroke-width="11.6898" stroke-miterlimit="10" stroke-linecap="round"/>
<path d="M101.427 500.234H194.138" stroke="#EF6A77" stroke-width="11.6898" stroke-miterlimit="10" stroke-linecap="round"/>
<path d="M101.427 500.234H124.982" stroke="white" stroke-width="11.6898" stroke-miterlimit="10" stroke-linecap="round"/>
<path d="M231.374 465.696C234.434 465.696 236.914 463.141 236.914 459.99C236.914 456.838 234.434 454.283 231.374 454.283C228.315 454.283 225.835 456.838 225.835 459.99C225.835 463.141 228.315 465.696 231.374 465.696Z" fill="white"/>
<path d="M229.578 484.938C232.637 484.938 235.117 482.383 235.117 479.232C235.117 476.08 232.637 473.525 229.578 473.525C226.518 473.525 224.038 476.08 224.038 479.232C224.038 482.383 226.518 484.938 229.578 484.938Z" fill="white"/>
<path d="M227.573 505.941C230.632 505.941 233.113 503.386 233.113 500.234C233.113 497.082 230.632 494.527 227.573 494.527C224.513 494.527 222.033 497.082 222.033 500.234C222.033 503.386 224.513 505.941 227.573 505.941Z" fill="white"/>
</g>
<defs>
<linearGradient id="paint0_linear_2003_858" x1="270.652" y1="-71.9199" x2="479.077" y2="941.934" gradientUnits="userSpaceOnUse">
<stop stop-color="white"/>
<stop offset="1" stop-color="#94B9FF"/>
</linearGradient>
<linearGradient id="paint1_linear_2003_858" x1="293.899" y1="100.897" x2="314.15" y2="406.905" gradientUnits="userSpaceOnUse">
<stop stop-color="white"/>
<stop offset="1" stop-color="#94B9FF"/>
</linearGradient>
<linearGradient id="paint2_linear_2003_858" x1="350.599" y1="257.695" x2="383.704" y2="523.78" gradientUnits="userSpaceOnUse">
<stop stop-color="white"/>
<stop offset="1" stop-color="#94B9FF"/>
</linearGradient>
<linearGradient id="paint3_linear_2003_858" x1="283.626" y1="393.109" x2="289.461" y2="549.957" gradientUnits="userSpaceOnUse">
<stop stop-color="white"/>
<stop offset="1" stop-color="#94B9FF"/>
</linearGradient>
<linearGradient id="paint4_linear_2003_858" x1="522.614" y1="78.3369" x2="527.591" y2="141.598" gradientUnits="userSpaceOnUse">
<stop stop-color="white"/>
<stop offset="1" stop-color="#94B9FF"/>
</linearGradient>
</defs>
</svg>
